<svg id="Layer_1" data-name="Layer 1" xmlns="http://www.w3.org/2000/svg" width="125" height="26" viewBox="0 0 125 26"><rect x="23.68" y="10.31" width="62.91" height="5.27" style="fill:#ccc"/><path d="M2.52,18.92a3.89,3.89,0,0,0,5.5,0l8.24-8.24a2.66,2.66,0,0,0-.09-3.76,2.65,2.65,0,0,0-3.75-.09L4.17,15.08a1.55,1.55,0,1,0,2.2,2.19l8.06-8.06a.52.52,0,1,0-.72-.74h0L5.63,16.54a.52.52,0,1,1-.73-.73l8.25-8.25a1.62,1.62,0,0,1,2.29.09,1.61,1.61,0,0,1,.09,2.29L7.28,18.19a2.85,2.85,0,0,1-4-4l7.33-7.33a.51.51,0,0,0,0-.73.52.52,0,0,0-.73,0v0L2.52,13.43A3.87,3.87,0,0,0,2.52,18.92Z" style="fill:#999"/><path d="M111.13,18.88C107.75,14.8,104.47,15,101,15v2.73a.38.38,0,0,1-.14.38h0a.57.57,0,0,1-.38.14.61.61,0,0,1-.41-.17L93.49,13a.43.43,0,0,1-.16-.35.44.44,0,0,1,.16-.35l6.56-5.09a.63.63,0,0,1,.76,0,.41.41,0,0,1,.14.39v2.73C111.27,10.29,111.77,19.62,111.13,18.88Z" style="fill:#999"/><circle cx="119.8" cy="6.73" r="1.55" style="fill:#999"/><circle cx="119.8" cy="13" r="1.55" style="fill:#999"/><circle cx="119.8" cy="19.27" r="1.55" style="fill:#999"/></svg>