<?xml version="1.0" encoding="UTF-8"?>
<svg id="Layer_1" data-name="Layer 1" xmlns="http://www.w3.org/2000/svg" version="1.1" viewBox="0 0 200 26">
  <defs>
    <style>
      .cls-1 {
        fill: none;
        stroke: #999;
        stroke-linecap: round;
        stroke-linejoin: round;
      }

      .cls-2 {
        fill: #999;
      }

      .cls-2, .cls-3 {
        stroke-width: 0px;
      }

      .cls-3 {
        fill: #ccc;
      }
    </style>
  </defs>
  <circle class="cls-1" cx="19.3" cy="13" r="12.5"/>
  <rect class="cls-2" x="38.9" y="3.8" width="76" height="9.2"/>
  <rect class="cls-3" x="38.9" y="16.7" width="100.1" height="5.3"/>
  <rect class="cls-3" x="116.3" y="7.4" width="82" height="5.9"/>
  <g>
    <g>
      <path class="cls-1" d="M22.9,10c0,2.7-1.6,4.9-3.6,4.9s-3.6-2.2-3.6-4.9.4-4.9,3.6-4.9c3.1,0,3.6,2.1,3.6,4.9Z"/>
      <path class="cls-1" d="M20.5,20.4h-7.8c-.6,0-1.1-.5-1.1-1.1h0c.1-2.4,2.1-4.4,4.8-4.7,0,0,1.2-.1,2.1.2"/>
    </g>
    <path class="cls-1" d="M18.1,20.4h7.8c.6,0,1.1-.5,1.1-1.1h0c-.1-2.4-2.1-4.4-4.8-4.7,0,0-1.2-.1-2.1.2"/>
  </g>
</svg>