<svg id="Layer_1" data-name="Layer 1" xmlns="http://www.w3.org/2000/svg" xmlns:xlink="http://www.w3.org/1999/xlink" width="2.31" height="82.37" viewBox="0 0 2.31 82.37"><defs><linearGradient id="linear-gradient" x1="1.15" y1="193.18" x2="1.15" y2="168.19" gradientTransform="matrix(1, 0, 0, -1, 0, 220.45)" gradientUnits="userSpaceOnUse"><stop offset="0" stop-color="#999"/><stop offset="0.5" stop-color="#999"/><stop offset="1" stop-color="#999"/></linearGradient><linearGradient id="linear-gradient-2" x1="1.15" y1="220.25" x2="1.15" y2="205.56" xlink:href="#linear-gradient"/><linearGradient id="linear-gradient-3" x1="1.15" y1="163.97" x2="1.15" y2="139.08" xlink:href="#linear-gradient"/></defs><path d="M1.32,52.21h.9V27.27h-.9A1.25,1.25,0,0,0,.08,28.51h0V51A1.24,1.24,0,0,0,1.32,52.21Z" style="fill:url(#linear-gradient)"/><path d="M1.32,14.8h.9V.3h-.9A1.25,1.25,0,0,0,.08,1.54h0v12A1.24,1.24,0,0,0,1.3,14.8Z" style="fill:url(#linear-gradient-2)"/><path d="M1.32,81.42h.9V56.48h-.9A1.24,1.24,0,0,0,.08,57.71V80.18a1.24,1.24,0,0,0,1.24,1.24Z" style="fill:url(#linear-gradient-3)"/></svg>