<?xml version="1.0" encoding="UTF-8"?><svg id="Layer_1" xmlns="http://www.w3.org/2000/svg" width="100" height="100" viewBox="0 0 100 100"><circle cx="50" cy="50" r="49" style="fill:#ff3939;"/><path d="M32.92,36.09l-6.84-.09-.15,3.07v18.67c0,1.25,1,2.26,2.25,2.26h6.74c1.25,0,2.26-1.01,2.26-2.25v-8.35s0-10.48,0-10.48c0-2.74,1.87-5.12,4.53-5.77,5.26-1.29,12.18-2.96,15.47-3.88,0,0,3.23-.78,5.43-.1,4.31,1.31,4.11,6.56,4.11,6.56,3.74,2.38,2.36,7.97,2.36,7.97,3.43,1.97,2.37,8.1,2.37,8.1,4.58,3.11,1.8,8.23,1.8,8.23h0c-.73,1.77-2.65,2.28-5.16,2.28h-14.44s-.03,0-.04.02c-2.94,4.88,6.39,8.92,3.63,13.6-1.63,2.85-4.43,3.17-4.67,3.19l-.03-.02-9.84-14.13c-.91-1.31-1.4-2.87-1.39-4.47v-1.67M64.43,62.09" style="fill:none; stroke:#fff; stroke-linecap:round; stroke-linejoin:round; stroke-width:1.5px;"/></svg>