<?xml version="1.0" encoding="UTF-8"?><svg id="Layer_1" xmlns="http://www.w3.org/2000/svg" width="100" height="100" viewBox="0 0 100 100"><circle cx="50" cy="50" r="49" style="fill:#5ba529;"/><path d="M41.32,43.19v-1.67c-.02-1.6.47-3.16,1.38-4.47l9.84-14.13.03-.02c.24.02,3.04.34,4.67,3.19,2.76,4.67-6.56,8.71-3.63,13.6,0,.01.02.02.04.02h14.44c2.51,0,4.42.5,5.16,2.27h0s2.77,5.12-1.8,8.23c0,0,1.06,6.13-2.37,8.1,0,0,1.38,5.59-2.36,7.97,0,0,.19,5.24-4.11,6.56-2.2.67-5.43-.1-5.43-.1-3.29-.92-10.21-2.59-15.47-3.88-2.66-.65-4.53-3.03-4.53-5.77v-10.48s0-8.35,0-8.35c0-1.25-1.01-2.26-2.26-2.26h-6.74c-1.25,0-2.26,1.01-2.26,2.26v18.67s.16,3.07.16,3.07l6.84-.09M64.43,39.91" style="fill:none; stroke:#fff; stroke-linecap:round; stroke-linejoin:round; stroke-width:1.5px;"/></svg>