<?xml version="1.0" encoding="UTF-8"?><svg id="Layer_1" xmlns="http://www.w3.org/2000/svg" width="100" height="100" viewBox="0 0 100 100"><circle cx="50" cy="50" r="49" style="fill:#1f00ff;"/><path d="M27.2,64.33v6.82c0,.43.17.85.48,1.15.31.31.72.48,1.15.48h6.82c.5,0,.97-.2,1.33-.54l1.72-1.72c.39-.39.62-.93.62-1.49v-3.08h2.68c.66,0,1.29-.26,1.75-.73.46-.46.73-1.09.73-1.75h0v-2.68h3.09c.56,0,1.09-.22,1.49-.62h0s2.41-2.41,2.41-2.41c3.38,1.27,7.08,1.34,10.51.21,3.42-1.13,6.35-3.41,8.31-6.44,1.95-3.03,2.8-6.64,2.42-10.23-.39-3.59-1.99-6.93-4.55-9.48-2.55-2.55-5.89-4.15-9.47-4.54-3.58-.39-7.19.47-10.22,2.42-3.03,1.95-5.3,4.88-6.44,8.3-1.13,3.42-1.06,7.13.2,10.5l-14.45,14.44c-.36.37-.56.86-.57,1.37ZM55.23,39.82c0-1.31.52-2.57,1.45-3.5.93-.93,2.19-1.45,3.5-1.45s2.57.52,3.5,1.45c.93.93,1.45,2.19,1.45,3.5s-.52,2.57-1.45,3.5c-.93.93-2.19,1.45-3.5,1.45s-2.57-.52-3.5-1.45c-.93-.93-1.45-2.19-1.45-3.5Z" style="fill:none; stroke:#fff; stroke-linecap:round; stroke-linejoin:round; stroke-width:1.5px;"/></svg>