<?xml version="1.0" encoding="UTF-8"?><svg id="a" xmlns="http://www.w3.org/2000/svg" width="50" height="50" viewBox="0 0 50 50"><path d="m24.88,29.97c6.99,0,10.49-7.53,10.49-15.33,0-5.65-.81-8.88-3.23-11.03-2.15-1.88-3.93-2.47-7.53-2.42-4.84.07-10.76,2.15-10.76,11.56,0,4.6,1.49,8.55,3.18,11.49" fill="none" stroke="#999" stroke-linecap="round" stroke-linejoin="round"/><path d="m29.27,46.37H5.05c-1.82,0-3.3-1.48-3.3-3.3v-.43c.39-6.49,6.18-12.41,14.25-13.48l.46-.07c2-.3,3.96.23,5.95.61,1.23.24,1.12.26,2.46.26" fill="none" stroke="#999" stroke-linecap="round" stroke-linejoin="round"/><line x1="29.55" y1="46.37" x2="29.55" y2="46.37" fill="none" stroke="#9b9a9a" stroke-linecap="round" stroke-linejoin="round"/><circle cx="38.83" cy="39.39" r="9.42" fill="none" stroke="#999" stroke-linecap="round" stroke-linejoin="round"/><path d="m44.46,34.62h0c-.3.02-.58.16-.78.39l-6.63,7.7-3.11-3.21h0c-.21-.22-.5-.34-.8-.34-.3,0-.59.11-.8.33-.21.21-.33.49-.34.79,0,.3.11.59.32.8l3.97,4.1h0c.22.23.53.35.85.34.32,0,.62-.15.82-.39l7.44-8.65c.2-.23.29-.52.27-.82-.02-.3-.16-.58-.39-.77-.23-.19-.52-.29-.82-.27h0Z" fill="#5ba529" fill-rule="evenodd"/></svg>