<?xml version="1.0" encoding="UTF-8"?>
<svg id="a" xmlns="http://www.w3.org/2000/svg" width="32" height="32" viewBox="0 0 32 32">
  <path d="M29.87,28.86L16.65,2.46c-.13-.25-.39-.41-.67-.41h0c-.28,0-.54.16-.67.42L2.13,28.86c-.12.23-.1.51.03.73s.38.36.64.36h26.4c.26,0,.5-.13.64-.36.14-.22.15-.5.03-.73ZM4.01,28.45L15.98,4.48l12.01,23.97H4.01Z" style="stroke-width:0px; fill:#ffffff"/>
  <path d="M16.43,22.96c-.42-.18-.91-.08-1.23.24-.1.11-.18.23-.23.37-.06.14-.09.29-.09.43,0,.3.12.59.33.8.21.21.49.33.8.33.14,0,.28-.03.43-.09.13-.05.25-.13.37-.24.21-.21.33-.49.33-.8,0-.29-.12-.58-.33-.8-.12-.11-.24-.18-.36-.23Z" style="stroke-width:0px; fill:#ffffff"/>
  <path d="M14.89,12.52v.02s.42,8.96.42,8.96c0,.34.28.62.62.62s.62-.28.62-.61l.57-8.87v-.05c0-.62-.5-1.12-1.12-1.12s-1.08.46-1.11,1.04Z" style="stroke-width:0px; fill:#ffffff"/>
</svg>
