<?xml version="1.0" encoding="UTF-8"?><svg id="a" xmlns="http://www.w3.org/2000/svg" width="100" height="65" viewBox="0 0 100 65"><rect x="21.88" y="3.8" width="60.4" height="40.57" rx="1" ry="1" style="fill:#fff;"/><path d="M81.28,45.11H22.88c-.96,0-1.75-.79-1.75-1.75V4.79c0-.96.79-1.75,1.75-1.75h58.4c.96,0,1.75.79,1.75,1.75v38.57c0,.96-.79,1.75-1.75,1.75ZM22.88,4.54c-.14,0-.25.11-.25.25v38.57c0,.14.11.25.25.25h58.4c.14,0,.25-.11.25-.25V4.79c0-.14-.11-.25-.25-.25H22.88Z" style="fill:#999;"/><path d="M61.26,50h-18.38c-.41,0-.75-.34-.75-.75s.34-.75.75-.75h18.38c.41,0,.75.34.75.75s-.34.75-.75.75Z" style="fill:#999;"/><path d="M52.06,49.98c-.41,0-.75-.34-.75-.75v-3.87c0-.41.34-.75.75-.75s.75.34.75.75v3.87c0,.41-.34.75-.75.75Z" style="fill:#999;"/><path d="M74.26,26.29h16.2c1.04,0,1.88.84,1.88,1.88v31.16c0,1.04-.84,1.88-1.88,1.88h-15.32c-1.04,0-1.88-.84-1.88-1.88V27.29c0-.55.45-1,1-1Z" style="fill:#fff;"/><path d="M90.46,61.96h-15.32c-1.45,0-2.63-1.18-2.63-2.63V27.29c0-.96.79-1.75,1.75-1.75h16.2c1.45,0,2.63,1.18,2.63,2.63v31.16c0,1.45-1.18,2.63-2.63,2.63ZM74.26,27.04c-.14,0-.25.11-.25.25v32.04c0,.62.51,1.13,1.13,1.13h15.32c.62,0,1.13-.51,1.13-1.13v-31.16c0-.62-.51-1.13-1.13-1.13h-16.2Z" style="fill:#999;"/><path d="M8.66,23.33h25.93c1.04,0,1.88.84,1.88,1.88v30.53c0,1.04-.84,1.88-1.88,1.88H9.54c-1.04,0-1.88-.84-1.88-1.88v-31.41c0-.55.45-1,1-1Z" style="fill:#fff;"/><path d="M34.59,58.36H9.54c-1.45,0-2.63-1.18-2.63-2.63v-31.41c0-.96.79-1.75,1.75-1.75h25.93c1.45,0,2.63,1.18,2.63,2.63v30.53c0,1.45-1.18,2.63-2.63,2.63ZM8.66,24.08c-.14,0-.25.11-.25.25v31.41c0,.62.51,1.13,1.13,1.13h25.05c.62,0,1.13-.51,1.13-1.13v-30.53c0-.62-.51-1.13-1.13-1.13H8.66Z" style="fill:blue;"/><path d="M84.38,30.66h-3.17c-.41,0-.75-.34-.75-.75s.34-.75.75-.75h3.17c.41,0,.75.34.75.75s-.34.75-.75.75Z" style="fill:#999;"/><path d="M25.88,28.04h-7.62c-.41,0-.75-.34-.75-.75s.34-.75.75-.75h7.62c.41,0,.75.34.75.75s-.34.75-.75.75Z" style="fill:blue;"/></svg>