<?xml version="1.0" encoding="UTF-8"?>
<svg id="Layer_1" xmlns="http://www.w3.org/2000/svg" version="1.1" viewBox="0 0 735 230">
  <!-- Generator: Adobe Illustrator 29.6.1, SVG Export Plug-In . SVG Version: 2.1.1 Build 9)  -->
  <defs>
    <style>
      .st0, .st1 {
        fill: none;
      }

      .st1 {
        stroke: #666;
        stroke-linecap: round;
        stroke-linejoin: round;
      }

      .st2 {
        fill: blue;
        stroke: #c2cfe3;
        stroke-miterlimit: 10;
      }

      .st3 {
        fill: #fff;
      }

      .st4 {
        fill: #666;
      }

      .st5 {
        fill: #333;
      }
    </style>
  </defs>
  <polyline class="st1" points="75 122.3 75 38.5 129.4 38.5"/>
  <polygon class="st4" points="80 120.9 75 129.5 70 120.9 80 120.9"/>
  <polyline class="st1" points="214.1 122.3 214.1 99.5 261.5 99.5 261.5 74.1"/>
  <polygon class="st4" points="219.1 120.9 214.1 129.5 209.2 120.9 219.1 120.9"/>
  <polyline class="st1" points="515.1 122.3 515.1 99.5 467 99.5 467 74.1"/>
  <polygon class="st4" points="520.1 120.9 515.1 129.5 510.1 120.9 520.1 120.9"/>
  <line class="st1" x1="353.7" y1="122.3" x2="353.7" y2="74.1"/>
  <polygon class="st4" points="358.6 120.9 353.7 129.5 348.7 120.9 358.6 120.9"/>
  <polyline class="st1" points="663.9 122.3 663.9 38.5 617.6 38.5"/>
  <polygon class="st4" points="668.9 120.9 663.9 129.5 658.9 120.9 668.9 120.9"/>
  <rect class="st2" x="123.7" y="2.2" width="75" height="71.9"/>
  <path class="st3" d="M158.5,14.4h5.7l17.4,43.6h-6.6l-4.8-12.1h-17.9l-4.7,12.1h-6.6l17.6-43.6h0ZM153.9,40.9h14.3l-2.9-7.5c-.8-2-1.5-3.9-2.1-5.7-.6-1.8-1.3-3.7-1.9-5.7h-.1c-.6,1.9-1.3,3.8-2,5.6-.7,1.8-1.4,3.7-2.2,5.8l-3,7.5Z"/>
  <rect class="st2" x="218.6" y="2.2" width="75" height="71.9"/>
  <path class="st3" d="M253.4,14.4h5.7l17.4,43.6h-6.6l-4.8-12.1h-17.9l-4.7,12.1h-6.6l17.6-43.6h0ZM248.8,40.9h14.3l-2.9-7.5c-.8-2-1.5-3.9-2.1-5.7-.6-1.8-1.3-3.7-1.9-5.7h-.1c-.6,1.9-1.3,3.8-2,5.6-.7,1.8-1.4,3.7-2.2,5.8l-3,7.5h0Z"/>
  <rect class="st2" x="314" y="2.2" width="75" height="71.9"/>
  <path class="st3" d="M348.8,14.4h5.7l17.4,43.6h-6.6l-4.8-12.1h-17.9l-4.7,12.1h-6.6s17.6-43.6,17.6-43.6ZM344.2,40.9h14.3l-2.9-7.5c-.8-2-1.5-3.9-2.1-5.7-.6-1.8-1.3-3.7-1.9-5.7h-.1c-.6,1.9-1.3,3.8-2,5.6-.7,1.8-1.4,3.7-2.2,5.8l-3,7.5h0Z"/>
  <rect class="st2" x="409" y="2.2" width="107.2" height="71.9"/>
  <path class="st3" d="M457.1,14.4v4.3l-18.8,40.5-5.2-2.3,17.9-37.5h-21v-5.1h27.1Z"/>
  <path class="st3" d="M478.2,13.8c2.4,0,4.6.4,6.7,1.3,2.1.9,3.9,2.2,5.4,4,1.5,1.8,2.7,4.1,3.6,7,.9,2.8,1.3,6.2,1.3,10.2s-.5,7.4-1.4,10.2c-.9,2.8-2.2,5.2-3.7,7-1.6,1.8-3.4,3.1-5.4,4-2,.8-4.2,1.3-6.4,1.3s-4.7-.4-6.8-1.3c-2-.8-3.8-2.2-5.4-4s-2.7-4.1-3.6-7c-.9-2.8-1.3-6.2-1.3-10.2s.5-7.1,1.4-9.9,2.2-5.1,3.7-7,3.3-3.2,5.4-4.1c2-.9,4.2-1.4,6.5-1.4h0ZM467.6,36.2c0,3.6.3,6.6.9,8.9s1.4,4.1,2.4,5.4,2.1,2.2,3.4,2.7,2.6.7,4,.7,2.7-.3,4-.8c1.3-.5,2.4-1.5,3.4-2.8,1-1.4,1.7-3.2,2.3-5.4.6-2.3.9-5.1.9-8.6s-.3-6.5-.9-8.9c-.6-2.3-1.4-4.1-2.4-5.4-1-1.3-2.1-2.2-3.4-2.7s-2.6-.7-4-.7-2.7.3-4,.8c-1.3.5-2.4,1.5-3.4,2.8-1,1.4-1.7,3.2-2.3,5.4-.6,2.3-.9,5.1-.9,8.6Z"/>
  <rect class="st2" x="536.3" y="2.2" width="75" height="71.9"/>
  <path class="st3" d="M571.1,14.4h5.7l17.4,43.6h-6.6l-4.8-12.1h-17.9l-4.7,12.1h-6.6l17.6-43.6h0ZM566.6,40.9h14.3l-2.9-7.5c-.8-2-1.5-3.9-2.1-5.7-.7-1.8-1.3-3.7-1.9-5.7h-.1c-.7,1.9-1.3,3.8-2,5.6-.7,1.8-1.4,3.7-2.2,5.8l-3,7.5Z"/>
  <rect class="st0" x="8.2" y="138.3" width="137.3" height="39.8"/>
  <path class="st5" d="M16.7,139.7h3.4c.6,0,1.1,0,1.5.2s.8.4,1.2.6.6.6.8,1c.2.4.3.9.3,1.4s-.1,1.1-.3,1.5-.5.8-.8,1c-.4.3-.8.5-1.2.6-.5.1-1,.2-1.6.2h-1.6v4.1h-1.6v-10.7h0ZM18.3,145h1c.4,0,.8,0,1.2,0s.7-.2.9-.3c.2-.1.5-.4.6-.6.1-.3.2-.6.2-1s0-.7-.2-.9-.3-.5-.5-.6c-.2-.2-.5-.3-.8-.3-.3,0-.6-.1-.9-.1h-1.5v4h0Z"/>
  <path class="st5" d="M32.2,146.6h-5.7c0,1,.2,1.6.7,2.1s1.1.7,2,.7.8,0,1.1-.1c.3,0,.7-.2,1.1-.3l.3,1.1c-.3.1-.7.3-1.2.4-.5,0-.9.1-1.4.1s-1.1,0-1.6-.2-1-.4-1.3-.7c-.4-.3-.7-.8-.9-1.3s-.3-1.1-.3-1.9,0-1.2.3-1.7.5-.9.8-1.3.8-.6,1.2-.8,1-.3,1.6-.3,1,0,1.4.2c.4.2.8.4,1.1.7.3.3.5.7.7,1.1.2.4.2.9.2,1.4v.8h0ZM30.6,145.5c0-.3,0-.6-.1-.8s-.2-.5-.3-.7-.4-.4-.6-.5-.5-.2-.9-.2c-.6,0-1.1.2-1.5.6-.4.4-.6.9-.7,1.6h4.1s0,0,0,0Z"/>
  <path class="st5" d="M33.9,150.4v-8h1.1l.2,1.6c.2-.5.5-.9,1-1.2.4-.3,1-.5,1.5-.5s.5,0,.7,0,.4.1.5.2l-.3,1.3c-.1,0-.3-.1-.5-.2s-.4,0-.6,0c-.3,0-.6,0-.9.2s-.5.3-.7.5-.4.5-.5.8c-.1.3-.2.7-.2,1.1v4.1h-1.5,0Z"/>
  <path class="st5" d="M44.8,143.9c-.4-.2-.7-.3-1-.4-.3,0-.6-.1-.9-.1-.5,0-1,.1-1.2.3s-.4.5-.4.8,0,.4.3.6.6.4,1.1.5h.5c.8.4,1.3.7,1.7,1s.6.8.6,1.4-.3,1.3-.8,1.8-1.3.7-2.2.7-1,0-1.5-.1-.9-.2-1.2-.4l.4-1.2c.3.2.7.3,1.1.4s.8.1,1.2.1.9,0,1.2-.3c.3-.2.5-.5.5-.9s-.1-.6-.4-.8c-.3-.1-.6-.3-1.1-.4l-.5-.2c-.7-.2-1.3-.5-1.6-.9s-.5-.8-.5-1.4,0-.6.2-.9c.2-.3.3-.5.6-.7s.6-.3.9-.4.7-.2,1.2-.2.8,0,1.2.1.8.2,1.2.4l-.3,1.1h0Z"/>
  <path class="st5" d="M54.5,146.3c0,.7,0,1.3-.3,1.8-.2.5-.5,1-.8,1.3s-.8.6-1.2.8-1,.3-1.5.3-1.1,0-1.5-.3c-.5-.2-.9-.4-1.2-.8s-.6-.8-.8-1.3-.3-1.1-.3-1.7,0-1.3.3-1.8c.2-.5.5-1,.8-1.3s.8-.6,1.2-.8,1-.3,1.5-.3,1.1,0,1.5.2.9.4,1.2.8c.3.3.6.8.8,1.3s.3,1.1.3,1.7ZM53,146.4c0-.5,0-1-.2-1.4-.1-.4-.3-.7-.5-.9-.2-.2-.5-.4-.8-.5-.3-.1-.6-.2-.9-.2s-.6,0-.9.1-.5.2-.8.5-.4.5-.5.9-.2.9-.2,1.4,0,1,.2,1.4c.1.4.3.7.5.9.2.2.5.4.8.5.3.1.6.2.9.2s.6,0,.9-.1c.3-.1.5-.3.8-.5.2-.2.4-.5.5-.9s.2-.9.2-1.4h0Z"/>
  <path class="st5" d="M57.8,150.4h-1.5v-8h1.2l.2,1.1c.4-.4.8-.7,1.2-.9s.9-.3,1.5-.3c.8,0,1.5.2,1.9.7s.7,1.1.7,1.9v5.5h-1.5v-5.3c0-.5-.1-.9-.4-1.2s-.6-.4-1.2-.4c-.8,0-1.5.4-2.2,1.1v5.8h0Z"/>
  <path class="st5" d="M65.4,143.1c.3-.1.5-.3.8-.4.2-.1.5-.2.7-.3.2,0,.5-.1.7-.1s.5,0,.8,0c.4,0,.8,0,1.2.1s.7.3.9.5c.3.2.5.5.6.9s.2.8.2,1.4v5.2h-1.2l-.2-.9h0c-.3.4-.7.6-1.2.8-.4.2-.9.2-1.4.2s-.7,0-1.1-.2-.6-.3-.8-.5c-.2-.2-.4-.4-.6-.7-.1-.3-.2-.6-.2-.9,0-.8.3-1.5,1-1.9.7-.4,1.5-.6,2.6-.6h1.5v-.7c0-.6-.2-1-.4-1.2-.3-.2-.7-.3-1.2-.3s-.6,0-1,.1c-.4.1-.8.3-1.3.6l-.6-1.1h0ZM70,146.7h-1.3c-.8,0-1.4.2-1.8.5s-.5.6-.5,1,0,.4.1.6.2.3.3.4c.1,0,.3.2.5.2s.4,0,.6,0c.4,0,.8,0,1.1-.3s.7-.5,1-.8v-1.6h0Z"/>
  <path class="st5" d="M77.5,143.1c.3-.1.5-.3.8-.4.2-.1.5-.2.7-.3.2,0,.5-.1.7-.1s.5,0,.8,0c.4,0,.8,0,1.2.1s.7.3.9.5c.3.2.5.5.6.9s.2.8.2,1.4v5.2h-1.2l-.2-.9h0c-.3.4-.7.6-1.2.8-.4.2-.9.2-1.4.2s-.7,0-1.1-.2-.6-.3-.8-.5c-.2-.2-.4-.4-.6-.7-.1-.3-.2-.6-.2-.9,0-.8.3-1.5,1-1.9.7-.4,1.5-.6,2.6-.6h1.5v-.7c0-.6-.2-1-.4-1.2-.3-.2-.7-.3-1.2-.3s-.6,0-1,.1c-.4.1-.8.3-1.3.6l-.6-1.1h0ZM82.1,146.7h-1.3c-.8,0-1.4.2-1.8.5s-.5.6-.5,1,0,.4.1.6.2.3.3.4c.1,0,.3.2.5.2s.4,0,.6,0c.4,0,.8,0,1.1-.3s.7-.5,1-.8v-1.6h0Z"/>
  <path class="st5" d="M87.2,150.4h-1.5v-8h1.2l.2,1.1c.4-.4.8-.7,1.2-.9s.9-.3,1.5-.3c.8,0,1.5.2,1.9.7s.7,1.1.7,1.9v5.5h-1.5v-5.3c0-.5-.1-.9-.4-1.2s-.6-.4-1.2-.4c-.8,0-1.5.4-2.2,1.1v5.8h0Z"/>
  <path class="st5" d="M100.1,138.3h1.5v12.1h-1.3l-.2-.9h0c-.3.4-.7.6-1.1.8-.4.2-.8.2-1.3.2s-.8,0-1.2-.2-.8-.4-1.1-.8c-.3-.3-.6-.8-.8-1.3-.2-.5-.3-1.1-.3-1.8s0-1.2.2-1.7c.2-.5.4-.9.7-1.3s.7-.6,1.1-.8.9-.3,1.5-.3.8,0,1.2.2c.4.1.7.3,1,.6v-4.7h0ZM100.1,144.3c-.5-.6-1.2-.9-1.9-.9s-.6,0-.9.2-.5.3-.8.5c-.2.2-.4.5-.5.9-.1.4-.2.8-.2,1.3s0,1,.2,1.4c.1.4.3.7.5.9.2.2.4.4.7.5.3.1.5.2.8.2.8,0,1.5-.4,2.1-1.1v-4h0Z"/>
  <path class="st5" d="M111.9,143.5h-2.3v4.6c0,.4,0,.7.3.8.2.1.5.2.8.2s.5,0,.8,0,.5-.1.7-.2l.2,1.1c-.2,0-.5.2-.9.2-.3,0-.7.1-1.1.1-.8,0-1.4-.2-1.7-.5s-.5-.9-.5-1.5v-4.9h-1.2v-1.1h1.2v-2.6h1.5v2.6h2.3v1.1h0Z"/>
  <path class="st5" d="M113.1,142.4h1.6l1.7,4.6.6,1.9h0l.6-1.9,1.6-4.6h1.5l-3.1,8.7c-.3,1-.8,1.7-1.3,2.3s-1.1.9-1.8,1.2l-.7-1.2c.5-.2,1-.5,1.4-.9.4-.4.7-.9,1-1.6l.2-.5-3.2-8h0Z"/>
  <path class="st5" d="M125.2,150.6c-.4,0-.7,0-1.1-.1-.3-.1-.6-.2-.9-.4v4.3h-1.5v-12h1.2l.2,1c.3-.3.7-.5,1-.7s.8-.3,1.4-.3c1.1,0,1.9.3,2.5,1,.6.7.9,1.6.9,2.9s-.1,1.4-.3,1.9c-.2.5-.5,1-.9,1.3-.4.4-.8.6-1.3.8s-.9.2-1.4.2h0ZM125.4,143.5c-.5,0-.9.1-1.2.4-.3.2-.6.5-.8.7v4.3c.3.2.5.3.8.4s.6.1.9.1.6,0,.9-.2.6-.3.8-.5.4-.6.6-1,.2-.9.2-1.5c0-.9-.2-1.5-.5-2-.4-.5-.9-.7-1.7-.7h0Z"/>
  <path class="st5" d="M137.7,146.6h-5.7c0,1,.2,1.6.7,2.1s1.1.7,2,.7.8,0,1.1-.1c.3,0,.7-.2,1.1-.3l.3,1.1c-.3.1-.7.3-1.2.4-.4,0-.9.1-1.4.1s-1.1,0-1.6-.2-.9-.4-1.3-.7c-.4-.3-.7-.8-.9-1.3s-.3-1.1-.3-1.9,0-1.2.3-1.7.4-.9.8-1.3.8-.6,1.2-.8,1-.3,1.6-.3,1,0,1.4.2c.4.2.8.4,1.1.7.3.3.5.7.7,1.1.2.4.2.9.2,1.4v.8h0ZM136.2,145.5c0-.3,0-.6-.1-.8s-.2-.5-.3-.7-.4-.4-.6-.5c-.2-.1-.5-.2-.9-.2-.6,0-1.1.2-1.5.6-.4.4-.6.9-.7,1.6h4.1Z"/>
  <path class="st5" d="M41.5,168.3c0,.7,0,1.3-.3,1.8-.2.5-.5,1-.8,1.3s-.8.6-1.2.8-1,.3-1.5.3-1.1,0-1.5-.3c-.5-.2-.9-.4-1.2-.8s-.6-.8-.8-1.3-.3-1.1-.3-1.7,0-1.3.3-1.8c.2-.5.5-1,.8-1.3s.8-.6,1.2-.8,1-.3,1.5-.3,1.1,0,1.5.2.9.4,1.2.8c.3.3.6.8.8,1.3s.3,1.1.3,1.7ZM39.9,168.4c0-.5,0-1-.2-1.4-.1-.4-.3-.7-.5-.9-.2-.2-.5-.4-.8-.5-.3-.1-.6-.2-.9-.2s-.6,0-.9.1-.5.2-.8.5-.4.5-.5.9-.2.9-.2,1.4,0,1,.2,1.4c.1.4.3.7.5.9.2.2.5.4.8.5.3.1.6.2.9.2s.6,0,.9-.1c.3-.1.5-.3.8-.5.2-.2.4-.5.5-.9s.2-.9.2-1.4h0Z"/>
  <path class="st5" d="M46.3,160.2c.3,0,.7,0,1,.1.3,0,.7.2.9.3l-.3,1c-.2,0-.4-.2-.7-.2-.2,0-.4,0-.7,0-.5,0-.9.1-1.2.5-.2.3-.3.8-.3,1.6v.9h2.4v1.1h-2.4v6.9h-1.5v-6.9h-1.2v-1.1h1.2v-1.4c0-.9.2-1.6.7-2s1.1-.7,2-.7h0Z"/>
  <path class="st5" d="M53.7,162.4c-.3,0-.5,0-.7-.3-.2-.2-.3-.4-.3-.6s0-.5.3-.7.4-.3.7-.3.5,0,.7.3c.2.2.3.4.3.7s0,.5-.3.6c-.2.2-.4.3-.7.3ZM53,172.4v-8h1.5v8h-1.5Z"/>
  <path class="st5" d="M58.4,172.4h-1.5v-8h1.2l.2,1.1c.4-.4.8-.7,1.2-.9s.9-.3,1.5-.3c.8,0,1.5.2,1.9.7s.7,1.1.7,1.9v5.5h-1.5v-5.3c0-.5-.1-.9-.4-1.2s-.6-.4-1.2-.4c-.8,0-1.5.4-2.2,1.1v5.8h0Z"/>
  <path class="st5" d="M71.3,160.3h1.5v12.1h-1.3l-.2-.9h0c-.3.4-.7.6-1.1.8-.4.2-.8.2-1.3.2s-.8,0-1.2-.2-.8-.4-1.1-.8c-.3-.3-.6-.8-.8-1.3-.2-.5-.3-1.1-.3-1.8s0-1.2.2-1.7c.2-.5.4-.9.7-1.3s.7-.6,1.1-.8.9-.3,1.5-.3.8,0,1.2.2c.4.1.7.3,1,.6v-4.7h0ZM71.3,166.3c-.5-.6-1.2-.9-1.9-.9s-.6,0-.9.2-.5.3-.8.5c-.2.2-.4.5-.5.9-.1.4-.2.8-.2,1.3s0,1,.2,1.4c.1.4.3.7.5.9.2.2.4.4.7.5.3.1.5.2.8.2.8,0,1.5-.4,2.1-1.1v-4h0Z"/>
  <path class="st5" d="M76.1,162.4c-.3,0-.5,0-.7-.3-.2-.2-.3-.4-.3-.6s0-.5.3-.7.4-.3.7-.3.5,0,.7.3c.2.2.3.4.3.7s0,.5-.3.6c-.2.2-.4.3-.7.3ZM75.3,172.4v-8h1.5v8h-1.5Z"/>
  <path class="st5" d="M84.2,164.4h1.6l-3,8h-1.5l-3-8h1.6l1.8,5.5.3,1.3h0l.3-1.2s1.8-5.5,1.8-5.5Z"/>
  <path class="st5" d="M88.1,162.4c-.3,0-.5,0-.7-.3-.2-.2-.3-.4-.3-.6s0-.5.3-.7.4-.3.7-.3.5,0,.7.3c.2.2.3.4.3.7s0,.5-.3.6c-.2.2-.4.3-.7.3ZM87.4,172.4v-8h1.5v8h-1.5Z"/>
  <path class="st5" d="M96.6,160.3h1.5v12.1h-1.3l-.2-.9h0c-.3.4-.7.6-1.1.8-.4.2-.8.2-1.3.2s-.8,0-1.2-.2-.8-.4-1.1-.8c-.3-.3-.6-.8-.8-1.3-.2-.5-.3-1.1-.3-1.8s0-1.2.2-1.7c.2-.5.4-.9.7-1.3s.7-.6,1.1-.8.9-.3,1.5-.3.8,0,1.2.2c.4.1.7.3,1,.6v-4.7h0ZM96.6,166.3c-.5-.6-1.2-.9-1.9-.9s-.6,0-.9.2-.5.3-.8.5c-.2.2-.4.5-.5.9-.1.4-.2.8-.2,1.3s0,1,.2,1.4c.1.4.3.7.5.9.2.2.4.4.7.5.3.1.5.2.8.2.8,0,1.5-.4,2.1-1.1v-4h0Z"/>
  <path class="st5" d="M105.8,164.4h1.5v8h-1.2l-.2-1h0c-.3.3-.7.6-1.1.8-.4.2-.9.3-1.5.3-.8,0-1.5-.2-2-.7-.5-.5-.8-1.2-.8-2.1v-5.3h1.5v5.1c0,.3,0,.6.1.9,0,.2.2.4.3.6.1.1.3.2.5.3.2,0,.4,0,.6,0,.4,0,.9-.1,1.2-.3.4-.2.7-.5,1-.8v-5.9h0Z"/>
  <path class="st5" d="M109.7,165.1c.3-.1.5-.3.8-.4.2-.1.5-.2.7-.3.2,0,.5-.1.7-.1s.5,0,.8,0c.4,0,.8,0,1.2.1s.7.3.9.5c.3.2.5.5.6.9s.2.8.2,1.4v5.2h-1.2l-.2-.9h0c-.3.4-.7.6-1.2.8-.4.2-.9.2-1.4.2s-.7,0-1.1-.2-.6-.3-.8-.5c-.2-.2-.4-.4-.6-.7-.1-.3-.2-.6-.2-.9,0-.8.3-1.5,1-1.9.7-.4,1.5-.6,2.6-.6h1.5v-.7c0-.6-.2-1-.4-1.2-.3-.2-.7-.3-1.2-.3s-.6,0-1,.1c-.4.1-.8.3-1.3.6l-.6-1.1h0ZM114.2,168.7h-1.3c-.8,0-1.4.2-1.8.5s-.5.6-.5,1,0,.4.1.6.2.3.3.4c.1,0,.3.2.5.2s.4,0,.6,0c.4,0,.8,0,1.1-.3s.7-.5,1-.8v-1.6h0Z"/>
  <path class="st5" d="M118,172.4v-12.1h1.5v12.1h-1.5Z"/>
  <rect class="st0" x="165.9" y="138.3" width="95.6" height="68.4"/>
  <path class="st5" d="M182.9,139.7h3.4c.6,0,1.1,0,1.5.2s.8.4,1.2.6.6.6.8,1c.2.4.3.9.3,1.4s-.1,1.1-.3,1.5c-.2.4-.5.8-.8,1-.4.3-.8.5-1.2.6-.5.1-1,.2-1.6.2h-1.6v4.1h-1.6v-10.7h0ZM184.5,145h1c.4,0,.8,0,1.2,0s.7-.2.9-.3c.2-.1.5-.4.6-.6.1-.3.2-.6.2-1s0-.7-.2-.9-.3-.5-.6-.6c-.2-.2-.5-.3-.8-.3-.3,0-.6-.1-.9-.1h-1.4v4h0Z"/>
  <path class="st5" d="M197,142.4h1.5v8h-1.2l-.2-1h0c-.3.3-.7.6-1.1.8s-.9.3-1.5.3c-.8,0-1.5-.2-2-.7-.5-.5-.8-1.2-.8-2.1v-5.3h1.5v5.1c0,.3,0,.6.1.9,0,.2.2.4.3.6.1.1.3.2.5.3.2,0,.4,0,.6,0,.4,0,.9-.1,1.2-.3.4-.2.7-.5,1-.8v-5.9h0Z"/>
  <path class="st5" d="M200.8,150.4v-8h1.1l.2,1.6c.2-.5.5-.9.9-1.2s.9-.5,1.5-.5.5,0,.7,0,.4.1.5.2l-.3,1.3c-.1,0-.3-.1-.4-.2s-.4,0-.6,0c-.3,0-.6,0-.9.2s-.5.3-.7.5c-.2.2-.4.5-.5.8-.1.3-.2.7-.2,1.1v4.1h-1.5,0Z"/>
  <path class="st5" d="M210.4,149.4c.4,0,.7,0,.9-.1s.5-.2.8-.3l.3,1.1c-.6.3-1.3.5-2.2.5s-1.1,0-1.6-.2-.9-.4-1.3-.8-.7-.8-.9-1.3-.3-1.1-.3-1.8.1-1.2.3-1.7c.2-.5.5-.9.9-1.3s.8-.6,1.3-.8,1.1-.3,1.7-.3.7,0,1,0c.3,0,.7.2,1.1.4l-.3,1.1c-.5-.3-1.1-.4-1.7-.4s-1.5.3-2,.8-.8,1.2-.8,2.2,0,1.1.2,1.4c.2.4.4.7.6.9.3.2.6.4.9.5.3.1.7.1,1,.1h0Z"/>
  <path class="st5" d="M215.6,150.4h-1.5v-12.1h1.5v5.1c.4-.3.8-.6,1.2-.8.4-.2.9-.3,1.5-.3s.8,0,1.2.2c.3.1.6.3.8.5.2.2.4.5.5.8.1.3.2.7.2,1v5.5h-1.5v-5.1c0-.6-.1-1.1-.4-1.3-.2-.3-.6-.4-1.1-.4s-.8.1-1.2.3c-.4.2-.8.5-1.2.8v5.8h0Z"/>
  <path class="st5" d="M223.4,143.1c.3-.1.5-.3.8-.4.2-.1.5-.2.7-.3.2,0,.5-.1.7-.1s.5,0,.8,0c.4,0,.9,0,1.2.1s.7.3.9.5c.3.2.5.5.6.9s.2.8.2,1.4v5.2h-1.2l-.2-.9h0c-.4.4-.7.6-1.2.8s-.9.2-1.4.2-.7,0-1.1-.2c-.3-.1-.6-.3-.8-.5-.2-.2-.4-.4-.6-.7s-.2-.6-.2-.9c0-.8.3-1.5,1-1.9.7-.4,1.5-.6,2.6-.6h1.5v-.7c0-.6-.1-1-.4-1.2-.3-.2-.7-.3-1.2-.3s-.6,0-1,.1c-.4.1-.8.3-1.3.6l-.6-1.1h0ZM227.9,146.7h-1.3c-.9,0-1.4.2-1.8.5s-.5.6-.5,1,0,.4.1.6.2.3.3.4c.1,0,.3.2.5.2.2,0,.4,0,.6,0,.4,0,.8,0,1.1-.3s.7-.5,1-.8v-1.6h0Z"/>
  <path class="st5" d="M236.1,143.9c-.4-.2-.7-.3-1-.4-.3,0-.6-.1-.9-.1-.5,0-.9.1-1.2.3s-.4.5-.4.8,0,.4.3.6c.2.2.6.4,1.1.5h.5c.8.4,1.3.7,1.7,1s.6.8.6,1.4-.3,1.3-.8,1.8-1.3.7-2.2.7-1,0-1.5-.1-.9-.2-1.2-.4l.4-1.2c.3.2.7.3,1.1.4s.8.1,1.2.1.9,0,1.2-.3c.3-.2.4-.5.4-.9s-.1-.6-.4-.8c-.3-.1-.6-.3-1.1-.4l-.5-.2c-.7-.2-1.3-.5-1.6-.9s-.5-.8-.5-1.4,0-.6.2-.9c.1-.3.4-.5.6-.7s.6-.3.9-.4.7-.2,1.2-.2.8,0,1.2.1.8.2,1.2.4l-.3,1.1h0Z"/>
  <path class="st5" d="M245.2,146.6h-5.7c0,1,.2,1.6.7,2.1s1.1.7,2,.7.8,0,1.1-.1c.3,0,.7-.2,1.1-.3l.3,1.1c-.3.1-.7.3-1.2.4-.4,0-.9.1-1.4.1s-1.1,0-1.6-.2-.9-.4-1.3-.7c-.4-.3-.7-.8-.9-1.3s-.3-1.1-.3-1.9,0-1.2.3-1.7.4-.9.8-1.3.8-.6,1.2-.8,1-.3,1.6-.3,1,0,1.4.2c.4.2.8.4,1.1.7.3.3.5.7.7,1.1.2.4.2.9.2,1.4v.8h0ZM243.7,145.5c0-.3,0-.6-.1-.8s-.2-.5-.3-.7-.4-.4-.6-.5c-.2-.1-.5-.2-.9-.2-.6,0-1.1.2-1.5.6-.4.4-.6.9-.7,1.6h4.1Z"/>
  <path class="st5" d="M176.3,172.6c-.4,0-.7,0-1.1-.1-.3-.1-.6-.2-.9-.4v4.3h-1.5v-12h1.2l.2,1c.3-.3.6-.5,1-.7s.8-.3,1.4-.3c1.1,0,1.9.3,2.5,1,.6.7.9,1.6.9,2.9s-.1,1.4-.3,1.9c-.2.5-.5,1-.9,1.3-.4.4-.8.6-1.3.8s-.9.2-1.4.2h0ZM176.4,165.5c-.5,0-.9.1-1.2.4-.4.2-.6.5-.8.7v4.3c.3.2.5.3.8.4.3,0,.6.1.9.1s.6,0,.9-.2.6-.3.8-.5.4-.6.6-1c.1-.4.2-.9.2-1.5,0-.9-.2-1.5-.5-2-.4-.5-.9-.7-1.7-.7h0Z"/>
  <path class="st5" d="M182.1,165.1c.3-.1.5-.3.8-.4.2-.1.5-.2.7-.3.2,0,.5-.1.7-.1s.5,0,.8,0c.4,0,.9,0,1.2.1s.7.3.9.5c.3.2.5.5.6.9s.2.8.2,1.4v5.2h-1.2l-.2-.9h0c-.4.4-.7.6-1.2.8s-.9.2-1.4.2-.7,0-1.1-.2c-.3-.1-.6-.3-.8-.5-.2-.2-.4-.4-.6-.7s-.2-.6-.2-.9c0-.8.3-1.5,1-1.9.7-.4,1.5-.6,2.6-.6h1.5v-.7c0-.6-.1-1-.4-1.2-.3-.2-.7-.3-1.2-.3s-.6,0-1,.1c-.4.1-.8.3-1.3.6l-.6-1.1h0ZM186.6,168.7h-1.3c-.9,0-1.4.2-1.8.5s-.5.6-.5,1,0,.4.1.6.2.3.3.4c.1,0,.3.2.5.2.2,0,.4,0,.6,0,.4,0,.8,0,1.1-.3s.7-.5,1-.8v-1.6h0Z"/>
  <path class="st5" d="M194.6,165.5h-2.4v4.6c0,.4.1.7.3.8s.5.2.8.2.5,0,.8,0,.5-.1.7-.2l.2,1.1c-.2,0-.5.2-.9.2-.4,0-.7.1-1.1.1-.8,0-1.4-.2-1.7-.5s-.5-.9-.5-1.5v-4.9h-1.2v-1.1h1.2v-2.6h1.5v2.6h2.4v1.1h0Z"/>
  <path class="st5" d="M200.6,165.5h-2.4v4.6c0,.4.1.7.3.8s.5.2.8.2.5,0,.8,0,.5-.1.7-.2l.2,1.1c-.2,0-.5.2-.9.2-.4,0-.7.1-1.1.1-.8,0-1.4-.2-1.7-.5s-.5-.9-.5-1.5v-4.9h-1.2v-1.1h1.2v-2.6h1.5v2.6h2.4v1.1h0Z"/>
  <path class="st5" d="M209.4,168.6h-5.7c0,1,.2,1.6.7,2.1s1.1.7,2,.7.8,0,1.1-.1c.3,0,.7-.2,1.1-.3l.3,1.1c-.3.1-.7.3-1.2.4-.4,0-.9.1-1.4.1s-1.1,0-1.6-.2-.9-.4-1.3-.7c-.4-.3-.7-.8-.9-1.3s-.3-1.1-.3-1.9,0-1.2.3-1.7.4-.9.8-1.3.8-.6,1.2-.8,1-.3,1.6-.3,1,0,1.4.2c.4.2.8.4,1.1.7.3.3.5.7.7,1.1.2.4.2.9.2,1.4v.8h0ZM207.9,167.5c0-.3,0-.6-.1-.8s-.2-.5-.3-.7-.4-.4-.6-.5c-.2-.1-.5-.2-.9-.2-.6,0-1.1.2-1.5.6-.4.4-.6.9-.7,1.6h4.1Z"/>
  <path class="st5" d="M211.1,172.4v-8h1.1l.2,1.6c.2-.5.5-.9.9-1.2s.9-.5,1.5-.5.5,0,.7,0,.4.1.5.2l-.3,1.3c-.1,0-.3-.1-.4-.2s-.4,0-.6,0c-.3,0-.6,0-.9.2s-.5.3-.7.5c-.2.2-.4.5-.5.8-.1.3-.2.7-.2,1.1v4.1h-1.5,0Z"/>
  <path class="st5" d="M218.9,172.4h-1.5v-8h1.2l.2,1.1c.4-.4.8-.7,1.2-.9s.9-.3,1.5-.3c.8,0,1.5.2,1.9.7.5.5.7,1.1.7,1.9v5.5h-1.5v-5.3c0-.5-.1-.9-.4-1.2s-.6-.4-1.2-.4c-.8,0-1.5.4-2.2,1.1v5.8h0Z"/>
  <path class="st5" d="M230.4,165.1c.3-.1.5-.3.8-.4.2-.1.5-.2.7-.3.2,0,.5-.1.7-.1s.5,0,.8,0c.4,0,.9,0,1.2.1s.7.3.9.5c.3.2.5.5.6.9s.2.8.2,1.4v5.2h-1.2l-.2-.9h0c-.4.4-.7.6-1.2.8s-.9.2-1.4.2-.7,0-1.1-.2c-.3-.1-.6-.3-.8-.5-.2-.2-.4-.4-.6-.7s-.2-.6-.2-.9c0-.8.3-1.5,1-1.9.7-.4,1.5-.6,2.6-.6h1.5v-.7c0-.6-.1-1-.4-1.2-.3-.2-.7-.3-1.2-.3s-.6,0-1,.1c-.4.1-.8.3-1.3.6l-.6-1.1h0ZM234.9,168.7h-1.3c-.9,0-1.4.2-1.8.5s-.5.6-.5,1,0,.4.1.6.2.3.3.4c.1,0,.3.2.5.2.2,0,.4,0,.6,0,.4,0,.8,0,1.1-.3s.7-.5,1-.8v-1.6h0Z"/>
  <path class="st5" d="M240.1,172.4h-1.5v-8h1.2l.2,1.1c.4-.4.8-.7,1.2-.9s.9-.3,1.5-.3c.8,0,1.5.2,1.9.7.5.5.7,1.1.7,1.9v5.5h-1.5v-5.3c0-.5-.1-.9-.4-1.2s-.6-.4-1.2-.4c-.8,0-1.5.4-2.2,1.1v5.8h0Z"/>
  <path class="st5" d="M253,160.3h1.5v12.1h-1.3l-.2-.9h0c-.4.4-.7.6-1.1.8-.4.2-.8.2-1.4.2s-.9,0-1.2-.2-.8-.4-1.1-.8c-.3-.3-.6-.8-.8-1.3-.2-.5-.3-1.1-.3-1.8s0-1.2.2-1.7c.2-.5.4-.9.7-1.3.3-.4.7-.6,1.1-.8s.9-.3,1.5-.3.8,0,1.2.2c.4.1.7.3,1,.6v-4.7h0ZM253,166.3c-.5-.6-1.2-.9-1.9-.9s-.6,0-.9.2-.5.3-.8.5c-.2.2-.4.5-.5.9-.1.4-.2.8-.2,1.3s0,1,.2,1.4c.1.4.3.7.5.9.2.2.4.4.7.5.3.1.5.2.8.2.9,0,1.5-.4,2.1-1.1v-4h0Z"/>
  <path class="st5" d="M191.4,194.4h-1.5v-12.1h1.5v5.1c.4-.3.8-.6,1.2-.8.4-.2.9-.3,1.5-.3s.8,0,1.2.2c.3.1.6.3.8.5.2.2.4.5.5.8.1.3.2.7.2,1v5.5h-1.5v-5.1c0-.6-.1-1.1-.4-1.3-.2-.3-.6-.4-1.1-.4s-.8.1-1.2.3c-.4.2-.8.5-1.2.8v5.8h0Z"/>
  <path class="st5" d="M200,184.4c-.3,0-.5,0-.7-.3-.2-.2-.3-.4-.3-.6s0-.5.3-.7.4-.3.7-.3.5,0,.7.3c.2.2.3.4.3.7s-.1.5-.3.6c-.2.2-.4.3-.7.3ZM199.3,194.4v-8h1.5v8h-1.5Z"/>
  <path class="st5" d="M207.7,187.9c-.4-.2-.7-.3-1-.4-.3,0-.6-.1-.9-.1-.5,0-.9.1-1.2.3s-.4.5-.4.8,0,.4.3.6c.2.2.6.4,1.1.5h.5c.8.4,1.3.7,1.7,1s.6.8.6,1.4-.3,1.3-.8,1.8-1.3.7-2.2.7-1,0-1.5-.1-.9-.2-1.2-.4l.4-1.2c.3.2.7.3,1.1.4s.8.1,1.2.1.9,0,1.2-.3c.3-.2.4-.5.4-.9s-.1-.6-.4-.8c-.3-.1-.6-.3-1.1-.4l-.5-.2c-.7-.2-1.3-.5-1.6-.9s-.5-.8-.5-1.4,0-.6.2-.9c.1-.3.4-.5.6-.7s.6-.3.9-.4.7-.2,1.2-.2.8,0,1.2.1.8.2,1.2.4l-.3,1.1h0Z"/>
  <path class="st5" d="M214.3,187.5h-2.4v4.6c0,.4.1.7.3.8s.5.2.8.2.5,0,.8,0,.5-.1.7-.2l.2,1.1c-.2,0-.5.2-.9.2-.4,0-.7.1-1.1.1-.8,0-1.4-.2-1.7-.5s-.5-.9-.5-1.5v-4.9h-1.2v-1.1h1.2v-2.6h1.5v2.6h2.4v1.1h0Z"/>
  <path class="st5" d="M223.6,190.3c0,.7-.1,1.3-.3,1.8-.2.5-.5,1-.8,1.3s-.8.6-1.2.8-1,.3-1.6.3-1.1,0-1.5-.3c-.5-.2-.9-.4-1.2-.8s-.6-.8-.8-1.3-.3-1.1-.3-1.7.1-1.3.3-1.8c.2-.5.5-1,.8-1.3s.8-.6,1.2-.8,1-.3,1.6-.3,1.1,0,1.5.2.9.4,1.2.8c.4.3.6.8.8,1.3s.3,1.1.3,1.7ZM222,190.4c0-.5,0-1-.2-1.4-.1-.4-.3-.7-.5-.9-.2-.2-.5-.4-.8-.5-.3-.1-.6-.2-.9-.2s-.6,0-.9.1-.5.2-.8.5-.4.5-.5.9-.2.9-.2,1.4,0,1,.2,1.4c.1.4.3.7.5.9.2.2.5.4.8.5.3.1.6.2.9.2s.6,0,.9-.1c.3-.1.5-.3.8-.5.2-.2.4-.5.5-.9s.2-.9.2-1.4h0Z"/>
  <path class="st5" d="M225.4,194.4v-8h1.1l.2,1.6c.2-.5.5-.9.9-1.2s.9-.5,1.5-.5.5,0,.7,0,.4.1.5.2l-.3,1.3c-.1,0-.3-.1-.4-.2s-.4,0-.6,0c-.3,0-.6,0-.9.2s-.5.3-.7.5c-.2.2-.4.5-.5.8-.1.3-.2.7-.2,1.1v4.1h-1.5,0Z"/>
  <path class="st5" d="M231.1,186.4h1.6l1.7,4.6.6,1.9h0l.6-1.9,1.6-4.6h1.5l-3.1,8.7c-.3,1-.8,1.7-1.3,2.3s-1.1.9-1.8,1.2l-.6-1.2c.5-.2,1-.5,1.4-.9.4-.4.7-.9,1-1.6v-.5c.1,0-3.1-8-3.1-8h0Z"/>
  <rect class="st0" x="431.2" y="138.3" width="164.5" height="97.9"/>
  <path class="st5" d="M462.8,149.3c.6,0,1,0,1.4-.1.4,0,.7-.2,1.1-.4l.4,1.3c-.4.2-.8.3-1.3.4-.5,0-1,.1-1.7.1s-1.4-.1-2-.4-1.2-.6-1.6-1.1-.8-1-1.1-1.7-.4-1.5-.4-2.4.1-1.6.4-2.3.6-1.3,1.1-1.7,1-.8,1.6-1.1,1.3-.4,2.1-.4,1.3,0,1.7.2.9.3,1.3.5l-.4,1.2c-.2,0-.4-.2-.6-.2s-.4-.1-.6-.2c-.2,0-.4,0-.6-.1-.2,0-.4,0-.7,0-.5,0-1,0-1.4.2s-.8.4-1.2.7c-.3.3-.6.8-.8,1.3-.2.5-.3,1.2-.3,1.9s.1,1.4.3,2,.5,1,.8,1.3c.3.3.7.6,1.1.7s.9.2,1.4.2h0Z"/>
  <path class="st5" d="M474.7,146.3c0,.7-.1,1.3-.3,1.8-.2.5-.5,1-.8,1.3s-.8.6-1.2.8-1,.3-1.5.3-1.1,0-1.5-.3c-.5-.2-.9-.4-1.2-.8s-.6-.8-.8-1.3-.3-1.1-.3-1.7.1-1.3.3-1.8c.2-.5.5-1,.8-1.3s.8-.6,1.2-.8,1-.3,1.5-.3,1.1,0,1.5.2.9.4,1.2.8c.4.3.6.8.8,1.3s.3,1.1.3,1.7ZM473.2,146.4c0-.5,0-1-.2-1.4-.1-.4-.3-.7-.5-.9-.2-.2-.5-.4-.8-.5-.3-.1-.6-.2-.9-.2s-.6,0-.9.1-.5.2-.8.5-.4.5-.5.9c-.1.4-.2.9-.2,1.4s0,1,.2,1.4c.1.4.3.7.5.9.2.2.5.4.8.5.3.1.6.2.9.2s.6,0,.9-.1c.3-.1.5-.3.8-.5.2-.2.4-.5.5-.9.1-.4.2-.9.2-1.4h0Z"/>
  <path class="st5" d="M478.1,150.4h-1.5v-8h1.2l.2,1.1c.4-.4.8-.7,1.2-.9s1-.3,1.5-.3,1,.1,1.4.4c.4.2.6.6.8,1,.4-.4.8-.7,1.3-1s1-.3,1.6-.3,1.4.2,1.8.7.6,1.1.6,1.9v5.5h-1.5v-5.2c0-.5-.1-.9-.3-1.2s-.6-.4-1.1-.4c-.8,0-1.5.4-2.2,1,0,0,0,.1,0,.2v5.7h-1.5v-5.2c0-.5-.1-.9-.3-1.2s-.6-.4-1.1-.4c-.8,0-1.5.4-2.1,1.1v5.8h0Z"/>
  <path class="st5" d="M492.1,150.4h-1.5v-8h1.2l.2,1.1c.4-.4.8-.7,1.2-.9s1-.3,1.5-.3,1,.1,1.4.4c.4.2.6.6.8,1,.4-.4.8-.7,1.3-1s1-.3,1.6-.3,1.4.2,1.8.7.6,1.1.6,1.9v5.5h-1.5v-5.2c0-.5-.1-.9-.3-1.2s-.6-.4-1.1-.4c-.8,0-1.5.4-2.2,1,0,0,0,.1,0,.2v5.7h-1.5v-5.2c0-.5-.1-.9-.3-1.2s-.6-.4-1.1-.4c-.8,0-1.5.4-2.1,1.1v5.8h0Z"/>
  <path class="st5" d="M509.9,142.4h1.5v8h-1.2l-.2-1h0c-.3.3-.7.6-1.1.8s-.9.3-1.5.3c-.8,0-1.5-.2-2-.7-.5-.5-.8-1.2-.8-2.1v-5.3h1.5v5.1c0,.3,0,.6.1.9,0,.2.2.4.3.6.1.1.3.2.5.3.2,0,.4,0,.6,0,.5,0,.9-.1,1.2-.3.4-.2.7-.5,1-.8v-5.9h0Z"/>
  <path class="st5" d="M515.2,150.4h-1.5v-8h1.2l.2,1.1c.4-.4.8-.7,1.2-.9s.9-.3,1.5-.3c.8,0,1.5.2,1.9.7.5.5.7,1.1.7,1.9v5.5h-1.5v-5.3c0-.5-.1-.9-.4-1.2s-.6-.4-1.2-.4c-.8,0-1.5.4-2.2,1.1v5.8h0Z"/>
  <path class="st5" d="M523.8,140.4c-.3,0-.5,0-.7-.3-.2-.2-.3-.4-.3-.6s0-.5.3-.7.4-.3.7-.3.5,0,.7.3c.2.2.3.4.3.7s0,.5-.3.6c-.2.2-.4.3-.7.3ZM523,150.4v-8h1.5v8h-1.5Z"/>
  <path class="st5" d="M530.8,149.4c.4,0,.7,0,1-.1s.5-.2.8-.3l.3,1.1c-.6.3-1.3.5-2.2.5s-1.1,0-1.6-.2-1-.4-1.3-.8-.7-.8-.9-1.3-.3-1.1-.3-1.8,0-1.2.3-1.7c.2-.5.5-.9.8-1.3s.8-.6,1.3-.8,1.1-.3,1.7-.3.7,0,1,0c.3,0,.7.2,1.2.4l-.3,1.1c-.5-.3-1.1-.4-1.7-.4s-1.5.3-2,.8-.8,1.2-.8,2.2,0,1.1.2,1.4c.2.4.4.7.6.9.3.2.6.4.9.5.3.1.7.1,1,.1h0Z"/>
  <path class="st5" d="M534.5,143.1c.3-.1.5-.3.8-.4.2-.1.5-.2.7-.3.2,0,.5-.1.7-.1s.5,0,.8,0c.4,0,.8,0,1.2.1s.7.3,1,.5c.3.2.5.5.6.9s.2.8.2,1.4v5.2h-1.2l-.2-.9h0c-.3.4-.7.6-1.2.8s-.9.2-1.4.2-.7,0-1.1-.2-.6-.3-.8-.5c-.2-.2-.4-.4-.5-.7s-.2-.6-.2-.9c0-.8.3-1.5,1-1.9.7-.4,1.5-.6,2.6-.6h1.5v-.7c0-.6-.2-1-.4-1.2-.3-.2-.7-.3-1.2-.3s-.6,0-1,.1c-.4.1-.8.3-1.3.6l-.6-1.1h0ZM539,146.7h-1.3c-.8,0-1.5.2-1.8.5s-.5.6-.5,1,0,.4.1.6.2.3.3.4c.1,0,.3.2.5.2s.4,0,.5,0c.4,0,.8,0,1.1-.3s.7-.5,1-.8v-1.6h0Z"/>
  <path class="st5" d="M547,143.5h-2.3v4.6c0,.4,0,.7.3.8s.5.2.8.2.5,0,.8,0,.5-.1.7-.2l.2,1.1c-.2,0-.5.2-.9.2s-.7.1-1.1.1c-.8,0-1.4-.2-1.7-.5s-.5-.9-.5-1.5v-4.9h-1.2v-1.1h1.2v-2.6h1.5v2.6h2.3v1.1h0Z"/>
  <path class="st5" d="M550,140.4c-.3,0-.5,0-.7-.3-.2-.2-.3-.4-.3-.6s0-.5.3-.7.4-.3.7-.3.5,0,.7.3c.2.2.3.4.3.7s0,.5-.3.6c-.2.2-.4.3-.7.3ZM549.2,150.4v-8h1.5v8h-1.5Z"/>
  <path class="st5" d="M560.5,146.3c0,.7,0,1.3-.3,1.8-.2.5-.5,1-.8,1.3-.4.4-.8.6-1.2.8s-1,.3-1.5.3-1.1,0-1.5-.3c-.5-.2-.9-.4-1.2-.8s-.6-.8-.8-1.3-.3-1.1-.3-1.7,0-1.3.3-1.8c.2-.5.5-1,.8-1.3.4-.4.8-.6,1.2-.8s1-.3,1.5-.3,1.1,0,1.5.2.9.4,1.2.8c.3.3.6.8.8,1.3s.3,1.1.3,1.7ZM559,146.4c0-.5,0-1-.2-1.4-.1-.4-.3-.7-.5-.9-.2-.2-.5-.4-.8-.5-.3-.1-.6-.2-.9-.2s-.6,0-.9.1-.5.2-.8.5-.4.5-.5.9-.2.9-.2,1.4,0,1,.2,1.4c.1.4.3.7.5.9.2.2.5.4.8.5.3.1.6.2.9.2s.6,0,.9-.1c.3-.1.5-.3.8-.5.2-.2.4-.5.5-.9s.2-.9.2-1.4h0Z"/>
  <path class="st5" d="M563.8,150.4h-1.5v-8h1.2l.2,1.1c.4-.4.8-.7,1.2-.9s.9-.3,1.5-.3c.8,0,1.5.2,1.9.7.5.5.7,1.1.7,1.9v5.5h-1.5v-5.3c0-.5-.1-.9-.4-1.2s-.6-.4-1.2-.4c-.8,0-1.5.4-2.2,1.1v5.8h0Z"/>
  <path class="st5" d="M448,172.4v-8h1.1l.2,1.6c.2-.5.5-.9,1-1.2s1-.5,1.5-.5.5,0,.7,0,.4.1.5.2l-.3,1.3c-.1,0-.3-.1-.5-.2s-.4,0-.6,0c-.3,0-.6,0-.9.2s-.5.3-.7.5c-.2.2-.4.5-.5.8s-.2.7-.2,1.1v4.1h-1.5,0Z"/>
  <path class="st5" d="M460.8,168.6h-5.7c0,1,.2,1.6.7,2.1s1.1.7,2,.7.8,0,1.1-.1c.3,0,.7-.2,1.1-.3l.3,1.1c-.3.1-.7.3-1.2.4-.5,0-.9.1-1.4.1s-1.1,0-1.6-.2-1-.4-1.3-.7c-.4-.3-.7-.8-.9-1.3s-.3-1.1-.3-1.9,0-1.2.3-1.7.5-.9.8-1.3.8-.6,1.2-.8,1-.3,1.6-.3,1,0,1.4.2c.4.2.8.4,1.1.7.3.3.5.7.7,1.1.2.4.2.9.2,1.4v.8h0ZM459.2,167.5c0-.3,0-.6-.1-.8,0-.2-.2-.5-.3-.7s-.4-.4-.6-.5-.5-.2-.9-.2c-.6,0-1.1.2-1.5.6-.4.4-.6.9-.7,1.6h4.1s0,0,0,0Z"/>
  <path class="st5" d="M467.1,165.9c-.4-.2-.7-.3-1-.4-.3,0-.6-.1-.9-.1-.5,0-1,.1-1.2.3s-.4.5-.4.8,0,.4.3.6.6.4,1.1.5h.5c.8.4,1.3.7,1.7,1s.6.8.6,1.4-.3,1.3-.8,1.8-1.3.7-2.2.7-1,0-1.5-.1-.9-.2-1.2-.4l.4-1.2c.3.2.7.3,1.1.4s.8.1,1.2.1.9,0,1.2-.3c.3-.2.5-.5.5-.9s-.1-.6-.4-.8c-.3-.1-.6-.3-1.1-.4l-.5-.2c-.7-.2-1.3-.5-1.6-.9s-.5-.8-.5-1.4,0-.6.2-.9c.1-.3.4-.5.6-.7s.6-.3.9-.4.7-.2,1.2-.2.8,0,1.2.1.8.2,1.2.4l-.3,1.1h0Z"/>
  <path class="st5" d="M472.8,172.6c-.4,0-.7,0-1-.1-.3-.1-.6-.2-.9-.4v4.3h-1.5v-12h1.2l.2,1c.3-.3.6-.5,1-.7s.8-.3,1.4-.3c1.1,0,1.9.3,2.5,1,.6.7.9,1.6.9,2.9s-.1,1.4-.3,1.9c-.2.5-.5,1-.9,1.3-.4.4-.8.6-1.3.8s-1,.2-1.4.2h0ZM473,165.5c-.5,0-.9.1-1.2.4-.4.2-.6.5-.8.7v4.3c.3.2.5.3.8.4.3,0,.6.1.9.1s.6,0,.9-.2c.3-.1.6-.3.8-.5.2-.2.4-.6.6-1s.2-.9.2-1.5c0-.9-.2-1.5-.5-2-.4-.5-.9-.7-1.7-.7h0Z"/>
  <path class="st5" d="M485.8,168.3c0,.7-.1,1.3-.3,1.8-.2.5-.5,1-.8,1.3s-.8.6-1.2.8-1,.3-1.5.3-1.1,0-1.5-.3c-.5-.2-.9-.4-1.2-.8s-.6-.8-.8-1.3-.3-1.1-.3-1.7.1-1.3.3-1.8c.2-.5.5-1,.8-1.3s.8-.6,1.2-.8,1-.3,1.5-.3,1.1,0,1.5.2.9.4,1.2.8c.4.3.6.8.8,1.3s.3,1.1.3,1.7ZM484.3,168.4c0-.5,0-1-.2-1.4-.1-.4-.3-.7-.5-.9-.2-.2-.5-.4-.8-.5-.3-.1-.6-.2-.9-.2s-.6,0-.9.1-.5.2-.8.5-.4.5-.5.9c-.1.4-.2.9-.2,1.4s0,1,.2,1.4c.1.4.3.7.5.9.2.2.5.4.8.5.3.1.6.2.9.2s.6,0,.9-.1c.3-.1.5-.3.8-.5.2-.2.4-.5.5-.9.1-.4.2-.9.2-1.4h0Z"/>
  <path class="st5" d="M489.2,172.4h-1.5v-8h1.2l.2,1.1c.4-.4.8-.7,1.2-.9s.9-.3,1.5-.3c.8,0,1.5.2,1.9.7.5.5.7,1.1.7,1.9v5.5h-1.5v-5.3c0-.5-.1-.9-.4-1.2s-.6-.4-1.2-.4c-.8,0-1.5.4-2.2,1.1v5.8h0Z"/>
  <path class="st5" d="M501.2,165.9c-.4-.2-.7-.3-1-.4-.3,0-.6-.1-.9-.1-.5,0-1,.1-1.2.3s-.4.5-.4.8,0,.4.3.6.6.4,1.1.5h.5c.8.4,1.3.7,1.7,1s.6.8.6,1.4-.3,1.3-.8,1.8-1.3.7-2.2.7-1,0-1.5-.1-.9-.2-1.2-.4l.4-1.2c.3.2.7.3,1.1.4s.8.1,1.2.1.9,0,1.2-.3c.3-.2.5-.5.5-.9s-.1-.6-.4-.8c-.3-.1-.6-.3-1.1-.4l-.5-.2c-.7-.2-1.3-.5-1.6-.9s-.5-.8-.5-1.4,0-.6.2-.9c.1-.3.4-.5.6-.7s.6-.3.9-.4.7-.2,1.2-.2.8,0,1.2.1.8.2,1.2.4l-.3,1.1h0Z"/>
  <path class="st5" d="M510.4,168.6h-5.7c0,1,.2,1.6.7,2.1s1.1.7,2,.7.8,0,1.1-.1c.3,0,.7-.2,1.1-.3l.3,1.1c-.3.1-.7.3-1.2.4-.5,0-.9.1-1.4.1s-1.1,0-1.6-.2-1-.4-1.3-.7c-.4-.3-.7-.8-.9-1.3s-.3-1.1-.3-1.9,0-1.2.3-1.7.5-.9.8-1.3.8-.6,1.2-.8,1-.3,1.6-.3,1,0,1.4.2c.4.2.8.4,1.1.7.3.3.5.7.7,1.1.2.4.2.9.2,1.4v.8h0ZM508.8,167.5c0-.3,0-.6-.1-.8,0-.2-.2-.5-.3-.7s-.4-.4-.6-.5-.5-.2-.9-.2c-.6,0-1.1.2-1.5.6-.4.4-.6.9-.7,1.6h4.1s0,0,0,0Z"/>
  <path class="st5" d="M516.9,162.4c-.3,0-.5,0-.7-.3-.2-.2-.3-.4-.3-.6s0-.5.3-.7.4-.3.7-.3.5,0,.7.3c.2.2.3.4.3.7s0,.5-.3.6c-.2.2-.4.3-.7.3ZM516.2,172.4v-8h1.5v8h-1.5Z"/>
  <path class="st5" d="M521.6,172.4h-1.5v-8h1.2l.2,1.1c.4-.4.8-.7,1.2-.9s.9-.3,1.5-.3c.8,0,1.5.2,1.9.7.5.5.7,1.1.7,1.9v5.5h-1.5v-5.3c0-.5-.1-.9-.4-1.2s-.6-.4-1.2-.4c-.8,0-1.5.4-2.2,1.1v5.8h0Z"/>
  <path class="st5" d="M533,171.4c.4,0,.7,0,1-.1s.5-.2.8-.3l.3,1.1c-.6.3-1.3.5-2.2.5s-1.1,0-1.6-.2-1-.4-1.3-.8-.7-.8-.9-1.3-.3-1.1-.3-1.8,0-1.2.3-1.7c.2-.5.5-.9.8-1.3s.8-.6,1.3-.8,1.1-.3,1.7-.3.7,0,1,0c.3,0,.7.2,1.2.4l-.3,1.1c-.5-.3-1.1-.4-1.7-.4s-1.5.3-2,.8-.8,1.2-.8,2.2,0,1.1.2,1.4c.2.4.4.7.6.9.3.2.6.4.9.5.3.1.7.1,1,.1h0Z"/>
  <path class="st5" d="M536.8,172.4v-12.1h1.5v12.1h-1.5Z"/>
  <path class="st5" d="M546,164.4h1.5v8h-1.2l-.2-1h0c-.3.3-.7.6-1.1.8s-.9.3-1.5.3c-.8,0-1.5-.2-2-.7-.5-.5-.8-1.2-.8-2.1v-5.3h1.5v5.1c0,.3,0,.6.1.9,0,.2.2.4.3.6.1.1.3.2.5.3.2,0,.4,0,.6,0,.5,0,.9-.1,1.2-.3.4-.2.7-.5,1-.8v-5.9h0Z"/>
  <path class="st5" d="M555.1,160.3h1.5v12.1h-1.3l-.2-.9h0c-.3.4-.7.6-1.1.8-.4.2-.8.2-1.3.2s-.8,0-1.2-.2-.8-.4-1.1-.8c-.3-.3-.6-.8-.8-1.3-.2-.5-.3-1.1-.3-1.8s0-1.2.2-1.7c.2-.5.4-.9.7-1.3s.7-.6,1.1-.8,1-.3,1.5-.3.8,0,1.2.2c.4.1.7.3,1,.6v-4.7h0ZM555.1,166.3c-.5-.6-1.2-.9-1.9-.9s-.6,0-.9.2c-.3.1-.5.3-.8.5-.2.2-.4.5-.5.9-.1.4-.2.8-.2,1.3s0,1,.2,1.4c.1.4.3.7.5.9.2.2.5.4.7.5.3.1.5.2.8.2.8,0,1.5-.4,2.1-1.1v-4h0Z"/>
  <path class="st5" d="M559.9,162.4c-.3,0-.5,0-.7-.3-.2-.2-.3-.4-.3-.6s0-.5.3-.7.4-.3.7-.3.5,0,.7.3c.2.2.3.4.3.7s0,.5-.3.6c-.2.2-.4.3-.7.3ZM559.1,172.4v-8h1.5v8h-1.5Z"/>
  <path class="st5" d="M564.5,172.4h-1.5v-8h1.2l.2,1.1c.4-.4.8-.7,1.2-.9s.9-.3,1.5-.3c.8,0,1.5.2,1.9.7.5.5.7,1.1.7,1.9v5.5h-1.5v-5.3c0-.5-.1-.9-.4-1.2s-.6-.4-1.2-.4c-.8,0-1.5.4-2.2,1.1v5.8h0Z"/>
  <path class="st5" d="M571.9,167.1c0-.4,0-.8.2-1.2s.4-.6.7-.9.6-.4,1-.5.8-.2,1.3-.2.3,0,.5,0,.3,0,.5,0h3.5v1.1h-.5l-1.4-.2c.2.2.4.5.5.8s.2.6.2.9,0,.8-.2,1.2c-.2.4-.4.6-.7.9-.3.2-.6.4-1,.5s-.8.2-1.3.2-.7,0-.9,0c-.3,0-.4.2-.5.4s-.2.3-.2.4c0,.3,0,.4.3.5.2,0,.4.1.7.1h2.1c.9,0,1.6.2,2,.6.5.4.7.9.7,1.6s0,.8-.3,1.2-.5.6-.8.9c-.4.2-.8.4-1.3.6s-1.1.2-1.7.2c-1.2,0-2.1-.2-2.8-.6-.7-.4-1-1-1-1.8s.1-.8.4-1.1.6-.5,1-.6c-.2-.2-.4-.3-.5-.5s-.2-.4-.2-.7,0-.6.3-.9.5-.4.9-.6c-.5-.2-.8-.5-1.1-.9s-.4-.9-.4-1.5h0ZM573.8,172.4c-.6.3-.9.7-.9,1.2,0,1,.8,1.5,2.4,1.5s.9,0,1.2-.1.6-.2.8-.4.3-.3.5-.5.1-.4.1-.6c0-.5-.2-.8-.5-.9-.3-.1-.7-.2-1.2-.2h-2.5,0ZM576.9,167.1c0-.6-.2-1-.5-1.3-.3-.3-.7-.4-1.2-.4s-.9.1-1.2.4c-.3.3-.5.7-.5,1.3s.2,1,.5,1.3.7.4,1.2.4.9-.1,1.2-.4.5-.7.5-1.2h0Z"/>
  <path class="st5" d="M444.6,194.4v-8h1.1l.2,1.6c.2-.5.5-.9,1-1.2s1-.5,1.5-.5.5,0,.7,0,.4.1.5.2l-.3,1.3c-.1,0-.3-.1-.5-.2s-.4,0-.6,0c-.3,0-.6,0-.9.2s-.5.3-.7.5c-.2.2-.4.5-.5.8s-.2.7-.2,1.1v4.1h-1.5,0Z"/>
  <path class="st5" d="M457.4,190.6h-5.7c0,1,.2,1.6.7,2.1s1.1.7,2,.7.8,0,1.1-.1c.3,0,.7-.2,1.1-.3l.3,1.1c-.3.1-.7.3-1.2.4-.5,0-.9.1-1.4.1s-1.1,0-1.6-.2-1-.4-1.3-.7c-.4-.3-.7-.8-.9-1.3s-.3-1.1-.3-1.9,0-1.2.3-1.7.5-.9.8-1.3.8-.6,1.2-.8,1-.3,1.6-.3,1,0,1.4.2c.4.2.8.4,1.1.7.3.3.5.7.7,1.1.2.4.2.9.2,1.4v.8h0ZM455.8,189.5c0-.3,0-.6-.1-.8,0-.2-.2-.5-.3-.7s-.4-.4-.6-.5-.5-.2-.9-.2c-.6,0-1.1.2-1.5.6-.4.4-.6.9-.7,1.6h4.1s0,0,0,0Z"/>
  <path class="st5" d="M459.2,187.1c.3-.1.5-.3.8-.4.2-.1.5-.2.7-.3.2,0,.5-.1.7-.1s.5,0,.8,0c.4,0,.9,0,1.2.1s.7.3,1,.5c.3.2.5.5.6.9s.2.8.2,1.4v5.2h-1.2l-.2-.9h0c-.4.4-.7.6-1.2.8s-.9.2-1.4.2-.7,0-1.1-.2-.6-.3-.8-.5c-.2-.2-.4-.4-.5-.7-.1-.3-.2-.6-.2-.9,0-.8.3-1.5,1-1.9.7-.4,1.5-.6,2.6-.6h1.5v-.7c0-.6-.1-1-.4-1.2-.3-.2-.7-.3-1.2-.3s-.6,0-1,.1c-.4.1-.8.3-1.3.6l-.6-1.1h0ZM463.8,190.7h-1.3c-.9,0-1.5.2-1.8.5s-.5.6-.5,1,0,.4.1.6.2.3.3.4c.1,0,.3.2.5.2s.4,0,.5,0c.4,0,.8,0,1.1-.3s.7-.5,1-.8v-1.6h0Z"/>
  <path class="st5" d="M471.2,193.4c.4,0,.7,0,1-.1.3,0,.5-.2.8-.3l.3,1.1c-.6.3-1.3.5-2.2.5s-1.1,0-1.6-.2-1-.4-1.3-.8-.7-.8-.9-1.3-.3-1.1-.3-1.8.1-1.2.3-1.7c.2-.5.5-.9.9-1.3s.8-.6,1.3-.8,1.1-.3,1.7-.3.7,0,1,0c.3,0,.7.2,1.1.4l-.3,1.1c-.5-.3-1.1-.4-1.7-.4s-1.5.3-2,.8-.8,1.2-.8,2.2,0,1.1.2,1.4c.2.4.4.7.6.9.3.2.6.4.9.5.3.1.7.1,1,.1h0Z"/>
  <path class="st5" d="M476.5,194.4h-1.5v-12.1h1.5v5.1c.4-.3.8-.6,1.2-.8.5-.2,1-.3,1.5-.3s.8,0,1.2.2c.3.1.6.3.8.5s.4.5.5.8c.1.3.2.7.2,1v5.5h-1.5v-5.1c0-.6-.1-1.1-.4-1.3-.2-.3-.6-.4-1.1-.4s-.8.1-1.2.3c-.4.2-.8.5-1.2.8v5.8h0Z"/>
  <path class="st5" d="M484.7,194.6c-.3,0-.5-.2-.7-.4-.1-.2-.2-.4-.2-.7s0-.5.3-.7.5-.3.8-.3.3,0,.4,0c.1,0,.3.1.4.2s.2.3.3.5.1.5.1.8c0,.6-.2,1.2-.5,1.7s-.8.9-1.3,1.2l-.5-.7c.3-.2.6-.4.8-.6s.4-.6.5-1h-.3c0,0,0,0,0,0Z"/>
  <path class="st5" d="M497.7,190.6h-5.7c0,1,.2,1.6.7,2.1s1.1.7,2,.7.8,0,1.1-.1c.3,0,.7-.2,1.1-.3l.3,1.1c-.3.1-.7.3-1.2.4-.5,0-.9.1-1.4.1s-1.1,0-1.6-.2-1-.4-1.3-.7c-.4-.3-.7-.8-.9-1.3s-.3-1.1-.3-1.9,0-1.2.3-1.7.5-.9.8-1.3.8-.6,1.2-.8,1-.3,1.6-.3,1,0,1.4.2c.4.2.8.4,1.1.7.3.3.5.7.7,1.1.2.4.2.9.2,1.4v.8h0ZM496.1,189.5c0-.3,0-.6-.1-.8,0-.2-.2-.5-.3-.7s-.4-.4-.6-.5-.5-.2-.9-.2c-.6,0-1.1.2-1.5.6-.4.4-.6.9-.7,1.6h4.1s0,0,0,0Z"/>
  <path class="st5" d="M500.9,194.4h-1.5v-8h1.2l.2,1.1c.4-.4.8-.7,1.2-.9s.9-.3,1.5-.3c.8,0,1.5.2,1.9.7.5.5.7,1.1.7,1.9v5.5h-1.5v-5.3c0-.5-.1-.9-.4-1.2s-.6-.4-1.2-.4c-.8,0-1.5.4-2.2,1.1v5.8h0Z"/>
  <path class="st5" d="M508.3,189.1c0-.4,0-.8.2-1.2s.4-.6.7-.9.6-.4,1-.5.8-.2,1.3-.2.3,0,.5,0c.2,0,.3,0,.5,0h3.5v1.1h-.5l-1.4-.2c.2.2.4.5.5.8s.2.6.2.9,0,.8-.2,1.2c-.2.4-.4.6-.7.9-.3.2-.6.4-1,.5s-.8.2-1.3.2-.7,0-.9,0c-.3,0-.4.2-.5.4s-.1.3-.1.4c0,.3,0,.4.3.5.2,0,.4.1.7.1h2.1c.9,0,1.6.2,2,.6.5.4.7.9.7,1.6s0,.8-.3,1.2-.5.6-.8.9c-.4.2-.8.4-1.3.6s-1.1.2-1.7.2c-1.2,0-2.1-.2-2.8-.6-.7-.4-1-1-1-1.8s.1-.8.4-1.1.6-.5,1-.6c-.2-.2-.4-.3-.5-.5s-.2-.4-.2-.7.1-.6.3-.9.5-.4.9-.6c-.5-.2-.8-.5-1.1-.9s-.4-.9-.4-1.5h0ZM510.1,194.4c-.6.3-.9.7-.9,1.2,0,1,.8,1.5,2.4,1.5s.9,0,1.2-.1.6-.2.8-.4.3-.3.5-.5.1-.4.1-.6c0-.5-.2-.8-.5-.9-.3-.1-.7-.2-1.2-.2h-2.5,0ZM513.2,189.1c0-.6-.2-1-.5-1.3-.3-.3-.7-.4-1.2-.4s-.9.1-1.2.4c-.3.3-.5.7-.5,1.3s.2,1,.5,1.3.7.4,1.2.4.9-.1,1.2-.4.5-.7.5-1.2h0Z"/>
  <path class="st5" d="M517.5,187.1c.3-.1.5-.3.8-.4.2-.1.5-.2.7-.3.2,0,.5-.1.7-.1s.5,0,.8,0c.4,0,.8,0,1.2.1s.7.3,1,.5c.3.2.5.5.6.9s.2.8.2,1.4v5.2h-1.2l-.2-.9h0c-.3.4-.7.6-1.2.8s-.9.2-1.4.2-.7,0-1.1-.2-.6-.3-.8-.5c-.2-.2-.4-.4-.5-.7s-.2-.6-.2-.9c0-.8.3-1.5,1-1.9.7-.4,1.5-.6,2.6-.6h1.5v-.7c0-.6-.2-1-.4-1.2-.3-.2-.7-.3-1.2-.3s-.6,0-1,.1c-.4.1-.8.3-1.3.6l-.6-1.1h0ZM522,190.7h-1.3c-.8,0-1.5.2-1.8.5s-.5.6-.5,1,0,.4.1.6.2.3.3.4c.1,0,.3.2.5.2s.4,0,.5,0c.4,0,.8,0,1.1-.3s.7-.5,1-.8v-1.6h0Z"/>
  <path class="st5" d="M525.6,189.1c0-.4,0-.8.2-1.2s.4-.6.7-.9.6-.4,1-.5.8-.2,1.3-.2.3,0,.5,0,.3,0,.5,0h3.5v1.1h-.5l-1.4-.2c.2.2.4.5.5.8s.2.6.2.9,0,.8-.2,1.2c-.2.4-.4.6-.7.9-.3.2-.6.4-1,.5s-.8.2-1.3.2-.7,0-.9,0c-.3,0-.4.2-.5.4s-.2.3-.2.4c0,.3,0,.4.3.5.2,0,.4.1.7.1h2.1c.9,0,1.6.2,2,.6.5.4.7.9.7,1.6s0,.8-.3,1.2-.5.6-.8.9c-.4.2-.8.4-1.3.6s-1.1.2-1.7.2c-1.2,0-2.1-.2-2.8-.6-.7-.4-1-1-1-1.8s.1-.8.4-1.1.6-.5,1-.6c-.2-.2-.4-.3-.5-.5s-.2-.4-.2-.7,0-.6.3-.9.5-.4.9-.6c-.5-.2-.8-.5-1.1-.9s-.4-.9-.4-1.5h0ZM527.4,194.4c-.6.3-.9.7-.9,1.2,0,1,.8,1.5,2.4,1.5s.9,0,1.2-.1.6-.2.8-.4.3-.3.5-.5.1-.4.1-.6c0-.5-.2-.8-.5-.9-.3-.1-.7-.2-1.2-.2h-2.5,0ZM530.5,189.1c0-.6-.2-1-.5-1.3-.3-.3-.7-.4-1.2-.4s-.9.1-1.2.4c-.3.3-.5.7-.5,1.3s.2,1,.5,1.3.7.4,1.2.4.9-.1,1.2-.4.5-.7.5-1.2h0Z"/>
  <path class="st5" d="M541.3,190.6h-5.7c0,1,.2,1.6.7,2.1s1.1.7,2,.7.8,0,1.2-.1c.3,0,.7-.2,1.1-.3l.3,1.1c-.3.1-.7.3-1.2.4-.5,0-.9.1-1.4.1s-1.1,0-1.6-.2-1-.4-1.3-.7c-.4-.3-.7-.8-.9-1.3s-.3-1.1-.3-1.9,0-1.2.3-1.7.5-.9.8-1.3c.3-.4.8-.6,1.2-.8s1-.3,1.6-.3,1,0,1.4.2c.4.2.8.4,1.1.7.3.3.5.7.7,1.1.2.4.2.9.2,1.4v.8h0ZM539.8,189.5c0-.3,0-.6-.1-.8s-.2-.5-.3-.7-.3-.4-.6-.5c-.2-.1-.5-.2-.9-.2-.6,0-1.1.2-1.5.6-.4.4-.6.9-.7,1.6h4.2Z"/>
  <path class="st5" d="M544.6,194.4h-1.5v-8h1.2l.2,1.1c.4-.4.8-.7,1.2-.9s1-.3,1.5-.3,1,.1,1.4.4c.4.2.6.6.8,1,.4-.4.8-.7,1.3-1s1-.3,1.6-.3,1.4.2,1.8.7.6,1.1.6,1.9v5.5h-1.5v-5.2c0-.5-.1-.9-.3-1.2-.2-.3-.6-.4-1.1-.4-.8,0-1.5.4-2.2,1,0,0,0,.1,0,.2v5.7h-1.5v-5.2c0-.5-.1-.9-.3-1.2-.2-.3-.6-.4-1.1-.4-.8,0-1.5.4-2.1,1.1v5.8h0Z"/>
  <path class="st5" d="M563.9,190.6h-5.7c0,1,.2,1.6.7,2.1s1.1.7,2,.7.8,0,1.2-.1c.3,0,.7-.2,1.1-.3l.3,1.1c-.3.1-.7.3-1.2.4-.5,0-.9.1-1.4.1s-1.1,0-1.6-.2-1-.4-1.3-.7c-.4-.3-.7-.8-.9-1.3s-.3-1.1-.3-1.9,0-1.2.3-1.7.5-.9.8-1.3c.3-.4.8-.6,1.2-.8s1-.3,1.6-.3,1,0,1.4.2c.4.2.8.4,1.1.7.3.3.5.7.7,1.1.2.4.2.9.2,1.4v.8h0ZM562.4,189.5c0-.3,0-.6-.1-.8s-.2-.5-.3-.7-.3-.4-.6-.5c-.2-.1-.5-.2-.9-.2-.6,0-1.1.2-1.5.6-.4.4-.6.9-.7,1.6h4.2Z"/>
  <path class="st5" d="M567.2,194.4h-1.5v-8h1.2l.2,1.1c.4-.4.8-.7,1.2-.9s.9-.3,1.5-.3c.8,0,1.5.2,1.9.7.5.5.7,1.1.7,1.9v5.5h-1.5v-5.3c0-.5-.1-.9-.4-1.2s-.6-.4-1.2-.4c-.8,0-1.5.4-2.2,1.1v5.8h0Z"/>
  <path class="st5" d="M578.9,187.5h-2.3v4.6c0,.4,0,.7.3.8s.5.2.8.2.5,0,.8,0,.5-.1.7-.2l.2,1.1c-.2,0-.5.2-.9.2s-.7.1-1.1.1c-.8,0-1.4-.2-1.7-.5s-.5-.9-.5-1.5v-4.9h-1.2v-1.1h1.2v-2.6h1.5v2.6h2.3v1.1h0Z"/>
  <path class="st5" d="M581.6,194.6c-.3,0-.5-.2-.7-.4-.2-.2-.2-.4-.2-.7s0-.5.3-.7.5-.3.8-.3.3,0,.4,0c.1,0,.3.1.4.2s.2.3.3.5.1.5.1.8c0,.6-.2,1.2-.5,1.7-.3.5-.8.9-1.3,1.2l-.5-.7c.3-.2.6-.4.8-.6s.4-.6.5-1h-.3c0,0,0,0,0,0Z"/>
  <path class="st5" d="M442.6,215.4c.4,0,.7,0,1-.1.3,0,.5-.2.8-.3l.3,1.1c-.6.3-1.3.5-2.2.5s-1.1,0-1.6-.2-1-.4-1.3-.8-.7-.8-.9-1.3-.3-1.1-.3-1.8.1-1.2.3-1.7c.2-.5.5-.9.9-1.3s.8-.6,1.3-.8,1.1-.3,1.7-.3.7,0,1,0c.3,0,.7.2,1.1.4l-.3,1.1c-.5-.3-1.1-.4-1.7-.4s-1.5.3-2,.8-.8,1.2-.8,2.2,0,1.1.2,1.4c.2.4.4.7.6.9.3.2.6.4.9.5.3.1.7.1,1,.1h0Z"/>
  <path class="st5" d="M453.1,212.3c0,.7-.1,1.3-.3,1.8-.2.5-.5,1-.8,1.3s-.8.6-1.2.8-1,.3-1.5.3-1.1,0-1.5-.3c-.5-.2-.9-.4-1.2-.8s-.6-.8-.8-1.3-.3-1.1-.3-1.7.1-1.3.3-1.8c.2-.5.5-1,.8-1.3s.8-.6,1.2-.8,1-.3,1.5-.3,1.1,0,1.5.2.9.4,1.2.8c.4.3.6.8.8,1.3s.3,1.1.3,1.7ZM451.5,212.4c0-.5,0-1-.2-1.4-.1-.4-.3-.7-.5-.9-.2-.2-.5-.4-.8-.5-.3-.1-.6-.2-.9-.2s-.6,0-.9.1-.5.2-.8.5-.4.5-.5.9c-.1.4-.2.9-.2,1.4s0,1,.2,1.4c.1.4.3.7.5.9.2.2.5.4.8.5.3.1.6.2.9.2s.6,0,.9-.1c.3-.1.5-.3.8-.5.2-.2.4-.5.5-.9.1-.4.2-.9.2-1.4h0Z"/>
  <path class="st5" d="M456.4,216.4h-1.5v-8h1.2l.2,1.1c.4-.4.8-.7,1.2-.9s.9-.3,1.5-.3c.8,0,1.5.2,1.9.7.5.5.7,1.1.7,1.9v5.5h-1.5v-5.3c0-.5-.1-.9-.4-1.2s-.6-.4-1.2-.4c-.8,0-1.5.4-2.2,1.1v5.8h0Z"/>
  <path class="st5" d="M468.9,208.4h1.6l-3,8h-1.5l-3-8h1.6l1.8,5.5.3,1.3h0l.3-1.2,1.8-5.5h0Z"/>
  <path class="st5" d="M478.5,212.6h-5.7c0,1,.2,1.6.7,2.1s1.1.7,2,.7.8,0,1.1-.1c.3,0,.7-.2,1.1-.3l.3,1.1c-.3.1-.7.3-1.2.4-.5,0-.9.1-1.4.1s-1.1,0-1.6-.2-1-.4-1.3-.7c-.4-.3-.7-.8-.9-1.3s-.3-1.1-.3-1.9,0-1.2.3-1.7.5-.9.8-1.3.8-.6,1.2-.8,1-.3,1.6-.3,1,0,1.4.2c.4.2.8.4,1.1.7.3.3.5.7.7,1.1.2.4.2.9.2,1.4v.8h0ZM477,211.5c0-.3,0-.6-.1-.8,0-.2-.2-.5-.3-.7s-.4-.4-.6-.5-.5-.2-.9-.2c-.6,0-1.1.2-1.5.6-.4.4-.6.9-.7,1.6h4.1s0,0,0,0Z"/>
  <path class="st5" d="M480.2,216.4v-8h1.1l.2,1.6c.2-.5.5-.9,1-1.2s1-.5,1.5-.5.5,0,.7,0,.4.1.5.2l-.3,1.3c-.1,0-.3-.1-.5-.2s-.4,0-.6,0c-.3,0-.6,0-.9.2s-.5.3-.7.5c-.2.2-.4.5-.5.8s-.2.7-.2,1.1v4.1h-1.5,0Z"/>
  <path class="st5" d="M491.1,209.9c-.4-.2-.7-.3-1-.4-.3,0-.6-.1-.9-.1-.5,0-1,.1-1.2.3s-.4.5-.4.8,0,.4.3.6.6.4,1.1.5h.5c.8.4,1.3.7,1.7,1s.6.8.6,1.4-.3,1.3-.8,1.8-1.3.7-2.2.7-1,0-1.5-.1-.9-.2-1.2-.4l.4-1.2c.3.2.7.3,1.1.4s.8.1,1.2.1.9,0,1.2-.3c.3-.2.5-.5.5-.9s-.1-.6-.4-.8c-.3-.1-.6-.3-1.1-.4l-.5-.2c-.7-.2-1.3-.5-1.6-.9s-.5-.8-.5-1.4,0-.6.2-.9c.1-.3.4-.5.6-.7s.6-.3.9-.4.7-.2,1.2-.2.8,0,1.2.1.8.2,1.2.4l-.3,1.1h0Z"/>
  <path class="st5" d="M494.5,206.4c-.3,0-.5,0-.7-.3-.2-.2-.3-.4-.3-.6s0-.5.3-.7.4-.3.7-.3.5,0,.7.3c.2.2.3.4.3.7s-.1.5-.3.6c-.2.2-.4.3-.7.3ZM493.8,216.4v-8h1.5v8h-1.5Z"/>
  <path class="st5" d="M505,212.3c0,.7-.1,1.3-.3,1.8-.2.5-.5,1-.8,1.3s-.8.6-1.2.8-1,.3-1.5.3-1.1,0-1.5-.3c-.5-.2-.9-.4-1.2-.8s-.6-.8-.8-1.3-.3-1.1-.3-1.7.1-1.3.3-1.8c.2-.5.5-1,.8-1.3s.8-.6,1.2-.8,1-.3,1.5-.3,1.1,0,1.5.2.9.4,1.2.8c.4.3.6.8.8,1.3s.3,1.1.3,1.7ZM503.5,212.4c0-.5,0-1-.2-1.4-.1-.4-.3-.7-.5-.9-.2-.2-.5-.4-.8-.5-.3-.1-.6-.2-.9-.2s-.6,0-.9.1-.5.2-.8.5-.4.5-.5.9c-.1.4-.2.9-.2,1.4s0,1,.2,1.4c.1.4.3.7.5.9.2.2.5.4.8.5.3.1.6.2.9.2s.6,0,.9-.1c.3-.1.5-.3.8-.5.2-.2.4-.5.5-.9.1-.4.2-.9.2-1.4h0Z"/>
  <path class="st5" d="M508.3,216.4h-1.5v-8h1.2l.2,1.1c.4-.4.8-.7,1.2-.9s.9-.3,1.5-.3c.8,0,1.5.2,1.9.7s.7,1.1.7,1.9v5.5h-1.5v-5.3c0-.5-.1-.9-.4-1.2s-.6-.4-1.2-.4c-.8,0-1.5.4-2.2,1.1v5.8h0Z"/>
  <path class="st5" d="M516.5,216.6c-.3,0-.5-.2-.7-.4-.2-.2-.2-.4-.2-.7s0-.5.3-.7.5-.3.8-.3.3,0,.4,0c.1,0,.3.1.4.2s.2.3.3.5.1.5.1.8c0,.6-.2,1.2-.5,1.7-.3.5-.8.9-1.3,1.2l-.5-.7c.3-.2.6-.4.8-.6s.4-.6.5-1h-.3c0,0,0,0,0,0Z"/>
  <path class="st5" d="M522.7,209.1c.3-.1.5-.3.8-.4.2-.1.5-.2.7-.3.2,0,.5-.1.7-.1s.5,0,.8,0c.4,0,.8,0,1.2.1s.7.3,1,.5c.3.2.5.5.6.9s.2.8.2,1.4v5.2h-1.2l-.2-.9h0c-.3.4-.7.6-1.2.8s-.9.2-1.4.2-.7,0-1.1-.2-.6-.3-.8-.5c-.2-.2-.4-.4-.5-.7s-.2-.6-.2-.9c0-.8.3-1.5,1-1.9.7-.4,1.5-.6,2.6-.6h1.5v-.7c0-.6-.2-1-.4-1.2-.3-.2-.7-.3-1.2-.3s-.6,0-1,.1c-.4.1-.8.3-1.3.6l-.6-1.1h0ZM527.3,212.7h-1.3c-.8,0-1.5.2-1.8.5s-.5.6-.5,1,0,.4.1.6.2.3.3.4c.1,0,.3.2.5.2s.4,0,.5,0c.4,0,.8,0,1.1-.3s.7-.5,1-.8v-1.6h0Z"/>
  <path class="st5" d="M532.5,216.4h-1.5v-8h1.2l.2,1.1c.4-.4.8-.7,1.2-.9s.9-.3,1.5-.3c.8,0,1.5.2,1.9.7.5.5.7,1.1.7,1.9v5.5h-1.5v-5.3c0-.5-.1-.9-.4-1.2s-.6-.4-1.2-.4c-.8,0-1.5.4-2.2,1.1v5.8h0Z"/>
  <path class="st5" d="M545.3,204.3h1.5v12.1h-1.3l-.2-.9h0c-.3.4-.7.6-1.1.8-.4.2-.8.2-1.3.2s-.8,0-1.2-.2-.8-.4-1.1-.8c-.3-.3-.6-.8-.8-1.3-.2-.5-.3-1.1-.3-1.8s0-1.2.2-1.7c.2-.5.4-.9.7-1.3s.7-.6,1.1-.8,1-.3,1.5-.3.8,0,1.2.2c.4.1.7.3,1,.6v-4.7h0ZM545.3,210.3c-.5-.6-1.2-.9-1.9-.9s-.6,0-.9.2c-.3.1-.5.3-.8.5-.2.2-.4.5-.5.9-.1.4-.2.8-.2,1.3s0,1,.2,1.4c.1.4.3.7.5.9.2.2.5.4.7.5.3.1.5.2.8.2.8,0,1.5-.4,2.1-1.1v-4h0Z"/>
  <path class="st5" d="M554.4,216.4h-1.5v-8h1.2l.2,1.1c.4-.4.8-.7,1.2-.9s1-.3,1.5-.3,1,.1,1.4.4c.4.2.6.6.8,1,.4-.4.8-.7,1.3-1s1-.3,1.6-.3,1.4.2,1.8.7.6,1.1.6,1.9v5.5h-1.5v-5.2c0-.5-.1-.9-.3-1.2-.2-.3-.6-.4-1.1-.4-.8,0-1.5.4-2.2,1,0,0,0,.1,0,.2v5.7h-1.5v-5.2c0-.5-.1-.9-.3-1.2-.2-.3-.6-.4-1.1-.4-.8,0-1.5.4-2.1,1.1v5.8h0Z"/>
  <path class="st5" d="M574.3,212.3c0,.7,0,1.3-.3,1.8-.2.5-.5,1-.8,1.3-.4.4-.8.6-1.2.8s-1,.3-1.5.3-1.1,0-1.5-.3c-.5-.2-.9-.4-1.2-.8s-.6-.8-.8-1.3-.3-1.1-.3-1.7,0-1.3.3-1.8c.2-.5.5-1,.8-1.3.4-.4.8-.6,1.2-.8s1-.3,1.5-.3,1.1,0,1.5.2.9.4,1.2.8c.3.3.6.8.8,1.3s.3,1.1.3,1.7ZM572.7,212.4c0-.5,0-1-.2-1.4-.1-.4-.3-.7-.5-.9-.2-.2-.5-.4-.8-.5-.3-.1-.6-.2-.9-.2s-.6,0-.9.1-.5.2-.8.5-.4.5-.5.9-.2.9-.2,1.4,0,1,.2,1.4c.1.4.3.7.5.9.2.2.5.4.8.5.3.1.6.2.9.2s.6,0,.9-.1c.3-.1.5-.3.8-.5.2-.2.4-.5.5-.9s.2-.9.2-1.4h0Z"/>
  <path class="st5" d="M576,216.4v-8h1.1l.2,1.6c.2-.5.5-.9,1-1.2s1-.5,1.5-.5.5,0,.7,0,.4.1.5.2l-.3,1.3c-.1,0-.3-.1-.5-.2-.2,0-.4,0-.6,0-.3,0-.6,0-.9.2s-.5.3-.7.5c-.2.2-.4.5-.5.8s-.2.7-.2,1.1v4.1h-1.5,0Z"/>
  <path class="st5" d="M588.8,212.6h-5.7c0,1,.2,1.6.7,2.1s1.1.7,2,.7.8,0,1.2-.1c.3,0,.7-.2,1.1-.3l.3,1.1c-.3.1-.7.3-1.2.4-.5,0-.9.1-1.4.1s-1.1,0-1.6-.2-1-.4-1.3-.7c-.4-.3-.7-.8-.9-1.3s-.3-1.1-.3-1.9,0-1.2.3-1.7.5-.9.8-1.3c.3-.4.8-.6,1.2-.8s1-.3,1.6-.3,1,0,1.4.2c.4.2.8.4,1.1.7.3.3.5.7.7,1.1.2.4.2.9.2,1.4v.8h0ZM587.2,211.5c0-.3,0-.6-.1-.8s-.2-.5-.3-.7-.3-.4-.6-.5c-.2-.1-.5-.2-.9-.2-.6,0-1.1.2-1.5.6-.4.4-.6.9-.7,1.6h4.2Z"/>
  <rect class="st0" x="596.5" y="138.3" width="135.3" height="73.3"/>
  <path class="st5" d="M626,139.7v1.3h-3.3v9.4h-1.6v-9.4h-3.3v-1.3h8.2Z"/>
  <path class="st5" d="M628.8,150.4h-1.5v-12.1h1.5v5.1c.4-.3.8-.6,1.2-.8.5-.2,1-.3,1.5-.3s.8,0,1.2.2c.3.1.6.3.8.5s.4.5.5.8c.1.3.2.7.2,1v5.5h-1.5v-5.1c0-.6-.1-1.1-.4-1.3-.2-.3-.6-.4-1.1-.4s-.8.1-1.2.3c-.4.2-.8.5-1.2.8v5.8h0Z"/>
  <path class="st5" d="M643.3,146.6h-5.7c0,1,.2,1.6.7,2.1s1.1.7,2,.7.8,0,1.2-.1c.3,0,.7-.2,1.1-.3l.3,1.1c-.3.1-.7.3-1.2.4-.5,0-.9.1-1.4.1s-1.1,0-1.6-.2-1-.4-1.3-.7c-.4-.3-.7-.8-.9-1.3s-.3-1.1-.3-1.9,0-1.2.3-1.7.5-.9.8-1.3c.3-.4.8-.6,1.2-.8s1-.3,1.6-.3,1,0,1.4.2c.4.2.8.4,1.1.7.3.3.5.7.7,1.1.2.4.2.9.2,1.4v.8h0ZM641.7,145.5c0-.3,0-.6-.1-.8s-.2-.5-.3-.7-.3-.4-.6-.5c-.2-.1-.5-.2-.9-.2-.6,0-1.1.2-1.5.6-.4.4-.6.9-.7,1.6h4.2Z"/>
  <path class="st5" d="M652.6,149.4c.4,0,.7,0,1-.1s.5-.2.8-.3l.3,1.1c-.6.3-1.3.5-2.2.5s-1.1,0-1.6-.2-1-.4-1.3-.8-.7-.8-.9-1.3-.3-1.1-.3-1.8,0-1.2.3-1.7c.2-.5.5-.9.8-1.3s.8-.6,1.3-.8,1.1-.3,1.7-.3.7,0,1,0c.3,0,.7.2,1.2.4l-.3,1.1c-.5-.3-1.1-.4-1.7-.4s-1.5.3-2,.8-.8,1.2-.8,2.2,0,1.1.2,1.4c.2.4.4.7.6.9.3.2.6.4.9.5.3.1.7.1,1,.1h0Z"/>
  <path class="st5" d="M656.3,143.1c.3-.1.5-.3.8-.4.2-.1.5-.2.7-.3.2,0,.5-.1.7-.1s.5,0,.8,0c.4,0,.8,0,1.2.1s.7.3,1,.5c.3.2.5.5.6.9s.2.8.2,1.4v5.2h-1.2l-.2-.9h0c-.3.4-.7.6-1.2.8s-.9.2-1.4.2-.7,0-1.1-.2-.6-.3-.8-.5c-.2-.2-.4-.4-.5-.7s-.2-.6-.2-.9c0-.8.3-1.5,1-1.9.7-.4,1.5-.6,2.6-.6h1.5v-.7c0-.6-.2-1-.4-1.2-.3-.2-.7-.3-1.2-.3s-.6,0-1,.1c-.4.1-.8.3-1.3.6l-.6-1.1h0ZM660.9,146.7h-1.3c-.8,0-1.5.2-1.8.5s-.5.6-.5,1,0,.4.1.6.2.3.3.4c.1,0,.3.2.5.2s.4,0,.5,0c.4,0,.8,0,1.1-.3s.7-.5,1-.8v-1.6h0Z"/>
  <path class="st5" d="M668.9,143.5h-2.3v4.6c0,.4,0,.7.3.8s.5.2.8.2.5,0,.8,0,.5-.1.7-.2l.2,1.1c-.2,0-.5.2-.9.2s-.7.1-1.1.1c-.8,0-1.4-.2-1.7-.5s-.5-.9-.5-1.5v-4.9h-1.2v-1.1h1.2v-2.6h1.5v2.6h2.3v1.1h0Z"/>
  <path class="st5" d="M677.7,146.6h-5.7c0,1,.2,1.6.7,2.1s1.1.7,2,.7.8,0,1.2-.1c.3,0,.7-.2,1.1-.3l.3,1.1c-.3.1-.7.3-1.2.4-.5,0-.9.1-1.4.1s-1.1,0-1.6-.2-1-.4-1.3-.7c-.4-.3-.7-.8-.9-1.3s-.3-1.1-.3-1.9,0-1.2.3-1.7.5-.9.8-1.3c.3-.4.8-.6,1.2-.8s1-.3,1.6-.3,1,0,1.4.2c.4.2.8.4,1.1.7.3.3.5.7.7,1.1.2.4.2.9.2,1.4v.8h0ZM676.1,145.5c0-.3,0-.6-.1-.8s-.2-.5-.3-.7-.3-.4-.6-.5c-.2-.1-.5-.2-.9-.2-.6,0-1.1.2-1.5.6-.4.4-.6.9-.7,1.6h4.2Z"/>
  <path class="st5" d="M679.3,145.1c0-.4,0-.8.2-1.2s.4-.6.7-.9.6-.4,1-.5.8-.2,1.3-.2.3,0,.5,0,.3,0,.5,0h3.5v1.1h-.5l-1.4-.2c.2.2.4.5.5.8s.2.6.2.9,0,.8-.2,1.2c-.2.4-.4.6-.7.9-.3.2-.6.4-1,.5s-.8.2-1.3.2-.7,0-.9,0c-.3,0-.4.2-.5.4s-.2.3-.2.4c0,.3,0,.4.3.5.2,0,.4.1.7.1h2.1c.9,0,1.6.2,2,.6.5.4.7.9.7,1.6s0,.8-.3,1.2-.5.6-.8.9c-.4.2-.8.4-1.3.6s-1.1.2-1.7.2c-1.2,0-2.1-.2-2.8-.6-.7-.4-1-1-1-1.8s.1-.8.4-1.1.6-.5,1-.6c-.2-.2-.4-.3-.5-.5s-.2-.4-.2-.7,0-.6.3-.9.5-.4.9-.6c-.5-.2-.8-.5-1.1-.9s-.4-.9-.4-1.5h0ZM681.1,150.4c-.6.3-.9.7-.9,1.2,0,1,.8,1.5,2.4,1.5s.9,0,1.2-.1.6-.2.8-.4.3-.3.5-.5.1-.4.1-.6c0-.5-.2-.8-.5-.9-.3-.1-.7-.2-1.2-.2h-2.5,0ZM684.2,145.1c0-.6-.2-1-.5-1.3-.3-.3-.7-.4-1.2-.4s-.9.1-1.2.4c-.3.3-.5.7-.5,1.3s.2,1,.5,1.3.7.4,1.2.4.9-.1,1.2-.4.5-.7.5-1.2h0Z"/>
  <path class="st5" d="M695.6,146.3c0,.7,0,1.3-.3,1.8-.2.5-.5,1-.8,1.3-.4.4-.8.6-1.2.8s-1,.3-1.5.3-1.1,0-1.5-.3c-.5-.2-.9-.4-1.2-.8s-.6-.8-.8-1.3-.3-1.1-.3-1.7,0-1.3.3-1.8c.2-.5.5-1,.8-1.3.4-.4.8-.6,1.2-.8s1-.3,1.5-.3,1.1,0,1.5.2.9.4,1.2.8c.3.3.6.8.8,1.3s.3,1.1.3,1.7ZM694.1,146.4c0-.5,0-1-.2-1.4-.1-.4-.3-.7-.5-.9-.2-.2-.5-.4-.8-.5-.3-.1-.6-.2-.9-.2s-.6,0-.9.1-.5.2-.8.5-.4.5-.5.9-.2.9-.2,1.4,0,1,.2,1.4c.1.4.3.7.5.9.2.2.5.4.8.5.3.1.6.2.9.2s.6,0,.9-.1c.3-.1.5-.3.8-.5.2-.2.4-.5.5-.9s.2-.9.2-1.4h0Z"/>
  <path class="st5" d="M697.4,150.4v-8h1.1l.2,1.6c.2-.5.5-.9,1-1.2s1-.5,1.5-.5.5,0,.7,0,.4.1.5.2l-.3,1.3c-.1,0-.3-.1-.5-.2-.2,0-.4,0-.6,0-.3,0-.6,0-.9.2s-.5.3-.7.5c-.2.2-.4.5-.5.8s-.2.7-.2,1.1v4.1h-1.5,0Z"/>
  <path class="st5" d="M703.1,142.4h1.6l1.7,4.6.6,1.9h0l.6-1.9,1.5-4.6h1.5l-3.1,8.7c-.3,1-.8,1.7-1.3,2.3s-1.1.9-1.8,1.2l-.7-1.2c.5-.2,1-.5,1.4-.9.4-.4.7-.9,1-1.6l.2-.5-3.2-8h0Z"/>
  <path class="st5" d="M612.8,164.4h1.5v8h-1.2l-.2-1h0c-.3.3-.7.6-1.1.8s-.9.3-1.5.3c-.8,0-1.5-.2-2-.7-.5-.5-.8-1.2-.8-2.1v-5.3h1.5v5.1c0,.3,0,.6.1.9,0,.2.2.4.3.6.1.1.3.2.5.3.2,0,.4,0,.6,0,.5,0,.9-.1,1.2-.3.4-.2.7-.5,1-.8v-5.9h0Z"/>
  <path class="st5" d="M618.1,172.4h-1.5v-8h1.2l.2,1.1c.4-.4.8-.7,1.2-.9s.9-.3,1.5-.3c.8,0,1.5.2,1.9.7.5.5.7,1.1.7,1.9v5.5h-1.5v-5.3c0-.5-.1-.9-.4-1.2s-.6-.4-1.2-.4c-.8,0-1.5.4-2.2,1.1v5.8h0Z"/>
  <path class="st5" d="M631,160.3h1.5v12.1h-1.3l-.2-.9h0c-.3.4-.7.6-1.1.8-.4.2-.8.2-1.3.2s-.8,0-1.2-.2-.8-.4-1.1-.8c-.3-.3-.6-.8-.8-1.3-.2-.5-.3-1.1-.3-1.8s0-1.2.2-1.7c.2-.5.4-.9.7-1.3s.7-.6,1.1-.8,1-.3,1.5-.3.8,0,1.2.2c.4.1.7.3,1,.6v-4.7h0ZM631,166.3c-.5-.6-1.2-.9-1.9-.9s-.6,0-.9.2c-.3.1-.5.3-.8.5-.2.2-.4.5-.5.9-.1.4-.2.8-.2,1.3s0,1,.2,1.4c.1.4.3.7.5.9.2.2.5.4.7.5.3.1.5.2.8.2.8,0,1.5-.4,2.1-1.1v-4h0Z"/>
  <path class="st5" d="M641.6,168.6h-5.7c0,1,.2,1.6.7,2.1s1.1.7,2,.7.8,0,1.2-.1c.3,0,.7-.2,1.1-.3l.3,1.1c-.3.1-.7.3-1.2.4-.5,0-.9.1-1.4.1s-1.1,0-1.6-.2-1-.4-1.3-.7c-.4-.3-.7-.8-.9-1.3s-.3-1.1-.3-1.9,0-1.2.3-1.7.5-.9.8-1.3c.3-.4.8-.6,1.2-.8s1-.3,1.6-.3,1,0,1.4.2c.4.2.8.4,1.1.7.3.3.5.7.7,1.1.2.4.2.9.2,1.4v.8h0ZM640,167.5c0-.3,0-.6-.1-.8s-.2-.5-.3-.7-.3-.4-.6-.5c-.2-.1-.5-.2-.9-.2-.6,0-1.1.2-1.5.6-.4.4-.6.9-.7,1.6h4.2Z"/>
  <path class="st5" d="M643.3,172.4v-8h1.1l.2,1.6c.2-.5.5-.9,1-1.2s1-.5,1.5-.5.5,0,.7,0,.4.1.5.2l-.3,1.3c-.1,0-.3-.1-.5-.2-.2,0-.4,0-.6,0-.3,0-.6,0-.9.2s-.5.3-.7.5c-.2.2-.4.5-.5.8s-.2.7-.2,1.1v4.1h-1.5,0Z"/>
  <path class="st5" d="M652.5,164.4h1.6l1.4,5,.3,1.8h0l.4-1.8,1.4-5h1.6l1.4,5,.4,1.8h0l.4-1.8,1.3-5h1.5l-2.4,8h-1.7l-1.4-4.9-.4-2-.4,2-1.4,4.9h-1.6l-2.5-8h0Z"/>
  <path class="st5" d="M667.1,172.4h-1.5v-12.1h1.5v5.1c.4-.3.8-.6,1.2-.8.5-.2,1-.3,1.5-.3s.8,0,1.2.2c.3.1.6.3.8.5s.4.5.5.8c.1.3.2.7.2,1v5.5h-1.5v-5.1c0-.6-.1-1.1-.4-1.3-.2-.3-.6-.4-1.1-.4s-.8.1-1.2.3c-.4.2-.8.5-1.2.8v5.8h0Z"/>
  <path class="st5" d="M675.7,162.4c-.3,0-.5,0-.7-.3-.2-.2-.3-.4-.3-.6s0-.5.3-.7.4-.3.7-.3.5,0,.7.3c.2.2.3.4.3.7s0,.5-.3.6c-.2.2-.4.3-.7.3ZM675,172.4v-8h1.5v8h-1.5Z"/>
  <path class="st5" d="M682.7,171.4c.4,0,.7,0,1-.1s.5-.2.8-.3l.3,1.1c-.6.3-1.3.5-2.2.5s-1.1,0-1.6-.2-1-.4-1.3-.8-.7-.8-.9-1.3-.3-1.1-.3-1.8,0-1.2.3-1.7c.2-.5.5-.9.8-1.3s.8-.6,1.3-.8,1.1-.3,1.7-.3.7,0,1,0c.3,0,.7.2,1.2.4l-.3,1.1c-.5-.3-1.1-.4-1.7-.4s-1.5.3-2,.8-.8,1.2-.8,2.2,0,1.1.2,1.4c.2.4.4.7.6.9.3.2.6.4.9.5.3.1.7.1,1,.1h0Z"/>
  <path class="st5" d="M687.9,172.4h-1.5v-12.1h1.5v5.1c.4-.3.8-.6,1.2-.8.5-.2,1-.3,1.5-.3s.8,0,1.2.2c.3.1.6.3.8.5s.4.5.5.8c.1.3.2.7.2,1v5.5h-1.5v-5.1c0-.6-.1-1.1-.4-1.3-.2-.3-.6-.4-1.1-.4s-.8.1-1.2.3c-.4.2-.8.5-1.2.8v5.8h0Z"/>
  <path class="st5" d="M703.6,165.5h-2.3v4.6c0,.4,0,.7.3.8s.5.2.8.2.5,0,.8,0,.5-.1.7-.2l.2,1.1c-.2,0-.5.2-.9.2s-.7.1-1.1.1c-.8,0-1.4-.2-1.7-.5s-.5-.9-.5-1.5v-4.9h-1.2v-1.1h1.2v-2.6h1.5v2.6h2.3v1.1h0Z"/>
  <path class="st5" d="M707.1,172.4h-1.5v-12.1h1.5v5.1c.4-.3.8-.6,1.2-.8.5-.2,1-.3,1.5-.3s.8,0,1.2.2c.3.1.6.3.8.5s.4.5.5.8c.1.3.2.7.2,1v5.5h-1.5v-5.1c0-.6-.1-1.1-.4-1.3-.2-.3-.6-.4-1.1-.4s-.8.1-1.2.3c-.4.2-.8.5-1.2.8v5.8h0Z"/>
  <path class="st5" d="M721.5,168.6h-5.7c0,1,.2,1.6.7,2.1s1.1.7,2,.7.8,0,1.2-.1c.3,0,.7-.2,1.1-.3l.3,1.1c-.3.1-.7.3-1.2.4-.5,0-.9.1-1.4.1s-1.1,0-1.6-.2-1-.4-1.3-.7c-.4-.3-.7-.8-.9-1.3s-.3-1.1-.3-1.9,0-1.2.3-1.7.5-.9.8-1.3c.3-.4.8-.6,1.2-.8s1-.3,1.6-.3,1,0,1.4.2c.4.2.8.4,1.1.7.3.3.5.7.7,1.1.2.4.2.9.2,1.4v.8h0ZM720,167.5c0-.3,0-.6-.1-.8s-.2-.5-.3-.7-.3-.4-.6-.5c-.2-.1-.5-.2-.9-.2-.6,0-1.1.2-1.5.6-.4.4-.6.9-.7,1.6h4.2Z"/>
  <path class="st5" d="M615.7,184.4c-.3,0-.5,0-.7-.3-.2-.2-.3-.4-.3-.6s0-.5.3-.7.4-.3.7-.3.5,0,.7.3c.2.2.3.4.3.7s0,.5-.3.6c-.2.2-.4.3-.7.3ZM615,194.4v-8h1.5v8h-1.5Z"/>
  <path class="st5" d="M620.4,194.4h-1.5v-8h1.2l.2,1.1c.4-.4.8-.7,1.2-.9s.9-.3,1.5-.3c.8,0,1.5.2,1.9.7.5.5.7,1.1.7,1.9v5.5h-1.5v-5.3c0-.5-.1-.9-.4-1.2s-.6-.4-1.2-.4c-.8,0-1.5.4-2.2,1.1v5.8h0Z"/>
  <path class="st5" d="M633.3,182.3h1.5v12.1h-1.3l-.2-.9h0c-.3.4-.7.6-1.1.8-.4.2-.8.2-1.3.2s-.8,0-1.2-.2-.8-.4-1.1-.8c-.3-.3-.6-.8-.8-1.3-.2-.5-.3-1.1-.3-1.8s0-1.2.2-1.7c.2-.5.4-.9.7-1.3s.7-.6,1.1-.8,1-.3,1.5-.3.8,0,1.2.2c.4.1.7.3,1,.6v-4.7h0ZM633.3,188.3c-.5-.6-1.2-.9-1.9-.9s-.6,0-.9.2c-.3.1-.5.3-.8.5-.2.2-.4.5-.5.9-.1.4-.2.8-.2,1.3s0,1,.2,1.4c.1.4.3.7.5.9.2.2.5.4.7.5.3.1.5.2.8.2.8,0,1.5-.4,2.1-1.1v-4h0Z"/>
  <path class="st5" d="M638.1,184.4c-.3,0-.5,0-.7-.3-.2-.2-.3-.4-.3-.6s0-.5.3-.7.4-.3.7-.3.5,0,.7.3c.2.2.3.4.3.7s0,.5-.3.6c-.2.2-.4.3-.7.3ZM637.4,194.4v-8h1.5v8h-1.5Z"/>
  <path class="st5" d="M646.2,186.4h1.6l-3,8h-1.5l-3-8h1.6l1.8,5.5.3,1.3h0l.3-1.2,1.8-5.5h0Z"/>
  <path class="st5" d="M650.2,184.4c-.3,0-.5,0-.7-.3-.2-.2-.3-.4-.3-.6s0-.5.3-.7.4-.3.7-.3.5,0,.7.3c.2.2.3.4.3.7s0,.5-.3.6c-.2.2-.4.3-.7.3ZM649.4,194.4v-8h1.5v8h-1.5Z"/>
  <path class="st5" d="M658.7,182.3h1.5v12.1h-1.3l-.2-.9h0c-.3.4-.7.6-1.1.8-.4.2-.8.2-1.3.2s-.8,0-1.2-.2-.8-.4-1.1-.8c-.3-.3-.6-.8-.8-1.3-.2-.5-.3-1.1-.3-1.8s0-1.2.2-1.7c.2-.5.4-.9.7-1.3s.7-.6,1.1-.8,1-.3,1.5-.3.8,0,1.2.2c.4.1.7.3,1,.6v-4.7h0ZM658.7,188.3c-.5-.6-1.2-.9-1.9-.9s-.6,0-.9.2c-.3.1-.5.3-.8.5-.2.2-.4.5-.5.9-.1.4-.2.8-.2,1.3s0,1,.2,1.4c.1.4.3.7.5.9.2.2.5.4.7.5.3.1.5.2.8.2.8,0,1.5-.4,2.1-1.1v-4h0Z"/>
  <path class="st5" d="M667.8,186.4h1.5v8h-1.2l-.2-1h0c-.3.3-.7.6-1.1.8s-.9.3-1.5.3c-.8,0-1.5-.2-2-.7-.5-.5-.8-1.2-.8-2.1v-5.3h1.5v5.1c0,.3,0,.6.1.9,0,.2.2.4.3.6.1.1.3.2.5.3.2,0,.4,0,.6,0,.5,0,.9-.1,1.2-.3.4-.2.7-.5,1-.8v-5.9h0Z"/>
  <path class="st5" d="M671.7,187.1c.3-.1.5-.3.8-.4.2-.1.5-.2.7-.3.2,0,.5-.1.7-.1s.5,0,.8,0c.4,0,.8,0,1.2.1s.7.3,1,.5c.3.2.5.5.6.9s.2.8.2,1.4v5.2h-1.2l-.2-.9h0c-.3.4-.7.6-1.2.8s-.9.2-1.4.2-.7,0-1.1-.2-.6-.3-.8-.5c-.2-.2-.4-.4-.5-.7s-.2-.6-.2-.9c0-.8.3-1.5,1-1.9.7-.4,1.5-.6,2.6-.6h1.5v-.7c0-.6-.2-1-.4-1.2-.3-.2-.7-.3-1.2-.3s-.6,0-1,.1c-.4.1-.8.3-1.3.6l-.6-1.1h0ZM676.3,190.7h-1.3c-.8,0-1.5.2-1.8.5s-.5.6-.5,1,0,.4.1.6.2.3.3.4c.1,0,.3.2.5.2s.4,0,.5,0c.4,0,.8,0,1.1-.3s.7-.5,1-.8v-1.6h0Z"/>
  <path class="st5" d="M680,194.4v-12.1h1.5v12.1h-1.5Z"/>
  <path class="st5" d="M690.6,182.2c.3,0,.7,0,1,.1.3,0,.7.2.9.3l-.3,1c-.2,0-.4-.2-.7-.2-.2,0-.4,0-.7,0-.5,0-.9.1-1.2.5-.2.3-.3.8-.3,1.6v.9h2.4v1.1h-2.4v6.9h-1.5v-6.9h-1.2v-1.1h1.2v-1.4c0-.9.2-1.6.7-2s1.1-.7,2-.7h0Z"/>
  <path class="st5" d="M693,187.1c.3-.1.5-.3.8-.4.2-.1.5-.2.7-.3.2,0,.5-.1.7-.1s.5,0,.8,0c.4,0,.8,0,1.2.1s.7.3,1,.5c.3.2.5.5.6.9s.2.8.2,1.4v5.2h-1.2l-.2-.9h0c-.3.4-.7.6-1.2.8s-.9.2-1.4.2-.7,0-1.1-.2-.6-.3-.8-.5c-.2-.2-.4-.4-.5-.7s-.2-.6-.2-.9c0-.8.3-1.5,1-1.9.7-.4,1.5-.6,2.6-.6h1.5v-.7c0-.6-.2-1-.4-1.2-.3-.2-.7-.3-1.2-.3s-.6,0-1,.1c-.4.1-.8.3-1.3.6l-.6-1.1h0ZM697.6,190.7h-1.3c-.8,0-1.5.2-1.8.5s-.5.6-.5,1,0,.4.1.6.2.3.3.4c.1,0,.3.2.5.2s.4,0,.5,0c.4,0,.8,0,1.1-.3s.7-.5,1-.8v-1.6h0Z"/>
  <path class="st5" d="M701.3,194.4v-12.1h1.5v12.1h-1.5Z"/>
  <path class="st5" d="M705.2,194.4v-12.1h1.5v12.1h-1.5Z"/>
  <path class="st5" d="M713.6,187.9c-.4-.2-.7-.3-1-.4-.3,0-.6-.1-.9-.1-.5,0-1,.1-1.2.3s-.4.5-.4.8,0,.4.3.6.6.4,1.1.5h.5c.8.4,1.3.7,1.7,1s.6.8.6,1.4-.3,1.3-.8,1.8-1.3.7-2.2.7-1,0-1.5-.1-.9-.2-1.2-.4l.4-1.2c.3.2.7.3,1.1.4s.8.1,1.2.1.9,0,1.2-.3c.3-.2.5-.5.5-.9s-.1-.6-.4-.8c-.3-.1-.6-.3-1.1-.4l-.5-.2c-.7-.2-1.3-.5-1.6-.9s-.5-.8-.5-1.4,0-.6.2-.9c.2-.3.3-.5.6-.7s.6-.3.9-.4.7-.2,1.2-.2.8,0,1.2.1.8.2,1.2.4l-.3,1.1h0Z"/>
  <rect class="st0" x="279.3" y="138.3" width="148.7" height="70.9"/>
  <path class="st5" d="M305.2,139.7c.8,0,1.5.1,2.1.3.6.2,1.2.5,1.7,1,.5.4.8,1,1.1,1.6.3.6.4,1.4.4,2.2s-.2,1.9-.5,2.6-.8,1.3-1.3,1.7c-.5.4-1.2.8-1.9.9s-1.5.3-2.2.3h-2.9v-10.7h3.5ZM303.2,149.1h1.2c.5,0,1.1,0,1.6-.2.5-.1,1-.3,1.4-.7.4-.3.7-.8,1-1.3.2-.6.4-1.3.4-2.1s0-1.2-.3-1.6c-.2-.5-.4-.9-.8-1.2-.3-.3-.8-.6-1.2-.7s-1-.2-1.6-.2h-1.6v8.1h0Z"/>
  <path class="st5" d="M319.2,146.6h-5.7c0,1,.2,1.6.7,2.1s1.1.7,2,.7.8,0,1.1-.1c.3,0,.7-.2,1.1-.3l.3,1.1c-.3.1-.7.3-1.2.4-.5,0-.9.1-1.4.1s-1.1,0-1.6-.2-1-.4-1.3-.7c-.4-.3-.7-.8-.9-1.3s-.3-1.1-.3-1.9,0-1.2.3-1.7.5-.9.8-1.3.8-.6,1.2-.8,1-.3,1.6-.3,1,0,1.4.2c.4.2.8.4,1.1.7.3.3.5.7.7,1.1.2.4.2.9.2,1.4v.8h0ZM317.6,145.5c0-.3,0-.6-.1-.8,0-.2-.2-.5-.3-.7s-.4-.4-.6-.5-.5-.2-.9-.2c-.6,0-1.1.2-1.5.6-.4.4-.6.9-.7,1.6h4.1s0,0,0,0Z"/>
  <path class="st5" d="M322.5,150.4h-1.5v-8h1.2l.2,1.1c.4-.4.8-.7,1.2-.9s1-.3,1.5-.3,1,.1,1.4.4c.4.2.6.6.8,1,.4-.4.8-.7,1.3-1s1-.3,1.6-.3,1.4.2,1.8.7.6,1.1.6,1.9v5.5h-1.5v-5.2c0-.5-.1-.9-.3-1.2s-.6-.4-1.1-.4c-.8,0-1.5.4-2.2,1,0,0,0,.1,0,.2v5.7h-1.5v-5.2c0-.5-.1-.9-.3-1.2s-.6-.4-1.1-.4c-.8,0-1.5.4-2.1,1.1v5.8h0Z"/>
  <path class="st5" d="M342.3,146.3c0,.7-.1,1.3-.3,1.8-.2.5-.5,1-.8,1.3s-.8.6-1.2.8-1,.3-1.5.3-1.1,0-1.5-.3c-.5-.2-.9-.4-1.2-.8s-.6-.8-.8-1.3-.3-1.1-.3-1.7.1-1.3.3-1.8c.2-.5.5-1,.8-1.3s.8-.6,1.2-.8,1-.3,1.5-.3,1.1,0,1.5.2.9.4,1.2.8c.4.3.6.8.8,1.3s.3,1.1.3,1.7ZM340.7,146.4c0-.5,0-1-.2-1.4-.1-.4-.3-.7-.5-.9-.2-.2-.5-.4-.8-.5-.3-.1-.6-.2-.9-.2s-.6,0-.9.1-.5.2-.8.5-.4.5-.5.9c-.1.4-.2.9-.2,1.4s0,1,.2,1.4c.1.4.3.7.5.9.2.2.5.4.8.5.3.1.6.2.9.2s.6,0,.9-.1c.3-.1.5-.3.8-.5.2-.2.4-.5.5-.9.1-.4.2-.9.2-1.4h0Z"/>
  <path class="st5" d="M344,145.1c0-.4,0-.8.2-1.2s.4-.6.7-.9.6-.4,1-.5.8-.2,1.3-.2.3,0,.5,0,.3,0,.5,0h3.5v1.1h-.5l-1.4-.2c.2.2.4.5.5.8s.2.6.2.9,0,.8-.2,1.2c-.2.4-.4.6-.7.9s-.6.4-1,.5-.8.2-1.3.2-.7,0-.9,0c-.3,0-.4.2-.5.4s-.1.3-.1.4c0,.3,0,.4.3.5.2,0,.4.1.7.1h2.1c.9,0,1.6.2,2,.6.5.4.7.9.7,1.6s-.1.8-.3,1.2-.5.6-.8.9c-.4.2-.8.4-1.3.6-.5.1-1.1.2-1.7.2-1.2,0-2.1-.2-2.8-.6-.7-.4-1-1-1-1.8s.1-.8.4-1.1.6-.5,1-.6c-.2-.2-.4-.3-.5-.5s-.2-.4-.2-.7.1-.6.3-.9.5-.4.9-.6c-.5-.2-.8-.5-1.1-.9s-.4-.9-.4-1.5h0ZM345.8,150.4c-.6.3-.9.7-.9,1.2,0,1,.8,1.5,2.4,1.5s.9,0,1.2-.1.6-.2.8-.4c.2-.1.4-.3.5-.5s.1-.4.1-.6c0-.5-.2-.8-.5-.9-.3-.1-.7-.2-1.2-.2h-2.5,0ZM348.9,145.1c0-.6-.2-1-.5-1.3-.3-.3-.7-.4-1.2-.4s-.9.1-1.2.4c-.3.3-.5.7-.5,1.3s.2,1,.5,1.3.7.4,1.2.4.9-.1,1.2-.4.5-.7.5-1.2h0Z"/>
  <path class="st5" d="M353.3,150.4v-8h1.1l.2,1.6c.2-.5.5-.9,1-1.2s1-.5,1.5-.5.5,0,.7,0,.4.1.5.2l-.3,1.3c-.1,0-.3-.1-.5-.2s-.4,0-.6,0c-.3,0-.6,0-.9.2s-.5.3-.7.5c-.2.2-.4.5-.5.8s-.2.7-.2,1.1v4.1h-1.5,0Z"/>
  <path class="st5" d="M359.5,143.1c.3-.1.5-.3.8-.4.2-.1.5-.2.7-.3.2,0,.5-.1.7-.1s.5,0,.8,0c.4,0,.9,0,1.2.1s.7.3,1,.5c.3.2.5.5.6.9s.2.8.2,1.4v5.2h-1.2l-.2-.9h0c-.4.4-.7.6-1.2.8s-.9.2-1.4.2-.7,0-1.1-.2-.6-.3-.8-.5c-.2-.2-.4-.4-.5-.7-.1-.3-.2-.6-.2-.9,0-.8.3-1.5,1-1.9.7-.4,1.5-.6,2.6-.6h1.5v-.7c0-.6-.1-1-.4-1.2-.3-.2-.7-.3-1.2-.3s-.6,0-1,.1c-.4.1-.8.3-1.3.6l-.6-1.1h0ZM364,146.7h-1.3c-.9,0-1.5.2-1.8.5s-.5.6-.5,1,0,.4.1.6.2.3.3.4c.1,0,.3.2.5.2s.4,0,.5,0c.4,0,.8,0,1.1-.3s.7-.5,1-.8v-1.6h0Z"/>
  <path class="st5" d="M371,150.6c-.4,0-.7,0-1-.1-.3-.1-.6-.2-.9-.4v4.3h-1.5v-12h1.2l.2,1c.3-.3.6-.5,1-.7s.8-.3,1.4-.3c1.1,0,1.9.3,2.5,1,.6.7.9,1.6.9,2.9s-.1,1.4-.3,1.9c-.2.5-.5,1-.9,1.3-.4.4-.8.6-1.3.8s-1,.2-1.4.2h0ZM371.2,143.5c-.5,0-.9.1-1.2.4-.4.2-.6.5-.8.7v4.3c.3.2.5.3.8.4.3,0,.6.1.9.1s.6,0,.9-.2c.3-.1.6-.3.8-.5.2-.2.4-.6.6-1s.2-.9.2-1.5c0-.9-.2-1.5-.5-2-.4-.5-.9-.7-1.7-.7h0Z"/>
  <path class="st5" d="M378.2,150.4h-1.5v-12.1h1.5v5.1c.4-.3.8-.6,1.2-.8.5-.2,1-.3,1.5-.3s.8,0,1.2.2c.3.1.6.3.8.5s.4.5.5.8c.1.3.2.7.2,1v5.5h-1.5v-5.1c0-.6-.1-1.1-.4-1.3-.2-.3-.6-.4-1.1-.4s-.8.1-1.2.3c-.4.2-.8.5-1.2.8v5.8h0Z"/>
  <path class="st5" d="M386.9,140.4c-.3,0-.5,0-.7-.3-.2-.2-.3-.4-.3-.6s0-.5.3-.7.4-.3.7-.3.5,0,.7.3c.2.2.3.4.3.7s-.1.5-.3.6c-.2.2-.4.3-.7.3ZM386.1,150.4v-8h1.5v8h-1.5Z"/>
  <path class="st5" d="M393.9,149.4c.4,0,.7,0,1-.1.3,0,.5-.2.8-.3l.3,1.1c-.6.3-1.3.5-2.2.5s-1.1,0-1.6-.2-1-.4-1.3-.8-.7-.8-.9-1.3-.3-1.1-.3-1.8.1-1.2.3-1.7c.2-.5.5-.9.9-1.3s.8-.6,1.3-.8,1.1-.3,1.7-.3.7,0,1,0c.3,0,.7.2,1.1.4l-.3,1.1c-.5-.3-1.1-.4-1.7-.4s-1.5.3-2,.8-.8,1.2-.8,2.2,0,1.1.2,1.4c.2.4.4.7.6.9.3.2.6.4.9.5.3.1.7.1,1,.1h0Z"/>
  <path class="st5" d="M402.1,143.9c-.4-.2-.7-.3-1-.4-.3,0-.6-.1-.9-.1-.5,0-1,.1-1.2.3s-.4.5-.4.8,0,.4.3.6.6.4,1.1.5h.5c.8.4,1.3.7,1.7,1s.6.8.6,1.4-.3,1.3-.8,1.8-1.3.7-2.2.7-1,0-1.5-.1-.9-.2-1.2-.4l.4-1.2c.3.2.7.3,1.1.4s.8.1,1.2.1.9,0,1.2-.3c.3-.2.5-.5.5-.9s-.1-.6-.4-.8c-.3-.1-.6-.3-1.1-.4l-.5-.2c-.7-.2-1.3-.5-1.6-.9s-.5-.8-.5-1.4,0-.6.2-.9c.1-.3.4-.5.6-.7s.6-.3.9-.4.7-.2,1.2-.2.8,0,1.2.1.8.2,1.2.4l-.3,1.1h0Z"/>
  <path class="st5" d="M405.1,150.6c-.3,0-.5-.2-.7-.4-.1-.2-.2-.4-.2-.7s0-.5.3-.7.5-.3.8-.3.3,0,.4,0c.1,0,.3.1.4.2s.2.3.3.5.1.5.1.8c0,.6-.2,1.2-.5,1.7s-.8.9-1.3,1.2l-.5-.7c.3-.2.6-.4.8-.6s.4-.6.5-1h-.3c0,0,0,0,0,0Z"/>
  <path class="st5" d="M295.3,164.4h1.6l-3,8h-1.5l-3-8h1.6l1.8,5.5.3,1.3h0l.3-1.2,1.8-5.5h0Z"/>
  <path class="st5" d="M299.2,162.4c-.3,0-.5,0-.7-.3-.2-.2-.3-.4-.3-.6s0-.5.3-.7.4-.3.7-.3.5,0,.7.3c.2.2.3.4.3.7s-.1.5-.3.6c-.2.2-.4.3-.7.3ZM298.5,172.4v-8h1.5v8h-1.5Z"/>
  <path class="st5" d="M302.4,172.4v-8h1.1l.2,1.6c.2-.5.5-.9,1-1.2s1-.5,1.5-.5.5,0,.7,0,.4.1.5.2l-.3,1.3c-.1,0-.3-.1-.5-.2s-.4,0-.6,0c-.3,0-.6,0-.9.2s-.5.3-.7.5c-.2.2-.4.5-.5.8s-.2.7-.2,1.1v4.1h-1.5,0Z"/>
  <path class="st5" d="M308.6,165.1c.3-.1.5-.3.8-.4.2-.1.5-.2.7-.3.2,0,.5-.1.7-.1s.5,0,.8,0c.4,0,.9,0,1.2.1s.7.3,1,.5c.3.2.5.5.6.9s.2.8.2,1.4v5.2h-1.2l-.2-.9h0c-.4.4-.7.6-1.2.8s-.9.2-1.4.2-.7,0-1.1-.2-.6-.3-.8-.5c-.2-.2-.4-.4-.5-.7-.1-.3-.2-.6-.2-.9,0-.8.3-1.5,1-1.9.7-.4,1.5-.6,2.6-.6h1.5v-.7c0-.6-.1-1-.4-1.2-.3-.2-.7-.3-1.2-.3s-.6,0-1,.1c-.4.1-.8.3-1.3.6l-.6-1.1h0ZM313.1,168.7h-1.3c-.9,0-1.5.2-1.8.5s-.5.6-.5,1,0,.4.1.6.2.3.3.4c.1,0,.3.2.5.2s.4,0,.5,0c.4,0,.8,0,1.1-.3s.7-.5,1-.8v-1.6h0Z"/>
  <path class="st5" d="M316.9,172.4v-12.1h1.5v12.1h-1.5Z"/>
  <path class="st5" d="M321.7,162.4c-.3,0-.5,0-.7-.3-.2-.2-.3-.4-.3-.6s0-.5.3-.7.4-.3.7-.3.5,0,.7.3c.2.2.3.4.3.7s-.1.5-.3.6c-.2.2-.4.3-.7.3ZM321,172.4v-8h1.5v8h-1.5Z"/>
  <path class="st5" d="M329.1,165.5h-2.4v4.6c0,.4.1.7.3.8.2.1.5.2.8.2s.5,0,.8,0,.5-.1.7-.2l.2,1.1c-.2,0-.5.2-.9.2s-.7.1-1.1.1c-.8,0-1.4-.2-1.7-.5-.4-.4-.5-.9-.5-1.5v-4.9h-1.2v-1.1h1.2v-2.6h1.5v2.6h2.4v1.1h0Z"/>
  <path class="st5" d="M330.3,164.4h1.6l1.7,4.6.6,1.9h0l.6-1.9,1.5-4.6h1.5l-3.1,8.7c-.3,1-.8,1.7-1.3,2.3s-1.1.9-1.8,1.2l-.6-1.2c.5-.2,1-.5,1.4-.9.4-.4.7-.9,1-1.6v-.5c.1,0-3.1-8-3.1-8h0Z"/>
  <path class="st5" d="M338.5,172.6c-.3,0-.5-.2-.7-.4-.1-.2-.2-.4-.2-.7s0-.5.3-.7.5-.3.8-.3.3,0,.4,0c.1,0,.3.1.4.2s.2.3.3.5.1.5.1.8c0,.6-.2,1.2-.5,1.7s-.8.9-1.3,1.2l-.5-.7c.3-.2.6-.4.8-.6s.4-.6.5-1h-.3c0,0,0,0,0,0Z"/>
  <path class="st5" d="M346.1,172.4h-1.5v-8h1.2l.2,1.1c.4-.4.8-.7,1.2-.9s.9-.3,1.5-.3c.8,0,1.5.2,1.9.7.5.5.7,1.1.7,1.9v5.5h-1.5v-5.3c0-.5-.1-.9-.4-1.2s-.6-.4-1.2-.4c-.8,0-1.5.4-2.2,1.1v5.8h0Z"/>
  <path class="st5" d="M360.5,168.6h-5.7c0,1,.2,1.6.7,2.1s1.1.7,2,.7.8,0,1.1-.1c.3,0,.7-.2,1.1-.3l.3,1.1c-.3.1-.7.3-1.2.4-.5,0-.9.1-1.4.1s-1.1,0-1.6-.2-1-.4-1.3-.7c-.4-.3-.7-.8-.9-1.3s-.3-1.1-.3-1.9,0-1.2.3-1.7.5-.9.8-1.3.8-.6,1.2-.8,1-.3,1.6-.3,1,0,1.4.2c.4.2.8.4,1.1.7.3.3.5.7.7,1.1.2.4.2.9.2,1.4v.8h0ZM359,167.5c0-.3,0-.6-.1-.8,0-.2-.2-.5-.3-.7s-.4-.4-.6-.5-.5-.2-.9-.2c-.6,0-1.1.2-1.5.6-.4.4-.6.9-.7,1.6h4.1s0,0,0,0Z"/>
  <path class="st5" d="M366.5,165.5h-2.4v4.6c0,.4.1.7.3.8.2.1.5.2.8.2s.5,0,.8,0,.5-.1.7-.2l.2,1.1c-.2,0-.5.2-.9.2s-.7.1-1.1.1c-.8,0-1.4-.2-1.7-.5-.4-.4-.5-.9-.5-1.5v-4.9h-1.2v-1.1h1.2v-2.6h1.5v2.6h2.4v1.1h0Z"/>
  <path class="st5" d="M371.3,164.4h1.6l1.4,5,.3,1.8h0l.4-1.8,1.4-5h1.6l1.4,5,.4,1.8h0l.4-1.8,1.3-5h1.5l-2.4,8h-1.7l-1.4-4.9-.4-2-.4,2-1.4,4.9h-1.6l-2.5-8h0Z"/>
  <path class="st5" d="M391.6,168.3c0,.7-.1,1.3-.3,1.8-.2.5-.5,1-.8,1.3s-.8.6-1.2.8-1,.3-1.5.3-1.1,0-1.5-.3c-.5-.2-.9-.4-1.2-.8s-.6-.8-.8-1.3-.3-1.1-.3-1.7.1-1.3.3-1.8c.2-.5.5-1,.8-1.3s.8-.6,1.2-.8,1-.3,1.5-.3,1.1,0,1.5.2.9.4,1.2.8c.4.3.6.8.8,1.3s.3,1.1.3,1.7ZM390,168.4c0-.5,0-1-.2-1.4-.1-.4-.3-.7-.5-.9-.2-.2-.5-.4-.8-.5-.3-.1-.6-.2-.9-.2s-.6,0-.9.1-.5.2-.8.5-.4.5-.5.9c-.1.4-.2.9-.2,1.4s0,1,.2,1.4c.1.4.3.7.5.9.2.2.5.4.8.5.3.1.6.2.9.2s.6,0,.9-.1c.3-.1.5-.3.8-.5.2-.2.4-.5.5-.9.1-.4.2-.9.2-1.4h0Z"/>
  <path class="st5" d="M393.4,172.4v-8h1.1l.2,1.6c.2-.5.5-.9,1-1.2s1-.5,1.5-.5.5,0,.7,0,.4.1.5.2l-.3,1.3c-.1,0-.3-.1-.5-.2s-.4,0-.6,0c-.3,0-.6,0-.9.2s-.5.3-.7.5c-.2.2-.4.5-.5.8s-.2.7-.2,1.1v4.1h-1.5,0Z"/>
  <path class="st5" d="M404.5,165.5h-2.4v4.6c0,.4.1.7.3.8.2.1.5.2.8.2s.5,0,.8,0,.5-.1.7-.2l.2,1.1c-.2,0-.5.2-.9.2s-.7.1-1.1.1c-.8,0-1.4-.2-1.7-.5-.4-.4-.5-.9-.5-1.5v-4.9h-1.2v-1.1h1.2v-2.6h1.5v2.6h2.4v1.1h0Z"/>
  <path class="st5" d="M408,172.4h-1.5v-12.1h1.5v5.1c.4-.3.8-.6,1.2-.8.5-.2,1-.3,1.5-.3s.8,0,1.2.2c.3.1.6.3.8.5s.4.5.5.8c.1.3.2.7.2,1v5.5h-1.5v-5.1c0-.6-.1-1.1-.4-1.3-.2-.3-.6-.4-1.1-.4s-.8.1-1.2.3c-.4.2-.8.5-1.2.8v5.8h0Z"/>
  <path class="st5" d="M416.2,172.6c-.3,0-.5-.2-.7-.4-.1-.2-.2-.4-.2-.7s0-.5.3-.7.5-.3.8-.3.3,0,.4,0c.1,0,.3.1.4.2s.2.3.3.5.1.5.1.8c0,.6-.2,1.2-.5,1.7s-.8.9-1.3,1.2l-.5-.7c.3-.2.6-.4.8-.6s.4-.6.5-1h-.3c0,0,0,0,0,0Z"/>
  <path class="st5" d="M320.9,187.1c.3-.1.5-.3.8-.4.2-.1.5-.2.7-.3.2,0,.5-.1.7-.1s.5,0,.8,0c.4,0,.9,0,1.2.1s.7.3,1,.5c.3.2.5.5.6.9s.2.8.2,1.4v5.2h-1.2l-.2-.9h0c-.4.4-.7.6-1.2.8s-.9.2-1.4.2-.7,0-1.1-.2-.6-.3-.8-.5c-.2-.2-.4-.4-.5-.7-.1-.3-.2-.6-.2-.9,0-.8.3-1.5,1-1.9.7-.4,1.5-.6,2.6-.6h1.5v-.7c0-.6-.1-1-.4-1.2-.3-.2-.7-.3-1.2-.3s-.6,0-1,.1c-.4.1-.8.3-1.3.6l-.6-1.1h0ZM325.5,190.7h-1.3c-.9,0-1.5.2-1.8.5s-.5.6-.5,1,0,.4.1.6.2.3.3.4c.1,0,.3.2.5.2s.4,0,.5,0c.4,0,.8,0,1.1-.3s.7-.5,1-.8v-1.6h0Z"/>
  <path class="st5" d="M330.7,194.4h-1.5v-8h1.2l.2,1.1c.4-.4.8-.7,1.2-.9s.9-.3,1.5-.3c.8,0,1.5.2,1.9.7.5.5.7,1.1.7,1.9v5.5h-1.5v-5.3c0-.5-.1-.9-.4-1.2s-.6-.4-1.2-.4c-.8,0-1.5.4-2.2,1.1v5.8h0Z"/>
  <path class="st5" d="M343.5,182.3h1.5v12.1h-1.3l-.2-.9h0c-.4.4-.7.6-1.1.8-.4.2-.8.2-1.4.2s-.9,0-1.2-.2-.8-.4-1.1-.8c-.3-.3-.6-.8-.8-1.3-.2-.5-.3-1.1-.3-1.8s0-1.2.2-1.7c.2-.5.4-.9.7-1.3s.7-.6,1.1-.8,1-.3,1.5-.3.8,0,1.2.2c.4.1.7.3,1,.6v-4.7h0ZM343.5,188.3c-.5-.6-1.2-.9-1.9-.9s-.6,0-.9.2-.5.3-.8.5c-.2.2-.4.5-.5.9-.1.4-.2.8-.2,1.3s0,1,.2,1.4c.1.4.3.7.5.9.2.2.5.4.7.5.3.1.5.2.8.2.9,0,1.5-.4,2.1-1.1v-4h0Z"/>
  <path class="st5" d="M352.6,194.4h-1.5v-8h1.2l.2,1.1c.4-.4.8-.7,1.2-.9s1-.3,1.5-.3,1,.1,1.4.4c.4.2.6.6.8,1,.4-.4.8-.7,1.3-1s1-.3,1.6-.3,1.4.2,1.8.7.6,1.1.6,1.9v5.5h-1.5v-5.2c0-.5-.1-.9-.3-1.2s-.6-.4-1.1-.4c-.8,0-1.5.4-2.2,1,0,0,0,.1,0,.2v5.7h-1.5v-5.2c0-.5-.1-.9-.3-1.2s-.6-.4-1.1-.4c-.8,0-1.5.4-2.1,1.1v5.8h0Z"/>
  <path class="st5" d="M372.5,190.3c0,.7-.1,1.3-.3,1.8-.2.5-.5,1-.8,1.3s-.8.6-1.2.8-1,.3-1.5.3-1.1,0-1.5-.3c-.5-.2-.9-.4-1.2-.8s-.6-.8-.8-1.3-.3-1.1-.3-1.7.1-1.3.3-1.8c.2-.5.5-1,.8-1.3s.8-.6,1.2-.8,1-.3,1.5-.3,1.1,0,1.5.2.9.4,1.2.8c.4.3.6.8.8,1.3s.3,1.1.3,1.7ZM370.9,190.4c0-.5,0-1-.2-1.4-.1-.4-.3-.7-.5-.9-.2-.2-.5-.4-.8-.5-.3-.1-.6-.2-.9-.2s-.6,0-.9.1-.5.2-.8.5-.4.5-.5.9c-.1.4-.2.9-.2,1.4s0,1,.2,1.4c.1.4.3.7.5.9.2.2.5.4.8.5.3.1.6.2.9.2s.6,0,.9-.1c.3-.1.5-.3.8-.5.2-.2.4-.5.5-.9.1-.4.2-.9.2-1.4h0Z"/>
  <path class="st5" d="M374.3,194.4v-8h1.1l.2,1.6c.2-.5.5-.9,1-1.2s1-.5,1.5-.5.5,0,.7,0,.4.1.5.2l-.3,1.3c-.1,0-.3-.1-.5-.2s-.4,0-.6,0c-.3,0-.6,0-.9.2s-.5.3-.7.5c-.2.2-.4.5-.5.8s-.2.7-.2,1.1v4.1h-1.5,0Z"/>
  <path class="st5" d="M387,190.6h-5.7c0,1,.2,1.6.7,2.1s1.1.7,2,.7.8,0,1.1-.1c.3,0,.7-.2,1.1-.3l.3,1.1c-.3.1-.7.3-1.2.4-.5,0-.9.1-1.4.1s-1.1,0-1.6-.2-1-.4-1.3-.7c-.4-.3-.7-.8-.9-1.3s-.3-1.1-.3-1.9,0-1.2.3-1.7.5-.9.8-1.3.8-.6,1.2-.8,1-.3,1.6-.3,1,0,1.4.2c.4.2.8.4,1.1.7.3.3.5.7.7,1.1.2.4.2.9.2,1.4v.8h0ZM385.5,189.5c0-.3,0-.6-.1-.8,0-.2-.2-.5-.3-.7s-.4-.4-.6-.5-.5-.2-.9-.2c-.6,0-1.1.2-1.5.6-.4.4-.6.9-.7,1.6h4.1s0,0,0,0Z"/>
</svg>