<?xml version="1.0" encoding="UTF-8"?><svg id="a" xmlns="http://www.w3.org/2000/svg" width="100" height="100" viewBox="0 0 100 100"><g><path d="m38.24,45.8c10.14,0,15.21-10.92,15.21-22.22,0-8.19-1.17-12.87-4.68-15.99-3.12-2.73-5.69-3.58-10.92-3.51-7.02.1-15.6,3.12-15.6,16.77,0,6.67,2.16,12.39,4.61,16.67" fill="none" stroke="#999" stroke-linecap="round" stroke-linejoin="round"/><path d="m34.03,69.58H9.49c-2.64,0-4.79-2.14-4.79-4.79v-.62c.57-9.4,8.97-17.98,20.67-19.55l.67-.1c2.91-.44,5.74.33,8.63.89,1.79.35,1.63.38,3.56.38" fill="none" stroke="#999" stroke-linecap="round" stroke-linejoin="round"/><polyline points="56.25 70.81 65.37 80.04 82.23 62.78" fill="none" stroke="#999" stroke-linecap="round" stroke-linejoin="round"/></g><path d="m44.12,74.55c2.08,12.14,12.66,21.38,25.4,21.38,14.48,0,26.17-11.94,25.76-26.5-.37-13.45-11.58-24.66-25.03-25.03-11.78-.33-21.84,7.26-25.26,17.83-.73,2.26-2.11,4.1-3.9,5.38-1.86,1.33-4.17,2.05-6.65,1.98h0" fill="none" stroke="#999" stroke-linecap="round" stroke-linejoin="round"/></svg>