<?xml version="1.0" encoding="UTF-8"?><svg id="a" xmlns="http://www.w3.org/2000/svg" width="50" height="50" viewBox="0 0 50 50"><circle cx="25" cy="25" r="21.73" fill="none" stroke="#999" stroke-linecap="round" stroke-linejoin="round"/><g><g><g><circle cx="25" cy="3.27" r="2.32" fill="#fff" stroke="#999" stroke-linecap="round" stroke-linejoin="round"/><circle cx="25" cy="46.73" r="2.32" fill="#fff" stroke="#999" stroke-linecap="round" stroke-linejoin="round"/></g><g><circle cx="46.73" cy="25" r="2.32" fill="#fff" stroke="#999" stroke-linecap="round" stroke-linejoin="round"/><circle cx="3.27" cy="25" r="2.32" fill="#fff" stroke="#999" stroke-linecap="round" stroke-linejoin="round"/></g></g><g><g><circle cx="40.36" cy="9.64" r="2.32" fill="#fff" stroke="#999" stroke-linecap="round" stroke-linejoin="round"/><circle cx="9.64" cy="40.36" r="2.32" fill="#fff" stroke="#999" stroke-linecap="round" stroke-linejoin="round"/></g><g><circle cx="40.36" cy="40.36" r="2.32" fill="#fff" stroke="#999" stroke-linecap="round" stroke-linejoin="round"/><circle cx="9.64" cy="9.64" r="2.32" fill="#fff" stroke="#999" stroke-linecap="round" stroke-linejoin="round"/></g></g></g><g><g><g><line x1="25" y1="5.6" x2="25" y2="9.64" fill="none" stroke="#999" stroke-linecap="round" stroke-linejoin="round"/><line x1="25" y1="40.36" x2="25" y2="44.4" fill="none" stroke="#999" stroke-linecap="round" stroke-linejoin="round"/></g><g><line x1="44.4" y1="25" x2="40.36" y2="25" fill="none" stroke="#999" stroke-linecap="round" stroke-linejoin="round"/><line x1="11.09" y1="25" x2="5.6" y2="25" fill="none" stroke="#999" stroke-linecap="round" stroke-linejoin="round"/></g></g><g><g><line x1="38.72" y1="11.28" x2="35.86" y2="14.14" fill="none" stroke="#999" stroke-linecap="round" stroke-linejoin="round"/><line x1="14.14" y1="35.86" x2="11.28" y2="38.72" fill="none" stroke="#999" stroke-linecap="round" stroke-linejoin="round"/></g><g><line x1="38.72" y1="38.72" x2="35.86" y2="35.86" fill="none" stroke="#999" stroke-linecap="round" stroke-linejoin="round"/><line x1="14.14" y1="14.14" x2="11.28" y2="11.28" fill="none" stroke="#999" stroke-linecap="round" stroke-linejoin="round"/></g></g></g><g><path d="m34.12,26.08h-.52c.04-.27.06-.44.06-.66,0-1.63-1.3-2.97-2.7-2.97-.39,0-.63.05-.96.23-.03-1.78-1.4-3.17-2.94-3.17-.81,0-1.53.35-2.05.99-.8-1.12-2-1.77-3.34-1.77-2.33,0-4.4,2.11-4.5,4.86h-.4c-1.84,0-3.16,1.72-3.16,3.87s1.32,3.97,3.16,3.97h17.18c1.25,0,2.44-1.15,2.44-2.61s-1.01-2.74-2.26-2.74" fill="none" stroke="#999" stroke-linecap="round" stroke-linejoin="round"/><path d="m32.06,15.44l-8.99,8.24v-3.05h-2.17v7.39l13.79-12.59h-2.63Z" fill="#0018f9" fill-rule="evenodd"/></g></svg>