<?xml version="1.0" encoding="UTF-8"?><svg id="a" xmlns="http://www.w3.org/2000/svg" width="100" height="100" viewBox="0 0 100 100"><path d="M48.6,86.7c-18-2.3-32.8-17-35.1-35-.7-5.3-.1-10.9,1.6-17.2l5.2,8.3c.1.2.4.3.6.3.1,0,.3,0,.4-.1.4-.2.5-.7.2-1l-6.1-9.8c-.1-.2-.3-.3-.5-.3s-.4,0-.6.1l-9.8,6.1c-.3.2-.5.7-.2,1,.2.3.7.5,1,.2l8.2-5.1c-1.8,6.4-2.3,12.2-1.6,17.6,2.4,18.7,17.7,34,36.4,36.3h.1c.4,0,.7-.3.7-.7.2-.3-.1-.7-.5-.7h0Z" style="fill:#999; stroke-width:0px;"/><path d="M95.8,46.5c0-3.8-.5-7.5-1.5-11-.1-.4-.5-.6-.9-.5s-.6.5-.5.9c.9,3.5,1.4,7,1.4,10.7,0,21.1-16.1,38.5-36.9,40.4l6.3-7.6c.3-.3.2-.8-.1-1.1s-.8-.2-1.1.1l-7.5,9c-.1.2-.2.4-.2.6s.1.4.3.5l9.1,7.1c.1.1.3.2.5.2s.4-.1.6-.3c.2-.3.2-.8-.1-1.1l-7.6-5.9c21.5-2.1,38.1-20.2,38.2-42h0Z" style="fill:#999; stroke-width:0px;"/><path d="M17.1,27.4c.4.2.8.1,1-.3C25.2,14,38.8,5.9,53.7,5.9c15.8,0,30,9.1,36.7,23.2l-9.5-3.1c-.4-.1-.8.1-.9.5s.1.8.5,1l11,3.7h.2c.1,0,.2,0,.4-.1.1-.1.2-.2.3-.3.1-.1.2-.3.2-.5l2.8-11.4c.1-.4-.2-.8-.6-.9s-.8.1-.9.5l-2.4,9.5c-7-14.4-21.6-23.6-37.8-23.6S24.1,12.8,16.8,26.4c-.2.3-.1.8.3,1h0Z" style="fill:#999; stroke-width:0px;"/><path d="M70.9,37.1l-25.7,19.4-9-12.6c-.2-.3-.7-.4-1-.2s-.4.7-.2,1l9.5,13.3c.1.2.3.3.5.3h.1c.2,0,.3,0,.5-.2l26.3-19.9c.3-.2.4-.7.2-1-.4-.3-.9-.3-1.2-.1h0Z" style="fill:#999; stroke-width:0px;"/></svg>