<?xml version="1.0" encoding="UTF-8"?><svg id="a" xmlns="http://www.w3.org/2000/svg" width="100" height="100" viewBox="0 0 100 100"><path d="M38.73,36.56c2.41-2.27,5.01-4.67,7.67-7.04,2.47-2.2,5.4-2.5,8.48-.86l.11.06c.55.29,1.1.59,1.63.92,1,.63,2,1.26,2.99,1.9,1.55.99,3.09,1.97,4.66,2.93,2.22,1.36,4.61,2.69,7.3,2.79,1.65.06,7-.23,11.71-.49,3.23-.18,6.28-.34,7.76-.38-5.72-17.2-21.95-29.65-41.05-29.65S13.18,20.36,8.23,38.8l30.5-2.23Z" style="fill:none;"/><path d="M91.51,37.87s-.04.01-.07.01c-1.25,0-4.56.19-8.07.38-4.74.26-10.11.56-11.85.49-3.05-.11-5.64-1.55-8.03-3.01-1.57-.96-3.13-1.95-4.68-2.95-.99-.63-1.98-1.27-2.98-1.89-.5-.31-1.03-.59-1.55-.87l-.11-.06c-2.51-1.34-4.79-1.12-6.78.66-4.24,3.78-8.33,7.64-11.76,10.92-.41.4-.59.87-.51,1.33.1.52.51.95,1.12,1.2.98.4,1.86.32,2.68-.24,1.82-1.24,3.63-2.48,5.44-3.72l1.8-1.23c3.76-2.58,5.9-2.57,9.54.03,2.36,1.69,4.71,3.46,6.99,5.17,1.19.89,2.38,1.79,3.58,2.67,2.01,1.49,4.03,2.97,6.05,4.43,1.6,1.16,2.58,2.62,2.92,4.35.1.49.14.97.13,1.43l3.59.08c.36,0,9.27-.03,13.45,1.37.54-2.73.83-5.55.83-8.44,0-4.21-.62-8.28-1.74-12.13Z" style="fill:none;"/><path d="M78.96,58.57l-3.8-.09c-.19.67-.5,1.29-.92,1.83-1.04,1.32-2.68,2.09-4.61,2.16-.86.03-1.75-.08-2.59-.2-.21-.03-.42-.06-.63-.08-.1.27-.21.56-.33.84-1.18,2.65-3.45,3.78-6.25,3.1-.79-.19-1.54-.49-2.27-.77-.07-.03-.14-.05-.21-.08-.06.23-.12.47-.19.71-.94,3.16-3.79,4.74-6.94,3.85-.7-.19-1.37-.46-2.02-.72-.08-.03-.17-.07-.25-.1-.16.29-.33.58-.51.86-1.18,1.82-2.84,2.77-4.74,2.77-.74,0-1.52-.15-2.32-.44-2.22-.82-3.99-2.3-5.57-3.77-.7-.65-1.39-1.31-2.08-1.96-1.15-1.1-2.35-2.23-3.55-3.31-1.07-.97-2.26-1.89-3.75-2.09-.38,0-5.43.38-9.46.69-4.58.36-6.55.51-7.44.56,5.32,17.87,21.88,30.94,41.45,30.94s37.6-14.25,42.09-33.34c-3.84-1.37-13.03-1.35-13.14-1.34Z" style="fill:none;"/><path d="M15.87,60.26c7.76-.6,9.49-.73,9.78-.68,1.89.26,3.3,1.34,4.55,2.47,1.21,1.09,2.42,2.23,3.58,3.34.69.65,1.37,1.31,2.07,1.95,1.46,1.37,3.09,2.73,5.06,3.46,2.19.81,4.01.21,5.28-1.74.19-.29.36-.59.52-.9l.25-.45c.18-.32.57-.46.91-.33.29.11.59.23.88.34.64.25,1.25.5,1.87.67,2.39.67,4.39-.44,5.1-2.84.1-.32.18-.64.25-.95l.13-.52c.05-.2.19-.37.38-.47.19-.1.41-.11.6-.04.34.12.68.26,1.02.39.71.28,1.39.54,2.07.71,2.08.51,3.64-.27,4.52-2.25.13-.3.25-.62.35-.9l.15-.42c.12-.31.45-.51.77-.47.43.04.84.1,1.26.15.82.11,1.59.22,2.33.19,1.48-.06,2.72-.62,3.49-1.59.74-.93.99-2.19.73-3.54-.27-1.36-1.03-2.48-2.33-3.43-2.03-1.47-4.05-2.95-6.07-4.44-1.2-.89-2.39-1.78-3.58-2.68-2.27-1.71-4.62-3.47-6.97-5.15-3.11-2.23-4.58-2.23-7.82-.01l-1.8,1.23c-1.81,1.24-3.62,2.49-5.44,3.73-1.23.84-2.64.97-4.08.39-1.08-.44-1.84-1.3-2.03-2.31-.19-.97.16-1.95.94-2.7.77-.73,1.57-1.5,2.4-2.28l-29.15,2.14c-.71,3.11-1.1,6.35-1.1,9.67,0,3.74.48,7.37,1.38,10.84.8-.04,4.47-.32,7.74-.57Z" style="fill:none;"/><path d="M50,5.25C25.33,5.25,5.25,25.32,5.25,50s20.08,44.75,44.75,44.75,44.75-20.07,44.75-44.75S74.67,5.25,50,5.25ZM92.42,58.44c-4.18-1.4-13.09-1.37-13.45-1.37l-3.59-.08c0-.47-.03-.95-.13-1.43-.34-1.73-1.32-3.19-2.92-4.35-2.03-1.47-4.04-2.94-6.05-4.43-1.2-.89-2.39-1.78-3.58-2.67-2.28-1.71-4.64-3.48-6.99-5.17-3.63-2.6-5.78-2.61-9.54-.03l-1.8,1.23c-1.81,1.24-3.62,2.48-5.44,3.72-.82.56-1.7.64-2.68.24-.61-.25-1.02-.69-1.12-1.2-.09-.46.09-.93.51-1.33,3.44-3.28,7.52-7.14,11.76-10.92,1.99-1.77,4.27-2,6.78-.66l.11.06c.52.28,1.05.56,1.55.87.99.62,1.99,1.26,2.98,1.89,1.55.99,3.11,1.98,4.68,2.95,2.39,1.46,4.98,2.9,8.03,3.01,1.74.06,7.11-.23,11.85-.49,3.51-.19,6.82-.38,8.07-.38.02,0,.05-.01.07-.01,1.13,3.85,1.74,7.92,1.74,12.13,0,2.89-.29,5.71-.83,8.44ZM50,6.75c19.1,0,35.33,12.44,41.05,29.65-1.48.03-4.53.2-7.76.38-4.71.26-10.06.55-11.71.49-2.69-.1-5.08-1.44-7.3-2.79-1.56-.96-3.11-1.94-4.66-2.93-.99-.63-1.99-1.27-2.99-1.9-.53-.33-1.08-.62-1.63-.92l-.11-.06c-3.08-1.64-6.01-1.35-8.48.86-2.66,2.37-5.26,4.77-7.67,7.04l-30.5,2.23C13.18,20.36,30.03,6.75,50,6.75ZM7.85,40.33l29.15-2.14c-.83.78-1.63,1.55-2.4,2.28-.78.75-1.13,1.73-.94,2.7.19,1.01.95,1.87,2.03,2.31,1.45.58,2.86.45,4.08-.39,1.82-1.24,3.63-2.48,5.44-3.73l1.8-1.23c3.24-2.22,4.7-2.22,7.82.01,2.34,1.68,4.69,3.44,6.97,5.15,1.19.9,2.38,1.79,3.58,2.68,2.02,1.5,4.04,2.97,6.07,4.44,1.3.94,2.06,2.06,2.33,3.43.27,1.35,0,2.61-.73,3.54-.77.97-2,1.53-3.49,1.59-.74.03-1.52-.08-2.33-.19-.41-.06-.83-.11-1.26-.15-.33-.03-.65.16-.77.47l-.15.42c-.1.28-.22.59-.35.9-.88,1.98-2.44,2.76-4.52,2.25-.69-.17-1.36-.43-2.07-.71-.33-.13-.67-.26-1.02-.39-.2-.07-.42-.06-.6.04-.19.1-.32.27-.38.47l-.13.52c-.08.31-.16.63-.25.95-.71,2.4-2.71,3.51-5.1,2.84-.62-.17-1.23-.41-1.87-.67-.29-.12-.58-.23-.88-.34-.34-.13-.73.01-.91.33l-.25.45c-.17.3-.33.6-.52.9-1.27,1.95-3.09,2.55-5.28,1.74-1.97-.73-3.6-2.09-5.06-3.46-.69-.65-1.38-1.3-2.07-1.95-1.16-1.1-2.36-2.25-3.58-3.34-1.24-1.12-2.65-2.2-4.55-2.47-.29-.04-2.02.08-9.78.68-3.27.25-6.93.54-7.74.57-.9-3.46-1.38-7.1-1.38-10.84,0-3.32.39-6.56,1.1-9.67ZM50,93.25c-19.57,0-36.14-13.07-41.45-30.94.89-.05,2.85-.2,7.44-.56,4.03-.31,9.08-.7,9.46-.69,1.49.21,2.68,1.13,3.75,2.09,1.2,1.08,2.39,2.21,3.55,3.31.69.66,1.38,1.31,2.08,1.96,1.58,1.47,3.35,2.95,5.57,3.77.8.3,1.58.44,2.32.44,1.89,0,3.55-.95,4.74-2.77.18-.28.35-.57.51-.86.08.03.17.07.25.1.65.26,1.32.52,2.02.72,3.15.89,6-.7,6.94-3.85.07-.24.13-.47.19-.71.07.03.14.05.21.08.73.29,1.48.58,2.27.77,2.79.68,5.07-.45,6.25-3.1.12-.28.23-.57.33-.84.21.03.42.06.63.08.85.12,1.73.23,2.59.2,1.93-.07,3.56-.84,4.61-2.16.43-.54.73-1.16.92-1.83l3.8.09c.11,0,9.29-.03,13.14,1.34-4.49,19.09-21.65,33.34-42.09,33.34Z" style="fill:#999;"/></svg>