<?xml version="1.0" encoding="UTF-8"?><svg id="a" xmlns="http://www.w3.org/2000/svg" width="100" height="100" viewBox="0 0 100 100"><path d="M55.4,4.2c-21.6,0-39.1,17.5-39.1,39.1,0,2.1.2,4.2.5,6.2.1.4.5.7.9.6s.7-.5.6-.9c-.3-1.9-.5-3.9-.5-5.9,0-20.7,16.9-37.6,37.6-37.6s37.6,16.9,37.6,37.7-16.9,37.6-37.6,37.6c-.4,0-.8.3-.8.8s.3.8.8.8c21.6,0,39.1-17.5,39.1-39.1S76.9,4.2,55.4,4.2Z" style="fill:#999; stroke-width:0px;"/><path d="M59.5,66.8h.1c11.3-2,19.5-11.9,19.5-23.4,0-13.1-10.7-23.8-23.8-23.8s-23.7,10.7-23.7,23.8c0,.4.3.8.7.8s.8-.3.8-.8c0-12.3,10-22.3,22.3-22.3s22.3,10,22.3,22.3c0,10.8-7.7,20-18.3,21.9-.4.1-.7.5-.6.9,0,.3.3.6.7.6h0Z" style="fill:#999; stroke-width:0px;"/><path d="M56.8,51.1c-.4.1-.7.5-.6.9.1.4.4.6.7.6h.1c4.5-.8,7.8-4.7,7.8-9.3,0-5.2-4.2-9.4-9.4-9.4s-9.4,4.1-9.4,9.3c0,.4.3.8.8.8s.8-.3.8-.8c0-4.4,3.6-7.9,7.9-7.9s7.9,3.6,7.9,7.9c-.1,3.9-2.8,7.2-6.6,7.9Z" style="fill:#999; stroke-width:0px;"/><path d="M56.2,42.1c-.2-.2-.6-.2-.8-.1L5.9,68.9c-.2.1-.4.4-.4.7s.1.5.4.7l12.8,7.5,2.4,17.5c0,.3.3.6.6.6h.2c.2,0,.5-.1.6-.3l5.7-7.8c.2-.3.2-.8-.2-1.1s-.8-.2-1,.2l-4.6,6.3-2.2-16c0-.2-.2-.4-.4-.6l-12-7,44.7-24.3-30.3,33.4c-.1.2-.2.4-.2.6s.1.4.3.5l17,11.7s.1,0,.1.1c.1.1.2.1.3.2.4.1.8-.1,1-.5l15.7-48.4c.1-.3,0-.6-.2-.8h0ZM39.5,89.9l-15.7-10.8,30-33c0-.1-14.3,43.8-14.3,43.8Z" style="fill:#999; stroke-width:0px;"/></svg>