<?xml version="1.0" encoding="UTF-8"?><svg id="a" xmlns="http://www.w3.org/2000/svg" width="100" height="100" viewBox="0 0 100 100"><g><path d="m88.11,82.5c.78-1.4,1.56-2.95,1.87-4.67l3.89-.47c.78-.16,1.4-.78,1.4-1.56v-4.67c0-.78-.62-1.4-1.4-1.56l-3.89-.47c-.47-1.56-1.09-3.11-1.87-4.67l2.33-3.11c.47-.62.47-1.56-.16-2.18l-3.11-3.42c-.62-.62-1.4-.62-2.02-.16l-3.11,2.49c-1.4-.78-2.95-1.56-4.67-1.87l-.47-3.89c-.16-.78-.78-1.4-1.56-1.4h-4.67c-.78,0-1.4.62-1.56,1.4l-.47,3.89c-1.56.47-3.11,1.09-4.67,1.87l-3.11-2.49c-.62-.47-1.56-.47-2.02.16l-3.27,3.42c-.62.62-.62,1.4-.16,2.02l2.49,3.11m-1.87,4.67l-4.2.47c-.78.16-1.4.78-1.4,1.56v4.67c0,.78.62,1.4,1.4,1.56l3.89.47c.47,1.56,1.09,3.11,1.87,4.67l-2.49,3.11c-.47.62-.47,1.56.16,2.02l3.27,3.42c.62.62,1.4.62,2.02.16l3.11-2.49c1.4.78,2.95,1.56,4.67,1.87l.47,3.89c.16.78.78,1.4,1.56,1.4h4.67c.78,0,1.4-.62,1.56-1.4l.47-3.89c2.02-.31,3.58-.93,4.98-1.71l3.11,2.33c.31.16.62.31.93.31.47,0,.93-.16,1.09-.47l3.27-3.27" fill="none" stroke="#999" stroke-linecap="round" stroke-linejoin="round"/><path d="m82.69,68c-1.89-3.4-5.52-5.72-9.66-5.72-6.06,0-11.04,4.98-11.04,11.04s4.98,11.04,11.04,11.04,11.04-4.98,11.04-11.04" fill="none" stroke="#999" stroke-linecap="round" stroke-linejoin="round"/></g><g><polyline points="71.32 46.32 82.04 4.28 10.44 33.18 34.39 54.53 75.38 11.99" fill="none" stroke="#999" stroke-linecap="round" stroke-linejoin="round"/><polyline points="75.38 11.99 39.59 59.02 49.29 67.41" fill="none" stroke="#999" stroke-linecap="round" stroke-linejoin="round"/><line x1="31.74" y1="62.35" x2="4.74" y2="93.58" fill="none" stroke="#999" stroke-linecap="round" stroke-linejoin="round"/><line x1="43.83" y1="72.8" x2="29.1" y2="89.83" fill="none" stroke="#999" stroke-linecap="round" stroke-linejoin="round"/><line x1="19.65" y1="51.9" x2="4.93" y2="68.93" fill="none" stroke="#999" stroke-linecap="round" stroke-linejoin="round"/></g></svg>