<?xml version="1.0" encoding="UTF-8"?>
<svg id="Layer_1" xmlns="http://www.w3.org/2000/svg" version="1.1" viewBox="0 0 14 14">
  <!-- Generator: Adobe Illustrator 29.8.1, SVG Export Plug-In . SVG Version: 2.1.1 Build 2)  -->
  <defs>
    <style>
      .st0 {
        fill: #0018f9;
      }
    </style>
  </defs>
  <path class="st0" d="M9,5.3c-.1,0-.3,0-.4-.1l-1.6-1.6-1.6,1.6c-.2.2-.5.2-.7,0s-.2-.5,0-.7l2-2c.2-.2.5-.2.7,0l2,2c.2.2.2.5,0,.7s-.2.1-.4.1Z"/>
  <path class="st0" d="M7,.1C3.2.1.1,3.2.1,7s3.1,6.9,6.9,6.9,6.9-3.1,6.9-6.9S10.8.1,7,.1ZM9.3,9.1l-2,2c-.2.2-.5.2-.7,0l-2-2c-.2-.2-.2-.5,0-.7s.2-.1.4-.1.3,0,.4.1l1.6,1.6,1.6-1.6c.2-.2.5-.2.7,0s.2.5,0,.7ZM1.1,6.5C1.4,3.5,3.9,1.1,7,1.1s5.6,2.4,5.9,5.4H1.1Z"/>
</svg>