<?xml version="1.0" encoding="UTF-8"?>
<svg id="Layer_1" data-name="Layer 1" xmlns="http://www.w3.org/2000/svg" viewBox="0 0 60 50">
  <defs>
    <style>
      .cls-1 {
        fill: #5ba529;
      }

      .cls-1, .cls-2 {
        stroke-width: 0px;
      }

      .cls-2 {
        fill: #06c;
      }

      .cls-3 {
        fill: none;
        stroke: #fff;
        stroke-linecap: round;
        stroke-linejoin: round;
        stroke-width: 2.5px;
      }
    </style>
  </defs>
  <path class="cls-2" d="M.71,45.8v4.2s49.5,0,49.5,0v-5.9s-1.34-1.75-1.34-1.75c-1.2-.5-16.36-7.55-16.46-7.65v-4.4c1.4-1,2.3-3.9,2.3-5.4,1.6,0,2-2.3,2.5-3.9.5-1.5.2-2.9-.7-2.9.6-1.6,1-3.4,1.1-5.1.5-5.8-3.2-11-8.7-12.5-3.4-.8-6.9.1-9.4,2.5-1.9.2-3.7,1.1-4.8,2.6-1.9,3.7-1.9,8.1,0,11.8-1.4,0-1.1,2.2-.6,3.6.6,1.4,1.2,4,2.6,4-.2,1.9.9,4,2.1,5.5v4.1c-.7.5-18.1,7.1-18.1,11.2Z"/>
  <g>
    <path class="cls-1" d="M48.19,37.21c-.36,0-.65.29-.65.65s.29.65.65.65.65-.29.65-.65-.29-.65-.65-.65Z"/>
    <path class="cls-1" d="M48.33,26.89c-6.11,0-11.06,4.95-11.06,11.06s4.95,11.06,11.06,11.06,11.06-4.95,11.06-11.06-4.95-11.06-11.06-11.06Z"/>
    <g>
      <line class="cls-3" x1="48.33" y1="32.52" x2="48.33" y2="43.37"/>
      <line class="cls-3" x1="53.76" y1="37.95" x2="42.91" y2="37.95"/>
    </g>
  </g>
</svg>