<?xml version="1.0" encoding="UTF-8"?><svg id="a" xmlns="http://www.w3.org/2000/svg" width="50" height="50" viewBox="0 0 50 50"><path d="m24.88,29.97c6.99,0,10.49-7.53,10.49-15.33,0-5.65-.81-8.88-3.23-11.03-2.15-1.88-3.93-2.47-7.53-2.42-4.84.07-10.76,2.15-10.76,11.56,0,4.6,1.49,8.55,3.18,11.49" fill="none" stroke="#999" stroke-linecap="round" stroke-linejoin="round"/><path d="m29.27,46.37H5.05c-1.82,0-3.3-1.48-3.3-3.3v-.43c.39-6.49,6.18-12.41,14.25-13.48l.46-.07c2-.3,3.96.23,5.95.61,1.23.24,1.12.26,2.46.26" fill="none" stroke="#999" stroke-linecap="round" stroke-linejoin="round"/><line x1="29.55" y1="46.37" x2="29.55" y2="46.37" fill="none" stroke="#9b9a9a" stroke-linecap="round" stroke-linejoin="round"/><circle cx="38.83" cy="39.39" r="9.42" fill="none" stroke="#999" stroke-linecap="round" stroke-linejoin="round"/><path d="m45,43.44h0c-.02-.3-.16-.58-.39-.78l-3.65-3.34,3.39-3.7c.2-.23.29-.52.27-.82-.02-.3-.16-.58-.39-.77-.23-.19-.52-.29-.82-.27h0s0,0,0,0c-.3.02-.58.16-.78.39l-3.34,3.65-3.7-3.39h0c-.23-.2-.53-.29-.83-.27-.3.02-.58.17-.77.4-.19.23-.29.52-.26.82.02.3.16.57.39.77l3.65,3.34-3.39,3.7h0c-.2.23-.29.53-.27.83.02.3.17.58.4.77.23.19.52.29.82.26.3-.02.57-.16.77-.39l3.34-3.65,3.7,3.39c.23.2.52.29.82.27.3-.02.58-.16.77-.39.19-.23.29-.52.27-.82h0Z" fill="#ef4c4e" fill-rule="evenodd"/></svg>