<?xml version="1.0" encoding="UTF-8"?>
<svg id="a" xmlns="http://www.w3.org/2000/svg" width="45" height="45" viewBox="0 0 45 45">
  <path fill="#c2cfe3" d="M8.8,16.31c0-.48.05-1.09.13-1.69.24-1.68.79-3.25,1.63-4.73.66-1.17,1.47-2.22,2.43-3.16.89-.86,1.87-1.59,2.95-2.2.81-.46,1.66-.84,2.55-1.12.53-.17,1.07-.31,1.63-.41,1.01-.18,2.03-.26,3.06-.2.89.05,1.76.17,2.62.4.81.21,1.59.5,2.35.85,1.04.49,2.01,1.09,2.91,1.81.77.62,1.47,1.33,2.08,2.11.54.68,1.03,1.4,1.45,2.16.42.77.75,1.58,1.02,2.42.15.48.29.95.38,1.45.22,1.23.3,2.46.16,3.7-.16,1.43-.56,2.79-1.13,4.11-.32.74-.69,1.46-1.07,2.17-.27.51-.55,1.01-.83,1.52-.35.62-.71,1.24-1.07,1.85-.16.28-.33.56-.5.84-.62,1-1.23,2.01-1.86,3.01-.82,1.29-1.64,2.58-2.47,3.87-.65,1-1.31,2-1.96,3-.67,1.03-1.32,2.07-1.98,3.11-.17.27-.33.55-.48.82-.07.12-.15.18-.28.18-.13,0-.2-.07-.26-.17-.36-.6-.72-1.2-1.09-1.78-.74-1.15-1.48-2.3-2.23-3.44-.43-.66-.86-1.33-1.29-1.99-.55-.85-1.11-1.7-1.66-2.55-.93-1.44-1.82-2.9-2.69-4.37-.81-1.36-1.58-2.74-2.33-4.13-.4-.73-.77-1.48-1.08-2.26-.39-.98-.7-1.98-.88-3.01-.1-.57-.17-1.29-.17-2.19ZM29.09,16.06c0-.73-.09-1.38-.31-2.02-.46-1.37-1.27-2.5-2.43-3.37-1.07-.79-2.27-1.2-3.6-1.28-.44-.03-.88,0-1.32.08-.83.14-1.61.42-2.33.87-.84.52-1.53,1.19-2.08,2.01-.64.96-1.02,2-1.12,3.15-.04.46-.04.92.02,1.38.14,1,.48,1.92,1.03,2.76.67,1.03,1.58,1.79,2.68,2.32.63.31,1.31.5,2,.59.88.12,1.75.07,2.6-.17.73-.2,1.42-.51,2.04-.95.79-.55,1.42-1.25,1.92-2.08.35-.6.59-1.24.74-1.91.11-.47.16-.95.15-1.38Z"/>
</svg>