<?xml version="1.0" encoding="UTF-8"?><svg xmlns="http://www.w3.org/2000/svg" width="350" height="250" xmlns:xlink="http://www.w3.org/1999/xlink" viewBox="0 0 350 250"><defs><linearGradient id="b" x1="194.88" y1="350.61" x2="406.44" y2="611.54" gradientTransform="translate(-54.67 -314.61)" gradientUnits="userSpaceOnUse"><stop offset="0" stop-color="#dbf133" stop-opacity=".5"/><stop offset="1" stop-color="#00e574"/></linearGradient><linearGradient id="c" x1="170.33" y1="241.44" x2="452.99" y2="590.05" gradientTransform="translate(-54.67 -314.61)" gradientUnits="userSpaceOnUse"><stop offset="0" stop-color="#08fb77" stop-opacity=".3"/><stop offset=".14" stop-color="#07f876" stop-opacity=".37"/><stop offset=".41" stop-color="#05f375" stop-opacity=".54"/><stop offset=".78" stop-color="#02ea74" stop-opacity=".82"/><stop offset="1" stop-color="#00e574"/></linearGradient><linearGradient id="d" x1="127.13" y1="-38.87" x2="-186.84" y2="-21.67" gradientTransform="translate(116.12 96.32) rotate(-180)" gradientUnits="userSpaceOnUse"><stop offset=".07" stop-color="#08fb77" stop-opacity="0"/><stop offset=".17" stop-color="#07f976" stop-opacity=".07"/><stop offset=".36" stop-color="#06f576" stop-opacity=".25"/><stop offset=".62" stop-color="#03ef75" stop-opacity=".54"/><stop offset=".95" stop-color="#00e674" stop-opacity=".93"/><stop offset="1" stop-color="#00e574"/></linearGradient><linearGradient id="e" x1="259.44" y1="298.27" x2="471" y2="559.2" gradientTransform="translate(-54.67 -314.61)" gradientUnits="userSpaceOnUse"><stop offset="0" stop-color="#08fb77"/><stop offset=".1" stop-color="#06e474"/><stop offset=".28" stop-color="#04be71"/><stop offset=".47" stop-color="#02a06e"/><stop offset=".66" stop-color="#018b6c"/><stop offset=".83" stop-color="#007e6b"/><stop offset="1" stop-color="#007a6b"/></linearGradient><linearGradient id="f" x1="219.33" y1="439.61" x2="404.67" y2="439.61" gradientTransform="translate(-54.67 -314.61)" gradientUnits="userSpaceOnUse"><stop offset="0" stop-color="#00e574"/><stop offset="1" stop-color="#007a6b"/></linearGradient><linearGradient id="g" x1="466.48" y1="284.55" x2="279.63" y2="596.99" gradientTransform="translate(-54.67 -314.61)" gradientUnits="userSpaceOnUse"><stop offset="0" stop-color="#dbf133"/><stop offset="1" stop-color="#00e574"/></linearGradient><linearGradient id="h" x1="277.91" y1="283.28" x2="489.48" y2="544.21" gradientTransform="translate(-54.67 -314.61)" gradientUnits="userSpaceOnUse"><stop offset="0" stop-color="#00e574"/><stop offset=".1" stop-color="#00ca71"/><stop offset=".25" stop-color="#00ad6f"/><stop offset=".4" stop-color="#00966d"/><stop offset=".57" stop-color="#00866c"/><stop offset=".75" stop-color="#007d6b"/><stop offset="1" stop-color="#007a6b"/></linearGradient><linearGradient id="i" x1="218.77" y1="459.34" x2="359.77" y2="633.25" gradientTransform="translate(-54.67 -314.61)" gradientUnits="userSpaceOnUse"><stop offset="0" stop-color="#00e574" stop-opacity="0"/><stop offset=".03" stop-color="#00e073" stop-opacity=".04"/><stop offset=".24" stop-color="#00bb70" stop-opacity=".39"/><stop offset=".45" stop-color="#009f6e" stop-opacity=".65"/><stop offset=".65" stop-color="#008a6c" stop-opacity=".84"/><stop offset=".84" stop-color="#007e6b" stop-opacity=".96"/><stop offset="1" stop-color="#007a6b"/></linearGradient></defs><g isolation="isolate"><g id="a"><g opacity=".35"><polygon points="74.75 250 165.59 0 350 0 350 250 74.75 250" fill="url(#b)" fill-opacity=".15"/><polygon points="0 0 350 250 350 0 0 0" fill="url(#c)" fill-opacity=".43"/><polygon points="0 0 21.6 250 350 250 350 125 0 0" fill="url(#d)" fill-opacity=".42"/><polygon points="165.59 0 288.75 250 350 250 350 0 165.59 0" fill="url(#e)" fill-opacity=".45"/><polygon points="350 0 350 250 164.66 250 350 0" fill="url(#f)" fill-opacity=".25"/><polygon points="288.16 0 227.5 250 350 250 350 0 288.16 0" fill="url(#g)" mix-blend-mode="soft-light"/><polygon points="350 250 165.59 0 350 0 350 250" fill="url(#h)" fill-opacity=".23"/><polygon points="350 92.97 21.6 250 350 250 350 92.97" fill="url(#i)" fill-opacity=".36"/></g></g></g></svg>