<?xml version="1.0" encoding="UTF-8"?><svg xmlns="http://www.w3.org/2000/svg" width="350" height="250" xmlns:xlink="http://www.w3.org/1999/xlink" viewBox="0 0 350 250"><defs><linearGradient id="b" x1="-383.85" y1="451.56" x2="-173.96" y2="710.43" gradientTransform="translate(527.3 -415.15)" gradientUnits="userSpaceOnUse"><stop offset="0" stop-color="#00f1cd"/><stop offset="1" stop-color="#0075b7"/></linearGradient><linearGradient id="c" x1="-406.59" y1="343.64" x2="-127.1" y2="688.35" gradientTransform="translate(527.3 -415.15)" gradientUnits="userSpaceOnUse"><stop offset="0" stop-color="#00b4d4" stop-opacity=".3"/><stop offset=".23" stop-color="#0298c9" stop-opacity=".42"/><stop offset=".66" stop-color="#0851ad" stop-opacity=".73"/><stop offset="1" stop-color="#0e1395"/></linearGradient><linearGradient id="d" x1="-526.57" y1="559.24" x2="-219.7" y2="526.32" gradientTransform="translate(527.3 -415.15)" gradientUnits="userSpaceOnUse"><stop offset="0" stop-color="#00ace4" stop-opacity="0"/><stop offset=".15" stop-color="#00a5de" stop-opacity=".12"/><stop offset=".47" stop-color="#0094d0" stop-opacity=".42"/><stop offset=".92" stop-color="#0079bb" stop-opacity=".91"/><stop offset="1" stop-color="#0075b7"/></linearGradient><linearGradient id="e" x1="-320.66" y1="400.32" x2="-110.76" y2="659.19" gradientTransform="translate(527.3 -415.15)" gradientUnits="userSpaceOnUse"><stop offset="0" stop-color="#00b4d4"/><stop offset=".02" stop-color="#00acd1"/><stop offset=".19" stop-color="#047ebe"/><stop offset=".36" stop-color="#0857af"/><stop offset=".53" stop-color="#0a39a4"/><stop offset=".69" stop-color="#0c249b"/><stop offset=".85" stop-color="#0d1796"/><stop offset="1" stop-color="#0e1395"/></linearGradient><linearGradient id="f" x1="-358.73" y1="540.15" x2="-177.3" y2="540.15" gradientTransform="translate(527.3 -415.15)" gradientUnits="userSpaceOnUse"><stop offset="0" stop-color="#00ace4"/><stop offset="1" stop-color="#0075b7"/></linearGradient><linearGradient id="g" x1="-115.14" y1="385.61" x2="-301.1" y2="696.56" xlink:href="#b"/><linearGradient id="h" x1="-302.57" y1="385.65" x2="-92.67" y2="644.52" gradientTransform="translate(527.3 -415.15)" gradientUnits="userSpaceOnUse"><stop offset="0" stop-color="#00b4d4"/><stop offset="0" stop-color="#00b1d3"/><stop offset=".12" stop-color="#0387c2"/><stop offset=".24" stop-color="#0663b4"/><stop offset=".36" stop-color="#0946a9"/><stop offset=".49" stop-color="#0b2fa0"/><stop offset=".63" stop-color="#0c1f99"/><stop offset=".79" stop-color="#0d1696"/><stop offset="1" stop-color="#0e1395"/></linearGradient><linearGradient id="i" x1="-358.4" y1="561.4" x2="-220.37" y2="731.63" gradientTransform="translate(527.3 -415.15)" gradientUnits="userSpaceOnUse"><stop offset="0" stop-color="#0e3870" stop-opacity="0"/><stop offset=".04" stop-color="#0d356b" stop-opacity=".06"/><stop offset=".39" stop-color="#052249" stop-opacity=".58"/><stop offset=".72" stop-color="#011634" stop-opacity=".89"/><stop offset="1" stop-color="#00132d"/></linearGradient></defs><g isolation="isolate"><g id="a"><g opacity=".35"><polygon points="80.55 250 169.47 0 350 0 350 250 80.55 250" fill="url(#b)" fill-opacity=".32"/><polygon points="7.38 0 350 250 350 0 7.38 0" fill="url(#c)" fill-opacity=".43"/><polygon points="7.38 0 28.52 250 350 250 350 125 7.38 0" fill="url(#d)" fill-opacity=".42"/><polygon points="169.47 0 290.04 250 350 250 350 0 169.47 0" fill="url(#e)" fill-opacity=".45"/><polygon points="350 0 350 250 168.57 250 350 0" fill="url(#f)"/><polygon points="289.47 0 230.08 250 350 250 350 0 289.47 0" fill="url(#g)" mix-blend-mode="soft-light"/><polygon points="350 250 169.47 0 350 0 350 250" fill="url(#h)" fill-opacity=".23"/><polygon points="350 92.72 28.52 250 350 250 350 92.72" fill="url(#i)" fill-opacity=".36"/></g></g></g></svg>