<?xml version="1.0" encoding="UTF-8"?><svg xmlns="http://www.w3.org/2000/svg" width="350" height="250" xmlns:xlink="http://www.w3.org/1999/xlink" viewBox="0 0 350 250"><defs><linearGradient id="b" x1="427.72" y1="963.82" x2="639.28" y2="1224.75" gradientTransform="translate(-287.51 -927.82)" gradientUnits="userSpaceOnUse"><stop offset="0" stop-color="#ffa000" stop-opacity=".5"/><stop offset="1" stop-color="#f60053"/></linearGradient><linearGradient id="c" x1="403.17" y1="854.64" x2="685.83" y2="1203.26" gradientTransform="translate(-287.51 -927.82)" gradientUnits="userSpaceOnUse"><stop offset="0" stop-color="#ffa000" stop-opacity=".3"/><stop offset=".12" stop-color="#ff9308" stop-opacity=".36"/><stop offset=".36" stop-color="#ff7020" stop-opacity=".51"/><stop offset=".69" stop-color="#ff3a45" stop-opacity=".74"/><stop offset="1" stop-color="#ff006e"/></linearGradient><linearGradient id="d" x1="-105.71" y1="-112.08" x2="-419.63" y2="-94.88" gradientTransform="translate(-116.71 23.11) rotate(-180)" gradientUnits="userSpaceOnUse"><stop offset="0" stop-color="#f0c500" stop-opacity="0"/><stop offset=".1" stop-color="#f0c200" stop-opacity=".06"/><stop offset=".28" stop-color="#f3bc00" stop-opacity=".22"/><stop offset=".54" stop-color="#f7b300" stop-opacity=".48"/><stop offset=".86" stop-color="#fca500" stop-opacity=".84"/><stop offset="1" stop-color="#ffa000"/></linearGradient><linearGradient id="e" x1="492.28" y1="911.47" x2="703.84" y2="1172.4" gradientTransform="translate(-287.51 -927.82)" gradientUnits="userSpaceOnUse"><stop offset="0" stop-color="#ffa000"/><stop offset=".02" stop-color="#fe9903"/><stop offset=".19" stop-color="#fc6b1b"/><stop offset=".36" stop-color="#f9442f"/><stop offset=".53" stop-color="#f8263f"/><stop offset=".69" stop-color="#f6114a"/><stop offset=".85" stop-color="#f60450"/><stop offset="1" stop-color="#f60053"/></linearGradient><linearGradient id="f" x1="452.17" y1="1052.82" x2="637.51" y2="1052.82" gradientTransform="translate(-287.51 -927.82)" gradientUnits="userSpaceOnUse"><stop offset="0" stop-color="#ff006e"/><stop offset="1" stop-color="#ab008c"/></linearGradient><linearGradient id="g" x1="699.32" y1="897.76" x2="512.47" y2="1210.2" gradientTransform="translate(-287.51 -927.82)" gradientUnits="userSpaceOnUse"><stop offset="0" stop-color="#ffa000"/><stop offset="1" stop-color="#f60053"/></linearGradient><linearGradient id="h" x1="510.75" y1="896.49" x2="722.32" y2="1157.42" gradientTransform="translate(-287.51 -927.82)" gradientUnits="userSpaceOnUse"><stop offset="0" stop-color="#ff006e"/><stop offset=".2" stop-color="#e8005f"/><stop offset=".42" stop-color="#d80055"/><stop offset=".67" stop-color="#cf004f"/><stop offset="1" stop-color="#cc014e"/></linearGradient><linearGradient id="i" x1="451.43" y1="1072.7" x2="592.43" y2="1246.6" gradientTransform="translate(-287.51 -927.82)" gradientUnits="userSpaceOnUse"><stop offset="0" stop-color="#ff006e" stop-opacity="0"/><stop offset=".01" stop-color="#fd006e" stop-opacity=".02"/><stop offset=".19" stop-color="#e40077" stop-opacity=".31"/><stop offset=".37" stop-color="#cf007e" stop-opacity=".56"/><stop offset=".55" stop-color="#bf0084" stop-opacity=".75"/><stop offset=".71" stop-color="#b40088" stop-opacity=".89"/><stop offset=".87" stop-color="#ad008b" stop-opacity=".97"/><stop offset="1" stop-color="#ab008c"/></linearGradient></defs><g isolation="isolate"><g id="a"><g opacity=".35"><polygon points="74.75 250 165.59 0 350 0 350 250 74.75 250" fill="url(#b)" fill-opacity=".15"/><polygon points="0 0 350 250 350 0 0 0" fill="url(#c)" fill-opacity=".43"/><polygon points="0 0 21.6 250 350 250 350 125.98 0 0" fill="url(#d)" fill-opacity=".42"/><polygon points="165.59 0 288.75 250 350 250 350 0 165.59 0" fill="url(#e)" fill-opacity=".45"/><polygon points="350 0 350 250 164.66 250 350 0" fill="url(#f)" fill-opacity=".25"/><polygon points="288.16 0 227.5 250 350 250 350 0 288.16 0" fill="url(#g)" mix-blend-mode="soft-light"/><polygon points="350 250 165.59 0 350 0 350 250" fill="url(#h)" fill-opacity=".23"/><polygon points="350 93.7 21.6 250 350 250 350 93.7" fill="url(#i)" fill-opacity=".36"/></g></g></g></svg>