<?xml version="1.0" encoding="UTF-8"?><svg id="Layer_3" xmlns="http://www.w3.org/2000/svg" width="245" height="270" viewBox="0 0 245 270"><rect x="5.7" y="1.51" width="233.74" height="375.05" rx="12" ry="12" style="fill:#fff; stroke:#999; stroke-miterlimit:10;"/><rect x="8.94" y="4.92" width="227.27" height="364.65" rx="10.19" ry="10.19" style="fill:#fff; stroke:#999; stroke-miterlimit:10;"/><rect x="239.29" y="81.9" width="1.95" height="22.64" transform="translate(480.53 186.44) rotate(-180)" style="fill:#999;"/><rect x="239.29" y="109.82" width="1.95" height="22.64" transform="translate(480.53 242.28) rotate(-180)" style="fill:#999;"/><rect x="3.76" y="86.31" width="1.95" height="41.74" transform="translate(9.47 214.36) rotate(-180)" style="fill:#999;"/><circle cx="122.57" cy="14.81" r="5.51" style="fill:#fff; stroke:#999; stroke-miterlimit:10;"/><circle cx="122.57" cy="14.81" r="3.24" style="fill:#fff; stroke:#999; stroke-miterlimit:10;"/><path d="M123.55,14.81c0-.49-.49-.97-.97-.97s-.97.49-.97.97.49.97.97.97.97-.32.97-.97Z" style="fill:#999;"/><rect x="168.79" y="16.18" width="2.23" height="2.23" style="fill:#999;"/><rect x="172.61" y="14.38" width="2.23" height="4.03" style="fill:#999;"/><rect x="176.43" y="12.37" width="2.23" height="6.03" style="fill:#999;"/><path d="M209.2,14.22h-1.37v-.91c0-.52-.42-.94-.94-.94h-9.92c-.52,0-.94.42-.94.94v4.15c0,.52.42.94.94.94h9.92c.52,0,.94-.42.94-.94v-.91h1.37c.2,0,.37-.16.37-.37v-1.6c0-.2-.16-.37-.37-.37Z" style="fill:#999;"/><path d="M192.85,13.01c-4.98-2.98-9.45-.11-9.64.01-.29.19-.37.58-.18.87.19.29.58.37.87.18.04-.03,3.99-2.57,8.3.01.1.06.21.09.32.09.21,0,.42-.11.54-.31.18-.3.08-.69-.22-.86Z" style="fill:#999;"/><path d="M190.52,14.28c-1.96-.83-3.36-.79-5.37.14-.31.15-.45.52-.3.84.11.23.33.36.57.36.09,0,.18-.02.27-.06,1.68-.78,2.73-.81,4.35-.13.32.14.69-.01.83-.33.14-.32-.01-.69-.33-.83Z" style="fill:#999;"/><circle cx="187.85" cy="17.13" r="1.1" style="fill:#999;"/></svg>