<?xml version="1.0" encoding="UTF-8"?>
<svg id="Layer_1" data-name="Layer 1" xmlns="http://www.w3.org/2000/svg" viewBox="0 0 735.5 281.6">
  <defs>
    <style>
      .cls-1 {
        stroke: #fff;
        stroke-width: .42px;
      }

      .cls-1, .cls-2 {
        fill: none;
        stroke-linecap: round;
        stroke-linejoin: round;
      }

      .cls-2 {
        stroke: #98cc02;
      }

      .cls-3 {
        fill: #b3d942;
      }

      .cls-3, .cls-4, .cls-5, .cls-6 {
        stroke-width: 0px;
      }

      .cls-4 {
        fill: #fff;
      }

      .cls-5 {
        fill: #99cc02;
      }

      .cls-6 {
        fill: #98cc02;
      }
    </style>
  </defs>
  <rect class="cls-5" width="735.5" height="281.6"/>
  <g>
    <polyline class="cls-1" points="308.1 217.4 319.5 217.4 319.5 225.8 308.1 225.8 308.1 218.3 313.8 222 318.9 218.2"/>
    <rect class="cls-3" x="90.2" y="57.6" width="553.5" height="61.2"/>
    <circle class="cls-4" cx="145.5" cy="88.2" r="18.4"/>
    <circle class="cls-4" cx="246.5" cy="88.2" r="18.4"/>
    <circle class="cls-4" cx="347.6" cy="88.2" r="18.4"/>
    <circle class="cls-4" cx="448.7" cy="88.2" r="18.4"/>
    <circle class="cls-4" cx="549.8" cy="88.2" r="18.4"/>
    <path class="cls-4" d="M173.7,85.1v.8h-2.3l-.2,1.5c.4-.1.9,0,1.3.1.2.1.5.2.7.3.5.4.7.9.7,1.5,0,.3-.1.6-.2.8-.1.3-.3.5-.5.7s-.5.4-.8.5c-.4.1-.7.2-1.1.2-.3,0-.5,0-.8-.1-.2-.1-.5-.1-.7-.2l.2-.8c.2.1.4.2.5.2.2.1.4.1.6.1.4,0,.8-.1,1.1-.3s.4-.6.4-.9c0-.4-.1-.7-.4-.9-.3-.2-.7-.3-1.1-.3h-.5l-.6.1.3-3.2,3.4-.1Z"/>
    <path class="cls-4" d="M178.4,85.8c0,.2,0,.5-.1.7s-.2.4-.3.6c-.1.2-.3.3-.5.4-.2.1-.5.2-.7.1-.2,0-.5,0-.7-.1s-.4-.2-.5-.4-.3-.4-.3-.6c-.1-.2-.1-.5-.1-.7s0-.5.1-.7.2-.4.3-.6c.3-.4.8-.6,1.2-.5.2,0,.5,0,.7.1s.4.2.5.4.3.4.3.6c.1.2.1.5.1.7ZM177.6,85.8v-.5c0-.1-.1-.3-.1-.4l-.3-.3c-.2-.1-.5-.1-.8,0l-.3.3c-.1.1-.1.3-.1.4,0,.2,0,.3-.1.5v.5c0,.1.1.3.1.4.1.1.1.2.2.3.4.2.8.1,1-.3.3-.2.4-.6.4-.9ZM176.4,91.4l4.4-7.5h.7l-4.4,7.5h-.7ZM182.7,89.6c0,.2,0,.5-.1.7s-.2.4-.3.6c-.1.2-.3.3-.5.4-.5.2-1,.2-1.4,0-.2-.1-.4-.2-.5-.4s-.2-.4-.3-.6c-.1-.2-.1-.5-.1-.7s0-.5.1-.7.2-.4.3-.6c.1-.2.3-.3.5-.4.2-.1.5-.2.7-.1.2,0,.5,0,.7.1s.4.2.5.4.2.4.3.6c0,.3,0,.5.1.7ZM181.8,89.6v-.5c0-.1-.1-.3-.1-.4-.1-.1-.1-.2-.2-.3-.1-.1-.3-.1-.4-.1s-.3,0-.4.1l-.3.3c-.1.1-.1.3-.2.4,0,.2,0,.3-.1.5,0,.2,0,.3.1.5,0,.1.1.3.1.4l.3.3c.1.1.3.1.4.1.3,0,.5-.1.6-.4.2-.2.3-.5.2-.9h0Z"/>
    <path class="cls-4" d="M271,85.5c.2-.2.5-.3.8-.4.3-.1.6-.1.8-.1.3,0,.5,0,.8.1l.6.3c.3.3.5.7.5,1.2,0,.4-.1.7-.3,1-.2.2-.4.4-.7.6.4.1.7.3.9.5.2.3.4.6.4,1,0,.3-.1.6-.2.8s-.3.4-.5.6c-.2.2-.5.3-.7.3-.3.1-.6.1-.9.1s-.6,0-.9-.1c-.3,0-.5-.1-.8-.2l.2-.8.6.2c.2.1.5.1.7.1s.3,0,.5-.1c.1,0,.3-.1.4-.2.1-.1.2-.2.3-.3.1-.1.1-.3.1-.5,0-.3-.1-.6-.4-.8s-.6-.3-1-.3h-.7v-.6h.6c.3,0,.7-.1.9-.3.2-.2.4-.5.4-.8s-.1-.5-.3-.7c-.2-.2-.5-.3-.7-.3s-.4,0-.6.1l-.6.3-.2-.7Z"/>
    <path class="cls-4" d="M279.2,85.8c0,.2,0,.5-.1.7s-.2.4-.3.6c-.1.2-.3.3-.5.4-.2.1-.5.2-.7.1-.2,0-.5,0-.7-.1s-.4-.2-.5-.4-.3-.4-.3-.6c-.1-.2-.1-.5-.1-.7s0-.5.1-.7.2-.4.3-.6c.1-.2.3-.3.5-.4.2-.1.5-.2.7-.1.2,0,.5,0,.7.1s.4.2.5.4.3.4.3.6c.1.2.1.5.1.7ZM278.4,85.8v-.5c0-.1-.1-.3-.1-.4-.1-.1-.1-.2-.2-.3s-.3-.1-.4-.1-.3,0-.4.1-.2.2-.3.3c-.1.1-.1.3-.1.4v1c0,.1.1.3.1.4.1.1.1.2.2.3s.3.1.4.1c.3,0,.5-.1.6-.4.2-.3.2-.6.2-.9ZM277.2,91.4l4.4-7.5h.7l-4.4,7.5h-.7ZM283.5,89.6c0,.2,0,.5-.1.7s-.2.4-.3.6c-.1.2-.3.3-.5.4-.2.1-.5.2-.7.1-.2,0-.5,0-.7-.1s-.4-.2-.5-.4-.2-.4-.3-.6c-.1-.5-.1-1,0-1.4.1-.2.2-.4.3-.6.1-.2.3-.3.5-.4.4-.2,1-.2,1.4,0,.2.1.4.2.5.4s.3.4.3.6c0,.3.1.5.1.7ZM282.6,89.6v-.5c0-.1-.1-.3-.1-.4-.1-.1-.2-.2-.3-.3-.1-.1-.3-.1-.4-.1s-.3,0-.4.1-.2.2-.3.3c-.1.1-.1.3-.2.4v1c0,.1.1.3.1.4.1.1.2.2.3.3.1.1.2.1.4.1.3,0,.5-.1.6-.4.3-.2.4-.5.3-.9h0Z"/>
    <path class="cls-4" d="M374.7,85.1h1v3.9h1v.8h-1v1.6h-1v-1.5h-3v-.6l3-4.2ZM374.3,87.1l-1.4,1.9h1.9v-1.9l.1-1h0l-.6,1Z"/>
    <path class="cls-4" d="M380.6,85.8c0,.2,0,.5-.1.7s-.2.4-.3.6c-.1.2-.3.3-.5.4-.5.2-1,.2-1.4,0-.2-.1-.4-.2-.5-.4s-.2-.4-.3-.6c-.1-.2-.1-.5-.1-.7s0-.5.1-.7.2-.4.3-.6c.1-.2.3-.3.5-.4.2-.1.5-.2.7-.2s.5,0,.7.1.4.2.5.4.3.4.3.6c.1.3.1.6.1.8ZM379.8,85.8v-.5c0-.1-.1-.3-.1-.4-.1-.1-.1-.2-.2-.3s-.3-.1-.4-.1-.3,0-.4.1-.2.2-.3.3c-.1.1-.1.3-.2.4v1c0,.1.1.3.1.4.1.1.1.2.2.3s.3.1.4.1c.3,0,.5-.1.6-.4.3-.3.3-.6.3-.9ZM378.6,91.4l4.4-7.5h.7l-4.4,7.5h-.7ZM384.9,89.6c0,.2,0,.5-.1.7s-.2.4-.3.6c-.1.2-.3.3-.5.4-.2.1-.5.2-.7.1-.2,0-.5,0-.7-.1s-.4-.2-.5-.4-.3-.4-.3-.6c-.1-.5-.1-1,0-1.4.1-.2.2-.4.3-.6.1-.2.3-.3.5-.4.4-.2,1-.2,1.4,0,.2.1.4.2.5.4s.3.4.3.6c0,.3.1.5.1.7ZM384,89.6v-.5c0-.1-.1-.3-.1-.4-.1-.1-.2-.2-.3-.3-.2-.1-.5-.1-.8,0-.1.1-.2.2-.3.3-.1.1-.1.3-.2.4v1c0,.1.1.3.1.4.1.1.2.2.3.3.1.1.2.1.4.1.3,0,.5-.1.6-.4.3-.2.3-.5.3-.9h0Z"/>
    <path class="cls-4" d="M475.8,85.1h1v3.9h1v.8h-1v1.6h-1v-1.5h-3v-.6l3-4.2ZM475.4,87.1l-1.4,1.9h1.9v-1.9l.1-1h0l-.6,1Z"/>
    <path class="cls-4" d="M481.7,85.8c0,.2,0,.5-.1.7s-.2.4-.3.6c-.1.2-.3.3-.5.4-.2.1-.5.2-.7.1-.2,0-.5,0-.7-.1s-.4-.2-.5-.4-.2-.4-.3-.6c-.1-.2-.1-.5-.1-.7s0-.5.1-.7.2-.4.3-.6c.1-.2.3-.3.5-.4.2-.1.5-.2.7-.1.2,0,.5,0,.7.1s.4.2.5.4.3.4.3.6c.1.2.1.5.1.7ZM480.9,85.8v-.5c0-.1-.1-.3-.1-.4-.1-.1-.2-.2-.3-.3-.1-.1-.3-.1-.4-.1s-.3,0-.4.1-.2.2-.3.3c-.1.1-.1.3-.2.4v1c0,.1.1.3.1.4.1.1.2.2.3.3.1.1.2.1.4.1.3,0,.5-.1.6-.4.3-.3.3-.6.3-.9h0ZM479.7,91.4l4.4-7.5h.7l-4.4,7.5h-.7ZM486,89.6c0,.2,0,.5-.1.7s-.2.4-.3.6c-.1.2-.3.3-.5.4-.2.1-.5.2-.7.1-.2,0-.5,0-.7-.1s-.4-.2-.5-.4-.3-.4-.3-.6c-.1-.2-.1-.5-.1-.7s0-.5.1-.7.2-.4.3-.6c.1-.2.3-.3.5-.4.2-.1.5-.2.7-.1.2,0,.5,0,.7.1s.4.2.5.4.3.4.3.6c0,.3.1.5.1.7h0ZM485.1,89.6v-.5c0-.1-.1-.3-.1-.4-.1-.1-.1-.2-.2-.3s-.3-.1-.4-.1-.3,0-.4.1-.2.2-.3.3c-.1.1-.1.3-.1.4,0,.2-.1.3,0,.5v.5c0,.1.1.3.1.4.1.1.1.2.2.3s.3.1.4.1c.3,0,.5-.1.6-.4.2-.2.2-.5.2-.9Z"/>
    <path class="cls-4" d="M576,85.9c-.2,0-.4,0-.6.1-.2.1-.4.2-.6.4l-.5-.7c.3-.2.5-.4.9-.5.3-.1.6-.1.9-.1s.6,0,.9.1c.2.1.4.2.6.4.2.2.3.4.4.6.1.2.1.5.1.7,0,.5-.2,1-.5,1.5-.4.6-.9,1.2-1.5,1.7l-.6.6h2.8v.8h-3.8l-.2-.7.9-.9c.4-.4.7-.7.9-.9s.4-.5.6-.8c.1-.2.3-.4.3-.6.1-.2.1-.4.1-.6,0-.3-.1-.6-.3-.8-.2-.2-.5-.3-.8-.3Z"/>
    <path class="cls-4" d="M582.4,85.8c0,.2,0,.5-.1.7s-.2.4-.3.6c-.1.2-.3.3-.5.4-.2.1-.5.2-.7.1-.2,0-.5,0-.7-.1s-.4-.2-.5-.4-.3-.4-.3-.6c-.1-.2-.1-.5-.1-.7s0-.5.1-.7.2-.4.3-.6c.3-.4.8-.6,1.2-.5.2,0,.5,0,.7.1s.4.2.5.4.3.4.3.6c.1.2.1.5.1.7ZM581.6,85.8v-.5c0-.1-.1-.3-.1-.4-.1-.1-.2-.2-.3-.3-.2-.1-.5-.1-.8,0-.1.1-.2.2-.3.3s-.1.3-.2.4v1c0,.1.1.3.2.4.1.1.1.2.2.3.4.2.8.1,1-.3.3-.3.3-.6.3-.9ZM580.4,91.4l4.4-7.5h.7l-4.4,7.5h-.7ZM586.7,89.6c0,.2,0,.5-.1.7s-.2.4-.3.6c-.1.2-.3.3-.5.4-.5.2-1,.2-1.4,0-.2-.1-.4-.2-.5-.4s-.2-.4-.3-.6c-.1-.2-.1-.5-.1-.7s0-.5.1-.7.2-.4.3-.6c.1-.2.3-.3.5-.4.2-.1.5-.2.7-.1.2,0,.5,0,.7.1s.4.2.5.4.2.4.3.6c0,.3.1.5.1.7ZM585.9,89.6v-.5c0-.1-.1-.3-.1-.4-.1-.1-.1-.2-.2-.3-.1-.1-.3-.1-.4-.1s-.3,0-.4.1c-.1.1-.2.2-.3.3s-.1.3-.2.4v1c0,.1.1.3.2.4.1.1.1.2.2.3.1.1.3.1.4.1.3,0,.5-.1.7-.4,0-.2.1-.5.1-.9Z"/>
    <path class="cls-4" d="M98.6,37.4c.5,0,.9,0,1.4-.1.4-.1.7-.2,1.1-.4l.3,1.2c-.4.2-.8.3-1.3.4-.6.1-1.1.1-1.7.1-.7,0-1.3-.1-1.9-.3-.6-.2-1.1-.6-1.6-1-.4-.5-.8-1.1-1-1.7-.3-.7-.4-1.5-.4-2.3s.1-1.5.4-2.3c.2-.6.6-1.2,1-1.7.5-.4,1-.8,1.6-1s1.3-.4,2-.3c.6,0,1.1,0,1.7.2.4.1.8.3,1.2.4l-.4,1.2-.6-.2c-.2-.1-.4-.1-.5-.2-.2,0-.4-.1-.6-.1h-.7c-.5,0-.9.1-1.4.2-.4.1-.8.4-1.1.7-.3.4-.6.8-.8,1.3-.4,1.2-.4,2.5,0,3.8.2.5.4.9.7,1.2s.7.6,1.1.7c.6.2,1.1.2,1.5.2Z"/>
    <path class="cls-4" d="M110.5,34.6c0,.6-.1,1.2-.3,1.7-.2.5-.5.9-.8,1.3-.3.3-.8.6-1.2.8-.5.2-1,.3-1.5.3s-1-.1-1.5-.3c-.4-.2-.8-.4-1.2-.8-.3-.3-.6-.8-.8-1.2-.4-1.1-.4-2.3,0-3.4.3-.9,1.1-1.7,2-2.1.5-.2,1-.3,1.5-.3s1,.1,1.5.2c.4.2.8.4,1.2.7.3.3.6.8.8,1.2.2.7.3,1.3.3,1.9ZM109,34.6c0-.4-.1-.9-.2-1.3-.1-.3-.3-.6-.5-.9-.2-.2-.5-.4-.7-.5-.3-.1-.6-.2-.8-.2-.3,0-.6,0-.8.1-.3.1-.5.2-.7.5s-.4.6-.5.9c-.1.5-.2.9-.2,1.4s.1.9.2,1.3c.1.3.3.6.5.9.2.2.5.4.7.5.3.1.6.2.8.2.3,0,.6,0,.8-.1.3-.1.5-.3.7-.5.2-.3.4-.6.5-.9.2-.4.2-.9.2-1.4h0Z"/>
    <path class="cls-4" d="M114.1,38.5h-1.4v-7.7h1.1l.2,1.1c.3-.4.8-.7,1.2-.9.5-.2,1-.3,1.5-.3.7,0,1.4.2,1.9.7s.7,1.2.7,1.8v5.3h-1.4v-5.2c0-.4-.1-.8-.4-1.1-.3-.3-.7-.5-1.1-.4-.8,0-1.6.4-2.2,1l-.1,5.7Z"/>
    <path class="cls-4" d="M126.5,30.8h1.5l-2.9,7.7h-1.4l-2.9-7.7h1.6l1.7,5.3.3,1.2h.1l.3-1.2,1.7-5.3Z"/>
    <path class="cls-4" d="M136.1,34.8h-5.5v.1c-.1.7.2,1.5.7,2s1.2.7,1.9.7c.4,0,.7,0,1.1-.1.4-.1.7-.2,1.1-.3l.3,1.1c-.4.2-.7.3-1.1.3-.5.1-.9.1-1.4.1s-1.1-.1-1.6-.2c-.5-.2-.9-.4-1.3-.7-.4-.3-.7-.8-.9-1.2-.2-.6-.3-1.2-.3-1.8s.1-1.1.3-1.6.4-.9.8-1.2c.3-.4.7-.6,1.2-.8.5-.2,1-.3,1.6-.3.5,0,.9.1,1.3.2.4.2.7.4,1,.7.3.3.5.7.7,1.1s.2.9.2,1.4l-.1.5ZM134.6,33.8c0-.3,0-.5-.1-.8-.1-.2-.2-.5-.3-.6-.2-.2-.4-.3-.6-.4-.3-.1-.6-.2-.8-.2-.5,0-1.1.2-1.5.6s-.6.9-.7,1.5l4-.1Z"/>
    <path class="cls-4" d="M138.1,38.5v-7.7h1.1l.2,1.5c.4-1,1.3-1.7,2.4-1.7.2,0,.5,0,.7.1.2,0,.3.1.5.2l-.3,1.3c-.1-.1-.3-.1-.4-.2-.2,0-.4-.1-.6-.1-.3,0-.6,0-.9.2-.3.1-.5.3-.7.5s-.4.5-.5.8c-.1.4-.2.7-.2,1.1v4s-1.3,0-1.3,0Z"/>
    <path class="cls-4" d="M148.9,32.2c-.3-.2-.7-.3-1-.4s-.6-.1-.9-.1c-.4,0-.8.1-1.2.3-.2.2-.4.5-.4.8,0,.2.1.4.3.6.3.2.7.4,1.1.5l.5.1c.6.1,1.2.4,1.7.8.4.4.6.9.6,1.4,0,.7-.3,1.3-.8,1.7-.6.5-1.4.7-2.2.6-.5,0-1,0-1.4-.1s-.8-.2-1.2-.4l.4-1.1c.3.2.7.3,1,.4.4.1.8.1,1.1.1.4,0,.8-.1,1.2-.3.3-.2.5-.5.4-.9,0-.3-.1-.6-.4-.7-.3-.2-.7-.3-1.1-.4l-.5-.2c-.6-.2-1.1-.5-1.6-.9-.4-.4-.5-.8-.5-1.3,0-.3.1-.6.2-.9.1-.3.3-.5.6-.7s.6-.3.9-.4c.4-.1.7-.2,1.1-.2s.8,0,1.2.1.8.2,1.2.3l-.3,1.3Z"/>
    <path class="cls-4" d="M152.6,28.8c-.2,0-.5-.1-.6-.3-.2-.2-.3-.4-.3-.6s.1-.5.3-.6c.4-.4.9-.4,1.3,0h0c.2.2.3.4.3.6s-.1.5-.3.6c-.3.2-.5.3-.7.3ZM151.8,38.5v-7.7h1.4v7.7h-1.4Z"/>
    <path class="cls-4" d="M163.1,34.6c0,.6-.1,1.2-.3,1.7s-.4.9-.8,1.3c-.3.3-.8.6-1.2.8-.5.2-1,.3-1.5.3s-1-.1-1.5-.3c-.4-.2-.9-.4-1.2-.8s-.6-.8-.8-1.2c-.2-.5-.3-1.1-.3-1.7s.1-1.2.3-1.7.5-.9.8-1.3c.3-.3.8-.6,1.2-.8.5-.2,1-.3,1.5-.3s1,.1,1.5.2c.4.2.9.4,1.2.7.3.4.6.8.8,1.2.2.7.3,1.3.3,1.9ZM161.6,34.6c0-.4-.1-.9-.2-1.3-.1-.3-.3-.6-.5-.9-.2-.2-.4-.4-.7-.5s-.6-.2-.8-.2c-.3,0-.6,0-.8.1-.3.1-.5.2-.7.5s-.4.6-.5.9c-.1.4-.2.9-.2,1.4s.1.9.2,1.3c.1.3.3.6.5.9.2.2.5.4.7.5.3.1.6.2.8.2.3,0,.6,0,.8-.1.3-.1.5-.3.7-.5.2-.3.4-.6.5-.9.1-.4.2-.9.2-1.4Z"/>
    <path class="cls-4" d="M166.6,38.5h-1.4v-7.7h1.1l.2,1.1c.3-.4.8-.7,1.2-.9.5-.2,1-.3,1.5-.3,1.3-.1,2.4.8,2.5,2.1v5.7h-1.4v-5.2c0-.4-.1-.8-.4-1.1-.3-.3-.7-.5-1.1-.4-.8,0-1.6.4-2.1,1l-.1,5.7Z"/>
    <rect class="cls-3" x="90.2" y="192.8" width="553.5" height="61.2"/>
    <circle class="cls-4" cx="145.5" cy="223.3" r="18.4"/>
    <circle class="cls-4" cx="246.5" cy="223.3" r="18.4"/>
    <circle class="cls-4" cx="347.6" cy="223.3" r="18.4"/>
    <circle class="cls-4" cx="448.7" cy="223.3" r="18.4"/>
    <circle class="cls-4" cx="549.8" cy="223.3" r="18.4"/>
    <path class="cls-4" d="M171.7,219.3h.7v1c.2,0,.4.1.6.1.2.1.4.2.6.3l-.3.8c-.4-.2-.9-.4-1.3-.4-.3,0-.5.1-.7.2s-.3.4-.3.6.1.4.3.5.5.3.7.3l.5.1c.4.1.8.4,1.2.7.3.3.4.7.4,1.1,0,.2,0,.4-.1.6s-.2.4-.4.5c-.2.2-.3.3-.6.4-.2.1-.5.2-.7.2v1.1h-.7v-1.1c-.3,0-.5-.1-.8-.1-.3-.1-.5-.2-.7-.3l.4-.8c.2.2.5.3.8.3.2.1.5.1.7.1.3,0,.6-.1.8-.2s.3-.4.3-.6-.1-.4-.3-.6c-.2-.1-.5-.2-.8-.3l-.5-.2c-.2-.1-.4-.1-.6-.2-.2-.1-.3-.2-.5-.3-.1-.1-.2-.3-.3-.5-.2-.6-.1-1.3.4-1.8.3-.3.8-.5,1.2-.5v-1Z"/>
    <path class="cls-4" d="M175.2,220.6c.2-.2.5-.3.8-.4s.6-.1.9-.1.5,0,.8.1c.2.1.4.2.6.3.2.1.3.3.4.5.1.2.1.4.1.7,0,.4-.1.7-.3,1-.2.2-.5.4-.7.5.4.1.7.3.9.5.2.3.4.6.4,1,0,.3-.1.6-.2.8s-.3.4-.5.6-.5.3-.7.3c-.3.1-.6.1-.9.1s-.6,0-.9-.1c-.3-.1-.5-.1-.7-.3l.2-.8c.2.1.4.2.6.2.2.1.5.1.7.1s.3,0,.5-.1c.1,0,.3-.1.4-.2.1-.1.2-.2.3-.3.1-.1.1-.3.1-.5,0-.3-.1-.6-.4-.8-.3-.2-.6-.3-1-.2h-.7v-.8h.6c.3,0,.7-.1.9-.3.2-.2.4-.5.4-.8s-.1-.5-.3-.7-.5-.3-.7-.3-.4,0-.6.1c-.2.1-.4.2-.6.3l-.4-.4Z"/>
    <path class="cls-4" d="M184.1,220.2v.8h-2.3l-.2,1.5c.4-.1.9,0,1.3.1.3.1.5.2.7.3.2.2.4.4.5.6.1.3.2.6.2.9s-.1.6-.2.8c-.1.3-.3.5-.5.7s-.5.4-.8.5c-.6.2-1.3.2-1.9.1-.2-.1-.5-.1-.7-.2l.2-.8c.2.1.4.2.5.2.2.1.4.1.6.1.4,0,.8-.1,1.1-.3.3-.2.4-.6.4-.9,0-.4-.1-.7-.4-.9-.3-.2-.6-.3-1-.3h-.5l-.5.1.3-3.2,3.2-.1Z"/>
    <path class="cls-4" d="M189.7,220.3v.7l-2.7,5.8-.9-.4,2.6-5.3h-3v-.8h4Z"/>
    <path class="cls-4" d="M190.6,226.7c-.2,0-.3-.1-.4-.2-.1-.1-.2-.3-.1-.5,0-.2.1-.3.2-.5.1-.1.3-.2.5-.2h.3c.1,0,.2.1.2.2.1.1.1.2.2.3.1.2.1.3.1.5,0,.4-.1.8-.3,1.1-.2.3-.5.6-.8.8l-.3-.4c.2-.1.4-.2.5-.4l.3-.6-.4-.1Z"/>
    <path class="cls-4" d="M196.3,220.2v.8h-2.3l-.2,1.5h.6c.3,0,.5,0,.8.1s.5.2.7.3c.2.2.4.4.5.6.1.3.2.6.2.9s-.1.6-.2.8c-.1.3-.3.5-.5.7s-.5.4-.8.5c-.6.2-1.3.2-1.9.1-.2-.1-.5-.1-.7-.2l.2-.8c.2.1.4.1.5.2.2.1.4.1.6.1.4,0,.8-.1,1.1-.3.3-.2.4-.6.4-.9,0-.4-.1-.7-.4-.9-.3-.2-.7-.3-1.1-.3h-.5c-.2,0-.4,0-.5.1l.3-3.2,3.2-.1Z"/>
    <path class="cls-4" d="M200.3,220.2c.3,0,.7.1,1,.2s.6.3.8.6c.2.3.4.6.5,1,.3,1,.3,2,0,2.9-.1.4-.3.7-.6,1-.2.3-.5.5-.8.6s-.7.2-1,.2-.7-.1-1-.2-.6-.3-.8-.6c-.2-.3-.4-.6-.5-1-.1-.5-.2-1-.2-1.5s.1-1,.2-1.4c.1-.4.3-.7.6-1,.5-.5,1.1-.8,1.8-.8h0ZM198.9,223.4c0,.4,0,.8.1,1.2.1.3.2.5.3.7s.3.3.5.4c.3.1.7.1,1.1,0,.2-.1.3-.2.5-.4.1-.2.3-.5.3-.8.1-.4.1-.8.1-1.2s0-.8-.1-1.2c-.1-.3-.2-.5-.3-.8-.1-.2-.3-.3-.5-.4s-.4-.1-.5-.1c-.2,0-.4,0-.5.1-.2.1-.3.2-.5.4-.1.2-.3.5-.3.8-.2.5-.2.9-.2,1.3h0Z"/>
    <path class="cls-4" d="M206.3,220.2c.3,0,.7.1,1,.2s.6.3.8.6c.2.3.4.6.5,1,.1.5.2,1,.2,1.5s-.1,1-.2,1.5c-.1.4-.3.7-.6,1-.2.3-.5.5-.8.6s-.6.2-.9.2-.7-.1-1-.2-.6-.3-.8-.6c-.2-.3-.4-.6-.5-1-.1-.5-.2-1-.2-1.5s.1-1,.2-1.4c.1-.4.3-.7.6-1,.2-.3.5-.5.8-.6.3-.3.6-.3.9-.3ZM204.9,223.4c0,.4,0,.8.1,1.2.1.3.2.5.3.7s.3.3.5.4.4.1.5.1c.2,0,.4,0,.5-.1.2-.1.3-.2.4-.4.2-.2.3-.5.3-.8.1-.4.1-.8.1-1.2s0-.8-.1-1.2c-.1-.3-.2-.5-.3-.8-.1-.2-.3-.3-.4-.4-.2-.1-.4-.1-.5-.1-.2,0-.4,0-.5.1-.2.1-.3.2-.5.4-.1.2-.3.5-.3.8-.1.5-.1.9-.1,1.3h0Z"/>
    <path class="cls-4" d="M272.8,219.3h.7v1c.2,0,.4.1.6.1.2.1.4.2.6.3l-.3.8c-.4-.2-.9-.4-1.3-.4-.3,0-.5.1-.7.2s-.3.4-.3.6.1.4.3.5c.2.1.5.3.7.3l.5.1c.4.1.8.4,1.2.7.4.5.5,1.1.3,1.7-.1.2-.2.4-.4.5-.2.2-.4.3-.6.4s-.5.2-.7.2v1.1h-.7v-1.1c-.3,0-.5-.1-.8-.1-.3-.1-.5-.2-.7-.3l.4-.8c.2.2.5.3.8.3.2.1.5.1.7.1.3,0,.6-.1.8-.2.2-.1.3-.4.3-.6s-.1-.4-.3-.6c-.2-.2-.5-.3-.8-.4l-.5-.2c-.2-.1-.4-.1-.6-.2s-.3-.2-.5-.3c-.1-.1-.2-.3-.3-.5-.2-.6-.1-1.3.4-1.8.3-.3.8-.5,1.2-.5v-.9Z"/>
    <path class="cls-4" d="M278.1,221c-.2,0-.4,0-.6.1s-.4.2-.6.4l-.5-.7c.3-.2.5-.4.9-.5.3-.1.6-.2.9-.1.3,0,.6,0,.9.1.2.1.4.2.6.4.2.2.3.4.4.6s.1.5.1.8c0,.5-.2,1-.5,1.5-.4.6-.9,1.2-1.5,1.7l-.6.6h2.7v.8h-3.8l-.2-.7.9-.9c.4-.4.6-.7.9-1,.2-.2.4-.5.6-.8.1-.2.3-.4.4-.6s.1-.4.1-.6c0-.3-.1-.6-.3-.8-.2-.3-.5-.3-.8-.3Z"/>
    <path class="cls-4" d="M283,220.3h.8v6.3h-1v-5.3l-1.1.5-.2-.8,1.5-.7Z"/>
    <path class="cls-4" d="M288,220.3h1v3.9h1v.8h-1v1.5h-1v-1.5h-3v-.6l3-4.1ZM287.6,222.3l-1.4,1.9h1.9v-1.9l.1-1h0l-.6,1Z"/>
    <path class="cls-4" d="M291.4,226.7c-.2,0-.3-.1-.4-.2s-.2-.3-.1-.5c0-.2.1-.3.2-.5.1-.1.3-.2.5-.2h.3c.1,0,.2.1.2.2.1.1.2.2.2.3.1.2.1.3.1.5,0,.4-.1.8-.3,1.1-.2.3-.5.6-.8.8l-.3-.4c.2-.1.4-.2.5-.4.1-.2.2-.4.3-.6l-.4-.1Z"/>
    <path class="cls-4" d="M297.1,220.2v.8h-2.3l-.2,1.5c.4-.1.9,0,1.3.1.3.1.5.2.7.3.2.2.4.4.5.6.1.3.2.6.2.9s-.1.6-.2.8c-.1.3-.3.5-.5.7s-.5.4-.8.5c-.8.3-1.7.2-2.5-.1l.2-.8c.2.1.4.2.5.2.2.1.4.1.6.1.4,0,.8-.1,1.1-.3.3-.2.4-.6.4-.9,0-.4-.1-.7-.4-.9-.3-.2-.7-.3-1-.3h-.5l-.5.1.3-3.2,3.1-.1Z"/>
    <path class="cls-4" d="M301.1,220.2c.3,0,.7.1,1,.2s.6.3.8.6c.2.3.4.6.5,1,.1.5.2,1,.2,1.5s-.1,1-.2,1.5c-.1.4-.3.7-.5,1s-.5.5-.8.6-.6.2-1,.2c-.3,0-.7-.1-1-.2s-.6-.3-.8-.6c-.2-.3-.4-.6-.5-1-.1-.5-.2-1-.2-1.5s.1-1,.2-1.4.3-.7.5-1,.5-.5.8-.6c.4-.3.7-.3,1-.3ZM299.7,223.4c0,.4,0,.8.1,1.2.1.3.2.5.3.7.1.2.3.3.5.4s.4.1.5.1c.2,0,.4,0,.5-.1.2-.1.3-.2.5-.4.2-.2.3-.5.3-.8.1-.4.1-.8.1-1.2s0-.8-.1-1.2c-.1-.3-.2-.5-.3-.8-.1-.2-.3-.3-.5-.4s-.4-.1-.5-.1c-.2,0-.4,0-.5.1-.2.1-.3.2-.5.4-.2.2-.3.5-.3.8-.1.5-.1.9-.1,1.3h0Z"/>
    <path class="cls-4" d="M307.1,220.2c.3,0,.7.1,1,.2s.6.3.8.6c.2.3.4.6.5,1,.1.5.2,1,.2,1.5s-.1,1-.2,1.5c-.1.4-.3.7-.5,1s-.5.5-.8.6-.6.2-1,.2c-.3,0-.7-.1-1-.2s-.6-.3-.8-.6c-.2-.3-.4-.6-.5-1-.1-.5-.2-1-.2-1.5s.1-1,.2-1.4.3-.7.6-1c.2-.3.5-.5.8-.6.3-.3.6-.3.9-.3ZM305.7,223.4c0,.4,0,.8.1,1.2.1.3.2.5.3.7.1.2.3.3.5.4s.4.1.5.1c.2,0,.4,0,.5-.1.2-.1.3-.2.5-.4.1-.2.3-.5.3-.8.1-.4.1-.8.1-1.2s0-.8-.1-1.2c-.1-.3-.2-.5-.3-.8-.1-.2-.3-.3-.5-.4s-.4-.1-.5-.1c-.2,0-.4,0-.5.1-.2.1-.3.2-.5.4-.2.2-.3.5-.3.8-.1.5-.1.9-.1,1.3h0Z"/>
    <path class="cls-4" d="M373.9,219.3h.7v1c.2,0,.4.1.6.1.2.1.4.2.6.3l-.3.8c-.4-.2-.9-.4-1.3-.4-.3,0-.5.1-.7.2s-.3.4-.3.6.1.4.2.5c.2.1.5.3.7.3l.5.1c.4.1.8.4,1.2.7.4.5.5,1.1.3,1.7-.1.2-.2.4-.4.5-.2.2-.4.3-.6.4s-.5.2-.7.2v1.1h-.7v-1.1c-.3,0-.5-.1-.8-.1-.3-.1-.5-.2-.7-.3l.4-.8c.2.2.5.3.8.3.2.1.5.1.7.1.3,0,.6-.1.8-.2.3-.3.4-.8.1-1.1l-.1-.1c-.2-.2-.5-.3-.8-.4l-.5-.2c-.2-.1-.4-.1-.6-.2s-.3-.2-.5-.3c-.1-.1-.2-.3-.3-.5-.1-.2-.1-.4-.1-.6,0-.4.1-.9.5-1.2.3-.3.8-.5,1.2-.5l.1-.9Z"/>
    <path class="cls-4" d="M379.2,221c-.2,0-.4,0-.6.1s-.4.2-.6.4l-.5-.7c.3-.2.5-.4.9-.5.3-.1.6-.2.9-.1.3,0,.6,0,.9.1.2.1.4.2.6.4.2.2.3.4.4.6s.1.5.1.8c0,.5-.2,1-.5,1.5-.4.6-.9,1.1-1.5,1.7l-.6.6h2.7v.8h-3.8l-.2-.7.9-.9c.4-.4.7-.7.9-1,.2-.2.4-.5.6-.8.1-.2.3-.4.4-.6s.1-.4.1-.6c0-.3-.1-.6-.3-.8-.2-.3-.5-.3-.8-.3Z"/>
    <path class="cls-4" d="M384.6,220.2c.3,0,.6,0,.9.1.2.1.4.2.6.4.2.1.3.3.4.5s.1.4.1.6c0,.3-.1.6-.3.9-.2.3-.5.5-.9.6.4.1.7.3,1,.6.2.3.4.6.4,1,0,.3-.1.5-.2.8-.1.2-.3.4-.5.6s-.4.3-.7.4c-.6.2-1.2.2-1.7,0-.3-.1-.5-.2-.7-.4-.2-.1-.4-.3-.5-.5s-.2-.5-.2-.7c0-.4.1-.7.3-1,.3-.3.6-.5,1-.6-.3-.1-.6-.3-.8-.6-.2-.2-.3-.5-.3-.8,0-.5.2-.9.5-1.2.2-.2.4-.3.6-.4.4-.3.7-.3,1-.3ZM384.5,223.7c-.3.1-.6.2-.8.4s-.3.5-.3.8.1.5.3.7c.2.2.6.3.9.3s.6-.1.8-.3.3-.4.3-.7-.1-.6-.4-.8c-.2-.2-.5-.3-.8-.4h0ZM383.6,221.8c0,.1,0,.3.1.4s.1.2.2.3c.1.1.2.2.3.2l.4.2c.3-.1.5-.2.7-.4.2-.2.3-.4.3-.6,0-.3-.1-.5-.3-.6-.2-.2-.5-.3-.7-.2-.3,0-.6.1-.8.3-.1,0-.2.2-.2.4Z"/>
    <path class="cls-4" d="M390.5,220.2h.6c.2,0,.4.1.6.2l-.2.8c-.1-.1-.3-.1-.4-.2-.2,0-.3-.1-.5-.1-.3,0-.5,0-.7.2-.2.1-.4.2-.5.4-.1.2-.3.4-.3.6-.1.3-.1.5-.1.8.2-.2.4-.4.6-.5.3-.1.5-.1.8-.1s.5,0,.8.1c.2.1.5.2.6.4.2.2.3.4.4.6.1.3.2.6.1.9,0,.3,0,.6-.2.9-.2.5-.6.9-1.2,1.1-.3.1-.6.2-.9.2s-.6-.1-.9-.2-.5-.3-.7-.5c-.2-.3-.4-.6-.5-.9-.1-.4-.2-.9-.2-1.4,0-.6.1-1.1.2-1.6.1-.4.3-.8.6-1.1.2-.3.6-.5.9-.6.4,0,.8,0,1.1,0ZM388.8,224.3c0,.2,0,.4.1.6s.1.4.2.5.2.3.4.4c.2.1.3.1.5.1s.3,0,.5-.1c.1-.1.3-.2.4-.3.1-.1.2-.3.2-.4.1-.2.1-.4.1-.5,0-.4-.1-.7-.3-1-.2-.2-.6-.3-.9-.3-.2,0-.5.1-.7.2s-.3.2-.4.4c0,.1-.1.1-.1.2,0,0,0,.1,0,.2h0Z"/>
    <path class="cls-4" d="M393.9,226.7c-.2,0-.3-.1-.4-.2s-.2-.3-.1-.5c0-.2.1-.3.2-.5.1-.1.3-.2.5-.2h.3c.1,0,.2.1.2.2.1.1.2.2.2.3.1.2.1.3.1.5,0,.4-.1.8-.3,1.1-.2.3-.5.6-.8.8l-.3-.4c.2-.1.4-.2.5-.4.1-.2.2-.4.3-.6l-.4-.1Z"/>
    <path class="cls-4" d="M398.3,220.2c.3,0,.7.1,1,.2s.6.3.8.6c.2.3.4.6.5,1,.3,1,.3,2,0,2.9-.1.4-.3.7-.5,1s-.5.5-.8.6-.7.2-1,.2-.7-.1-1-.2-.6-.3-.8-.6c-.2-.3-.4-.6-.5-1-.1-.5-.2-1-.2-1.5s.1-1,.2-1.4.3-.7.5-1c.4-.5,1.1-.8,1.8-.8h0ZM396.8,223.4c0,.4,0,.8.1,1.2.1.3.2.5.3.7.1.2.3.3.5.4.3.1.7.1,1.1,0,.2-.1.3-.2.5-.4.1-.2.3-.5.3-.8.1-.4.1-.8.1-1.2s0-.8-.1-1.2c-.1-.3-.2-.5-.3-.8-.1-.2-.3-.3-.5-.4s-.4-.1-.5-.1c-.2,0-.4,0-.5.1-.2.1-.3.2-.5.4-.1.2-.3.5-.3.8-.1.5-.2.9-.2,1.3h0Z"/>
    <path class="cls-4" d="M404.3,220.2c.3,0,.7.1,1,.2s.6.3.8.6c.2.3.4.6.5,1,.1.5.2,1,.2,1.5s-.1,1-.2,1.5c-.1.4-.3.7-.5,1s-.5.5-.8.6-.7.2-1,.2-.7-.1-1-.2-.6-.3-.8-.6c-.2-.3-.4-.6-.5-1-.1-.5-.2-1-.2-1.5s.1-1,.2-1.4.3-.7.5-1,.5-.5.8-.6c.3-.3.6-.3,1-.3ZM402.8,223.4c0,.4,0,.8.1,1.2.1.3.2.5.3.7.1.2.3.3.5.4s.4.1.5.1c.2,0,.4,0,.5-.1.2-.1.3-.2.4-.4.2-.2.3-.5.3-.8.1-.4.1-.8.1-1.2s0-.8-.1-1.2c-.1-.3-.2-.5-.3-.8-.1-.2-.3-.3-.4-.4-.2-.1-.4-.1-.5-.1-.2,0-.4,0-.5.1-.2.1-.3.2-.5.4-.2.2-.3.5-.3.8,0,.5-.1.9-.1,1.3h0Z"/>
    <path class="cls-4" d="M410.3,220.2c.3,0,.7.1,1,.2s.6.3.8.6c.2.3.4.6.5,1,.1.5.2,1,.2,1.5s-.1,1-.2,1.5c-.1.4-.3.7-.5,1s-.5.5-.8.6-.7.2-1,.2-.7-.1-1-.2-.6-.3-.8-.6c-.2-.3-.4-.6-.5-1-.1-.5-.2-1-.2-1.5s.1-1,.2-1.4.3-.7.5-1,.5-.5.8-.6c.3-.3.6-.3,1-.3ZM408.8,223.4c0,.4,0,.8.1,1.2.1.3.2.5.3.7.1.2.3.3.5.4s.4.1.5.1c.2,0,.4,0,.5-.1.2-.1.3-.2.5-.4.1-.2.3-.5.3-.8.1-.4.1-.8.1-1.2s0-.8-.1-1.2c-.1-.3-.2-.5-.3-.8-.1-.2-.3-.3-.5-.4s-.4-.1-.5-.1c-.2,0-.4,0-.5.1-.2.1-.3.2-.5.4-.2.2-.3.5-.3.8,0,.5-.1.9-.1,1.3h0Z"/>
    <path class="cls-4" d="M475,219.3h.7v1c.2,0,.4.1.6.1.2.1.4.2.6.3l-.3.8c-.4-.2-.9-.4-1.3-.4-.3,0-.5.1-.7.2s-.3.4-.3.6.1.4.2.5c.2.1.5.3.7.3l.5.1c.4.1.8.4,1.2.7.3.3.4.7.4,1.1,0,.2,0,.4-.1.6s-.2.4-.4.5c-.2.2-.4.3-.6.4s-.5.2-.7.2v1.1h-.7v-1.1c-.3,0-.5-.1-.8-.1-.3-.1-.5-.2-.7-.3l.4-.8c.2.2.5.3.8.3.2.1.5.1.7.1.3,0,.6-.1.8-.2.3-.3.4-.8.1-1.1l-.1-.1c-.2-.2-.5-.3-.8-.4l-.5-.2c-.2-.1-.4-.1-.6-.2s-.3-.2-.5-.3c-.1-.1-.2-.3-.3-.5-.1-.2-.1-.4-.1-.6,0-.4.1-.9.5-1.2.3-.3.8-.5,1.2-.5l.1-.9Z"/>
    <path class="cls-4" d="M480.3,221c-.2,0-.4,0-.6.1s-.4.2-.6.4l-.5-.7c.3-.2.5-.4.9-.5.3-.1.6-.2.9-.1.3,0,.6,0,.9.1.2.1.4.2.6.4.2.2.3.4.4.6s.1.5.1.8c0,.5-.2,1-.5,1.5-.4.6-.9,1.2-1.5,1.7l-.6.6h2.7v.8h-3.8l-.2-.7.9-.9c.4-.4.7-.7.9-1,.2-.2.4-.5.6-.8.1-.2.3-.4.3-.6.1-.2.1-.4.1-.6,0-.3-.1-.6-.3-.8-.2-.3-.4-.3-.7-.3Z"/>
    <path class="cls-4" d="M485.7,220.2c.3,0,.6,0,.9.1.2.1.4.2.6.4.2.1.3.3.4.5s.1.4.1.6c0,.3-.1.6-.3.9-.2.3-.5.5-.9.6.4.1.7.3,1,.6.2.3.4.6.3,1,0,.3,0,.5-.2.8-.1.2-.3.4-.5.6s-.4.3-.7.4c-.3.1-.6.1-.9.1s-.6,0-.9-.1-.5-.2-.7-.4c-.2-.1-.3-.3-.5-.5-.1-.2-.2-.5-.2-.7,0-.4.1-.7.3-1,.3-.3.6-.5,1-.6-.3-.1-.6-.3-.8-.6-.2-.2-.3-.5-.3-.8,0-.2,0-.4.1-.6s.2-.4.4-.5c.2-.2.4-.3.6-.4.6-.4.9-.4,1.2-.4ZM485.6,223.7c-.3.1-.6.2-.8.4s-.3.5-.3.8.1.5.3.7c.2.2.6.3.9.3s.6-.1.8-.3c.4-.4.4-1,0-1.4h0c-.2-.3-.6-.4-.9-.5h0ZM484.7,221.8c0,.1,0,.3.1.4s.1.2.2.3c.1.1.2.2.3.2l.4.2c.3-.1.5-.2.7-.4.2-.2.3-.4.3-.6,0-.3-.1-.5-.3-.6-.2-.2-.5-.2-.7-.2-.3,0-.6.1-.8.3-.1,0-.2.2-.2.4Z"/>
    <path class="cls-4" d="M491.6,220.2h.6c.2,0,.4.1.6.2l-.2.8c-.1-.1-.3-.1-.4-.2-.2,0-.3-.1-.5-.1-.3,0-.5,0-.7.2-.2.1-.4.2-.5.4-.1.2-.3.4-.3.6-.1.3-.1.5-.1.8.2-.2.4-.4.6-.5.3-.1.5-.1.8-.1s.5,0,.8.1c.2.1.5.2.6.4.2.2.3.4.4.6.1.3.2.6.2.9s-.1.6-.2.9-.3.5-.5.7-.4.3-.7.5c-.3.1-.6.2-.9.2s-.6-.1-.9-.2-.5-.3-.7-.5c-.2-.3-.4-.6-.5-.9-.1-.4-.2-.9-.2-1.4,0-.6.1-1.1.2-1.6.1-.4.3-.8.6-1.1.2-.3.5-.5.9-.6.3-.1.7-.1,1-.1ZM489.9,224.3c0,.2,0,.4.1.6s.1.4.2.5.2.3.4.4c.2.1.3.1.5.1.3,0,.6-.1.8-.4.1-.1.2-.3.2-.4.1-.2.1-.4.1-.5,0-.4-.1-.7-.3-1-.2-.2-.6-.3-.9-.3-.2,0-.5.1-.7.2s-.3.2-.4.4c0,.1-.1.1-.1.2.1,0,.1.1.1.2h0Z"/>
    <path class="cls-4" d="M495,226.7c-.2,0-.3-.1-.4-.2s-.2-.3-.1-.5c0-.2.1-.3.2-.5.1-.1.3-.2.5-.2h.3c.1,0,.2.1.2.2.1.1.2.2.2.3.1.2.1.3.1.5,0,.4-.1.8-.3,1.1-.2.3-.5.6-.8.8l-.3-.4c.2-.1.4-.2.5-.4.1-.2.2-.4.3-.6l-.4-.1Z"/>
    <path class="cls-4" d="M499.4,220.2c.3,0,.7.1,1,.2s.6.3.8.6c.2.3.4.6.5,1,.1.5.2,1,.2,1.5s-.1,1-.2,1.5c-.1.4-.3.7-.5,1s-.5.5-.8.6-.7.2-1,.2-.7-.1-1-.2-.6-.3-.8-.6c-.2-.3-.4-.6-.5-1-.1-.5-.2-1-.2-1.5s.1-1,.2-1.4.3-.7.5-1,.5-.5.8-.6c.3-.3.6-.3,1-.3ZM497.9,223.4c0,.4,0,.8.1,1.2.1.3.2.5.3.7.1.2.3.3.5.4s.4.1.5.1c.2,0,.4,0,.5-.1.2-.1.3-.2.5-.4.2-.2.3-.5.3-.8.1-.4.1-.8.1-1.2s0-.8-.1-1.2c-.1-.3-.2-.5-.3-.8-.1-.2-.3-.3-.5-.4s-.4-.1-.5-.1c-.2,0-.4,0-.5.1-.2.1-.3.2-.5.4-.1.2-.3.5-.3.8,0,.5-.1.9-.1,1.3h0Z"/>
    <path class="cls-4" d="M505.4,220.2c.3,0,.7.1,1,.2s.6.3.8.6c.2.3.4.6.5,1,.1.5.2,1,.2,1.5s-.1,1-.2,1.5c-.1.4-.3.7-.5,1s-.5.5-.8.6-.7.2-1,.2-.7-.1-1-.2-.6-.3-.8-.6c-.2-.3-.4-.6-.5-1-.1-.5-.2-1-.2-1.5s.1-1,.2-1.4c.1-.4.3-.7.5-1s.5-.5.8-.6c.3-.3.6-.3,1-.3ZM503.9,223.4c0,.4,0,.8.1,1.2.1.3.2.5.3.7s.3.3.5.4.4.1.5.1c.2,0,.4,0,.5-.1.2-.1.3-.2.5-.4.1-.2.3-.5.3-.8.1-.4.1-.8.1-1.2s0-.8-.1-1.2c-.1-.3-.2-.5-.3-.8-.1-.2-.3-.3-.5-.4s-.4-.1-.5-.1c-.2,0-.4,0-.5.1-.2.1-.3.2-.4.4-.2.2-.3.5-.3.8-.1.5-.2.9-.2,1.3h0Z"/>
    <path class="cls-4" d="M511.4,220.2c.3,0,.7.1,1,.2s.6.3.8.6c.2.3.4.6.5,1,.1.5.2,1,.2,1.5s-.1,1-.2,1.5c-.1.4-.3.7-.5,1s-.5.5-.8.6-.7.2-1,.2-.7-.1-1-.2-.6-.3-.8-.6c-.2-.3-.4-.6-.5-1-.1-.5-.2-1-.2-1.5s.1-1,.2-1.4c.1-.4.3-.7.5-1,.4-.6,1.1-.9,1.8-.9h0ZM510,223.4c0,.4,0,.8.1,1.2.1.3.2.5.3.7s.3.3.5.4c.3.1.7.1,1.1,0,.2-.1.3-.2.5-.4.1-.2.3-.5.3-.8.1-.4.1-.8.1-1.2s0-.8-.1-1.2c-.1-.3-.2-.5-.3-.8-.1-.2-.3-.3-.5-.4s-.4-.1-.5-.1c-.2,0-.4,0-.5.1-.2.1-.3.2-.5.4-.1.2-.3.5-.3.8-.2.5-.2.9-.2,1.3Z"/>
    <path class="cls-4" d="M576.1,219.3h.7v1c.4,0,.9.2,1.3.4l-.3.8c-.4-.2-.9-.4-1.3-.4-.3,0-.5.1-.7.2s-.3.4-.3.6.1.4.3.5.5.3.7.3l.5.1c.4.1.8.4,1.2.7.3.3.4.7.4,1.1,0,.2,0,.4-.1.6s-.2.4-.4.5c-.2.2-.3.3-.5.4s-.5.2-.7.2v1.1h-.9v-1.1c-.3,0-.5-.1-.8-.1-.3-.1-.5-.2-.7-.3l.4-.8c.2.2.5.3.8.3.2.1.5.1.7.1.3,0,.6-.1.8-.2s.3-.4.3-.6-.1-.4-.3-.6-.5-.3-.8-.4l-.5-.2c-.2-.1-.4-.1-.6-.2-.2-.1-.3-.2-.5-.3-.1-.1-.2-.3-.3-.5-.2-.6-.1-1.3.4-1.8.3-.3.8-.5,1.2-.5v-.9Z"/>
    <path class="cls-4" d="M581.1,220.3h.8v6.3h-1v-5.3l-1.1.5-.2-.8,1.5-.7Z"/>
    <path class="cls-4" d="M586.1,220.3h1v3.9h1v.8h-1v1.5h-1v-1.5h-3v-.6l3-4.1ZM585.6,222.3l-1.4,1.9h1.9v-1.9l.1-1h0l-.6,1Z"/>
    <path class="cls-4" d="M588.8,220.6c.2-.2.5-.3.8-.4s.6-.1.8-.1c.3,0,.5,0,.8.1l.6.3c.2.1.3.3.4.5.1.2.2.4.2.7,0,.4-.1.7-.3,1-.2.2-.5.4-.7.5.4.1.7.3.9.5.2.3.4.6.4,1,0,.3-.1.6-.2.8-.1.2-.3.4-.5.6s-.5.3-.7.3c-.3.1-.6.1-.9.1s-.6,0-.9-.1c-.3-.1-.5-.1-.8-.3l.2-.8c.2.1.4.2.6.2.2.1.5.1.7.1s.3,0,.5-.1c.1,0,.3-.1.4-.2.1-.1.2-.2.3-.3.2-.4.1-.9-.2-1.3-.3-.2-.6-.3-1-.2h-.7v-.8h.6c.3,0,.7-.1.9-.3.2-.2.4-.5.4-.8s-.1-.5-.3-.7-.5-.3-.7-.3-.4,0-.6.1l-.6.3-.4-.4Z"/>
    <path class="cls-4" d="M594.2,226.7c-.2,0-.3-.1-.4-.2-.1-.1-.2-.3-.2-.5s.1-.3.2-.5c.1-.1.3-.2.5-.2h.3c.1,0,.2.1.2.2.1.1.1.2.2.3.1.2.1.3.1.5,0,.4-.1.8-.3,1.1-.2.3-.5.6-.8.8l-.3-.4c.2-.1.4-.2.5-.4.1-.2.2-.4.3-.6l-.3-.1Z"/>
    <path class="cls-4" d="M598.6,220.2c.3,0,.7.1,1,.2s.6.3.8.6c.2.3.4.6.5,1,.1.5.2,1,.2,1.5s-.1,1-.2,1.5c-.1.4-.3.7-.5,1s-.5.5-.8.6-.6.2-1,.2c-.3,0-.7-.1-1-.2s-.6-.3-.8-.6c-.2-.3-.4-.6-.5-1-.1-.5-.2-1-.2-1.5s.1-1,.2-1.4c.1-.4.3-.7.6-1,.2-.3.5-.5.8-.6.2-.3.6-.3.9-.3ZM597.2,223.4c0,.4,0,.8.1,1.2.1.3.2.5.3.7s.3.3.5.4.4.1.5.1c.2,0,.4,0,.5-.1.2-.1.3-.2.5-.4.1-.2.3-.5.3-.8.1-.4.1-.8.1-1.2s0-.8-.1-1.2c-.1-.3-.2-.5-.3-.8-.1-.2-.3-.3-.5-.4s-.4-.1-.5-.1c-.2,0-.4,0-.5.1-.2.1-.3.2-.5.4-.2.2-.3.5-.3.8-.1.5-.1.9-.1,1.3h0Z"/>
    <path class="cls-4" d="M604.6,220.2c.3,0,.7.1,1,.2s.6.3.8.6c.2.3.4.6.5,1,.3,1,.3,2,0,2.9-.1.4-.3.7-.5,1s-.5.5-.8.6-.6.2-1,.2c-.3,0-.7-.1-1-.2s-.6-.3-.8-.6c-.2-.3-.4-.6-.5-1-.1-.5-.2-1-.2-1.5s.1-1,.2-1.4c.1-.4.3-.7.5-1,.5-.5,1.1-.8,1.8-.8h0ZM603.2,223.4c0,.4,0,.8.1,1.2.1.3.2.5.3.7s.3.3.5.4c.3.1.7.1,1.1,0,.2-.1.3-.2.5-.4.1-.2.3-.5.3-.8.1-.4.1-.8.1-1.2s0-.8-.1-1.2c-.1-.3-.2-.5-.3-.8-.1-.2-.3-.3-.5-.4s-.4-.1-.5-.1c-.2,0-.4,0-.5.1-.2.1-.3.2-.5.4-.1.2-.3.5-.3.8-.2.5-.2.9-.2,1.3h0Z"/>
    <path class="cls-4" d="M610.6,220.2c.3,0,.7.1,1,.2s.6.3.8.6c.2.3.4.6.5,1,.1.5.2,1,.2,1.5s-.1,1-.2,1.5c-.1.4-.3.7-.5,1s-.5.5-.8.6-.7.2-1,.2-.7-.1-1-.2-.6-.3-.8-.6c-.2-.3-.4-.6-.5-1-.1-.5-.2-1-.2-1.5s.1-1,.2-1.4c.1-.4.3-.7.5-1s.5-.5.8-.6c.3-.3.7-.3,1-.3ZM609.2,223.4c0,.4,0,.8.1,1.2.1.3.2.5.3.7s.3.3.5.4.4.1.5.1c.2,0,.4,0,.5-.1.2-.1.3-.2.5-.4.2-.2.3-.5.3-.8.1-.4.1-.8.1-1.2s0-.8-.1-1.2c-.1-.3-.2-.5-.3-.8-.1-.2-.3-.3-.5-.4s-.4-.1-.5-.1c-.2,0-.4,0-.5.1-.2.1-.3.2-.5.4-.2.2-.3.5-.3.8-.1.5-.1.9-.1,1.3h0Z"/>
    <path class="cls-4" d="M94.1,163.3h3.4c.5,0,1,.1,1.4.2.4.1.7.4,1,.6.3.3.5.6.6,1s.2.8.2,1.2-.1.7-.2,1.1c-.1.3-.3.6-.5.8s-.4.4-.7.6c-.2.2-.5.3-.8.4l2.7,4.3h-1.7l-2.4-4.1h-1.7v4.1h-1.4l.1-10.2ZM95.5,168.3h1.2c.3,0,.6,0,.9-.1s.5-.2.7-.3.4-.3.5-.6c.3-.8.2-1.7-.4-2.4-.5-.3-1-.5-1.6-.5h-1.5v3.9h.2Z"/>
    <path class="cls-4" d="M109.7,169.9h-5.5v.1c-.1.7.2,1.5.7,2s1.2.7,1.9.7,1.5-.1,2.2-.4l.3,1.1c-.4.2-.7.3-1.1.4-.5.1-.9.1-1.4.1s-1.1-.1-1.6-.2c-.5-.1-.9-.4-1.3-.7s-.7-.8-.9-1.2c-.2-.6-.3-1.2-.3-1.8s.1-1.1.3-1.6c.2-.5.4-.9.8-1.3.3-.4.7-.6,1.2-.8s1-.3,1.6-.3c.5,0,.9.1,1.3.2.4.2.7.4,1,.7s.5.7.7,1.1c.2.4.2.9.2,1.4l-.1.5ZM108.2,168.9c0-.3,0-.5-.1-.8-.1-.2-.2-.5-.3-.6-.1-.2-.3-.3-.6-.4-.3-.1-.6-.2-.8-.2-.6,0-1.1.2-1.5.6-.4.4-.6,1-.7,1.5l4-.1Z"/>
    <path class="cls-4" d="M116.3,165.9h1.5l-2.8,7.7h-1.4l-3-7.7h1.6l1.7,5.3.3,1.2h.1l.3-1.2,1.7-5.3Z"/>
    <path class="cls-4" d="M125.9,169.9h-5.5v.1c-.1.7.2,1.5.7,2s1.2.7,1.9.7c.4,0,.7,0,1.1-.1.4-.1.7-.2,1.1-.3l.3,1.1c-.4.2-.7.3-1.1.4-.5.1-.9.1-1.4.1s-1.1-.1-1.6-.2c-.5-.1-.9-.4-1.3-.7-.4-.3-.7-.8-.9-1.2-.2-.6-.3-1.2-.3-1.8s.1-1.1.3-1.6.4-.9.8-1.3c.3-.3.7-.6,1.2-.8s1-.3,1.6-.3c.5,0,.9.1,1.3.2.4.2.7.4,1,.7s.5.7.7,1.1c.2.4.2.9.2,1.4l-.1.5ZM124.4,168.9c0-.3,0-.5-.1-.8-.1-.2-.2-.5-.3-.6-.2-.2-.3-.3-.6-.4-.3-.1-.6-.2-.8-.2-.5,0-1.1.2-1.5.6-.4.4-.6,1-.7,1.5l4-.1Z"/>
    <path class="cls-4" d="M129.4,173.6h-1.4v-7.7h1.1l.2,1.1c.4-.4.8-.7,1.2-.9.5-.2,1-.3,1.4-.3.7,0,1.4.2,1.9.7s.7,1.2.7,1.8v5.3h-1.5v-5.1c0-.4-.1-.8-.4-1.1-.3-.3-.7-.5-1.1-.4-.8,0-1.6.4-2.1,1v5.6Z"/>
    <path class="cls-4" d="M142.2,165.9h1.4v7.7h-1.1l-.2-1h-.1c-.3.3-.7.6-1.1.8-.5.2-1,.3-1.5.3-.7,0-1.4-.2-2-.7-.5-.6-.8-1.3-.8-2.1v-5h1.4v5c0,.3,0,.6.1.8s.2.4.3.6c.1.1.3.2.5.3s.4.1.6.1c.4,0,.8-.1,1.2-.3s.7-.5,1-.8l.3-5.7Z"/>
    <path class="cls-4" d="M152.8,169.9h-5.5v.1c-.1.7.2,1.5.7,2s1.2.7,1.9.7c.4,0,.7,0,1.1-.1.4-.1.7-.2,1.1-.3l.3,1.1c-.4.2-.7.3-1.1.4-.5.1-.9.1-1.4.1s-1.1-.1-1.6-.2c-.5-.1-.9-.4-1.3-.7-.4-.3-.7-.8-.9-1.2-.2-.6-.3-1.2-.3-1.8s.1-1.1.3-1.6c.3-.9,1.1-1.7,2-2.1.5-.2,1-.3,1.6-.3.5,0,.9.1,1.3.2.4.2.7.4,1,.7s.5.7.7,1.1c.2.4.2.9.2,1.4l-.1.5ZM151.3,168.9c0-.3,0-.5-.1-.8-.1-.2-.2-.5-.3-.6-.1-.2-.3-.3-.6-.4-.3-.1-.6-.2-.8-.2-.5,0-1.1.2-1.5.6-.4.4-.6.9-.7,1.5l4-.1Z"/>
    <path class="cls-4" d="M166,169.8c0,.6-.1,1.1-.3,1.7-.2.5-.4.9-.8,1.3-.6.7-1.5,1.1-2.5,1.1-.5,0-.9-.1-1.3-.2-.4-.2-.7-.4-1.1-.7h0l-.1.7h-1v-11.7h1.4v4.9c.3-.4.7-.6,1.2-.8.4-.2.9-.3,1.3-.3.9,0,1.8.3,2.3,1,.7.9,1,1.9.9,3ZM164.5,169.8c0-.7-.2-1.4-.5-2-.3-.5-.9-.8-1.5-.8-.4,0-.8.1-1.1.3-.4.2-.7.5-1,.8v3.7c.2.3.5.5.8.6.3.2.7.2,1,.2s.6-.1.9-.2c.3-.1.6-.3.8-.5.2-.3.4-.6.5-.9,0-.3.1-.8.1-1.2h0Z"/>
    <path class="cls-4" d="M167,165.9h1.5l1.6,4.4.6,1.8h0l.6-1.8,1.5-4.4h1.5l-3,8.4c-.3.8-.7,1.6-1.2,2.2-.5.5-1.1.9-1.8,1.1l-.6-1.1c.5-.2,1-.5,1.4-.9s.8-1,.9-1.5l.1-.4-3.1-7.8Z"/>
    <path class="cls-4" d="M184.6,172.5c.5,0,.9,0,1.4-.1.4-.1.7-.2,1.1-.4l.3,1.2c-.4.2-.8.3-1.3.4-.6.1-1.1.1-1.7.1-.7,0-1.3-.1-1.9-.4-.6-.2-1.1-.6-1.6-1-.4-.5-.8-1-1-1.7-.3-.7-.4-1.5-.4-2.3s.1-1.5.4-2.3c.2-.6.6-1.2,1-1.7.5-.4,1-.8,1.6-1s1.3-.4,2-.4c.6,0,1.1,0,1.7.2.4.1.8.3,1.2.4l-.4,1.4-.6-.2c-.2-.1-.4-.1-.5-.2l-.6-.1h-.6c-.5,0-.9.1-1.4.2-.4.1-.8.4-1.1.7-.4.4-.6.8-.8,1.3-.2.6-.3,1.2-.3,1.9,0,.6.1,1.3.3,1.9.2.5.4.9.7,1.2s.7.6,1.1.7c.5.2.9.2,1.4.2Z"/>
    <path class="cls-4" d="M191,173.6h-1.4v-11.7h1.4v4.9c.4-.3.8-.6,1.2-.8.5-.2.9-.3,1.4-.3.4,0,.8.1,1.1.2.3.1.6.3.8.5s.4.5.5.8.2.7.2,1v5.3h-1.4v-5c0-.5-.1-.9-.4-1.3-.3-.3-.7-.4-1.1-.4s-.8.1-1.1.3c-.4.2-.8.5-1.1.8v5.7h-.1Z"/>
    <path class="cls-4" d="M198.8,166.6l.7-.4c.2-.1.5-.2.7-.3s.5-.1.7-.1h.8c.4,0,.8,0,1.2.1.3.1.7.2.9.5.3.2.5.5.6.9.2.4.2.9.2,1.3v5h-1.2l-.2-.9h0c-.3.3-.7.6-1.1.8-.4.2-.9.2-1.3.2-.3,0-.7-.1-1-.2-.3-.1-.6-.2-.8-.4s-.4-.4-.5-.7-.2-.6-.2-.9c0-.8.4-1.5,1-1.8.8-.5,1.6-.7,2.5-.6h1.5v-.6c0-.4-.1-.9-.4-1.1-.3-.2-.7-.3-1.1-.3-.3,0-.7.1-1,.1-.4.1-.9.3-1.3.5l-.7-1.1ZM203.2,170.1h-1.2c-.6,0-1.2.1-1.7.4-.3.2-.5.6-.5,1,0,.2,0,.4.1.6.1.1.2.3.3.4.1.1.3.2.4.2.2,0,.4.1.5.1.4,0,.8-.1,1.1-.2.4-.2.7-.5,1-.8v-1.7Z"/>
    <path class="cls-4" d="M208.6,173.6h-1.4v-7.7h1.1l.2,1.1c.3-.4.8-.7,1.2-.9.5-.2,1-.3,1.4-.3.7,0,1.4.2,1.9.7s.7,1.2.7,1.8v5.3h-1.4v-5.1c0-.4-.1-.8-.4-1.1-.3-.3-.7-.5-1.1-.4-.8,0-1.6.4-2.1,1l-.1,5.6Z"/>
    <path class="cls-4" d="M217.7,173.6h-1.4v-7.7h1.1l.2,1.1c.4-.4.8-.7,1.2-.9.5-.2,1-.3,1.5-.3.7,0,1.3.2,1.8.7s.7,1.2.7,1.8v5.3h-1.4v-5.1c0-.4-.1-.8-.4-1.1-.3-.3-.7-.5-1.1-.4-.8,0-1.6.4-2.1,1l-.1,5.6Z"/>
    <path class="cls-4" d="M231.9,169.9h-5.5v.1c-.1.7.2,1.5.7,2s1.2.7,1.9.7,1.5-.1,2.2-.4l.3,1.1c-.4.2-.7.3-1.1.4-.5.1-.9.1-1.4.1s-1.1-.1-1.6-.2c-.5-.1-.9-.4-1.3-.7-.4-.3-.7-.8-.9-1.2-.2-.6-.3-1.2-.3-1.8s.1-1.1.3-1.6.4-.9.8-1.3c.3-.4.7-.6,1.2-.8s1-.3,1.6-.3c.5,0,.9.1,1.3.2.4.2.7.4,1,.7s.5.7.6,1.1c.2.4.2.9.2,1.4v.5ZM230.4,168.9c0-.3,0-.5-.1-.8-.1-.2-.2-.5-.3-.6-.2-.2-.3-.3-.6-.4-.3-.1-.5-.2-.8-.2-.6,0-1.1.2-1.5.6-.4.4-.6,1-.7,1.5l4-.1Z"/>
    <path class="cls-4" d="M234,173.6v-11.7h1.4v11.7h-1.4Z"/>
    <path class="cls-2" d="M451.08,89.32h-.79v8.58h-4.72v-8.58h-1.57v-4.29h1.57v-2.07c0-2.11,1.17-4.37,4.44-4.37h3.42v4.29h-2.91c-.15,0-.24,0-.24.29v1.86h3.31l-.37,4.29h-2.16Z"/>
    <path class="cls-2" d="M450.98,224.37h-.79v8.58h-4.72v-8.58h-1.57v-4.29h1.57v-2.07c0-2.11,1.17-4.37,4.44-4.37h3.42v4.29h-2.91c-.15,0-.24,0-.24.29v1.86h3.31l-.37,4.29h-2.16Z"/>
    <g>
      <line class="cls-2" x1="542.27" y1="95.83" x2="548.16" y2="89.02"/>
      <path class="cls-2" d="M550.66,86.13l-3.84-5.6h-4.52c.08,0,3.1,4.38,5.88,8.46l4.69,6.88h4.46l-6.67-9.73Z"/>
      <line class="cls-2" x1="550.69" y1="86.13" x2="555.49" y2="80.53"/>
    </g>
    <g>
      <line class="cls-2" x1="542.27" y1="230.93" x2="548.16" y2="224.12"/>
      <path class="cls-2" d="M550.66,221.23l-3.84-5.6h-4.52c.08,0,3.1,4.38,5.88,8.46l4.69,6.88h4.46l-6.67-9.73Z"/>
      <line class="cls-2" x1="550.69" y1="221.23" x2="555.49" y2="215.63"/>
    </g>
    <g>
      <g>
        <polyline class="cls-2" points="339.06 83.55 354.66 83.55 354.66 79.08 338.49 79.08 338.49 95.97 349.14 95.98"/>
        <g>
          <circle class="cls-6" cx="340.53" cy="81.3" r=".77"/>
          <circle class="cls-6" cx="342.84" cy="81.3" r=".77"/>
          <circle class="cls-6" cx="345.16" cy="81.3" r=".77"/>
        </g>
        <polygon class="cls-2" points="340.54 86.63 340.54 91.8 347.78 91.8 347.78 87.81 341.94 87.81 340.54 86.63"/>
      </g>
      <path class="cls-2" d="M350.56,92.25v-6.4c0-.33.27-.6.6-.6h4.94c.34,0,.61.27.61.61v10.86c0,.33-.27.6-.6.6h-4.94c-.33,0-.6-.27-.6-.6v-4.58"/>
      <path class="cls-2" d="M354.12,92.48h1.01s0,0,0,0v-.13s0-.09-.04-.13c-.04-.04-.08-.07-.13-.1-.18-.11-.31-.27-.34-.49l-.18-1.05c-.09-.5-.4-.91-.91-.91h.02c-.5,0-.82.41-.91.91l-.18,1.05c-.03.22-.15.38-.34.49-.05.03-.09.06-.13.1-.03.04-.04.08-.04.13v.13h0s.98,0,.98,0v.08c0,.35.26.63.58.63.32,0,.59-.28.59-.63h0v-.08Z"/>
    </g>
    <g>
      <g>
        <polyline class="cls-2" points="339.06 218.65 354.66 218.65 354.66 214.18 338.49 214.18 338.49 231.07 349.14 231.08"/>
        <g>
          <circle class="cls-6" cx="340.53" cy="216.4" r=".77"/>
          <circle class="cls-6" cx="342.84" cy="216.4" r=".77"/>
          <circle class="cls-6" cx="345.16" cy="216.4" r=".77"/>
        </g>
        <polygon class="cls-2" points="340.54 221.73 340.54 226.9 347.78 226.9 347.78 222.91 341.94 222.91 340.54 221.73"/>
      </g>
      <path class="cls-2" d="M350.56,227.35v-6.4c0-.33.27-.6.6-.6h4.94c.34,0,.61.27.61.61v10.86c0,.33-.27.6-.6.6h-4.94c-.33,0-.6-.27-.6-.6v-4.58"/>
      <path class="cls-2" d="M354.12,227.58h1.01s0,0,0,0v-.13s0-.09-.04-.13c-.04-.04-.08-.07-.13-.1-.18-.11-.31-.27-.34-.49l-.18-1.05c-.09-.5-.4-.91-.91-.91h.02c-.5,0-.82.41-.91.91l-.18,1.05c-.03.22-.15.38-.34.49-.05.03-.09.06-.13.1-.03.04-.04.08-.04.13v.13h0s.98,0,.98,0v.08c0,.35.26.63.58.63.32,0,.59-.28.59-.63h0v-.08Z"/>
    </g>
    <g>
      <polygon class="cls-2" points="243.73 90.25 243.73 82.48 253.9 82.48 253.9 92.4 251.71 90.25 243.73 90.25"/>
      <path class="cls-2" d="M249.16,91.45v5.21c0,.58-.48,1.06-1.06,1.06h-7.94c-.58,0-1.06-.47-1.06-1.06v-16.91c0-.58.48-1.06,1.06-1.06h7.94c.59,0,1.06.47,1.06,1.06v1.52"/>
    </g>
    <g>
      <polygon class="cls-2" points="243.73 225.35 243.73 217.58 253.9 217.58 253.9 227.5 251.71 225.35 243.73 225.35"/>
      <path class="cls-2" d="M249.16,226.55v5.21c0,.58-.48,1.06-1.06,1.06h-7.94c-.58,0-1.06-.47-1.06-1.06v-16.91c0-.58.48-1.06,1.06-1.06h7.94c.59,0,1.06.47,1.06,1.06v1.52"/>
    </g>
    <polyline class="cls-2" points="136.24 81.89 154.76 81.89 154.76 94.51 136.24 94.51 136.24 81.89 145.5 89.14 154.76 81.89"/>
    <polyline class="cls-2" points="136.24 216.99 154.76 216.99 154.76 229.61 136.24 229.61 136.24 216.99 145.5 224.24 154.76 216.99"/>
  </g>
</svg>