<?xml version="1.0" encoding="UTF-8"?><svg id="b" xmlns="http://www.w3.org/2000/svg" width="36" height="36" viewBox="0 0 36 36"><path d="m31.13,18.85v-.06c-.35-2.24-2.05-4.09-4.25-4.62-.24-.06-.49-.1-.73-.12-.09-.22-.2-.43-.31-.63l7.29-7.01h-6.44l-4.4,4.26c-.08-.02-.12-.02-.12-.02-.77-.17-1.61-.2-2.25-.09-.63.1-1.28.3-1.86.56l-.13-.1c-.27-.2-.37-.27-.43-.31-.39-.23-.79-.43-1.2-.58-.82-.3-1.69-.44-2.59-.41-1.7.06-3.29.62-4.58,1.63-1.29,1-2.24,2.44-2.83,4.28-1.53.4-2.78,1.29-3.62,2.59-.96,1.47-1.38,3.23-1.2,4.94.18,1.69.92,3.27,2.1,4.46,1.25,1.26,2.87,1.95,4.58,1.95h20.79c.3-.03.6-.07.9-.13,2.44-.53,4.42-2.61,4.69-4.96.29-2.45-1.13-4.77-3.4-5.65Z" fill="#fff" stroke-width="0"/><polygon points="27.05 7.29 15.43 18.53 15.43 15.2 12.06 15.2 12.06 25.45 30.95 7.29 27.05 7.29" fill="#1f00ff" stroke-width="0"/><path d="m9.28,18.68s.14-.77.14-.77c.3-1.64.99-3.35,2.56-4.14,1.65-.83,3.67-.39,4.94.91.04.05.09.09.13.14l.58.63.18.2h0s.15-3.44.15-3.44c-.09-.03-.86-.63-.95-.69-.33-.2-.68-.37-1.04-.5-.72-.26-1.48-.38-2.24-.35-1.46.05-2.87.53-4.03,1.43-1.38,1.08-2.21,2.67-2.66,4.34,0,0,0,0,0,0l2.19,2.5.05-.27Z" fill="#8c00b8" stroke-width="0"/><path d="m8.15,26.01c-1.08,0-2.06-.63-2.59-1.56-.41-.71-.56-1.56-.5-2.38.04-.58.19-1.16.47-1.66.54-.95,1.47-1.36,2.53-1.41.03,0,.07,0,.1,0l.67-.02h.14s.26-.02.26-.02h0s-2.19-2.5-2.19-2.5c-1.49.26-2.75,1.03-3.58,2.3-.82,1.27-1.21,2.83-1.06,4.33.31,2.97,2.66,5.57,5.74,5.57h18.79v-2.64H8.15Z" fill="#0c0085" stroke-width="0"/><path d="m22.02,11.58h0c-.61-.13-1.35-.19-1.94-.09-.74.12-1.51.39-2.09.72,0,0,0,0,0,0l-.15,3.43,4.21-4.06Z" fill="#b78200" stroke-width="0"/><path d="m25.47,14.97c-.13-.45-.32-.88-.57-1.28h-.01c-.35.32-.69.65-1.04.98-.32.3-.63.6-.95.9.11.25.14.52.16.79.04.46.01,1.92.01,1.92,0,0,0,0,0,0l2.41-3.32s-.01,0-.02,0Z" fill="#b78200" stroke-width="0"/><path d="m30.31,19.58s0,0,0,0l-3.38,2.42s0,0,0,0h.56c.91.02,2.11-.13,2.88.48.63.49.78,1.45.43,2.17-.36.75-1.2,1.3-2.02,1.36-.06,0-.49,0-.88,0h-.4s-.23,0-.23,0h-.33v2.64h.96s.97,0,.97,0h.02c.25-.02.51-.05.76-.1,1.98-.43,3.71-2.09,3.95-4.15.26-2.19-1.15-4.26-3.28-4.82Z" fill="#006130" stroke-width="0"/><path d="m30.19,18.94c-.28-1.86-1.69-3.4-3.53-3.84-.38-.09-.77-.13-1.17-.12l-2.41,3.32s.51-.16.51-.16c.83-.26,1.73-.66,2.62-.4.73.21,1.28.9,1.39,1.64.13.9-.36,1.81-.67,2.63l3.38-2.42s-.1-.58-.11-.63Z" fill="#ab0014" stroke-width="0"/></svg>