<?xml version="1.0" encoding="UTF-8"?>
<svg id="Layer_1" data-name="Layer 1" xmlns="http://www.w3.org/2000/svg" viewBox="0 0 180 125">
  <defs>
    <style>
      .cls-1 {
        fill: #f3e8d5;
      }

      .cls-1, .cls-2, .cls-3, .cls-4, .cls-5, .cls-6, .cls-7 {
        stroke-width: 0px;
      }

      .cls-2 {
        fill: #cfcfff;
      }

      .cls-3 {
        fill: #cfcfe5;
      }

      .cls-4 {
        fill: #d3e1d8;
      }

      .cls-5 {
        fill: #fff;
      }

      .cls-6 {
        fill: #ecd3f3;
      }

      .cls-7 {
        fill: #f1d4d5;
      }
    </style>
  </defs>
  <path class="cls-5" d="M159.06,69.17c-.06-.38-.13-.88-.22-1.56-.02-.18-.04-.31-.05-.35-1.68-11.1-10.14-20.31-21.05-22.91-1.74-.42-3.5-.66-5.26-.73-.73-2.05-1.69-4.02-2.85-5.86l-.33-.52-.05-.03s-.03-.05-.05-.07l32.75-31.49,3.69-3.55h-27.21l-.6.58-23.66,22.91c-1.14-.31-1.87-.4-1.98-.41h-.06c-3.86-.83-8.04-1-11.23-.46-3.77.63-7.65,1.89-10.88,3.52-.65-.48-1.49-1.1-2.03-1.5-1.32-.98-1.8-1.34-2.09-1.52-1.98-1.18-4.02-2.17-6.08-2.93-4.13-1.52-8.54-2.22-13.1-2.06-8.69.29-16.77,3.15-23.37,8.29-6.93,5.39-11.95,13.27-14.94,23.45-8.35,1.81-15.11,6.4-19.61,13.32-4.86,7.49-7.04,16.43-6.13,25.17.89,8.59,4.68,16.64,10.65,22.67,6.27,6.33,14.44,9.81,23.01,9.81h104.12l8.78-.04h.16c1.5-.1,3.01-.3,4.47-.62,12.21-2.63,22.06-13,23.43-24.66,1.48-12.64-6.3-24.61-18.26-28.44Z"/>
  <polygon class="cls-2" points="139.29 4.14 76 65.39 76.02 47.24 57.67 47.24 57.67 103.06 160.54 4.14 139.29 4.14"/>
  <g>
    <path class="cls-6" d="M42.49,66.19s.78-4.22.78-4.22c1.62-8.96,5.4-18.22,13.96-22.53,8.97-4.52,19.99-2.13,26.89,4.97.24.25.49.5.72.77l3.15,3.44.97,1.08.05-.05.84-18.66c-.48-.17-4.66-3.42-5.19-3.73-1.8-1.08-3.7-2-5.67-2.73-3.9-1.44-8.04-2.05-12.19-1.92-7.97.26-15.66,2.87-21.97,7.78-7.54,5.87-12.05,14.54-14.5,23.63,0,0,0,0-.01,0l11.9,13.64.27-1.47Z"/>
    <path class="cls-3" d="M36.35,106.1c-5.9,0-11.21-3.44-14.12-8.49-2.24-3.89-3.05-8.51-2.73-12.99.23-3.16,1.01-6.31,2.58-9.06,2.96-5.19,8-7.39,13.78-7.68.18,0,.37-.02.55-.02l3.63-.11.78-.02,1.39-.07h0s-11.9-13.64-11.9-13.64c-8.12,1.41-14.99,5.62-19.49,12.55-4.49,6.92-6.61,15.39-5.75,23.61,1.68,16.17,14.47,30.32,31.27,30.32h102.33v-14.4H36.35Z"/>
    <path class="cls-1" d="M111.92,27.55h-.05c-3.32-.73-7.33-1.03-10.57-.48-4.05.67-8.21,2.12-11.4,3.94,0,0-.03,0-.05-.01l-.84,18.66,22.91-22.11Z"/>
    <path class="cls-1" d="M130.71,46c-.71-2.46-1.76-4.81-3.13-6.98l-.07-.04c-1.88,1.8-3.77,3.59-5.65,5.39-1.72,1.64-3.44,3.28-5.17,4.93.59,1.36.78,2.85.9,4.32.2,2.52.07,10.45.07,10.45,0,0,.01,0,.02,0l13.14-18.06s-.07,0-.1,0Z"/>
    <path class="cls-4" d="M157.03,71.08s-.02-.02-.02-.02l-18.41,13.19s0,.01,0,.02l3.05.03c4.98.05,11.5-.72,15.7,2.57,3.42,2.68,4.23,7.91,2.37,11.84-1.94,4.1-6.52,7.09-11.03,7.39-.3.01-2.66.01-4.78,0h-2.16s-1.28,0-1.28,0h-1.79v14.4h5.23s5.26-.04,5.26-.04h.09c1.38-.09,2.76-.28,4.11-.57,10.8-2.32,20.23-11.4,21.54-22.59,1.39-11.92-6.28-23.22-17.87-26.23Z"/>
    <path class="cls-7" d="M156.39,67.6c-1.53-10.12-9.23-18.54-19.23-20.93-2.08-.5-4.22-.73-6.35-.67l-13.14,18.06c.17-.05,2.77-.86,2.77-.86,4.55-1.41,9.42-3.59,14.25-2.19,3.96,1.15,6.99,4.89,7.56,8.94.69,4.91-1.96,9.86-3.66,14.3l18.41-13.19c-.23-.25-.57-3.18-.61-3.46Z"/>
  </g>
</svg>