<?xml version="1.0" encoding="UTF-8"?><svg id="a" xmlns="http://www.w3.org/2000/svg" width="320" height="370" viewBox="0 0 320 370"><path d="M282.2,494.6H38.2c-18.5,0-33.6-15-33.6-33.6V33.5C4.7,15,19.7,0,38.3,0h244c18.5,0,33.6,15,33.6,33.6v427.5c0,18.5-15.1,33.5-33.7,33.5h0Z" style="fill:#fff; stroke:#999; stroke-miterlimit:10;"/><path d="M280.9,490.9H39.6c-17,0-30.8-13.9-30.8-30.9V34.6c0-17,13.8-30.9,30.8-30.9h241.2c17,0,30.9,13.8,30.9,30.9v425.4c0,17-13.8,30.9-30.8,30.9h0Z" style="fill:#fff; stroke:#999; stroke-miterlimit:10;"/><rect x="1.6" y="78.1" width="2.6" height="19.4" style="fill:#999;"/><rect x="1.6" y="113.4" width="2.6" height="39" style="fill:#999;"/><rect x="1.6" y="161.5" width="2.6" height="39" style="fill:#999;"/><rect x="315.8" y="128.6" width="2.6" height="71.9" style="fill:#999;"/><path d="M178.5,25h-38.5c-4.3,0-7.8-3.5-7.8-7.8h0c0-4.3,3.5-7.8,7.8-7.8h38.5c4.3,0,7.8,3.5,7.8,7.8h0c0,4.3-3.5,7.8-7.8,7.8Z" style="fill:#fff; stroke:#999; stroke-miterlimit:10;"/><circle cx="176.3" cy="17.1" r="3.4" style="fill:#fff; stroke:#999; stroke-miterlimit:10;"/><circle cx="176.3" cy="17.1" r="2" style="fill:#fff; stroke:#999; stroke-miterlimit:10;"/><path d="M177.8,18c0-.3-.3-.6-.6-.6s-.6.3-.6.6.3.6.6.6.6-.2.6-.6Z" style="fill:#999;"/><path id="b" d="M276.4,18.4c0,.8-.4,1.4-1.2,1.4v-2.9c.8.1,1.2.7,1.2,1.5ZM274.8,15.7v5.3h0c0,.7-.5,1.2-1.2,1.2h-15.9c-.7,0-1.2-.5-1.2-1.2h0v-5.3c0-.7.5-1.2,1.2-1.2h15.9c.7,0,1.2.6,1.2,1.2ZM257.7,14.9c-.5,0-.8.4-.8.8v5.3c0,.5.4.8.8.8h15.9c.5,0,.8-.4.8-.8v-5.3c0-.5-.4-.8-.8-.8,0,0-15.9,0-15.9,0ZM257.2,15.7v5.3c0,.2.2.4.4.4h16c.2,0,.4-.2.4-.4v-5.3c0-.2-.2-.4-.4-.4h-15.9c-.3,0-.5.2-.5.4Z" style="fill:#999; fill-rule:evenodd;"/><path id="c" d="M247.2,14.5c1.7,0,3.5.7,4.9,1.9l-.7.7c-1.2-1-2.7-1.6-4.3-1.6s-3.1.5-4.2,1.5l-.7-.7c1.5-1.1,3.2-1.8,5-1.8ZM247.2,17.1c1.2,0,2.3.4,3.3,1.2l-.7.8c-.7-.6-1.6-.9-2.6-.9s-1.8.3-2.5.9l-.7-.8c.8-.8,2-1.2,3.2-1.2ZM247.2,19.6c.5,0,1.1.2,1.6.6l-1.6,1.7-1.6-1.7c.5-.4,1-.6,1.6-.6Z" style="fill:#999;"/></svg>