<?xml version="1.0" encoding="UTF-8"?>
<svg id="Layer_3" data-name="Layer 3" xmlns="http://www.w3.org/2000/svg" version="1.1" viewBox="0 0 320 340">
  <defs>
    <style>
      .cls-1 {
        fill: #fff;
        stroke: #999;
        stroke-miterlimit: 10;
      }

      .cls-2, .cls-3 {
        fill: #999;
        stroke-width: 0px;
      }

      .cls-3 {
        fill-rule: evenodd;
      }
    </style>
  </defs>
  <path class="cls-1" d="M282.1,495.6H38.1c-18.5,0-33.6-15-33.6-33.6V34.5C4.6,16,19.6,1,38.2,1h244c18.5,0,33.6,15,33.6,33.6v427.5c0,18.5-15.1,33.5-33.7,33.5h0Z"/>
  <path class="cls-1" d="M280.8,491.9H39.5c-17,0-30.8-13.9-30.8-30.9V35.6c0-17,13.8-30.9,30.8-30.9h241.2c17,0,30.9,13.8,30.9,30.9v425.4c0,17-13.8,30.9-30.8,30.9h0Z"/>
  <g>
    <rect class="cls-2" x="1.5" y="79.1" width="2.6" height="19.4"/>
    <rect class="cls-2" x="1.5" y="114.4" width="2.6" height="39"/>
    <rect class="cls-2" x="1.5" y="162.5" width="2.6" height="39"/>
    <rect class="cls-2" x="315.7" y="129.6" width="2.6" height="71.9"/>
  </g>
  <g>
    <path class="cls-1" d="M178.4,26h-38.5c-4.3,0-7.8-3.5-7.8-7.8h0c0-4.3,3.5-7.8,7.8-7.8h38.5c4.3,0,7.8,3.5,7.8,7.8h0c0,4.3-3.5,7.8-7.8,7.8Z"/>
    <g>
      <circle class="cls-1" cx="176.2" cy="18.1" r="3.4"/>
      <circle class="cls-1" cx="176.2" cy="18.1" r="2"/>
      <path class="cls-2" d="M177.7,19c0-.3-.3-.6-.6-.6s-.6.3-.6.6.3.6.6.6.6-.2.6-.6Z"/>
    </g>
  </g>
  <g>
    <path id="Battery_Icon_-" data-name="Battery Icon -" class="cls-3" d="M276.3,19.4c0,.8-.4,1.4-1.2,1.4v-2.9c.8.1,1.2.7,1.2,1.5ZM274.7,16.7v5.3h0c0,.7-.5,1.2-1.2,1.2h-15.9c-.7,0-1.2-.5-1.2-1.2h0v-5.3c0-.7.5-1.2,1.2-1.2h15.9c.7,0,1.2.6,1.2,1.2ZM257.6,15.9c-.5,0-.8.4-.8.8v5.3c0,.5.4.8.8.8h15.9c.5,0,.8-.4.8-.8v-5.3c0-.5-.4-.8-.8-.8,0,0-15.9,0-15.9,0ZM257.1,16.7v5.3c0,.2.2.4.4.4h16c.2,0,.4-.2.4-.4v-5.3c0-.2-.2-.4-.4-.4h-15.9c-.3,0-.5.2-.5.4Z"/>
    <path id="Wi-Fi_Icon" data-name="Wi-Fi Icon" class="cls-2" d="M247.1,15.5c1.7,0,3.5.7,4.9,1.9l-.7.7c-1.2-1-2.7-1.6-4.3-1.6s-3.1.5-4.2,1.5l-.7-.7c1.5-1.1,3.2-1.8,5-1.8ZM247.1,18.1c1.2,0,2.3.4,3.3,1.2l-.7.8c-.7-.6-1.6-.9-2.6-.9s-1.8.3-2.5.9l-.7-.8c.8-.8,2-1.2,3.2-1.2ZM247.1,20.6c.5,0,1.1.2,1.6.6l-1.6,1.7-1.6-1.7c.5-.4,1-.6,1.6-.6Z"/>
  </g>
</svg>