<?xml version="1.0" encoding="utf-8"?>
<!-- Generator: Adobe Illustrator 27.6.1, SVG Export Plug-In . SVG Version: 6.00 Build 0)  -->
<svg version="1.1" id="Layer_1" xmlns="http://www.w3.org/2000/svg" xmlns:xlink="http://www.w3.org/1999/xlink" x="0px" y="0px"
	 viewBox="0 0 162 110.8" style="enable-background:new 0 0 162 110.8;" xml:space="preserve">
<style type="text/css">
	.st0{fill:#FFFFFF;}
	.st1{fill:#CE992C;}
	.st2{fill:none;}
	.st3{fill:#0F1D8D;}
	.st4{fill:#7F04B2;}
	.st5{fill:#005F35;}
	.st6{fill:#000080;}
	.st7{fill:#9E131E;}
	.st8{fill:#0018F9;}
	.st9{fill:#0540D3;}
</style>
<g>
	<g>
		<path class="st0" d="M151.1,64.9c-1.8-1-3.7-1.8-5.9-2.5c-0.4-6.1-3.2-12.1-7.6-16.5c-4.6-4.7-10.8-7.3-17.4-7.3
			c-0.8-2.6-2-5-3.6-7.1L149.3,0h-23.4l-22.5,21.7c-3.8-1.2-8-1.5-12-0.9c-3.9,0.6-7.8,1.9-10.6,3.4c-9.5-7.6-19.8-9.5-32.2-5.8
			c-6.2,1.8-11.7,5.6-16.1,10.9c-3.8,4.6-6.6,10.3-8.5,16.9c-6.4,1.2-11.7,4.2-15.6,8.5C3,60.8,0,68.9,0,77.7
			c0,8.9,3.1,17.1,8.6,23.3c5.7,6.3,13.5,9.8,22,9.8h101.1h4.9c0.2,0,0.5,0,0.7,0c0.4,0,0.9,0,1.3-0.1c0.7-0.1,1.4-0.2,2-0.4
			l0.8-0.2c0.5-0.1,1.1-0.3,1.6-0.4c0.8-0.2,1.6-0.5,2.3-0.8c1.5-0.6,3-1.4,4.4-2.2c1.4-0.9,2.7-1.9,3.9-3
			c5.4-4.9,8.4-11.4,8.4-18.4C162.3,73.7,156.2,67.8,151.1,64.9z"/>
		<g>
			<path class="st1" d="M114.7,33.5l-7.6,7.3c0.1,0.3,0.3,0.6,0.4,0.9c0.3,0.5,0.5,1,0.5,1.1c0.1,0.4,0.2,0.8,0.3,1.2
				c0.7,3.4,0.4,7.1,0.4,10.5l9.4-13c0,0,0,0,0-0.1C117.5,38.6,116.3,35.9,114.7,33.5z"/>
		</g>
		<g>
			<polygon class="st2" points="142.5,64.6 129.1,74.1 129.1,74.1 			"/>
			<path class="st1" d="M35.1,58.6L35.1,58.6L35.1,58.6z"/>
			<path class="st1" d="M26.5,48.8L26.5,48.8L26.5,48.8L26.5,48.8z"/>
			<path class="st3" d="M81,41.6L81,41.6L81,41.6z"/>
			<path class="st4" d="M35.1,58.5l0.7-4c0-0.2,0.1-0.4,0.1-0.6C39.1,37.3,47.7,32.4,52.6,31c9.7-2.8,17.4-0.9,24.3,6.2
				c0.2,0.2,0.5,0.5,0.7,0.8l3.4,3.7V27.8l0,0c-9.1-8-19-10.2-31.3-6.6c-5.6,1.7-10.7,5.1-14.7,10c-3.8,4.7-6.7,10.6-8.4,17.6l0,0
				L35.1,58.5z"/>
			<polygon class="st5" points="108.8,54.6 108.8,54.6 108.8,54.6 108.8,54.5 			"/>
			<path class="st5" d="M142.5,64.6L142.5,64.6L142.5,64.6L142.5,64.6z"/>
			<path class="st5" d="M118.2,41.5L118.2,41.5L118.2,41.5L118.2,41.5z"/>
			<path class="st1" d="M81,41.6L81,41.6l3.3-2.8l0.5-0.4c1.8-1.6,3.5-2.6,5.1-3.4l11.4-11c-3-0.7-6.1-0.9-9.2-0.4
				c-3.5,0.6-7.8,2-11.1,4.1l0,0l0,0V41.6z"/>
			<path class="st6" d="M130.2,97.8L130.2,97.8H30.9c-4.7,0-9.1-2-12.3-5.5c-3.4-3.7-5.2-8.9-5.2-14.5s1.8-10.6,5.1-14.3
				c1.8-2,5.3-4.4,11.9-4.8c0.2,0,0.4,0,0.5,0l4.1-0.1l0,0l-8.5-9.7l0,0c-6.5,0.9-11.9,3.6-15.7,7.9c-5,5.5-7.7,13.1-7.7,21.1
				c0,8.2,2.8,15.8,7.9,21.4c5.2,5.7,12.3,8.9,19.9,8.9h99.3l0,0V97.8z"/>
			<path class="st7" d="M142.5,64.6c0.1-6-2.3-12.2-6.8-16.7c-4.7-4.7-10.8-6.9-17.4-6.4l-0.1,0.1l-9.4,13l0,0l6.5-2
				c1.2-0.4,2.4-0.7,3.4-0.8c4.6-0.5,7.8,1.4,9.7,3.3c2.3,2.4,3.7,5.6,3.8,8.7c0.1,1.2-0.1,2.4-0.5,3.5l-2.6,6.8L142.5,64.6
				L142.5,64.6z"/>
			<path class="st5" d="M149.7,67.3c-2.4-1.4-4.9-2.2-7.2-2.7l0,0l-13.4,9.5l0,0l0,0l7.3,0.1c0.9,0,2.2,0.1,3.7,0.4s3.1,0.8,4.5,1.6
				c3.1,1.8,4.6,4.7,4.6,9c0,6.2-5.6,11.8-12.4,12.5h-0.4c-0.3,0-0.7,0-1,0h-5.1l0,0v10.2l0,0h6.5c1.2-0.1,2.5-0.2,3.7-0.5
				c0,0,5.9-0.9,11.6-5.9c4.9-4.3,7.5-10.2,7.5-16.3C159.5,75.1,154.2,69.9,149.7,67.3z"/>
			<path class="st8" d="M50.9,41.6v49.5l91.7-88.3h-15.1l-60,57.8v-19H50.9z M105.6,38.4L105.6,38.4L105.6,38.4L105.6,38.4z"/>
			<path class="st9" d="M105.6,38.4L105.6,38.4L105.6,38.4z"/>
		</g>
	</g>
</g>
</svg>
