<?xml version="1.0" encoding="UTF-8"?>
<svg id="a" xmlns="http://www.w3.org/2000/svg" width="140" height="32" viewBox="0 0 140 32">
  <defs>
    <style>
      .cls-1 {
        fill: #fff;
      }

      .cls-1, .cls-2 {
        stroke-width: 0px;
      }

      .cls-2 {
        fill: #00006e;
      }
    </style>
  </defs>
  <g>
    <path class="cls-2" d="M2.16,30.38V.58h15.31c2.73,0,4.87.24,6.35.73,1.63.53,2.97,1.53,3.99,2.98.99,1.44,1.49,3.18,1.49,5.16,0,1.74-.38,3.27-1.14,4.57-.75,1.28-1.8,2.32-3.11,3.12-.09.06-.19.11-.29.17.1.1.22.21.33.33v-.08l.89,1.1c.65.82,1.09,1.45,1.32,1.92l5.05,9.79h-12.45l-4.86-8.99c-.7-1.3-1.06-1.6-1.12-1.64-.21-.15-.44-.25-.69-.31v10.95H2.16ZM15.46,11.58c.1,0,.52-.02,1.93-.34.27-.05.44-.15.6-.36.17-.23.25-.47.25-.77,0-.62-.18-.85-.36-1-.08-.06-.56-.39-2.27-.39h-2.36v2.86h2.21Z"/>
    <path class="cls-1" d="M17.47,1.08c2.67,0,4.76.23,6.2.7,1.53.5,2.79,1.44,3.73,2.79.93,1.35,1.4,2.98,1.4,4.87,0,1.65-.36,3.1-1.07,4.32-.71,1.21-1.7,2.19-2.93,2.94-.29.18-.63.34-1,.5.11.06.21.13.3.19.37.26.86.78,1.5,1.58h0c.62.77,1.04,1.37,1.27,1.82l4.68,9.07h-11.33l-4.72-8.73c-.67-1.26-1.08-1.68-1.28-1.81-.43-.3-.92-.45-1.48-.47v11.02H2.66V1.08h14.81M12.75,12.08h2.71c.18,0,.68-.05,2.04-.35.38-.07.65-.24.89-.55.23-.32.35-.66.35-1.07,0-.63-.17-1.07-.54-1.38-.22-.19-.86-.51-2.59-.51h-2.86v3.86M17.47.08H1.66v30.8h12.08v-10.64c.14.15.43.53.88,1.37l4.72,8.73.28.52h13.57l-.75-1.46-4.68-9.07c-.25-.51-.69-1.14-1.38-2l-.77-.96c1.25-.82,2.25-1.86,2.99-3.11.8-1.38,1.21-3,1.21-4.83,0-2.09-.53-3.92-1.58-5.44-1.09-1.54-2.51-2.61-4.25-3.17-1.54-.5-3.73-.75-6.51-.75h0ZM13.75,9.22h1.86c1.55,0,1.96.28,1.96.28.05.04.17.14.17.61,0,.19-.04.33-.16.48-.08.1-.14.13-.26.15-1.48.33-1.85.34-1.86.34h-1.71v-1.86h0Z"/>
  </g>
  <g>
    <polygon class="cls-2" points="32.77 30.37 32.77 1.68 57 1.68 57 9.86 43.47 9.86 43.47 11.39 56.01 11.39 56.01 19.33 43.47 19.33 43.47 21.86 57.39 21.86 57.39 30.37 32.77 30.37"/>
    <path class="cls-1" d="M56.5,2.18v7.19h-13.53v2.53h12.55v6.94h-12.55v3.53h13.92v7.52h-23.61V2.18h23.22M57.5,1.18h-25.22v29.7h25.61v-9.52h-13.92v-1.53h12.55v-8.94h-12.55v-.53h13.53V1.18h0Z"/>
  </g>
  <g>
    <path class="cls-2" d="M71.95,31.46c-3.41,0-7.29-.33-10.14-2.77-2.29-1.95-3.53-4.38-3.79-7.43l-.12-1.43,10.14-.11.19.59c.48,1.19.82,1.84,1.86,2.52.58.39,1.48.63,2.34.63.68,0,1.27-.15,1.68-.42.22-.15.37-.34.4-.51.14-.79-.95-1.34-1.88-1.66-.78-.27-1.61-.46-2.31-.62-3.87-.88-6.72-2.09-8.45-3.61-1.77-1.55-2.83-4.08-2.83-6.77,0-1.67.48-3.26,1.44-4.73.93-1.46,2.36-2.62,4.23-3.44,1.78-.79,4.2-1.18,7.2-1.18,3.74,0,6.66.74,8.69,2.19,2.14,1.52,3.42,3.92,3.8,7.13l.22,1.21-10.19.14-.13-.3s-.28-.65-.51-1.06c-.39-.7-.86-1.14-1.43-1.35-.36-.12-.78-.18-1.25-.18-.52,0-.93.1-1.23.29-.23.15-.4.43-.44.73-.02.15-.02.42.17.65.11.13.32.21.49.27.88.31,1.82.51,2.73.7.45.1.9.19,1.35.3,1.8.43,3.88.97,5.75,1.93l.12.06c1.46.76,2.59,1.66,3.45,2.76,1.07,1.34,1.71,3.03,1.81,4.74.11,1.91-.43,3.75-1.66,5.64-1.1,1.69-2.66,2.98-4.61,3.85-1.88.84-4.26,1.26-7.07,1.26Z"/>
    <path class="cls-1" d="M71.89,1.03c3.63,0,6.45.7,8.4,2.1,2.01,1.43,3.23,3.71,3.6,6.79l.12.66-9.27.13s-.29-.67-.53-1.1c-.39-.7-.93-1.3-1.7-1.58-.46-.16-.95-.21-1.42-.21-.52,0-1.06.09-1.5.37-.67.44-.94,1.48-.37,2.13.19.2.45.32.7.41,1.34.48,2.76.68,4.12,1.01,1.91.46,3.95,1,5.74,1.94h0c1.26.65,2.4,1.49,3.29,2.62,1,1.27,1.61,2.85,1.71,4.47.12,1.96-.53,3.72-1.58,5.33-1.05,1.61-2.53,2.84-4.4,3.67-1.82.81-4.13,1.22-6.86,1.22-3.42,0-7.12-.34-9.82-2.65-2.24-1.91-3.37-4.2-3.62-7.09l-.08-.9,9.23-.1.08.24c.5,1.24.88,2.01,2.06,2.79.66.44,1.66.71,2.61.71.73,0,1.44-.15,1.96-.5.3-.2.56-.5.61-.85.21-1.23-1.3-1.9-2.21-2.21-.77-.26-1.57-.46-2.36-.63-3.79-.86-6.56-2.04-8.23-3.5-1.76-1.54-2.66-4.01-2.66-6.4,0-1.57.46-3.07,1.36-4.46.89-1.38,2.24-2.48,4.01-3.26,1.73-.76,4.08-1.14,7-1.14M71.89.03c-3.07,0-5.56.41-7.4,1.23-1.96.87-3.46,2.09-4.45,3.63-1,1.55-1.51,3.23-1.51,4.99,0,2.83,1.12,5.51,3,7.15.95.84,2.22,1.58,3.79,2.23l-6.9.07h-1.08s.09,1.09.09,1.09l.08.9c.27,3.18,1.57,5.72,3.96,7.76,2.98,2.55,6.96,2.89,10.47,2.89,2.87,0,5.32-.44,7.27-1.3,2.04-.91,3.67-2.26,4.83-4.03,1.29-1.97,1.86-3.92,1.74-5.94-.11-1.82-.79-3.6-1.92-5.03-.9-1.15-2.08-2.1-3.61-2.89l-.22-.11h-.01c-.8-.4-1.63-.73-2.46-1l6.45-.09,1.18-.02-.2-1.16-.11-.64c-.41-3.34-1.76-5.85-4.01-7.45C78.76.79,75.74.03,71.89.03h0ZM73.59,10.59c-.22-.05-.45-.1-.68-.14-.93-.2-1.82-.38-2.66-.68-.23-.08-.29-.13-.3-.14-.05-.06-.06-.17-.05-.24.02-.15.11-.3.22-.38.21-.14.54-.21.96-.21s.79.05,1.1.16c.44.16.82.53,1.14,1.12.08.15.17.34.25.51h0ZM72.42,22.97c-.76,0-1.57-.21-2.06-.54-.84-.56-1.16-1.05-1.56-2.03.45.12.92.23,1.4.34.69.15,1.5.34,2.26.6.98.34,1.61.77,1.55,1.09,0,.02-.05.1-.19.19-.32.21-.82.33-1.4.33h0Z"/>
  </g>
  <g>
    <path class="cls-2" d="M100.52,31.47c-1.29,0-2.74-.1-4.31-.29-1.66-.2-3.08-.62-4.23-1.25-1.16-.63-2.22-1.53-3.15-2.66-.95-1.14-1.61-2.36-1.98-3.61-.53-1.84-.8-3.51-.8-4.96V1.66h10.66v17.43c0,1.13.26,1.96.81,2.53.54.57,1.31.84,2.35.84s1.8-.27,2.33-.83c.54-.56.81-1.42.81-2.54V1.66h10.66v17.06c0,1.74-.27,3.41-.8,4.98-.54,1.61-1.41,3.04-2.56,4.23-1.16,1.21-2.41,2.07-3.7,2.56-1.7.66-3.75.99-6.1.99Z"/>
    <path class="cls-1" d="M113.18,2.16v16.56c0,1.69-.26,3.31-.77,4.82-.52,1.53-1.34,2.9-2.45,4.05-1.1,1.14-2.29,1.97-3.52,2.44-1.65.63-3.64.96-5.92.96-1.3,0-2.72-.1-4.25-.28-1.6-.19-2.95-.59-4.05-1.19-1.09-.59-2.11-1.44-3-2.53-.91-1.09-1.54-2.25-1.88-3.43-.52-1.79-.78-3.42-.78-4.83V2.16h9.66v16.93c0,1.26.3,2.2.95,2.88.64.67,1.54.99,2.71.99s2.06-.32,2.69-.98c.62-.65.95-1.62.95-2.89,0,0,0-16.93,0-16.93h9.66M114.18,1.16h-11.66v17.93c0,.99-.23,1.73-.67,2.2-.43.45-1.08.68-1.97.68s-1.55-.22-1.99-.69c-.45-.47-.67-1.18-.67-2.18V1.16h-11.66v17.55c0,1.5.28,3.22.82,5.1.38,1.32,1.08,2.6,2.07,3.79.97,1.18,2.07,2.11,3.29,2.77,1.2.66,2.69,1.09,4.4,1.3,1.59.19,3.06.29,4.37.29,2.4,0,4.51-.34,6.28-1.02,1.36-.52,2.67-1.42,3.88-2.68,1.21-1.25,2.11-2.74,2.68-4.42.55-1.62.82-3.34.82-5.14V1.16h0Z"/>
  </g>
  <g>
    <polygon class="cls-2" points="114.58 30.37 114.58 1.68 125.25 1.68 125.25 21.34 137.84 21.34 137.84 30.37 114.58 30.37"/>
    <path class="cls-1" d="M124.75,2.18v19.66h12.59v8.03h-22.26V2.18h9.67M125.75,1.18h-11.67v29.7h24.26v-10.03h-12.59V1.18h0Z"/>
  </g>
</svg>