<?xml version="1.0" encoding="UTF-8"?><svg id="a" xmlns="http://www.w3.org/2000/svg" width="15" height="15" viewBox="0 0 15 15" style="fill: #004fdf;"><path d="m2.24,7.11h-1.24c-.28,0-.5.22-.5.5s.22.5.5.5h1.24c.28,0,.5-.22.5-.5s-.22-.5-.5-.5Z"/><path d="m8.26,7.11h-1.25c-.28,0-.5.22-.5.5s.22.5.5.5h1.25c.28,0,.5-.22.5-.5s-.22-.5-.5-.5Z"/><path d="m14,7.11h-1.25c-.28,0-.5.22-.5.5s.22.5.5.5h1.25c.28,0,.5-.22.5-.5s-.22-.5-.5-.5Z"/><rect x="3.27" y="2.51" width="2.71" height="9.97"/><rect x="9.3" y="4.49" width="2.41" height="6.24"/></svg>