<?xml version="1.0" encoding="UTF-8"?><svg id="a" xmlns="http://www.w3.org/2000/svg" width="15" height="15" viewBox="0 0 15 15"><path d="M8,6.36c-.75.91-1.47,1.85-2.14,2.81-.34.48-.67.98-.98,1.48l-2.68-3.29c-.31-.37-.86-.46-1.28-.19-.44.29-.54.87-.25,1.31l3.37,4.97c.08.12.21.25.36.33.19.12.4.19.61.19.4,0,.84-.21,1.03-.56.19-.33,1.13-2.06,1.76-2.99.61-.94,1.24-1.85,1.93-2.74.67-.89,1.38-1.77,2.14-2.6.73-.83,1.53-1.68,2.33-2.41l.02-.02c.38-.35.4-.94.06-1.31-.36-.4-.94-.44-1.34-.08-.92.81-1.74,1.62-2.56,2.47-.84.85-1.63,1.73-2.37,2.64Z" style="fill:#5ba529 ; stroke-width:0px;"/></svg>