<?xml version="1.0" encoding="UTF-8"?>
<svg id="a" xmlns="http://www.w3.org/2000/svg" width="24" height="24" viewBox="0 0 24 24" fill="#c2cfe3">
  <path d="M12,2.08C6.53,2.08,2.08,6.53,2.08,12s4.45,9.92,9.92,9.92,9.92-4.45,9.92-9.92S17.47,2.08,12,2.08ZM12,20.67c-4.78,0-8.67-3.89-8.67-8.67S7.22,3.33,12,3.33s8.67,3.89,8.67,8.67-3.89,8.67-8.67,8.67Z"/>
  <path d="M12,5.38c-3.65,0-6.62,2.97-6.62,6.62s2.97,6.62,6.62,6.62,6.62-2.97,6.62-6.62-2.97-6.62-6.62-6.62ZM12,17.38c-2.96,0-5.38-2.41-5.38-5.38s2.41-5.38,5.38-5.38,5.38,2.41,5.38,5.38-2.41,5.38-5.38,5.38Z"/>
</svg>