<?xml version="1.0" encoding="UTF-8"?><svg id="a" xmlns="http://www.w3.org/2000/svg" width="32" height="32" viewBox="0 0 32 32"><path d="M11.1,23.09c.18,0,.36-.06.5-.19l3.73-3.34c.21.07.43.11.67.11,1.22,0,2.21-.99,2.21-2.21,0-.96-.61-1.76-1.46-2.07v-5.73c0-.41-.34-.75-.75-.75s-.75.34-.75.75v5.73c-.85.31-1.46,1.12-1.46,2.07,0,.43.13.82.34,1.16l-3.53,3.15c-.31.28-.34.75-.06,1.06.15.17.35.25.56.25ZM16,18.17c-.39,0-.71-.32-.71-.71s.32-.71.71-.71.71.32.71.71-.32.71-.71.71Z" style="fill:#fff; stroke-width:0px;"/><path d="M3.54,17.46c0,6.87,5.59,12.46,12.46,12.46s12.46-5.59,12.46-12.46c0-5.82-4.02-10.71-9.43-12.07,0-.09.02-.17.02-.26,0-1.68-1.37-3.05-3.05-3.05s-3.05,1.37-3.05,3.05c0,.09.01.18.02.26-5.41,1.36-9.43,6.25-9.43,12.07ZM16,3.58c.85,0,1.54.69,1.55,1.53-.51-.06-1.02-.11-1.55-.11s-1.04.04-1.55.11c.01-.85.7-1.53,1.55-1.53ZM16,6.51c6.04,0,10.96,4.92,10.96,10.96s-4.92,10.96-10.96,10.96-10.96-4.92-10.96-10.96,4.92-10.96,10.96-10.96Z" style="fill:#fff; stroke-width:0px;"/></svg>