<?xml version="1.0" encoding="utf-8"?>
<!-- Generator: Adobe Illustrator 24.2.1, SVG Export Plug-In . SVG Version: 6.00 Build 0)  -->
<svg version="1.1" id="Layer_1" xmlns="http://www.w3.org/2000/svg" xmlns:xlink="http://www.w3.org/1999/xlink" x="0px" y="0px"
	 width="759.8px" height="393.8px" viewBox="0 0 759.8 393.8" style="enable-background:new 0 0 759.8 393.8;" xml:space="preserve"
	>
<style type="text/css">
	.st0{fill:#F7F7F7;}
	.st1{fill:#EAEAEC;}
	.st2{fill:#878788;}
	.st3{fill:url(#SVGID_1_);}
	.st4{fill:url(#SVGID_2_);}
	.st5{fill:none;stroke:#FFFFFF;stroke-width:0.4158;stroke-linecap:round;stroke-linejoin:round;}
	.st6{fill:url(#SVGID_3_);}
	.st7{fill:url(#SVGID_4_);}
	.st8{fill:url(#SVGID_5_);}
	.st9{fill:url(#SVGID_6_);}
	.st10{fill:#4166B0;}
	.st11{fill:none;stroke:#FFFFFF;stroke-miterlimit:10;}
	.st12{fill:#439AD5;}
	.st13{fill:none;stroke:#FFFFFF;stroke-width:0.8902;stroke-miterlimit:10;}
	.st14{fill:#676767;}
	.st15{fill:none;stroke:#B9B8B9;stroke-miterlimit:10;}
	.st16{fill:none;stroke:#B9B8B9;stroke-miterlimit:10;stroke-dasharray:6.9277,6.9277,6.9277,6.9277;}
	.st17{fill:none;stroke:#B9B8B9;stroke-miterlimit:10;stroke-dasharray:6.9277,6.9277,6.9277,6.9277,6.9277,6.9277;}
	.st18{fill:#B9B8B9;}
	.st19{fill:#FFFFFF;}
	.st20{fill:#32B5E7;}
	.st21{fill:#9ACC01;}
</style>
<rect x="174.2" y="76.5" class="st0" width="500.8" height="36.8"/>
<rect x="81.1" y="76.5" class="st1" width="93.1" height="36.8"/>
<path class="st2" d="M119,90.9h3.9v0.9h-2.8v1.7h2.6v0.8h-2.6v2h2.9v0.9H119V90.9z"/>
<path class="st2" d="M125,97.2h-1v-4.7h0.8l0.1,0.6c0.2-0.2,0.4-0.4,0.7-0.5c0.3-0.1,0.6-0.2,0.9-0.2c0.3,0,0.6,0.1,0.8,0.2
	c0.2,0.1,0.4,0.3,0.5,0.6c0.2-0.2,0.5-0.4,0.8-0.6c0.3-0.1,0.6-0.2,0.9-0.2c0.4,0,0.8,0.1,1.1,0.4c0.3,0.3,0.4,0.7,0.3,1.1v3.2h-1
	v-3.1c0-0.2,0-0.5-0.2-0.7c-0.2-0.2-0.4-0.3-0.6-0.2c-0.5,0-0.9,0.2-1.2,0.6v3.4h-1v-3.1c0-0.2,0-0.5-0.2-0.7
	c-0.2-0.2-0.4-0.3-0.6-0.2c-0.5,0-0.9,0.2-1.2,0.6L125,97.2z"/>
<path class="st2" d="M132.4,92.9c0.3-0.2,0.6-0.3,0.9-0.4c0.3-0.1,0.6-0.1,0.9-0.1c0.2,0,0.5,0,0.7,0.1c0.2,0.1,0.4,0.2,0.6,0.3
	c0.2,0.1,0.3,0.3,0.4,0.5c0.1,0.3,0.1,0.5,0.1,0.8v3.1h-0.8l-0.1-0.5l0,0c-0.2,0.2-0.4,0.4-0.6,0.5c-0.3,0.1-0.5,0.1-0.8,0.1
	c-0.4,0-0.8-0.1-1.1-0.4c-0.3-0.2-0.5-0.6-0.4-1c0-0.2,0.1-0.5,0.2-0.7c0.1-0.2,0.3-0.4,0.4-0.5c0.2-0.1,0.4-0.2,0.7-0.3
	c0.3-0.1,0.6-0.1,0.9-0.1h0.8V94c0-0.2-0.1-0.5-0.2-0.6c-0.2-0.1-0.4-0.2-0.7-0.2c-0.2,0-0.4,0-0.6,0.1c-0.3,0.1-0.5,0.2-0.8,0.3
	L132.4,92.9z M135,95h-0.6c-0.4,0-0.7,0.1-1,0.2c-0.2,0.1-0.3,0.3-0.3,0.5c0,0.1,0,0.2,0.1,0.3c0,0.1,0.1,0.2,0.2,0.2
	c0.1,0.1,0.2,0.1,0.3,0.1c0.1,0,0.2,0,0.3,0c0.2,0,0.4-0.1,0.6-0.2c0.2-0.1,0.4-0.3,0.5-0.4L135,95z"/>
<path class="st2" d="M137.9,91.3c-0.2,0-0.3,0-0.4-0.2c-0.1-0.1-0.2-0.3-0.2-0.4c0-0.3,0.3-0.6,0.6-0.6c0.1,0,0.3,0.1,0.4,0.2
	c0.1,0.1,0.2,0.3,0.2,0.4c0,0.2-0.1,0.3-0.2,0.4C138.2,91.2,138,91.3,137.9,91.3z M137.4,97.2v-4.7h1v4.7H137.4z"/>
<path class="st2" d="M139.9,97.2V90h1v7.1L139.9,97.2z"/>
<rect x="81.1" y="129.3" class="st1" width="93.1" height="36.8"/>
<rect x="174.2" y="129.3" class="st0" width="500.8" height="36.8"/>
<path class="st2" d="M119,143.6h1l2.6,3.8c0.1,0.2,0.2,0.4,0.3,0.5c0.1,0.2,0.2,0.3,0.3,0.5l0,0c0-0.5,0-1,0-1.5v-3.3h1v6.3h-0.9
	l-2.6-3.6c-0.1-0.2-0.2-0.4-0.4-0.6s-0.2-0.4-0.3-0.6l0,0c0,0.5,0.1,1,0.1,1.6v3.2h-1L119,143.6z"/>
<path class="st2" d="M130,147.5c0,0.4-0.1,0.7-0.2,1.1c-0.1,0.3-0.3,0.6-0.5,0.8c-0.2,0.2-0.5,0.4-0.8,0.5c-0.6,0.2-1.3,0.2-1.8,0
	c-0.3-0.1-0.5-0.3-0.7-0.5c-0.2-0.2-0.4-0.5-0.5-0.8c-0.1-0.3-0.2-0.7-0.2-1c0-0.4,0.1-0.7,0.2-1.1c0.1-0.3,0.3-0.6,0.5-0.8
	c0.2-0.2,0.5-0.4,0.8-0.5c0.3-0.1,0.6-0.2,0.9-0.2c0.3,0,0.6,0,0.9,0.1c0.3,0.1,0.5,0.3,0.7,0.5c0.2,0.2,0.4,0.5,0.5,0.8
	C129.9,146.8,130,147.2,130,147.5z M128.9,147.6c0-0.3,0-0.5-0.1-0.8c-0.1-0.2-0.2-0.4-0.3-0.5c-0.1-0.1-0.3-0.2-0.4-0.3
	c-0.2-0.1-0.3-0.1-0.5-0.1c-0.2,0-0.3,0-0.5,0.1c-0.2,0.1-0.3,0.1-0.4,0.3c-0.1,0.1-0.2,0.3-0.3,0.5c-0.1,0.3-0.1,0.5-0.1,0.8
	c0,0.3,0,0.5,0.1,0.8c0.1,0.2,0.2,0.4,0.3,0.5c0.1,0.1,0.3,0.2,0.4,0.3c0.1,0.1,0.3,0.1,0.5,0.1c0.2,0,0.3,0,0.5-0.1
	c0.2-0.1,0.3-0.1,0.4-0.3c0.1-0.1,0.2-0.3,0.3-0.5C128.9,148.1,129,147.9,128.9,147.6L128.9,147.6z"/>
<path class="st2" d="M133.7,146h-1.3v2.6c0,0.2,0,0.3,0.2,0.5c0.1,0.1,0.3,0.1,0.4,0.1c0.1,0,0.3,0,0.4-0.1c0.1,0,0.3-0.1,0.4-0.1
	l0.2,0.8c-0.2,0.1-0.3,0.1-0.5,0.1c-0.2,0-0.4,0.1-0.7,0.1c-0.4,0-0.8-0.1-1.1-0.3c-0.2-0.3-0.4-0.6-0.3-0.9V146h-0.7v-0.8h0.7v-1.5
	h1v1.5h1.3L133.7,146z"/>
<path class="st2" d="M135.4,144.1c-0.2,0-0.3-0.1-0.4-0.2c-0.2-0.2-0.2-0.6,0-0.8c0.2-0.2,0.6-0.2,0.8,0c0.1,0.1,0.2,0.2,0.2,0.4
	c0,0.2-0.1,0.3-0.2,0.4C135.7,144,135.6,144.1,135.4,144.1z M134.9,149.9v-4.7h1v4.7H134.9z"/>
<path class="st2" d="M140.4,149.9v-4h-1.9v4h-1v-4h-0.7v-0.8h0.7v-0.5c0-0.3,0-0.5,0.1-0.8c0.1-0.2,0.2-0.4,0.4-0.6
	c0.2-0.2,0.4-0.3,0.6-0.4c0.3-0.1,0.5-0.1,0.8-0.1c0.2,0,0.5,0,0.7,0.1c0.2,0,0.4,0.1,0.6,0.2l-0.2,0.7c-0.3-0.1-0.6-0.2-0.8-0.2
	c-0.3,0-0.6,0.1-0.9,0.3c-0.2,0.3-0.4,0.6-0.3,1v0.4h2.9v4.7L140.4,149.9z"/>
<path class="st2" d="M145.1,149.3c0.2,0,0.4,0,0.6-0.1c0.2-0.1,0.3-0.1,0.4-0.2l0.2,0.7c-0.2,0.1-0.4,0.2-0.6,0.2
	c-0.2,0.1-0.5,0.1-0.8,0.1c-0.3,0-0.7,0-1-0.2c-0.3-0.1-0.6-0.2-0.8-0.5c-0.2-0.2-0.4-0.5-0.5-0.8c-0.1-0.3-0.2-0.7-0.2-1.1
	c0-0.3,0.1-0.7,0.2-1c0.1-0.3,0.3-0.6,0.5-0.8c0.2-0.2,0.5-0.4,0.8-0.5c0.3-0.1,0.7-0.2,1-0.2c0.2,0,0.4,0,0.6,0.1
	c0.2,0,0.5,0.1,0.7,0.2l-0.2,0.8c-0.3-0.2-0.6-0.3-1-0.3c-0.4,0-0.8,0.1-1.1,0.4c-0.3,0.3-0.5,0.8-0.4,1.2c0,0.3,0,0.5,0.1,0.8
	c0.1,0.2,0.2,0.4,0.4,0.5c0.1,0.1,0.3,0.2,0.5,0.3C144.7,149.3,144.9,149.3,145.1,149.3z"/>
<path class="st2" d="M147.2,145.6c0.3-0.2,0.6-0.3,0.9-0.4c0.3-0.1,0.6-0.1,0.9-0.1c0.2,0,0.5,0,0.7,0.1c0.2,0.1,0.4,0.2,0.6,0.3
	c0.2,0.1,0.3,0.3,0.4,0.5c0.1,0.3,0.1,0.5,0.1,0.8v3.1H150l-0.1-0.5l0,0c-0.2,0.2-0.4,0.4-0.6,0.5c-0.3,0.1-0.5,0.1-0.8,0.1
	c-0.4,0-0.8-0.1-1.1-0.4c-0.3-0.2-0.5-0.6-0.4-1c0-0.2,0.1-0.5,0.2-0.7c0.1-0.2,0.3-0.4,0.4-0.5c0.2-0.1,0.4-0.2,0.7-0.3
	c0.3-0.1,0.6-0.1,0.9-0.1h0.8v-0.4c0-0.2-0.1-0.5-0.2-0.6c-0.2-0.1-0.4-0.2-0.7-0.2c-0.2,0-0.4,0-0.6,0.1c-0.3,0.1-0.5,0.2-0.8,0.3
	L147.2,145.6z M149.8,147.8h-0.6c-0.4,0-0.7,0.1-1,0.2c-0.2,0.1-0.3,0.3-0.3,0.5c0,0.1,0,0.2,0.1,0.3c0,0.1,0.1,0.2,0.2,0.2
	c0.1,0.1,0.2,0.1,0.3,0.1c0.1,0,0.2,0,0.3,0c0.2,0,0.4-0.1,0.6-0.2c0.2-0.1,0.4-0.3,0.5-0.4L149.8,147.8z"/>
<path class="st2" d="M154.8,146h-1.3v2.6c0,0.2,0,0.3,0.2,0.5c0.1,0.1,0.3,0.1,0.4,0.1c0.1,0,0.3,0,0.4-0.1c0.1,0,0.3-0.1,0.4-0.1
	l0.2,0.8c-0.2,0.1-0.3,0.1-0.5,0.1c-0.2,0-0.4,0.1-0.7,0.1c-0.4,0-0.8-0.1-1.1-0.3c-0.2-0.3-0.4-0.6-0.3-0.9V146h-0.7v-0.8h0.7v-1.5
	h1v1.5h1.3L154.8,146z"/>
<path class="st2" d="M156.5,144.1c-0.2,0-0.3-0.1-0.4-0.2c-0.2-0.2-0.2-0.6,0-0.8c0.2-0.2,0.6-0.2,0.8,0c0.1,0.1,0.2,0.2,0.2,0.4
	c0,0.2-0.1,0.3-0.2,0.4C156.8,144,156.7,144.1,156.5,144.1z M156,149.9v-4.7h1v4.7H156z"/>
<path class="st2" d="M162.9,147.5c0,0.4-0.1,0.7-0.2,1.1c-0.1,0.3-0.3,0.6-0.5,0.8c-0.2,0.2-0.5,0.4-0.8,0.5c-0.6,0.2-1.3,0.2-1.9,0
	c-0.3-0.1-0.5-0.3-0.7-0.5c-0.2-0.2-0.4-0.5-0.5-0.8c-0.1-0.3-0.2-0.7-0.2-1c0-0.4,0.1-0.7,0.2-1.1c0.1-0.3,0.3-0.6,0.5-0.8
	c0.2-0.2,0.5-0.4,0.8-0.5c0.3-0.1,0.6-0.2,0.9-0.2c0.3,0,0.6,0,0.9,0.1c0.3,0.1,0.5,0.3,0.7,0.5c0.2,0.2,0.4,0.5,0.5,0.8
	C162.8,146.8,162.9,147.2,162.9,147.5z M161.8,147.6c0-0.3,0-0.5-0.1-0.8c-0.1-0.2-0.2-0.4-0.3-0.5c-0.1-0.1-0.2-0.2-0.4-0.3
	c-0.2-0.1-0.3-0.1-0.5-0.1c-0.2,0-0.3,0-0.5,0.1c-0.2,0.1-0.3,0.1-0.4,0.3c-0.1,0.1-0.2,0.3-0.3,0.5c-0.1,0.3-0.1,0.5-0.1,0.8
	c0,0.3,0,0.5,0.1,0.8c0.1,0.2,0.2,0.4,0.3,0.5c0.1,0.1,0.3,0.2,0.4,0.3c0.1,0.1,0.3,0.1,0.5,0.1c0.2,0,0.3,0,0.5-0.1
	c0.2-0.1,0.3-0.1,0.4-0.3c0.1-0.1,0.2-0.3,0.3-0.5C161.8,148.1,161.8,147.8,161.8,147.6L161.8,147.6z"/>
<path class="st2" d="M164.9,149.9h-1v-4.7h0.8l0.1,0.6c0.2-0.2,0.5-0.4,0.7-0.5c0.3-0.1,0.6-0.2,0.9-0.2c0.4,0,0.8,0.1,1.2,0.4
	c0.3,0.3,0.4,0.7,0.4,1.2v3.2h-1v-3.1c0-0.2-0.1-0.5-0.2-0.6c-0.2-0.2-0.4-0.3-0.6-0.2c-0.2,0-0.4,0.1-0.6,0.1
	c-0.2,0.1-0.4,0.3-0.6,0.4L164.9,149.9z"/>
<rect x="81.1" y="182.1" class="st1" width="93.1" height="36.8"/>
<rect x="174.2" y="182.1" class="st0" width="500.8" height="36.8"/>
<path class="st2" d="M120.9,196.3c0.6,0,1.2,0.1,1.8,0.4l-0.2,0.9c-0.2-0.1-0.5-0.2-0.8-0.3c-0.2-0.1-0.5-0.1-0.7-0.1
	c-0.3,0-0.6,0.1-0.8,0.2c-0.2,0.1-0.3,0.4-0.3,0.6c0,0.2,0.1,0.4,0.2,0.6c0.2,0.2,0.5,0.3,0.8,0.4l0.6,0.2c0.5,0.1,0.9,0.4,1.2,0.7
	c0.3,0.3,0.4,0.7,0.4,1.1c0,0.3-0.1,0.5-0.2,0.8c-0.1,0.2-0.3,0.4-0.4,0.6c-0.2,0.2-0.5,0.3-0.7,0.4c-0.3,0.1-0.6,0.1-0.9,0.1
	c-0.3,0-0.7,0-1-0.1c-0.3-0.1-0.7-0.2-1-0.3l0.2-0.8c0.3,0.1,0.6,0.2,0.8,0.3c0.3,0.1,0.6,0.1,0.9,0.1c0.3,0,0.6-0.1,0.9-0.2
	c0.2-0.1,0.4-0.4,0.3-0.7c0-0.2-0.1-0.4-0.2-0.6c-0.3-0.2-0.6-0.4-0.9-0.5l-0.6-0.2c-0.4-0.1-0.8-0.3-1.1-0.6
	c-0.3-0.3-0.4-0.7-0.4-1.1c0-0.5,0.2-1,0.6-1.3C119.7,196.5,120.3,196.3,120.9,196.3z"/>
<path class="st2" d="M124.5,196.4h1.4l1.1,3.4c0.1,0.3,0.2,0.5,0.2,0.8s0.1,0.5,0.2,0.8l0,0c0.1-0.2,0.2-0.5,0.2-0.8
	s0.2-0.5,0.2-0.8l1.1-3.4h1.4l0.5,6.3h-1l-0.1-2c-0.1-0.7-0.1-1.4-0.1-2v-1.1l0,0c-0.1,0.4-0.2,0.8-0.4,1.3s-0.2,0.8-0.4,1.2
	l-0.9,2.7h-1l-0.9-2.7l-0.2-0.8l-0.2-0.6c-0.1-0.2-0.1-0.4-0.2-0.6s-0.1-0.3-0.1-0.5l0,0c0,0.6,0,1.1-0.1,1.7s-0.1,1.1-0.1,1.7
	l-0.1,1.8h-1L124.5,196.4z"/>
<path class="st2" d="M134.2,196.3c0.6,0,1.2,0.1,1.8,0.4l-0.2,0.9c-0.2-0.1-0.5-0.2-0.8-0.3c-0.2-0.1-0.5-0.1-0.7-0.1
	c-0.3,0-0.6,0.1-0.9,0.2c-0.2,0.1-0.3,0.4-0.3,0.6c0,0.2,0.1,0.4,0.2,0.6c0.2,0.2,0.5,0.3,0.8,0.4l0.6,0.2c0.5,0.1,0.9,0.4,1.2,0.7
	c0.3,0.3,0.4,0.7,0.4,1.1c0,0.3-0.1,0.5-0.2,0.8c-0.1,0.2-0.3,0.4-0.4,0.6c-0.2,0.2-0.5,0.3-0.7,0.4c-0.3,0.1-0.6,0.1-0.9,0.1
	c-0.3,0-0.7,0-1-0.1c-0.3-0.1-0.7-0.2-1-0.3l0.2-0.8c0.3,0.1,0.6,0.2,0.8,0.3c0.3,0.1,0.6,0.1,0.9,0.1c0.3,0,0.6-0.1,0.9-0.2
	c0.2-0.1,0.4-0.4,0.3-0.7c0-0.2-0.1-0.4-0.2-0.6c-0.3-0.2-0.6-0.4-0.9-0.5l-0.6-0.2c-0.4-0.1-0.8-0.3-1.1-0.6
	c-0.3-0.3-0.4-0.7-0.4-1.1c0-0.5,0.2-1,0.6-1.3C133,196.5,133.6,196.3,134.2,196.3z"/>
<rect x="81.1" y="234.9" class="st1" width="93.1" height="36.8"/>
<rect x="174.2" y="234.9" class="st0" width="500.8" height="36.8"/>
<path class="st2" d="M122.8,249.2v0.9h-2.7v1.9h2.5v0.9h-2.5v2.7H119v-6.3H122.8z"/>
<path class="st2" d="M123.6,251.2c0.3-0.2,0.6-0.3,0.9-0.4c0.3-0.1,0.6-0.1,0.9-0.1c0.2,0,0.5,0,0.7,0.1c0.2,0.1,0.4,0.2,0.6,0.3
	c0.2,0.1,0.3,0.3,0.4,0.5c0.1,0.3,0.1,0.5,0.1,0.8v3.1h-0.8l-0.1-0.5l0,0c-0.2,0.2-0.4,0.4-0.7,0.5c-0.3,0.1-0.5,0.2-0.8,0.1
	c-0.4,0-0.8-0.1-1.1-0.4c-0.3-0.3-0.4-0.6-0.4-1c0-0.2,0.1-0.5,0.2-0.7c0.1-0.2,0.3-0.4,0.4-0.5c0.2-0.1,0.4-0.2,0.7-0.3
	c0.3-0.1,0.6-0.1,0.9-0.1h0.8v-0.4c0-0.2-0.1-0.5-0.2-0.6c-0.2-0.1-0.4-0.2-0.7-0.2c-0.2,0-0.4,0-0.6,0.1c-0.3,0.1-0.5,0.2-0.8,0.3
	L123.6,251.2z M126.2,253.4h-0.6c-0.4,0-0.7,0.1-1,0.2c-0.2,0.1-0.3,0.3-0.3,0.5c0,0.1,0,0.2,0.1,0.3c0,0.1,0.1,0.2,0.2,0.2
	c0.1,0.1,0.2,0.1,0.3,0.1c0.1,0,0.2,0,0.3,0c0.2,0,0.4-0.1,0.6-0.2c0.2-0.1,0.4-0.3,0.5-0.4L126.2,253.4z"/>
<path class="st2" d="M130.8,254.8c0.2,0,0.4,0,0.6-0.1c0.2,0,0.3-0.1,0.4-0.2l0.2,0.7c-0.2,0.1-0.4,0.2-0.6,0.2
	c-0.2,0.1-0.5,0.1-0.8,0.1c-0.3,0-0.7,0-1-0.2c-0.3-0.1-0.6-0.2-0.8-0.5c-0.2-0.2-0.4-0.5-0.5-0.8c-0.3-0.7-0.3-1.4,0-2.1
	c0.2-0.6,0.7-1,1.3-1.3c0.3-0.1,0.7-0.2,1-0.2c0.2,0,0.4,0,0.6,0.1c0.2,0,0.5,0.1,0.7,0.2l-0.2,0.8c-0.3-0.2-0.6-0.3-1-0.3
	c-0.4,0-0.8,0.1-1.1,0.4c-0.3,0.3-0.5,0.8-0.4,1.2c0,0.3,0,0.5,0.1,0.8c0.1,0.2,0.2,0.4,0.4,0.5c0.1,0.1,0.3,0.2,0.5,0.3
	C130.4,254.8,130.6,254.8,130.8,254.8z"/>
<path class="st2" d="M136.8,253.3h-3.3l0,0c0,0.4,0.1,0.8,0.4,1.1c0.3,0.3,0.7,0.4,1.1,0.4c0.4,0,0.9-0.1,1.3-0.3l0.2,0.8
	c-0.2,0.1-0.5,0.2-0.7,0.2c-0.3,0.1-0.6,0.1-0.9,0.1c-0.3,0-0.7,0-1-0.1c-0.3-0.1-0.6-0.2-0.8-0.4c-0.2-0.2-0.4-0.5-0.6-0.8
	c-0.1-0.3-0.2-0.7-0.2-1.1c0-0.3,0.1-0.7,0.2-1c0.1-0.3,0.3-0.6,0.5-0.8c0.2-0.2,0.5-0.4,0.7-0.5c0.3-0.1,0.7-0.2,1-0.2
	c0.3,0,0.6,0,0.8,0.1c0.2,0.1,0.5,0.2,0.6,0.4c0.2,0.2,0.3,0.4,0.4,0.7c0.1,0.3,0.1,0.6,0.1,0.9L136.8,253.3z M135.7,252.6
	c0-0.2,0-0.3-0.1-0.4c0-0.1-0.1-0.3-0.2-0.4c-0.1-0.1-0.2-0.2-0.3-0.2c-0.1-0.1-0.3-0.1-0.5-0.1c-0.3,0-0.6,0.1-0.8,0.3
	c-0.2,0.2-0.4,0.5-0.4,0.9L135.7,252.6z"/>
<path class="st2" d="M142.2,253.2c0,0.3-0.1,0.7-0.2,1c-0.2,0.6-0.6,1-1.1,1.3c-0.5,0.2-1.1,0.2-1.6,0c-0.2-0.1-0.4-0.2-0.6-0.4l0,0
	l-0.1,0.4h-0.7v-7.1h1v2.9c0.2-0.2,0.4-0.3,0.7-0.4c0.2-0.1,0.5-0.2,0.8-0.1c0.6,0,1.1,0.2,1.5,0.6
	C142.1,251.8,142.3,252.5,142.2,253.2z M141.1,253.2c0-0.4-0.1-0.8-0.3-1.2c-0.2-0.3-0.5-0.5-0.9-0.4c-0.2,0-0.4,0.1-0.6,0.2
	c-0.2,0.1-0.4,0.2-0.5,0.4v2.2c0.1,0.1,0.3,0.3,0.4,0.3c0.2,0.1,0.4,0.1,0.6,0.1c0.2,0,0.4,0,0.5-0.1c0.2-0.1,0.3-0.2,0.4-0.3
	c0.1-0.2,0.2-0.3,0.3-0.5C141.1,253.7,141.2,253.4,141.1,253.2L141.1,253.2z"/>
<path class="st2" d="M147.7,253.1c0,0.4-0.1,0.7-0.2,1.1c-0.1,0.3-0.3,0.6-0.5,0.8c-0.2,0.2-0.5,0.4-0.8,0.5
	c-0.3,0.1-0.6,0.2-0.9,0.2c-0.3,0-0.6-0.1-0.9-0.2c-0.3-0.1-0.5-0.3-0.7-0.5c-0.2-0.2-0.4-0.5-0.5-0.8c-0.1-0.3-0.2-0.7-0.2-1
	c0-0.4,0.1-0.7,0.2-1.1c0.1-0.3,0.3-0.6,0.5-0.8c0.2-0.2,0.5-0.4,0.8-0.5c0.3-0.1,0.6-0.2,0.9-0.2c0.3,0,0.6,0,0.9,0.1
	c0.3,0.1,0.5,0.3,0.7,0.5c0.2,0.2,0.4,0.5,0.5,0.8C147.6,252.4,147.7,252.8,147.7,253.1z M146.6,253.1c0-0.3,0-0.5-0.1-0.8
	c-0.1-0.2-0.2-0.4-0.3-0.5c-0.1-0.1-0.3-0.2-0.4-0.3c-0.3-0.1-0.6-0.1-0.9,0c-0.2,0.1-0.3,0.1-0.4,0.3c-0.1,0.1-0.2,0.3-0.3,0.5
	c-0.1,0.3-0.1,0.5-0.1,0.8c0,0.3,0,0.5,0.1,0.8c0.1,0.2,0.2,0.4,0.3,0.5c0.1,0.1,0.3,0.2,0.4,0.3c0.1,0.1,0.3,0.1,0.5,0.1
	c0.2,0,0.3,0,0.5-0.1c0.2-0.1,0.3-0.2,0.4-0.3c0.1-0.1,0.2-0.3,0.3-0.5C146.6,253.7,146.6,253.4,146.6,253.1L146.6,253.1z"/>
<path class="st2" d="M153.1,253.1c0,0.4-0.1,0.7-0.2,1.1c-0.1,0.3-0.3,0.6-0.5,0.8c-0.2,0.2-0.5,0.4-0.8,0.5
	c-0.3,0.1-0.6,0.2-0.9,0.2c-0.3,0-0.6-0.1-0.9-0.2c-0.3-0.1-0.5-0.3-0.7-0.5c-0.2-0.2-0.4-0.5-0.5-0.8c-0.1-0.3-0.2-0.7-0.2-1
	c0-0.4,0.1-0.7,0.2-1.1c0.1-0.3,0.3-0.6,0.5-0.8c0.2-0.2,0.5-0.4,0.8-0.5c0.3-0.1,0.6-0.2,0.9-0.2c0.3,0,0.6,0,0.9,0.1
	c0.3,0.1,0.5,0.3,0.7,0.5c0.2,0.2,0.4,0.5,0.5,0.8C153.1,252.4,153.1,252.8,153.1,253.1z M152,253.1c0-0.3,0-0.5-0.1-0.8
	c-0.1-0.2-0.2-0.4-0.3-0.5c-0.1-0.1-0.3-0.2-0.4-0.3c-0.3-0.1-0.6-0.1-0.9,0c-0.2,0.1-0.3,0.1-0.4,0.3c-0.1,0.1-0.2,0.3-0.3,0.5
	c-0.1,0.3-0.1,0.5-0.1,0.8c0,0.3,0,0.5,0.1,0.8c0.1,0.2,0.2,0.4,0.3,0.5c0.1,0.1,0.3,0.2,0.4,0.3c0.1,0.1,0.3,0.1,0.5,0.1
	c0.2,0,0.3,0,0.5-0.1c0.2-0.1,0.3-0.2,0.4-0.3c0.1-0.1,0.2-0.3,0.3-0.5C152,253.7,152,253.4,152,253.1L152,253.1z"/>
<path class="st2" d="M155.2,253.8v1.7h-1v-7.1h1v4.4l1.8-2h1.3l-1.9,2l2,2.7h-1.2l-1.5-2.1L155.2,253.8z"/>
<rect x="81.1" y="287.7" class="st1" width="93.1" height="36.8"/>
<rect x="174.2" y="287.7" class="st0" width="500.8" height="36.8"/>
<path class="st2" d="M123.2,302v0.9h-1.9v5.4h-1.1v-5.4h-1.9V302H123.2z"/>
<path class="st2" d="M123.2,303.6h1.1l0.7,2.8l0.2,1.1l0,0l0.2-1.1l0.7-2.8h1.1l0.8,2.8l0.2,1.1l0,0l0.2-1.1l0.7-2.8h1.1l-1.4,4.7
	h-1.2l-0.7-2.8l-0.2-1.2l-0.2,1.2l-0.8,2.8h-1.2L123.2,303.6z"/>
<path class="st2" d="M131.6,302.4c-0.2,0-0.3-0.1-0.4-0.2c-0.1-0.1-0.2-0.3-0.2-0.4c0-0.2,0.1-0.3,0.2-0.4c0.2-0.2,0.6-0.2,0.9,0
	c0.2,0.2,0.2,0.6,0,0.8C132,302.4,131.8,302.4,131.6,302.4z M131.1,308.3v-4.7h1v4.7H131.1z"/>
<path class="st2" d="M136.2,304.4h-1.3v2.5c0,0.2,0,0.3,0.2,0.5c0.1,0.1,0.3,0.1,0.4,0.1c0.1,0,0.3,0,0.4,0c0.1,0,0.3-0.1,0.4-0.1
	l0.2,0.8c-0.2,0.1-0.3,0.1-0.5,0.1c-0.2,0-0.4,0.1-0.7,0.1c-0.4,0-0.8-0.1-1.1-0.3c-0.2-0.2-0.4-0.6-0.3-0.9v-2.7h-0.7v-0.8h0.7
	v-1.5h1v1.5h1.3L136.2,304.4z"/>
<path class="st2" d="M139.8,304.4h-1.3v2.5c0,0.2,0,0.3,0.2,0.5c0.1,0.1,0.3,0.1,0.4,0.1c0.1,0,0.3,0,0.4,0c0.1,0,0.3-0.1,0.4-0.1
	l0.2,0.8c-0.2,0.1-0.3,0.1-0.5,0.1c-0.2,0-0.4,0.1-0.7,0.1c-0.4,0-0.8-0.1-1.1-0.3c-0.2-0.2-0.4-0.6-0.3-0.9v-2.7h-0.7v-0.8h0.7
	v-1.5h1v1.5h1.3L139.8,304.4z"/>
<path class="st2" d="M145,306.1h-3.3l0,0c0,0.4,0.1,0.8,0.4,1.1c0.3,0.3,0.7,0.4,1.1,0.4c0.4,0,0.9-0.1,1.3-0.3l0.2,0.8
	c-0.2,0.1-0.5,0.2-0.7,0.2c-0.3,0.1-0.6,0.1-0.9,0.1c-0.3,0-0.7,0-1-0.1c-0.3-0.1-0.6-0.2-0.8-0.4c-0.2-0.2-0.4-0.5-0.6-0.8
	c-0.1-0.3-0.2-0.7-0.2-1.1c0-0.3,0.1-0.7,0.2-1c0.1-0.3,0.3-0.6,0.5-0.8c0.2-0.2,0.5-0.4,0.7-0.5c0.3-0.1,0.7-0.2,1-0.2
	c0.3,0,0.6,0,0.8,0.1c0.2,0.1,0.5,0.2,0.6,0.4c0.2,0.2,0.3,0.4,0.4,0.7c0.1,0.3,0.1,0.6,0.1,0.9L145,306.1z M143.9,305.4
	c0-0.2,0-0.3-0.1-0.5c0-0.1-0.1-0.3-0.2-0.4c-0.1-0.1-0.2-0.2-0.3-0.2c-0.1-0.1-0.3-0.1-0.5-0.1c-0.3,0-0.6,0.1-0.8,0.3
	c-0.2,0.2-0.4,0.5-0.4,0.9L143.9,305.4z"/>
<path class="st2" d="M146,308.3v-4.7h0.8l0.1,0.9c0.1-0.3,0.3-0.5,0.6-0.7c0.3-0.2,0.6-0.3,0.9-0.3c0.1,0,0.3,0,0.4,0
	c0.1,0,0.2,0.1,0.3,0.1l-0.2,0.9c-0.1,0-0.2-0.1-0.3-0.1c-0.1,0-0.2,0-0.4,0c-0.3,0-0.7,0.1-0.9,0.4c-0.3,0.3-0.4,0.7-0.4,1.1v2.4
	H146z"/>
<linearGradient id="SVGID_1_" gradientUnits="userSpaceOnUse" x1="91.1159" y1="-1670.7338" x2="110.1059" y2="-1691.7137" gradientTransform="matrix(1 0 0 1 0 1775.2504)">
	<stop  offset="0" style="stop-color:#BA5325"/>
	<stop  offset="1" style="stop-color:#ECA26B"/>
</linearGradient>
<circle class="st3" cx="99.8" cy="94.9" r="14.4"/>
<linearGradient id="SVGID_2_" gradientUnits="userSpaceOnUse" x1="91.9072" y1="-1671.6124" x2="109.1772" y2="-1690.6825" gradientTransform="matrix(1 0 0 1 0 1775.2504)">
	<stop  offset="0" style="stop-color:#FC6A00"/>
	<stop  offset="1" style="stop-color:#FEAB70"/>
</linearGradient>
<circle class="st4" cx="99.8" cy="94.9" r="13.1"/>
<polyline class="st5" points="94,91 105.4,91 105.4,99.4 94,99.4 94,91.9 99.7,95.6 104.8,91.7 "/>
<linearGradient id="SVGID_3_" gradientUnits="userSpaceOnUse" x1="91.1182" y1="-1565.1517" x2="110.1082" y2="-1586.1417" gradientTransform="matrix(1 0 0 1 0 1775.2504)">
	<stop  offset="0" style="stop-color:#A58A2B"/>
	<stop  offset="1" style="stop-color:#D5C27B"/>
</linearGradient>
<circle class="st6" cx="99.8" cy="200.5" r="14.4"/>
<linearGradient id="SVGID_4_" gradientUnits="userSpaceOnUse" x1="91.9072" y1="-1566.0326" x2="109.1772" y2="-1585.1025" gradientTransform="matrix(1 0 0 1 0 1775.2504)">
	<stop  offset="0" style="stop-color:#DFB82B"/>
	<stop  offset="1" style="stop-color:#EDD788"/>
</linearGradient>
<circle class="st7" cx="99.8" cy="200.5" r="13.1"/>
<path class="st5" d="M101.3,201.9h-2.8v-5.6h7.3v7.1l-1.5-1.5H103c-0.4,0-0.8,0.4-0.8,0.8c0,0,0,0,0,0l0,0v3.9
	c0,0.4-0.3,0.7-0.7,0.7h-5.7c-0.3,0-0.6-0.3-0.6-0.6l0,0v-12.3c0-0.4,0.3-0.7,0.7-0.7c0,0,0,0,0,0h5.6c0.4,0,0.7,0.3,0.7,0.7
	c0,0,0,0,0,0v1.1"/>
<linearGradient id="SVGID_5_" gradientUnits="userSpaceOnUse" x1="91.1181" y1="-1617.9417" x2="110.1081" y2="-1638.9318" gradientTransform="matrix(1 0 0 1 0 1775.2504)">
	<stop  offset="0" style="stop-color:#37712C"/>
	<stop  offset="1" style="stop-color:#A8C742"/>
</linearGradient>
<circle class="st8" cx="99.8" cy="147.7" r="14.4"/>
<linearGradient id="SVGID_6_" gradientUnits="userSpaceOnUse" x1="91.9072" y1="-1618.8225" x2="109.1772" y2="-1637.8926" gradientTransform="matrix(1 0 0 1 0 1775.2504)">
	<stop  offset="0" style="stop-color:#5BA529"/>
	<stop  offset="1" style="stop-color:#B3D942"/>
</linearGradient>
<circle class="st9" cx="99.8" cy="147.7" r="13.1"/>
<path class="st5" d="M94.6,143.3h9.9v-3.2H93.6V151h7.7c0.2,0,0.3-0.1,0.3-0.3c0,0,0,0,0,0v-5.1c0-0.3,0.2-0.5,0.5-0.5l0,0h4
	c0.3,0,0.5,0.2,0.5,0.5l0,0v8.7c0,0.3-0.2,0.5-0.5,0.5l0,0h-4c-0.3,0-0.5-0.2-0.5-0.5l0,0v-2.6"/>
<circle class="st5" cx="95.1" cy="141.7" r="0.3"/>
<circle class="st5" cx="96.4" cy="141.7" r="0.3"/>
<circle class="st5" cx="97.7" cy="141.7" r="0.3"/>
<path class="st5" d="M103.4,150.6h-0.7 M103.1,150.1l0.1-0.7v-0.2c0-0.4,0.3-0.7,0.7-0.7c0.4,0,0.7,0.3,0.7,0.7l0.2,0.8
	c0,0.2,0.1,0.3,0.3,0.4c0,0,0.1,0,0.1,0.1c0,0,0,0.1,0,0.1v0.1h-0.7"/>
<path class="st5" d="M103.5,150.6c0,0.3,0.2,0.5,0.5,0.5s0.5-0.2,0.5-0.5"/>
<polygon class="st5" points="95.2,144.9 95.2,148 99.8,148 99.8,145.7 96.1,145.7 "/>
<circle class="st10" cx="99.8" cy="253.3" r="14.4"/>
<path class="st11" d="M104.4,250.4H101v-2.3c0-0.6,0.5-1.1,1.2-1.1h1.2v-2.9H101c-1.9,0-3.4,1.5-3.4,3.4c0,0,0,0,0,0v2.9h-2.3v2.9
	h2.3v9.2h3.4v-9.2h2.3L104.4,250.4z"/>
<circle class="st12" cx="99.8" cy="306.3" r="14.4"/>
<path class="st13" d="M108.8,300.8c-0.7,0.3-1.4,0.5-2.1,0.6c0.8-0.5,1.3-1.2,1.6-2c-0.7,0.4-1.5,0.7-2.3,0.9
	c-1.4-1.5-3.7-1.5-5.2-0.2c-0.7,0.7-1.2,1.7-1.2,2.7c0,0.3,0,0.6,0.1,0.8c-2.9-0.1-5.7-1.5-7.5-3.8c-0.3,0.6-0.5,1.2-0.5,1.9
	c0,1.2,0.6,2.3,1.6,3c-0.6,0-1.2-0.2-1.7-0.5l0,0c0,1.7,1.2,3.2,2.9,3.6c-0.3,0.1-0.7,0.1-1,0.1c-0.2,0-0.5,0-0.7-0.1
	c0.5,1.5,1.9,2.5,3.4,2.5c-1.3,1-2.9,1.6-4.5,1.6c-0.3,0-0.6,0-0.9,0c4.9,3.1,11.3,1.6,14.4-3.2c1.1-1.7,1.6-3.6,1.6-5.6
	c0-0.2,0-0.3,0-0.5C107.6,302.2,108.3,301.5,108.8,300.8z"/>
<path class="st14" d="M319.2,351.3v1h-2.4v1.5h2.2v0.9h-2.2v2.2h-1.2v-5.7L319.2,351.3z"/>
<path class="st14" d="M320.6,351.8c-0.2,0-0.3-0.1-0.5-0.2c-0.2-0.2-0.2-0.6,0-0.9c0.1-0.1,0.3-0.2,0.5-0.2c0.2,0,0.3,0.1,0.5,0.2
	c0.1,0.1,0.2,0.3,0.2,0.4c0,0.2-0.1,0.3-0.2,0.4C321,351.7,320.8,351.8,320.6,351.8z M320,357v-4.3h1.2v4.3H320z"/>
<path class="st14" d="M322.4,357v-4.3h0.9l0.1,0.8c0.1-0.2,0.3-0.4,0.5-0.6c0.2-0.2,0.5-0.3,0.8-0.3c0.1,0,0.2,0,0.4,0
	c0.1,0,0.2,0.1,0.3,0.1l-0.2,1c-0.1,0-0.2-0.1-0.2-0.1c-0.1,0-0.2,0-0.4,0c-0.3,0-0.5,0.1-0.7,0.3c-0.2,0.3-0.3,0.6-0.3,1v2.1H322.4
	z"/>
<path class="st14" d="M328.5,353.7c-0.3-0.2-0.7-0.2-1-0.3c-0.2,0-0.3,0-0.5,0.1c-0.1,0.1-0.1,0.2-0.1,0.3c0,0.1,0,0.2,0.1,0.3
	c0.2,0.1,0.4,0.2,0.6,0.2l0.3,0.1c0.3,0.1,0.6,0.2,0.8,0.5c0.2,0.2,0.3,0.5,0.3,0.8c0,0.4-0.2,0.8-0.5,1c-0.4,0.3-0.9,0.4-1.3,0.4
	c-0.5,0-1-0.1-1.5-0.3l0.3-0.9c0.2,0.1,0.4,0.2,0.5,0.2c0.2,0.1,0.4,0.1,0.6,0.1c0.2,0,0.4,0,0.5-0.1c0.1-0.1,0.2-0.2,0.2-0.3
	c0-0.1-0.1-0.2-0.2-0.3c-0.2-0.1-0.4-0.2-0.6-0.2l-0.3-0.1c-0.3-0.1-0.6-0.3-0.8-0.5c-0.4-0.5-0.3-1.3,0.2-1.7
	c0.4-0.3,0.8-0.4,1.2-0.4c0.5,0,1,0.1,1.4,0.3L328.5,353.7z"/>
<path class="st14" d="M332.4,353.6h-1.1v2c0,0.2,0,0.3,0.1,0.4c0.1,0.1,0.2,0.1,0.4,0.1c0.1,0,0.2,0,0.4,0c0.1,0,0.2-0.1,0.3-0.1
	l0.2,0.8c-0.2,0.1-0.3,0.1-0.5,0.1c-0.2,0-0.4,0.1-0.6,0.1c-0.4,0-0.8-0.1-1.1-0.3c-0.2-0.3-0.4-0.6-0.3-0.9v-2.2h-0.7v-0.9h0.7
	v-1.3h1.2v1.3h1.1L332.4,353.6z"/>
<path class="st14" d="M337.9,353.6h-1.1v2c0,0.2,0,0.4,0.1,0.4c0.1,0.1,0.2,0.1,0.4,0.1h0.4c0.1,0,0.2-0.1,0.3-0.1l0.2,0.8
	c-0.2,0.1-0.3,0.1-0.5,0.1c-0.2,0-0.4,0.1-0.6,0.1c-0.4,0-0.8-0.1-1.1-0.3c-0.2-0.3-0.4-0.6-0.3-0.9v-2.2h-0.7v-0.9h0.7v-1.3h1.2
	v1.3h1.1L337.9,353.6z"/>
<path class="st14" d="M342.9,354.8c0,0.3,0,0.7-0.2,1c-0.2,0.5-0.6,1-1.2,1.2c-0.3,0.1-0.6,0.2-0.9,0.2c-0.3,0-0.6,0-0.9-0.1
	c-0.3-0.1-0.5-0.2-0.7-0.4c-0.2-0.2-0.4-0.4-0.5-0.7c-0.1-0.3-0.2-0.6-0.2-0.9c0-0.3,0-0.7,0.2-1c0.1-0.3,0.3-0.5,0.5-0.7
	c0.2-0.2,0.4-0.4,0.7-0.5c0.3-0.1,0.6-0.2,0.9-0.2c0.3,0,0.6,0,0.9,0.1c0.3,0.1,0.5,0.2,0.7,0.4c0.2,0.2,0.4,0.4,0.5,0.7
	C342.9,354.2,342.9,354.5,342.9,354.8z M341.7,354.9c0-0.2,0-0.4-0.1-0.6c0-0.2-0.1-0.3-0.2-0.4c-0.1-0.1-0.2-0.2-0.3-0.2
	c-0.1-0.1-0.2-0.1-0.4-0.1c-0.1,0-0.2,0-0.4,0.1c-0.1,0-0.2,0.1-0.3,0.2c-0.1,0.1-0.2,0.3-0.2,0.4c-0.1,0.2-0.1,0.4-0.1,0.7
	c0,0.2,0,0.4,0.1,0.6c0,0.2,0.1,0.3,0.2,0.4c0.1,0.1,0.2,0.2,0.3,0.2c0.1,0.1,0.2,0.1,0.4,0.1c0.1,0,0.2,0,0.4-0.1
	c0.1,0,0.2-0.1,0.3-0.2c0.1-0.1,0.2-0.3,0.2-0.4C341.7,355.3,341.7,355.1,341.7,354.9z"/>
<path class="st14" d="M346.6,352.7h1.2v4.3h-0.9l-0.1-0.5l0,0l-0.2,0.2c-0.1,0.1-0.2,0.1-0.3,0.2c-0.1,0.1-0.3,0.1-0.4,0.1
	c-0.2,0-0.3,0-0.5,0c-0.8,0.1-1.4-0.5-1.5-1.3c0-0.1,0-0.2,0-0.3v-2.8h1.2v2.8c0,0.2,0,0.4,0.2,0.6c0.1,0.1,0.3,0.2,0.5,0.2
	c0.2,0,0.4,0,0.5-0.1c0.1-0.1,0.3-0.2,0.4-0.3L346.6,352.7z"/>
<path class="st14" d="M351.1,356.2c0.2,0,0.3,0,0.5-0.1c0.1,0,0.3-0.1,0.4-0.1l0.2,0.8c-0.2,0.1-0.3,0.1-0.5,0.2
	c-0.2,0.1-0.5,0.1-0.8,0.1c-0.3,0-0.6,0-1-0.1c-0.3-0.1-0.5-0.2-0.7-0.4c-0.2-0.2-0.4-0.4-0.5-0.7c-0.1-0.3-0.2-0.7-0.2-1
	c0-0.3,0.1-0.6,0.2-0.9c0.1-0.3,0.3-0.5,0.5-0.7c0.2-0.2,0.5-0.4,0.7-0.5c0.3-0.1,0.6-0.2,0.9-0.2c0.2,0,0.4,0,0.6,0
	c0.2,0,0.4,0.1,0.6,0.2l-0.2,0.8c-0.1-0.1-0.3-0.1-0.4-0.2c-0.1,0-0.3-0.1-0.4-0.1c-0.3,0-0.7,0.1-0.9,0.3c-0.2,0.3-0.4,0.6-0.4,1
	c0,0.2,0,0.5,0.1,0.7c0.1,0.3,0.4,0.5,0.7,0.7C350.8,356.2,350.9,356.2,351.1,356.2z"/>
<path class="st14" d="M354.2,357H353v-6.4h1.2v2.5c0.2-0.1,0.4-0.3,0.6-0.3c0.2-0.1,0.5-0.1,0.7-0.1c0.2,0,0.4,0,0.7,0.1
	c0.2,0.1,0.3,0.2,0.5,0.3c0.1,0.1,0.2,0.3,0.3,0.5c0.1,0.2,0.1,0.4,0.1,0.6v2.9h-1.2v-2.6c0-0.2,0-0.5-0.2-0.6
	c-0.1-0.1-0.3-0.2-0.5-0.2c-0.2,0-0.3,0-0.5,0.1c-0.2,0.1-0.3,0.2-0.4,0.3L354.2,357z"/>
<path class="st14" d="M422.2,351.3h1.2v4.7h2.3v1h-3.5V351.3z"/>
<path class="st14" d="M426.4,353.1c0.5-0.3,1.1-0.5,1.7-0.5c0.2,0,0.5,0,0.7,0.1c0.2,0.1,0.4,0.1,0.5,0.3c0.2,0.1,0.3,0.3,0.4,0.5
	c0.1,0.2,0.1,0.5,0.1,0.7v2.8h-0.9l-0.1-0.4l0,0c-0.1,0.2-0.3,0.3-0.5,0.4c-0.2,0.1-0.5,0.1-0.7,0.1c-0.2,0-0.4,0-0.6-0.1
	c-0.2-0.1-0.3-0.2-0.5-0.3c-0.1-0.1-0.2-0.3-0.3-0.4c-0.1-0.2-0.1-0.3-0.1-0.5c0-0.2,0-0.4,0.2-0.6c0.1-0.2,0.3-0.3,0.4-0.4
	c0.2-0.1,0.4-0.2,0.7-0.2c0.3-0.1,0.5-0.1,0.8-0.1h0.5v-0.3c0-0.2-0.1-0.3-0.2-0.4c-0.2-0.1-0.3-0.2-0.5-0.1c-0.2,0-0.4,0-0.5,0.1
	c-0.2,0.1-0.4,0.2-0.6,0.3L426.4,353.1z M428.7,355.1h-0.4c-0.3,0-0.5,0-0.8,0.2c-0.1,0.1-0.2,0.2-0.2,0.4c0,0.2,0.1,0.3,0.2,0.4
	c0.1,0.1,0.3,0.1,0.4,0.1c0.2,0,0.3-0.1,0.4-0.1c0.1-0.1,0.2-0.2,0.3-0.3V355.1z"/>
<path class="st14" d="M433.6,353.7c-0.3-0.2-0.7-0.2-1-0.3c-0.2,0-0.3,0-0.4,0.1c-0.1,0.1-0.2,0.2-0.2,0.3c0,0.1,0,0.2,0.1,0.3
	c0.2,0.1,0.4,0.2,0.6,0.2l0.3,0.1c0.3,0.1,0.6,0.2,0.9,0.5c0.2,0.2,0.3,0.5,0.3,0.8c0,0.4-0.2,0.8-0.5,1c-0.4,0.3-0.8,0.4-1.3,0.4
	c-0.5,0-1-0.1-1.5-0.3l0.3-0.9c0.2,0.1,0.4,0.2,0.5,0.2c0.2,0.1,0.4,0.1,0.6,0.1c0.2,0,0.4,0,0.5-0.1c0.1-0.1,0.2-0.2,0.2-0.3
	c0-0.1-0.1-0.2-0.2-0.3c-0.2-0.1-0.4-0.2-0.6-0.2l-0.3-0.1c-0.3-0.1-0.6-0.3-0.8-0.5c-0.2-0.2-0.3-0.5-0.2-0.8c0-0.4,0.2-0.7,0.4-1
	c0.4-0.3,0.8-0.4,1.2-0.4c0.5,0,1,0.1,1.4,0.3L433.6,353.7z"/>
<path class="st14" d="M437.5,353.6h-1.1v2c0,0.2,0,0.3,0.1,0.4c0.1,0.1,0.2,0.1,0.4,0.1h0.4c0.1,0,0.2-0.1,0.3-0.1l0.2,0.8
	c-0.2,0.1-0.3,0.1-0.5,0.1c-0.2,0-0.4,0.1-0.6,0.1c-0.4,0-0.8-0.1-1.1-0.3c-0.2-0.2-0.4-0.6-0.3-0.9v-2.2h-0.7v-0.9h0.7v-1.3h1.2
	v1.3h1.1L437.5,353.6z"/>
<path class="st14" d="M443,353.6h-1.1v2c0,0.2,0,0.3,0.1,0.4c0.1,0.1,0.2,0.1,0.4,0.1c0.1,0,0.2,0,0.4,0c0.1,0,0.2-0.1,0.3-0.1
	l0.2,0.8c-0.2,0.1-0.3,0.1-0.5,0.1c-0.2,0-0.4,0.1-0.6,0.1c-0.4,0-0.8-0.1-1.1-0.3c-0.2-0.3-0.4-0.6-0.3-0.9v-2.2H440v-0.9h0.7v-1.3
	h1.2v1.3h1.1V353.6z"/>
<path class="st14" d="M448,354.8c0,0.3,0,0.7-0.2,1c-0.2,0.5-0.6,1-1.2,1.2c-0.3,0.1-0.6,0.2-0.9,0.2c-0.3,0-0.6,0-0.9-0.1
	c-0.3-0.1-0.5-0.2-0.7-0.4c-0.2-0.2-0.4-0.4-0.5-0.7c-0.1-0.3-0.2-0.6-0.2-0.9c0-0.3,0-0.7,0.2-1c0.1-0.3,0.3-0.5,0.5-0.7
	c0.2-0.2,0.4-0.4,0.7-0.5c0.3-0.1,0.6-0.2,0.9-0.2c0.3,0,0.6,0,0.9,0.1c0.3,0.1,0.5,0.2,0.7,0.4c0.2,0.2,0.3,0.4,0.5,0.7
	C447.9,354.2,448,354.5,448,354.8z M446.8,354.9c0-0.2,0-0.4-0.1-0.6c0-0.2-0.1-0.3-0.2-0.4c-0.1-0.1-0.2-0.2-0.3-0.2
	c-0.1,0-0.2-0.1-0.4-0.1c-0.1,0-0.2,0-0.4,0.1c-0.1,0-0.2,0.1-0.3,0.2c-0.1,0.1-0.2,0.3-0.2,0.4c-0.1,0.2-0.1,0.4-0.1,0.7
	c0,0.2,0,0.4,0.1,0.6c0,0.2,0.1,0.3,0.2,0.4c0.1,0.1,0.2,0.2,0.3,0.2c0.1,0,0.2,0.1,0.4,0.1c0.1,0,0.2,0,0.4-0.1
	c0.1,0,0.2-0.1,0.3-0.2c0.1-0.1,0.2-0.3,0.2-0.4C446.7,355.3,446.8,355.1,446.8,354.9L446.8,354.9z"/>
<path class="st14" d="M451.6,352.7h1.2v4.3h-0.9l-0.1-0.5l0,0l-0.2,0.2c-0.1,0.1-0.2,0.1-0.3,0.2c-0.1,0.1-0.3,0.1-0.4,0.1
	c-0.2,0-0.3,0-0.5,0c-0.8,0.1-1.4-0.5-1.5-1.2c0-0.1,0-0.2,0-0.3v-2.8h1.2v2.8c0,0.2,0.1,0.4,0.2,0.6c0.1,0.1,0.3,0.2,0.5,0.2
	c0.2,0,0.4,0,0.5-0.1c0.1-0.1,0.3-0.2,0.4-0.3L451.6,352.7z"/>
<path class="st14" d="M456.2,356.2c0.2,0,0.3,0,0.5-0.1c0.1,0,0.2-0.1,0.3-0.1l0.2,0.8c-0.2,0.1-0.3,0.1-0.5,0.2
	c-0.2,0.1-0.5,0.1-0.8,0.1c-0.3,0-0.6,0-0.9-0.1c-0.3-0.1-0.5-0.2-0.7-0.4c-0.2-0.2-0.4-0.4-0.5-0.7c-0.1-0.3-0.2-0.7-0.2-1
	c0-0.3,0.1-0.6,0.2-0.9c0.1-0.3,0.3-0.5,0.5-0.7c0.2-0.2,0.5-0.4,0.7-0.5c0.3-0.1,0.6-0.2,0.9-0.2c0.2,0,0.4,0,0.6,0
	c0.2,0,0.4,0.1,0.6,0.2l-0.2,0.8c-0.1-0.1-0.3-0.1-0.4-0.2c-0.1,0-0.3-0.1-0.4-0.1c-0.3,0-0.7,0.1-0.9,0.3c-0.2,0.3-0.4,0.6-0.3,1
	c0,0.2,0,0.5,0.1,0.7c0.1,0.2,0.2,0.3,0.3,0.4c0.1,0.1,0.3,0.2,0.4,0.2C455.8,356.2,456,356.2,456.2,356.2z"/>
<path class="st14" d="M459.3,357h-1.2v-6.4h1.2v2.5c0.2-0.1,0.4-0.3,0.6-0.3c0.2-0.1,0.5-0.1,0.7-0.1c0.2,0,0.4,0,0.7,0.1
	c0.2,0.1,0.3,0.2,0.5,0.3c0.1,0.1,0.2,0.3,0.3,0.5c0.1,0.2,0.1,0.4,0.1,0.6v2.9h-1.2v-2.6c0-0.2,0-0.5-0.2-0.6
	c-0.1-0.1-0.3-0.2-0.5-0.2c-0.2,0-0.3,0-0.5,0.1c-0.2,0.1-0.3,0.2-0.4,0.3L459.3,357z"/>
<line class="st15" x1="196.9" y1="57.8" x2="200.4" y2="57.8"/>
<line class="st16" x1="207.3" y1="57.8" x2="231.5" y2="57.8"/>
<line class="st17" x1="235" y1="57.8" x2="647.2" y2="57.8"/>
<line class="st15" x1="650.7" y1="57.8" x2="654.2" y2="57.8"/>
<polygon class="st18" points="197.9,61.3 191.9,57.8 197.9,54.3 "/>
<polygon class="st18" points="653.1,61.3 659.2,57.8 653.1,54.3 "/>
<rect x="369.8" y="51.2" class="st19" width="111.4" height="13.1"/>
<path class="st2" d="M379.1,53.7v1h-1.9V60H376v-5.3h-1.8v-1L379.1,53.7z"/>
<path class="st2" d="M383.8,57.6c0,0.4-0.1,0.7-0.2,1.1c-0.1,0.3-0.3,0.6-0.5,0.8c-0.2,0.2-0.5,0.4-0.8,0.5c-0.3,0.1-0.6,0.2-1,0.2
	c-0.3,0-0.6,0-0.9-0.2c-0.3-0.1-0.5-0.3-0.8-0.5c-0.2-0.2-0.4-0.5-0.5-0.8c-0.2-0.7-0.2-1.4,0-2.1c0.1-0.3,0.3-0.6,0.5-0.8
	c0.2-0.2,0.5-0.4,0.8-0.5c0.6-0.2,1.3-0.2,1.9,0c0.3,0.1,0.5,0.3,0.8,0.5c0.2,0.2,0.4,0.5,0.5,0.8C383.7,56.9,383.8,57.3,383.8,57.6
	z M382.5,57.6c0-0.2,0-0.5-0.1-0.7c0-0.2-0.1-0.4-0.3-0.5c-0.1-0.1-0.2-0.2-0.4-0.3c-0.1-0.1-0.3-0.1-0.5-0.1c-0.2,0-0.3,0-0.4,0.1
	c-0.1,0.1-0.3,0.1-0.4,0.3c-0.1,0.1-0.2,0.3-0.3,0.5c-0.1,0.3-0.1,0.5-0.1,0.8c0,0.2,0,0.5,0.1,0.7c0.1,0.2,0.2,0.3,0.3,0.5
	c0.1,0.1,0.2,0.2,0.4,0.3c0.1,0.1,0.3,0.1,0.4,0.1c0.2,0,0.3,0,0.4-0.1c0.1-0.1,0.3-0.1,0.4-0.3c0.1-0.1,0.2-0.3,0.3-0.5
	C382.5,58.2,382.5,57.9,382.5,57.6L382.5,57.6z"/>
<path class="st2" d="M387.5,56.2h-1.3v2.4c0,0.2,0,0.3,0.2,0.5c0.1,0.1,0.3,0.1,0.4,0.1c0.1,0,0.3,0,0.4,0c0.1,0,0.3-0.1,0.4-0.1
	l0.2,0.8c-0.2,0.1-0.3,0.1-0.5,0.2c-0.2,0-0.5,0.1-0.7,0.1c-0.4,0-0.8-0.1-1.2-0.3c-0.3-0.3-0.4-0.6-0.4-1v-2.6h-0.7v-0.9h0.7v-1.5
	h1.2v1.5h1.3L387.5,56.2z"/>
<path class="st2" d="M388.6,55.7c0.3-0.2,0.6-0.3,0.9-0.4c0.3-0.1,0.7-0.1,1-0.1c0.3,0,0.5,0,0.8,0.1c0.2,0.1,0.4,0.2,0.6,0.3
	c0.2,0.1,0.3,0.3,0.4,0.5c0.1,0.3,0.1,0.5,0.1,0.8v3h-0.9l-0.1-0.5l0,0c-0.4,0.4-0.9,0.6-1.5,0.6c-0.4,0-0.8-0.1-1.2-0.4
	c-0.3-0.3-0.4-0.6-0.4-1c0-0.2,0.1-0.5,0.2-0.7c0.1-0.2,0.3-0.4,0.5-0.5c0.2-0.1,0.5-0.2,0.7-0.3c0.3-0.1,0.6-0.1,0.9-0.1h0.7v-0.3
	c0-0.2-0.1-0.4-0.2-0.5c-0.2-0.1-0.4-0.2-0.6-0.2c-0.2,0-0.4,0-0.6,0.1c-0.2,0.1-0.5,0.2-0.7,0.3L388.6,55.7z M391.1,57.9h-0.5
	c-0.3,0-0.6,0.1-0.9,0.2c-0.2,0.1-0.3,0.3-0.3,0.5c0,0.2,0.1,0.4,0.2,0.5c0.2,0.1,0.3,0.1,0.5,0.1c0.2,0,0.4-0.1,0.6-0.1
	c0.2-0.1,0.3-0.2,0.4-0.4L391.1,57.9z"/>
<path class="st2" d="M393.6,60v-7.1h1.2V60H393.6z"/>
<path class="st2" d="M398.4,55.7c0.3-0.2,0.6-0.3,0.9-0.4c0.3-0.1,0.7-0.1,1-0.1c0.3,0,0.5,0,0.8,0.1c0.2,0.1,0.4,0.2,0.6,0.3
	c0.2,0.1,0.3,0.3,0.4,0.5c0.1,0.3,0.1,0.5,0.1,0.8v3h-0.9l-0.1-0.5l0,0c-0.4,0.4-0.9,0.6-1.5,0.6c-0.4,0-0.8-0.1-1.2-0.4
	c-0.3-0.3-0.4-0.6-0.4-1c0-0.2,0.1-0.5,0.2-0.7c0.1-0.2,0.3-0.4,0.5-0.5c0.2-0.1,0.5-0.2,0.7-0.3c0.3-0.1,0.6-0.1,0.9-0.1h0.7v-0.3
	c0-0.2-0.1-0.4-0.2-0.5c-0.2-0.1-0.4-0.2-0.6-0.2c-0.2,0-0.4,0-0.6,0.1c-0.2,0.1-0.5,0.2-0.7,0.3L398.4,55.7z M401,57.9h-0.5
	c-0.3,0-0.6,0.1-0.9,0.2c-0.2,0.1-0.3,0.3-0.3,0.5c0,0.2,0.1,0.4,0.2,0.5c0.2,0.1,0.3,0.1,0.5,0.1c0.2,0,0.4-0.1,0.6-0.1
	c0.2-0.1,0.3-0.2,0.4-0.4L401,57.9z"/>
<path class="st2" d="M406.5,55.3h1.2V60h-0.9l-0.1-0.5l0,0c-0.2,0.2-0.4,0.3-0.6,0.5c-0.3,0.1-0.7,0.2-1,0.2c-0.4,0-0.9-0.1-1.2-0.4
	c-0.3-0.3-0.5-0.8-0.5-1.3v-3.1h1.2v3c0,0.3,0.1,0.5,0.2,0.7c0.2,0.1,0.4,0.2,0.6,0.2c0.2,0,0.4,0,0.6-0.2c0.2-0.1,0.3-0.2,0.5-0.4
	L406.5,55.3z"/>
<path class="st2" d="M412,52.9h1.2V60h-0.9l-0.1-0.5l0,0c-0.2,0.2-0.3,0.3-0.6,0.5c-0.3,0.1-0.6,0.2-0.9,0.2c-0.3,0-0.5-0.1-0.8-0.2
	c-0.3-0.1-0.5-0.3-0.7-0.5c-0.2-0.2-0.4-0.5-0.5-0.8c-0.1-0.3-0.2-0.7-0.2-1.1c0-0.3,0-0.7,0.1-1c0.1-0.3,0.2-0.6,0.4-0.8
	c0.2-0.2,0.4-0.4,0.7-0.5c0.3-0.1,0.6-0.2,0.9-0.2c0.2,0,0.5,0,0.7,0.1c0.2,0.1,0.4,0.2,0.5,0.3L412,52.9z M412,56.5
	c-0.1-0.1-0.2-0.2-0.4-0.3c-0.2-0.1-0.3-0.1-0.5-0.1c-0.2,0-0.3,0-0.5,0.1c-0.2,0.1-0.3,0.1-0.4,0.3c-0.1,0.1-0.2,0.3-0.3,0.5
	c-0.1,0.2-0.1,0.5-0.1,0.7c0,0.2,0,0.5,0.1,0.7c0.1,0.2,0.1,0.4,0.2,0.5c0.1,0.1,0.2,0.2,0.4,0.3c0.1,0.1,0.3,0.1,0.5,0.1
	c0.2,0,0.4,0,0.6-0.2c0.2-0.1,0.3-0.2,0.4-0.4L412,56.5z"/>
<path class="st2" d="M415.1,54.2c-0.2,0-0.4-0.1-0.5-0.2c-0.1-0.1-0.2-0.3-0.2-0.5c0-0.2,0.1-0.3,0.2-0.4c0.1-0.1,0.3-0.2,0.5-0.2
	c0.2,0,0.3,0.1,0.5,0.2c0.2,0.3,0.2,0.6,0,0.9C415.5,54.1,415.3,54.2,415.1,54.2z M414.6,60v-4.7h1.2V60H414.6z"/>
<path class="st2" d="M421.3,57.9H418l0,0c0,0.4,0.1,0.8,0.4,1c0.3,0.2,0.7,0.3,1.1,0.3c0.4,0,0.9-0.1,1.3-0.3l0.2,0.8
	c-0.2,0.1-0.5,0.2-0.7,0.2c-0.3,0.1-0.6,0.1-0.9,0.1c-0.3,0-0.7,0-1-0.1c-0.3-0.1-0.6-0.2-0.8-0.4c-0.2-0.2-0.4-0.5-0.5-0.8
	c-0.1-0.3-0.2-0.7-0.2-1.1c0-0.3,0.1-0.7,0.2-1c0.1-0.3,0.3-0.6,0.5-0.8c0.2-0.2,0.5-0.4,0.8-0.5c0.3-0.1,0.7-0.2,1-0.2
	c0.6,0,1.1,0.2,1.5,0.6c0.4,0.4,0.6,1,0.6,1.6L421.3,57.9z M420.1,57.1c0-0.1,0-0.3,0-0.4c0-0.1-0.1-0.2-0.2-0.3
	c-0.1-0.1-0.2-0.2-0.3-0.2c-0.1-0.1-0.3-0.1-0.4-0.1c-0.3,0-0.5,0.1-0.7,0.3c-0.2,0.2-0.3,0.5-0.4,0.8L420.1,57.1z"/>
<path class="st2" d="M423.4,60h-1.2v-4.7h0.9l0.1,0.6c0.2-0.2,0.5-0.4,0.7-0.5c0.3-0.1,0.6-0.2,0.9-0.2c0.4,0,0.9,0.1,1.2,0.4
	c0.3,0.3,0.4,0.8,0.4,1.2V60h-1.2v-3c0-0.2-0.1-0.4-0.2-0.6c-0.1-0.2-0.4-0.3-0.6-0.2c-0.2,0-0.4,0.1-0.6,0.2
	c-0.2,0.1-0.4,0.2-0.5,0.4L423.4,60z"/>
<path class="st2" d="M430.2,59.3c0.2,0,0.4,0,0.6-0.1c0.1,0,0.3-0.1,0.4-0.2l0.2,0.8c-0.2,0.1-0.4,0.2-0.6,0.2
	c-0.6,0.1-1.2,0.1-1.8-0.1c-0.3-0.1-0.6-0.3-0.8-0.5c-0.2-0.2-0.4-0.5-0.5-0.8c-0.1-0.3-0.2-0.7-0.2-1.1c0-0.3,0.1-0.7,0.2-1
	c0.1-0.3,0.3-0.6,0.5-0.8c0.2-0.2,0.5-0.4,0.8-0.5c0.3-0.1,0.7-0.2,1-0.2c0.2,0,0.4,0,0.6,0.1c0.2,0,0.5,0.1,0.7,0.2l-0.2,0.8
	c-0.2-0.1-0.3-0.1-0.5-0.2c-0.2,0-0.3-0.1-0.5-0.1c-0.4,0-0.8,0.1-1.1,0.4c-0.3,0.3-0.4,0.7-0.4,1.2c0,0.3,0,0.5,0.1,0.8
	c0.1,0.2,0.2,0.4,0.3,0.5c0.1,0.1,0.3,0.2,0.5,0.3C429.8,59.3,430,59.3,430.2,59.3z"/>
<path class="st2" d="M436.2,57.9H433l0,0c0,0.4,0.1,0.8,0.4,1c0.3,0.2,0.7,0.3,1.1,0.3c0.2,0,0.5,0,0.7-0.1c0.2,0,0.4-0.1,0.6-0.2
	l0.2,0.8c-0.2,0.1-0.5,0.2-0.7,0.2c-0.3,0.1-0.6,0.1-0.9,0.1c-0.3,0-0.7,0-1-0.1c-0.3-0.1-0.6-0.2-0.8-0.4c-0.2-0.2-0.4-0.5-0.5-0.8
	c-0.1-0.3-0.2-0.7-0.2-1.1c0-0.3,0.1-0.7,0.2-1c0.1-0.3,0.3-0.6,0.5-0.8c0.2-0.2,0.5-0.4,0.8-0.5c0.3-0.1,0.7-0.2,1-0.2
	c0.6,0,1.1,0.2,1.5,0.6c0.4,0.4,0.6,1,0.6,1.6L436.2,57.9z M435,57.1c0-0.1,0-0.3,0-0.4c0-0.1-0.1-0.2-0.2-0.3
	c-0.1-0.1-0.2-0.2-0.3-0.2c-0.1-0.1-0.3-0.1-0.4-0.1c-0.3,0-0.5,0.1-0.7,0.3c-0.2,0.2-0.3,0.5-0.4,0.8L435,57.1z"/>
<path class="st2" d="M437,56.4c0-0.4,0.3-0.7,0.7-0.7c0.2,0,0.4,0.1,0.5,0.2c0.1,0.1,0.2,0.3,0.2,0.5c0,0.2-0.1,0.4-0.2,0.6
	c-0.3,0.3-0.7,0.3-1,0C437.1,56.8,437,56.6,437,56.4z M437,59.4c0-0.4,0.3-0.7,0.7-0.7c0.2,0,0.4,0.1,0.5,0.2
	c0.1,0.1,0.2,0.3,0.2,0.5c0,0.2-0.1,0.4-0.2,0.6c-0.3,0.3-0.7,0.3-1,0C437.1,59.8,437.1,59.6,437,59.4L437,59.4z"/>
<path class="st2" d="M445.8,53.7v0.8l-2.7,5.8l-1-0.4l2.5-5.2h-2.9v-0.9H445.8z"/>
<path class="st2" d="M448.4,53.7h0.9V60h-1.2v-5.1l-1.2,0.5l-0.3-0.9L448.4,53.7z"/>
<path class="st2" d="M454.5,53.7v0.9h-2.2l-0.2,1.4h0.2h0.2c0.3,0,0.5,0,0.8,0.1c0.3,0.1,0.5,0.2,0.7,0.3c0.2,0.2,0.4,0.4,0.5,0.6
	c0.1,0.3,0.2,0.6,0.2,0.9c0,0.3,0,0.6-0.1,0.8c-0.1,0.3-0.3,0.5-0.5,0.7c-0.2,0.2-0.5,0.4-0.8,0.5c-0.4,0.1-0.7,0.2-1.1,0.2
	c-0.3,0-0.6,0-0.8-0.1c-0.2,0-0.5-0.1-0.7-0.2L451,59c0.2,0.1,0.4,0.1,0.5,0.2c0.2,0.1,0.4,0.1,0.6,0.1c0.4,0,0.8-0.1,1.1-0.3
	c0.2-0.2,0.4-0.5,0.4-0.9c0-0.3-0.1-0.7-0.4-0.9c-0.3-0.2-0.6-0.3-1-0.3c-0.2,0-0.4,0-0.5,0l-0.5,0.1l0.3-3.3H454.5z"/>
<path class="st2" d="M456.3,60.1c-0.2,0-0.3-0.1-0.5-0.3c-0.1-0.1-0.2-0.3-0.2-0.5c0-0.2,0.1-0.4,0.2-0.5c0.1-0.1,0.3-0.2,0.5-0.2
	c0.1,0,0.2,0,0.3,0.1c0.1,0,0.2,0.1,0.3,0.2c0.1,0.1,0.2,0.2,0.2,0.3c0.1,0.2,0.1,0.4,0.1,0.5c0,0.2,0,0.4-0.1,0.6
	c-0.1,0.2-0.2,0.4-0.3,0.5c-0.1,0.2-0.2,0.3-0.4,0.5c-0.1,0.1-0.3,0.2-0.5,0.3l-0.4-0.5c0.2-0.1,0.4-0.2,0.5-0.4
	c0.2-0.2,0.3-0.4,0.3-0.6L456.3,60.1z"/>
<path class="st2" d="M460.6,53.6c0.3,0,0.7,0.1,1,0.2c0.3,0.1,0.6,0.3,0.8,0.6c0.2,0.3,0.4,0.6,0.5,1c0.1,0.5,0.2,1,0.2,1.5
	c0,0.5-0.1,1-0.2,1.5c-0.1,0.4-0.3,0.7-0.6,1c-0.2,0.3-0.5,0.5-0.8,0.6c-0.3,0.1-0.7,0.2-1,0.2c-0.3,0-0.7-0.1-1-0.2
	c-0.3-0.1-0.6-0.3-0.8-0.6c-0.2-0.3-0.4-0.6-0.5-1c-0.1-0.5-0.2-1-0.2-1.5c0-0.5,0.1-1,0.2-1.4c0.1-0.4,0.3-0.7,0.6-1
	c0.2-0.3,0.5-0.5,0.8-0.6C459.9,53.7,460.2,53.6,460.6,53.6z M459.2,56.9c0,0.4,0,0.8,0.1,1.2c0.1,0.3,0.2,0.5,0.3,0.7
	c0.1,0.2,0.3,0.3,0.4,0.4c0.2,0.1,0.3,0.1,0.5,0.1c0.2,0,0.3,0,0.5-0.1c0.2-0.1,0.3-0.2,0.4-0.4c0.1-0.2,0.2-0.5,0.3-0.7
	c0.1-0.4,0.1-0.8,0.1-1.2c0-0.4,0-0.8-0.1-1.2c-0.1-0.3-0.2-0.5-0.3-0.7c-0.1-0.2-0.3-0.3-0.4-0.4c-0.3-0.1-0.7-0.1-1,0
	c-0.2,0.1-0.3,0.2-0.4,0.4c-0.1,0.2-0.3,0.5-0.3,0.7C459.3,56.1,459.2,56.5,459.2,56.9L459.2,56.9z"/>
<path class="st2" d="M466.4,53.6c0.3,0,0.7,0.1,1,0.2c0.3,0.1,0.6,0.3,0.8,0.6c0.2,0.3,0.4,0.6,0.5,1c0.1,0.5,0.2,1,0.2,1.5
	c0,0.5-0.1,1-0.2,1.5c-0.1,0.4-0.3,0.7-0.6,1c-0.2,0.3-0.5,0.5-0.8,0.6c-0.3,0.1-0.7,0.2-1,0.2c-0.3,0-0.7-0.1-1-0.2
	c-0.3-0.1-0.6-0.3-0.8-0.6c-0.2-0.3-0.4-0.6-0.5-1c-0.1-0.5-0.2-1-0.2-1.5c0-0.5,0.1-1,0.2-1.4c0.1-0.4,0.3-0.7,0.6-1
	c0.2-0.3,0.5-0.5,0.8-0.6C465.7,53.7,466.1,53.6,466.4,53.6z M465.1,56.9c0,0.4,0,0.8,0.1,1.2c0.1,0.3,0.2,0.5,0.3,0.7
	c0.1,0.2,0.3,0.3,0.4,0.4c0.2,0.1,0.3,0.1,0.5,0.1c0.2,0,0.3,0,0.5-0.1c0.2-0.1,0.3-0.2,0.4-0.4c0.1-0.2,0.2-0.5,0.3-0.7
	c0.1-0.4,0.1-0.8,0.1-1.2c0-0.4,0-0.8-0.1-1.2c-0.1-0.3-0.2-0.5-0.3-0.7c-0.1-0.2-0.3-0.3-0.4-0.4c-0.3-0.1-0.7-0.1-1,0
	c-0.2,0.1-0.3,0.2-0.4,0.4c-0.1,0.2-0.3,0.5-0.3,0.7C465.1,56.1,465.1,56.5,465.1,56.9L465.1,56.9z"/>
<path class="st2" d="M472.3,53.6c0.3,0,0.7,0.1,1,0.2c0.3,0.1,0.6,0.3,0.8,0.6c0.2,0.3,0.4,0.6,0.5,1c0.1,0.5,0.2,1,0.2,1.5
	c0,0.5-0.1,1-0.2,1.5c-0.1,0.4-0.3,0.7-0.6,1c-0.2,0.3-0.5,0.5-0.8,0.6c-0.3,0.1-0.7,0.2-1,0.2c-0.3,0-0.7-0.1-1-0.2
	c-0.3-0.1-0.6-0.3-0.8-0.6c-0.2-0.3-0.4-0.6-0.5-1c-0.1-0.5-0.2-1-0.2-1.5c0-0.5,0.1-1,0.2-1.4c0.1-0.4,0.3-0.7,0.6-1
	c0.2-0.3,0.5-0.5,0.8-0.6C471.6,53.7,471.9,53.6,472.3,53.6z M470.9,56.9c0,0.4,0,0.8,0.1,1.2c0.1,0.3,0.2,0.5,0.3,0.7
	c0.1,0.2,0.3,0.3,0.4,0.4c0.2,0.1,0.3,0.1,0.5,0.1c0.2,0,0.3,0,0.5-0.1c0.2-0.1,0.3-0.2,0.4-0.4c0.1-0.2,0.2-0.5,0.3-0.7
	c0.1-0.4,0.1-0.8,0.1-1.2c0-0.4,0-0.8-0.1-1.2c-0.1-0.3-0.2-0.5-0.3-0.7c-0.1-0.2-0.3-0.3-0.4-0.4c-0.3-0.1-0.7-0.1-1,0
	c-0.2,0.1-0.3,0.2-0.4,0.4c-0.1,0.2-0.3,0.5-0.3,0.7C471,56.1,470.9,56.5,470.9,56.9z"/>
<rect x="185.2" y="84.8" class="st20" width="133" height="20.2"/>
<rect x="320" y="84.8" class="st21" width="121.1" height="20.2"/>
<path class="st19" d="M244.7,92.2c-0.2,0-0.4,0-0.6,0.1c-0.2,0.1-0.4,0.2-0.6,0.4l-0.4-0.7c0.3-0.2,0.5-0.4,0.9-0.5
	c0.3-0.1,0.6-0.1,0.9-0.1c0.3,0,0.6,0,0.9,0.1c0.2,0.1,0.4,0.2,0.6,0.4c0.2,0.2,0.3,0.4,0.4,0.6c0.1,0.2,0.1,0.5,0.1,0.7
	c0,0.5-0.2,1-0.5,1.5c-0.4,0.6-0.9,1.2-1.5,1.7l-0.6,0.6h2.7v0.8h-3.8l-0.2-0.7l0.9-0.9c0.4-0.4,0.7-0.7,0.9-0.9
	c0.2-0.2,0.4-0.5,0.6-0.8c0.1-0.2,0.2-0.4,0.3-0.6c0.1-0.2,0.1-0.4,0.1-0.6c0-0.3-0.1-0.6-0.3-0.8C245.3,92.3,245,92.2,244.7,92.2z"
	/>
<path class="st19" d="M251.7,91.5v0.8h-2.3l-0.2,1.5c0.2,0,0.4,0,0.6,0c0.3,0,0.5,0,0.8,0.1c0.2,0.1,0.5,0.2,0.7,0.3
	c0.2,0.2,0.4,0.4,0.5,0.6c0.1,0.3,0.2,0.6,0.2,0.9c0,0.3-0.1,0.6-0.2,0.8c-0.1,0.3-0.3,0.5-0.5,0.7c-0.2,0.2-0.5,0.4-0.8,0.5
	c-0.6,0.2-1.3,0.2-1.9,0.1c-0.2-0.1-0.5-0.1-0.7-0.2l0.2-0.8c0.2,0.1,0.4,0.1,0.5,0.2c0.2,0.1,0.4,0.1,0.6,0.1
	c0.4,0,0.8-0.1,1.1-0.3c0.3-0.3,0.4-0.6,0.4-1c0-0.4-0.1-0.7-0.4-0.9c-0.3-0.2-0.7-0.3-1.1-0.3c-0.2,0-0.4,0-0.5,0
	c-0.2,0-0.4,0.1-0.6,0.1l0.3-3.2L251.7,91.5z"/>
<path class="st19" d="M256.4,92.2c0,0.2,0,0.5-0.1,0.7c-0.1,0.2-0.2,0.4-0.3,0.6c-0.1,0.2-0.3,0.3-0.5,0.4c-0.2,0.1-0.5,0.2-0.7,0.2
	c-0.2,0-0.5,0-0.7-0.2c-0.2-0.1-0.4-0.2-0.5-0.4c-0.1-0.2-0.2-0.4-0.3-0.6c-0.1-0.2-0.1-0.5-0.1-0.7c0-0.2,0-0.5,0.1-0.7
	c0.1-0.2,0.2-0.4,0.3-0.6c0.1-0.2,0.3-0.3,0.5-0.4c0.4-0.2,1-0.2,1.4,0c0.2,0.1,0.4,0.2,0.5,0.4c0.1,0.2,0.3,0.4,0.3,0.6
	C256.3,91.7,256.4,91.9,256.4,92.2z M255.5,92.2c0-0.2,0-0.3,0-0.5c0-0.1-0.1-0.3-0.1-0.4c-0.1-0.1-0.2-0.2-0.3-0.3
	c-0.2-0.1-0.5-0.1-0.8,0c-0.1,0.1-0.2,0.2-0.3,0.3c-0.1,0.1-0.1,0.3-0.2,0.4c0,0.2,0,0.3,0,0.5c0,0.2,0,0.3,0,0.5
	c0,0.1,0.1,0.3,0.1,0.4c0.1,0.1,0.2,0.2,0.3,0.3c0.1,0.1,0.2,0.1,0.4,0.1c0.3,0,0.5-0.1,0.6-0.4C255.5,92.8,255.6,92.5,255.5,92.2
	L255.5,92.2z M254.3,97.8l4.4-7.5h0.7l-4.4,7.5H254.3z M260.6,96c0,0.2,0,0.5-0.1,0.7c-0.1,0.2-0.2,0.4-0.3,0.6
	c-0.1,0.2-0.3,0.3-0.5,0.4c-0.2,0.1-0.5,0.2-0.7,0.2c-0.2,0-0.5,0-0.7-0.2c-0.2-0.1-0.4-0.2-0.5-0.4c-0.1-0.2-0.2-0.4-0.3-0.6
	c-0.1-0.2-0.1-0.5-0.1-0.7c0-0.2,0-0.5,0.1-0.7c0.1-0.2,0.2-0.4,0.3-0.6c0.1-0.2,0.3-0.3,0.5-0.4c0.4-0.2,1-0.2,1.4,0
	c0.2,0.1,0.4,0.2,0.5,0.4c0.1,0.2,0.3,0.4,0.3,0.6C260.6,95.5,260.6,95.8,260.6,96z M259.8,96c0-0.2,0-0.3,0-0.5
	c0-0.1-0.1-0.3-0.1-0.4c-0.1-0.1-0.2-0.2-0.3-0.3c-0.2-0.1-0.5-0.1-0.8,0c-0.1,0.1-0.2,0.2-0.3,0.3c-0.1,0.1-0.1,0.3-0.2,0.4
	c0,0.2,0,0.3,0,0.5c0,0.2,0,0.3,0,0.5c0,0.1,0.1,0.3,0.1,0.4c0.1,0.1,0.2,0.2,0.3,0.3c0.1,0.1,0.2,0.1,0.4,0.1
	c0.3,0,0.5-0.1,0.6-0.4C259.7,96.6,259.8,96.3,259.8,96z"/>
<path class="st19" d="M373.8,92.2c-0.2,0-0.4,0-0.6,0.1c-0.2,0.1-0.4,0.2-0.6,0.4l-0.5-0.7c0.3-0.2,0.5-0.4,0.9-0.5
	c0.3-0.1,0.6-0.1,0.9-0.1c0.3,0,0.6,0,0.9,0.1c0.2,0.1,0.5,0.2,0.6,0.4c0.2,0.2,0.3,0.4,0.4,0.6c0.1,0.2,0.1,0.5,0.1,0.7
	c0,0.5-0.2,1-0.5,1.5c-0.4,0.6-0.9,1.2-1.5,1.7l-0.6,0.6h2.8v0.8h-3.8l-0.2-0.7l0.9-0.9c0.4-0.4,0.7-0.7,0.9-0.9
	c0.2-0.2,0.4-0.5,0.6-0.8c0.1-0.2,0.2-0.4,0.3-0.6c0.1-0.2,0.1-0.4,0.1-0.6c0-0.3-0.1-0.6-0.3-0.8C374.4,92.3,374.1,92.2,373.8,92.2
	z"/>
<path class="st19" d="M376.9,91.9c0.2-0.2,0.5-0.3,0.8-0.4c0.3-0.1,0.6-0.1,0.8-0.1c0.3,0,0.5,0,0.8,0.1c0.2,0.1,0.4,0.2,0.6,0.3
	c0.2,0.1,0.3,0.3,0.4,0.5c0.1,0.2,0.1,0.4,0.1,0.7c0,0.4-0.1,0.7-0.3,1c-0.2,0.2-0.5,0.4-0.7,0.6c0.4,0.1,0.7,0.3,0.9,0.5
	c0.2,0.3,0.4,0.6,0.4,1c0,0.3-0.1,0.6-0.2,0.8c-0.1,0.2-0.3,0.4-0.5,0.6c-0.2,0.2-0.5,0.3-0.7,0.3c-0.3,0.1-0.6,0.1-0.9,0.1
	c-0.3,0-0.6,0-0.9-0.1c-0.3,0-0.5-0.1-0.8-0.2l0.2-0.8l0.6,0.2c0.2,0.1,0.5,0.1,0.7,0.1c0.2,0,0.3,0,0.5-0.1c0.1,0,0.3-0.1,0.4-0.2
	c0.1-0.1,0.2-0.2,0.3-0.3c0.1-0.1,0.1-0.3,0.1-0.5c0-0.3-0.1-0.6-0.4-0.8c-0.3-0.2-0.6-0.3-1-0.2h-0.7v-0.8h0.6
	c0.3,0,0.7-0.1,0.9-0.3c0.4-0.3,0.5-1,0.1-1.4c0,0,0-0.1-0.1-0.1c-0.2-0.2-0.5-0.3-0.7-0.3c-0.2,0-0.4,0-0.6,0.1
	c-0.2,0.1-0.4,0.2-0.6,0.3L376.9,91.9z"/>
<path class="st19" d="M385.1,92.2c0,0.2,0,0.5-0.1,0.7c-0.1,0.2-0.2,0.4-0.3,0.6c-0.1,0.2-0.3,0.3-0.5,0.4c-0.2,0.1-0.5,0.2-0.7,0.2
	c-0.2,0-0.5,0-0.7-0.2c-0.2-0.1-0.4-0.2-0.5-0.4c-0.1-0.2-0.2-0.4-0.3-0.6c-0.1-0.2-0.1-0.5-0.1-0.7c0-0.2,0-0.5,0.1-0.7
	c0.1-0.2,0.2-0.4,0.3-0.6c0.1-0.2,0.3-0.3,0.5-0.4c0.2-0.1,0.5-0.2,0.7-0.2c0.2,0,0.5,0,0.7,0.2c0.2,0.1,0.4,0.2,0.5,0.4
	c0.1,0.2,0.3,0.4,0.3,0.6C385,91.7,385.1,91.9,385.1,92.2z M384.2,92.2c0-0.2,0-0.3,0-0.5c0-0.1-0.1-0.3-0.1-0.4
	c-0.1-0.1-0.2-0.2-0.3-0.3c-0.1-0.1-0.3-0.1-0.4-0.1c-0.1,0-0.3,0-0.4,0.1c-0.1,0.1-0.2,0.2-0.3,0.3c-0.1,0.1-0.1,0.3-0.2,0.4
	c0,0.2,0,0.3,0,0.5c0,0.2,0,0.3,0,0.5c0,0.1,0.1,0.3,0.1,0.4c0.1,0.1,0.2,0.2,0.3,0.3c0.1,0.1,0.2,0.1,0.4,0.1
	c0.3,0,0.5-0.1,0.6-0.4C384.2,92.8,384.3,92.5,384.2,92.2z M383,97.8l4.4-7.5h0.7l-4.4,7.5H383z M389.3,96c0,0.2,0,0.5-0.1,0.7
	c-0.1,0.2-0.2,0.4-0.3,0.6c-0.1,0.2-0.3,0.3-0.5,0.4c-0.2,0.1-0.5,0.2-0.7,0.2c-0.2,0-0.5,0-0.7-0.2c-0.2-0.1-0.4-0.2-0.5-0.4
	c-0.1-0.2-0.2-0.4-0.3-0.6c-0.1-0.2-0.1-0.5-0.1-0.7c0-0.2,0-0.5,0.1-0.7c0.1-0.2,0.2-0.4,0.3-0.6c0.1-0.2,0.3-0.3,0.5-0.4
	c0.2-0.1,0.5-0.2,0.7-0.2c0.2,0,0.5,0,0.7,0.2c0.2,0.1,0.4,0.2,0.5,0.4c0.1,0.2,0.3,0.4,0.3,0.6C389.3,95.5,389.3,95.8,389.3,96z
	 M388.5,96c0-0.2,0-0.3,0-0.5c0-0.1-0.1-0.3-0.1-0.4c-0.1-0.1-0.2-0.2-0.3-0.3c-0.1-0.1-0.3-0.1-0.4-0.1c-0.1,0-0.3,0-0.4,0.1
	c-0.1,0.1-0.2,0.2-0.3,0.3c-0.1,0.1-0.1,0.3-0.2,0.4c0,0.2,0,0.3,0,0.5c0,0.2,0,0.3,0,0.5c0,0.1,0.1,0.3,0.1,0.4
	c0.1,0.1,0.2,0.2,0.3,0.3c0.1,0.1,0.2,0.1,0.4,0.1c0.3,0,0.5-0.1,0.6-0.4C388.4,96.6,388.5,96.3,388.5,96z"/>
<rect x="185.2" y="137.6" class="st20" width="158.2" height="20.2"/>
<rect x="346.2" y="137.6" class="st21" width="104.6" height="20.2"/>
<path class="st19" d="M257.6,144.3h1v3.9h1v0.8h-1v1.6h-1v-1.6h-3v-0.6L257.6,144.3z M257.2,146.3l-1.4,1.9h1.9v-1.9l0.1-1l0,0
	L257.2,146.3z"/>
<path class="st19" d="M262.9,144.2c0.3,0,0.7,0.1,1,0.2c0.3,0.1,0.6,0.3,0.8,0.6c0.2,0.3,0.4,0.6,0.5,1c0.3,1,0.3,2,0,2.9
	c-0.1,0.4-0.3,0.7-0.5,1c-0.2,0.3-0.5,0.5-0.8,0.6c-0.3,0.1-0.6,0.2-1,0.2c-0.3,0-0.7-0.1-1-0.2c-0.3-0.1-0.6-0.3-0.8-0.6
	c-0.2-0.3-0.4-0.6-0.5-1c-0.1-0.5-0.2-1-0.2-1.5c0-0.5,0.1-1,0.2-1.4c0.1-0.4,0.3-0.7,0.5-1c0.2-0.3,0.5-0.5,0.8-0.6
	C262.3,144.3,262.6,144.2,262.9,144.2z M261.5,147.5c0,0.4,0,0.8,0.1,1.2c0.1,0.3,0.2,0.5,0.3,0.8c0.1,0.2,0.3,0.3,0.5,0.4
	c0.2,0.1,0.4,0.1,0.5,0.1c0.2,0,0.4,0,0.5-0.1c0.2-0.1,0.3-0.2,0.5-0.4c0.1-0.2,0.3-0.5,0.3-0.8c0.1-0.4,0.1-0.8,0.1-1.2
	c0-0.4,0-0.8-0.1-1.2c-0.1-0.3-0.2-0.5-0.3-0.8c-0.1-0.2-0.3-0.3-0.5-0.4c-0.2-0.1-0.4-0.1-0.5-0.1c-0.2,0-0.4,0-0.5,0.1
	c-0.2,0.1-0.3,0.2-0.5,0.4c-0.2,0.2-0.3,0.5-0.3,0.8C261.5,146.6,261.5,147,261.5,147.5z"/>
<path class="st19" d="M269.6,145c0,0.2,0,0.5-0.1,0.7c-0.1,0.2-0.2,0.4-0.3,0.6c-0.1,0.2-0.3,0.3-0.5,0.4c-0.2,0.1-0.5,0.2-0.7,0.1
	c-0.2,0-0.5,0-0.7-0.1c-0.2-0.1-0.4-0.2-0.5-0.4c-0.1-0.2-0.2-0.4-0.3-0.6c-0.1-0.2-0.1-0.5-0.1-0.7c0-0.2,0-0.5,0.1-0.7
	c0.1-0.2,0.2-0.4,0.3-0.6c0.1-0.2,0.3-0.3,0.5-0.4c0.2-0.1,0.5-0.2,0.7-0.1c0.2,0,0.5,0,0.7,0.1c0.2,0.1,0.4,0.2,0.5,0.4
	c0.1,0.2,0.3,0.4,0.3,0.6C269.5,144.5,269.6,144.8,269.6,145z M268.8,145c0-0.2,0-0.3,0-0.5c0-0.1-0.1-0.3-0.1-0.4
	c-0.1-0.1-0.2-0.2-0.3-0.3c-0.1-0.1-0.3-0.1-0.4-0.1c-0.1,0-0.3,0-0.4,0.1c-0.1,0.1-0.2,0.2-0.3,0.3c-0.1,0.1-0.1,0.3-0.2,0.4
	c0,0.2,0,0.3,0,0.5c0,0.2,0,0.3,0,0.5c0,0.1,0.1,0.3,0.1,0.4c0.1,0.1,0.2,0.2,0.3,0.3c0.1,0.1,0.2,0.1,0.4,0.1
	c0.3,0,0.5-0.1,0.6-0.4C268.7,145.6,268.8,145.3,268.8,145L268.8,145z M267.6,150.6l4.4-7.5h0.7l-4.4,7.5H267.6z M273.8,148.8
	c0,0.2,0,0.5-0.1,0.7c-0.1,0.2-0.2,0.4-0.3,0.6c-0.1,0.2-0.3,0.3-0.5,0.4c-0.2,0.1-0.5,0.2-0.7,0.1c-0.2,0-0.5,0-0.7-0.1
	c-0.2-0.1-0.4-0.2-0.5-0.4c-0.1-0.2-0.2-0.4-0.3-0.6c-0.1-0.2-0.1-0.5-0.1-0.7c0-0.2,0-0.5,0.1-0.7c0.1-0.2,0.2-0.4,0.3-0.6
	c0.1-0.2,0.3-0.3,0.5-0.4c0.2-0.1,0.5-0.2,0.7-0.1c0.2,0,0.5,0,0.7,0.1c0.2,0.1,0.4,0.2,0.5,0.4c0.1,0.2,0.3,0.4,0.3,0.6
	C273.8,148.3,273.8,148.6,273.8,148.8L273.8,148.8z M273,148.8c0-0.2,0-0.3,0-0.5c0-0.1-0.1-0.3-0.1-0.4c-0.1-0.1-0.2-0.2-0.3-0.3
	c-0.1-0.1-0.3-0.1-0.4-0.1c-0.1,0-0.3,0-0.4,0.1c-0.1,0.1-0.2,0.2-0.3,0.3c-0.1,0.1-0.1,0.3-0.2,0.4c-0.1,0.3-0.1,0.7,0,1
	c0,0.1,0.1,0.3,0.1,0.4c0.1,0.1,0.2,0.2,0.3,0.3c0.1,0.1,0.2,0.1,0.4,0.1c0.3,0,0.5-0.1,0.6-0.4C273,149.5,273,149.1,273,148.8
	L273,148.8z"/>
<path class="st19" d="M391.1,145c-0.2,0-0.4,0-0.6,0.1c-0.2,0.1-0.4,0.2-0.6,0.4l-0.5-0.7c0.5-0.4,1.1-0.7,1.7-0.6
	c0.3,0,0.6,0,0.9,0.1c0.2,0.1,0.4,0.2,0.6,0.4c0.2,0.2,0.3,0.4,0.4,0.6c0.1,0.2,0.1,0.5,0.1,0.7c0,0.5-0.2,1-0.5,1.5
	c-0.4,0.6-0.9,1.1-1.5,1.7l-0.6,0.6h2.7v0.8h-3.8l-0.2-0.7l0.9-0.9c0.4-0.4,0.6-0.7,0.9-0.9c0.2-0.2,0.4-0.5,0.6-0.8
	c0.1-0.2,0.3-0.4,0.4-0.6c0.1-0.2,0.1-0.4,0.1-0.6c0-0.3-0.1-0.6-0.3-0.8C391.7,145.1,391.4,145,391.1,145z"/>
<path class="st19" d="M396.8,144.2c0.3,0,0.7,0.1,1,0.2c0.3,0.1,0.6,0.3,0.8,0.6c0.2,0.3,0.4,0.6,0.5,1c0.1,0.5,0.2,1,0.2,1.5
	c0,0.5-0.1,1-0.2,1.5c-0.1,0.4-0.3,0.7-0.5,1c-0.2,0.3-0.5,0.5-0.8,0.6c-0.3,0.1-0.6,0.2-1,0.2c-0.3,0-0.7-0.1-1-0.2
	c-0.3-0.1-0.6-0.3-0.8-0.6c-0.2-0.3-0.4-0.6-0.5-1c-0.1-0.5-0.2-1-0.2-1.5c0-0.5,0.1-1,0.2-1.4c0.1-0.4,0.3-0.7,0.5-1
	c0.2-0.3,0.5-0.5,0.8-0.6C396.2,144.3,396.5,144.2,396.8,144.2z M395.4,147.5c0,0.4,0,0.8,0.1,1.2c0.1,0.3,0.2,0.5,0.3,0.8
	c0.1,0.2,0.3,0.3,0.5,0.4c0.2,0.1,0.4,0.1,0.5,0.1c0.2,0,0.4,0,0.5-0.1c0.2-0.1,0.3-0.2,0.5-0.4c0.1-0.2,0.3-0.5,0.3-0.8
	c0.1-0.4,0.1-0.8,0.1-1.2c0-0.4,0-0.8-0.1-1.2c-0.1-0.3-0.2-0.5-0.3-0.8c-0.1-0.2-0.3-0.3-0.5-0.4c-0.2-0.1-0.4-0.1-0.5-0.1
	c-0.2,0-0.4,0-0.5,0.1c-0.2,0.1-0.3,0.2-0.5,0.4c-0.1,0.2-0.3,0.5-0.3,0.8C395.4,146.6,395.4,147,395.4,147.5z"/>
<path class="st19" d="M403.5,145c0,0.2,0,0.5-0.1,0.7c-0.1,0.2-0.2,0.4-0.3,0.6c-0.1,0.2-0.3,0.3-0.5,0.4c-0.2,0.1-0.5,0.2-0.7,0.1
	c-0.2,0-0.5,0-0.7-0.1c-0.2-0.1-0.4-0.2-0.5-0.4c-0.1-0.2-0.3-0.4-0.3-0.6c-0.1-0.2-0.1-0.5-0.1-0.7c0-0.2,0-0.5,0.1-0.7
	c0.1-0.2,0.2-0.4,0.3-0.6c0.1-0.2,0.3-0.3,0.5-0.4c0.2-0.1,0.5-0.2,0.7-0.1c0.2,0,0.5,0,0.7,0.1c0.2,0.1,0.4,0.2,0.5,0.4
	c0.1,0.2,0.3,0.4,0.3,0.6C403.4,144.5,403.5,144.8,403.5,145z M402.6,145c0-0.2,0-0.3,0-0.5c0-0.1-0.1-0.3-0.1-0.4
	c-0.1-0.1-0.1-0.2-0.2-0.3c-0.1-0.1-0.3-0.1-0.4-0.1c-0.1,0-0.3,0-0.4,0.1c-0.1,0.1-0.2,0.2-0.3,0.3c-0.1,0.1-0.1,0.3-0.1,0.4
	c0,0.2-0.1,0.3,0,0.5c0,0.2,0,0.3,0,0.5c0,0.1,0.1,0.3,0.1,0.4c0.1,0.1,0.1,0.2,0.2,0.3c0.1,0.1,0.3,0.1,0.4,0.1
	c0.3,0,0.5-0.1,0.6-0.4C402.6,145.6,402.7,145.3,402.6,145L402.6,145z M401.4,150.6l4.4-7.5h0.7l-4.4,7.5H401.4z M407.7,148.8
	c0,0.2,0,0.5-0.1,0.7c-0.1,0.2-0.2,0.4-0.3,0.6c-0.1,0.2-0.3,0.3-0.5,0.4c-0.2,0.1-0.5,0.2-0.7,0.1c-0.2,0-0.5,0-0.7-0.1
	c-0.2-0.1-0.4-0.2-0.5-0.4c-0.1-0.2-0.3-0.4-0.3-0.6c-0.1-0.2-0.1-0.5-0.1-0.7c0-0.2,0-0.5,0.1-0.7c0.1-0.2,0.2-0.4,0.3-0.6
	c0.1-0.2,0.3-0.3,0.5-0.4c0.2-0.1,0.5-0.2,0.7-0.1c0.2,0,0.5,0,0.7,0.1c0.2,0.1,0.4,0.2,0.5,0.4c0.1,0.2,0.3,0.4,0.3,0.6
	C407.7,148.3,407.7,148.6,407.7,148.8L407.7,148.8z M406.9,148.8c0-0.2,0-0.3,0-0.5c0-0.1-0.1-0.3-0.1-0.4c-0.1-0.1-0.1-0.2-0.2-0.3
	c-0.1-0.1-0.3-0.1-0.4-0.1c-0.1,0-0.3,0-0.4,0.1c-0.1,0.1-0.2,0.2-0.3,0.3c-0.1,0.1-0.1,0.3-0.1,0.4c0,0.2-0.1,0.3,0,0.5
	c0,0.2,0,0.3,0,0.5c0,0.1,0.1,0.3,0.1,0.4c0.1,0.1,0.1,0.2,0.2,0.3c0.1,0.1,0.3,0.1,0.4,0.1c0.3,0,0.5-0.1,0.6-0.4
	C406.8,149.5,406.9,149.1,406.9,148.8L406.9,148.8z"/>
<rect x="185.2" y="190.4" class="st20" width="26.1" height="20.2"/>
<rect x="214.1" y="190.4" class="st21" width="52.7" height="20.2"/>
<path class="st19" d="M195.9,197.1v0.8h-2.3l-0.2,1.5c0.2,0,0.4,0,0.6,0c0.3,0,0.5,0,0.8,0.1c0.3,0.1,0.5,0.2,0.7,0.3
	c0.2,0.2,0.4,0.4,0.5,0.6c0.1,0.3,0.2,0.6,0.2,0.9c0,0.3-0.1,0.6-0.2,0.8c-0.1,0.3-0.3,0.5-0.5,0.7c-0.2,0.2-0.5,0.4-0.8,0.5
	c-0.6,0.2-1.3,0.2-1.9,0.1c-0.2-0.1-0.5-0.1-0.7-0.2l0.2-0.8c0.2,0.1,0.4,0.1,0.5,0.2c0.2,0.1,0.4,0.1,0.6,0.1
	c0.4,0,0.8-0.1,1.1-0.3c0.3-0.2,0.4-0.6,0.4-1c0-0.4-0.1-0.7-0.4-0.9c-0.3-0.2-0.6-0.3-1-0.3h-0.6c-0.2,0-0.4,0.1-0.5,0.1l0.3-3.2
	L195.9,197.1z"/>
<path class="st19" d="M200.5,197.8c0,0.2,0,0.5-0.1,0.7c-0.1,0.2-0.2,0.4-0.3,0.6c-0.1,0.2-0.3,0.3-0.5,0.4
	c-0.2,0.1-0.5,0.2-0.7,0.1c-0.2,0-0.5,0-0.7-0.1c-0.2-0.1-0.4-0.2-0.5-0.4c-0.1-0.2-0.3-0.4-0.3-0.6c-0.1-0.2-0.1-0.5-0.1-0.7
	c0-0.2,0-0.5,0.1-0.7c0.1-0.2,0.2-0.4,0.3-0.6c0.3-0.4,0.8-0.6,1.2-0.6c0.2,0,0.5,0,0.7,0.1c0.2,0.1,0.4,0.2,0.5,0.4
	c0.1,0.2,0.3,0.4,0.3,0.6C200.5,197.3,200.5,197.5,200.5,197.8z M199.7,197.8c0-0.2,0-0.3,0-0.5c0-0.1-0.1-0.3-0.1-0.4
	c-0.1-0.1-0.1-0.2-0.2-0.3c-0.2-0.1-0.5-0.1-0.8,0c-0.1,0.1-0.2,0.2-0.3,0.3c-0.1,0.1-0.1,0.3-0.1,0.4c0,0.2,0,0.3,0,0.5
	c0,0.2,0,0.3,0,0.5c0,0.1,0.1,0.3,0.1,0.4c0.1,0.1,0.1,0.2,0.2,0.3c0.1,0.1,0.3,0.1,0.4,0.1c0.3,0,0.5-0.1,0.6-0.4
	C199.6,198.4,199.7,198.1,199.7,197.8z M198.5,203.4l4.4-7.5h0.7l-4.4,7.5H198.5z M204.7,201.6c0,0.2,0,0.5-0.1,0.7
	c-0.1,0.2-0.2,0.4-0.3,0.6c-0.1,0.2-0.3,0.3-0.5,0.4c-0.2,0.1-0.5,0.2-0.7,0.1c-0.2,0-0.5,0-0.7-0.1c-0.2-0.1-0.4-0.2-0.5-0.4
	c-0.1-0.2-0.3-0.4-0.3-0.6c-0.1-0.2-0.1-0.5-0.1-0.7c0-0.2,0-0.5,0.1-0.7c0.1-0.2,0.2-0.4,0.3-0.6c0.3-0.4,0.8-0.6,1.2-0.6
	c0.2,0,0.5,0,0.7,0.1c0.2,0.1,0.4,0.2,0.5,0.4c0.1,0.2,0.3,0.4,0.3,0.6C204.7,201.1,204.7,201.4,204.7,201.6z M203.9,201.6
	c0-0.2,0-0.3,0-0.5c0-0.1-0.1-0.3-0.1-0.4c-0.2-0.3-0.6-0.5-1-0.3c-0.1,0.1-0.2,0.2-0.3,0.3c-0.1,0.1-0.1,0.3-0.1,0.4
	c-0.1,0.3-0.1,0.7,0,1c0,0.1,0.1,0.3,0.1,0.4c0.1,0.1,0.1,0.2,0.2,0.3c0.1,0.1,0.3,0.1,0.4,0.1c0.3,0,0.5-0.1,0.6-0.4
	C203.9,202.2,203.9,201.9,203.9,201.6z"/>
<path class="st19" d="M233.6,197.1h0.8v6.3h-1v-5.3l-1.1,0.5l-0.2-0.8L233.6,197.1z"/>
<path class="st19" d="M238.3,197c0.3,0,0.7,0.1,1,0.2c0.3,0.1,0.6,0.3,0.8,0.6c0.2,0.3,0.4,0.6,0.5,1c0.3,1,0.3,2,0,3
	c-0.1,0.4-0.3,0.7-0.6,1c-0.2,0.3-0.5,0.5-0.8,0.6c-0.3,0.1-0.7,0.2-1,0.2c-0.3,0-0.7-0.1-1-0.2c-0.3-0.1-0.6-0.3-0.8-0.6
	c-0.2-0.3-0.4-0.6-0.5-1c-0.1-0.5-0.2-1-0.2-1.5c0-0.5,0.1-1,0.2-1.4c0.1-0.4,0.3-0.7,0.6-1c0.2-0.3,0.5-0.5,0.8-0.6
	C237.6,197.1,238,197,238.3,197z M236.9,200.3c0,0.4,0,0.8,0.1,1.2c0.1,0.3,0.2,0.5,0.3,0.8c0.1,0.2,0.3,0.3,0.5,0.4
	c0.2,0.1,0.4,0.1,0.5,0.1c0.2,0,0.4,0,0.5-0.1c0.2-0.1,0.3-0.2,0.5-0.4c0.1-0.2,0.3-0.5,0.3-0.8c0.1-0.4,0.1-0.8,0.1-1.2
	c0-0.4,0-0.8-0.1-1.2c-0.1-0.3-0.2-0.5-0.3-0.8c-0.1-0.2-0.3-0.3-0.5-0.4c-0.2-0.1-0.4-0.1-0.5-0.1c-0.2,0-0.4,0-0.5,0.1
	c-0.2,0.1-0.3,0.2-0.4,0.4c-0.2,0.2-0.3,0.5-0.3,0.8C236.9,199.4,236.9,199.8,236.9,200.3L236.9,200.3z"/>
<path class="st19" d="M244.9,197.8c0,0.2,0,0.5-0.1,0.7c-0.1,0.2-0.2,0.4-0.3,0.6c-0.1,0.2-0.3,0.3-0.5,0.4
	c-0.2,0.1-0.5,0.2-0.7,0.1c-0.2,0-0.5,0-0.7-0.1c-0.2-0.1-0.4-0.2-0.5-0.4c-0.1-0.2-0.2-0.4-0.3-0.6c-0.1-0.2-0.1-0.5-0.1-0.7
	c0-0.2,0-0.5,0.1-0.7c0.1-0.2,0.2-0.4,0.3-0.6c0.1-0.2,0.3-0.3,0.5-0.4c0.4-0.2,1-0.2,1.4,0c0.2,0.1,0.4,0.2,0.5,0.4
	c0.1,0.2,0.3,0.4,0.3,0.6C244.9,197.3,244.9,197.5,244.9,197.8z M244.1,197.8c0-0.2,0-0.3,0-0.5c0-0.1-0.1-0.3-0.1-0.4
	c-0.1-0.1-0.2-0.2-0.3-0.3c-0.2-0.1-0.5-0.1-0.8,0c-0.1,0.1-0.2,0.2-0.3,0.3c-0.1,0.1-0.1,0.3-0.2,0.4c0,0.2,0,0.3-0.1,0.5
	c0,0.2,0,0.3,0,0.5c0,0.1,0.1,0.3,0.1,0.4c0.1,0.1,0.2,0.2,0.3,0.3c0.1,0.1,0.2,0.1,0.4,0.1c0.3,0,0.5-0.1,0.6-0.4
	C244.1,198.4,244.1,198.1,244.1,197.8z M242.9,203.4l4.4-7.5h0.7l-4.4,7.5H242.9z M249.2,201.6c0,0.2,0,0.5-0.1,0.7
	c-0.1,0.2-0.2,0.4-0.3,0.6c-0.1,0.2-0.3,0.3-0.5,0.4c-0.2,0.1-0.5,0.2-0.7,0.1c-0.2,0-0.5,0-0.7-0.1c-0.2-0.1-0.4-0.2-0.5-0.4
	c-0.1-0.2-0.2-0.4-0.3-0.6c-0.1-0.2-0.1-0.5-0.1-0.7c0-0.2,0-0.5,0.1-0.7c0.1-0.2,0.2-0.4,0.3-0.6c0.3-0.4,0.8-0.6,1.2-0.6
	c0.2,0,0.5,0,0.7,0.1c0.2,0.1,0.4,0.2,0.5,0.4c0.1,0.2,0.3,0.4,0.3,0.6C249.1,201.1,249.2,201.4,249.2,201.6z M248.3,201.6
	c0-0.2,0-0.3,0-0.5c0-0.1-0.1-0.3-0.1-0.4c-0.1-0.1-0.2-0.2-0.3-0.3c-0.2-0.1-0.5-0.1-0.8,0c-0.1,0.1-0.2,0.2-0.3,0.3
	c-0.1,0.1-0.1,0.3-0.2,0.4c0,0.2,0,0.3-0.1,0.5c0,0.2,0,0.3,0,0.5c0,0.1,0.1,0.3,0.1,0.4c0.1,0.1,0.2,0.2,0.3,0.3
	c0.1,0.1,0.2,0.1,0.4,0.1c0.3,0,0.5-0.1,0.6-0.4C248.3,202.2,248.4,201.9,248.3,201.6L248.3,201.6z"/>
<rect x="185.2" y="243.2" class="st20" width="17.9" height="20.2"/>
<rect x="204.9" y="243.2" class="st21" width="52.9" height="20.2"/>
<path class="st19" d="M188.1,250.2c0.2-0.2,0.5-0.3,0.8-0.4c0.3-0.1,0.6-0.1,0.8-0.1c0.3,0,0.5,0,0.8,0.1c0.2,0.1,0.4,0.2,0.6,0.3
	c0.2,0.1,0.3,0.3,0.4,0.5c0.2,0.5,0.2,1.1-0.2,1.6c-0.2,0.2-0.4,0.4-0.7,0.6c0.4,0.1,0.7,0.3,0.9,0.5c0.2,0.3,0.4,0.6,0.4,1
	c0,0.3-0.1,0.6-0.2,0.9c-0.1,0.2-0.3,0.4-0.5,0.6c-0.2,0.2-0.5,0.3-0.7,0.3c-0.3,0.1-0.6,0.1-0.9,0.1c-0.3,0-0.6,0-0.9-0.1
	c-0.3,0-0.5-0.1-0.8-0.3l0.2-0.8c0.2,0.1,0.4,0.2,0.6,0.2c0.2,0.1,0.5,0.1,0.7,0.1c0.2,0,0.3,0,0.5-0.1c0.1,0,0.3-0.1,0.4-0.2
	c0.1-0.1,0.2-0.2,0.3-0.3c0.1-0.1,0.1-0.3,0.1-0.5c0-0.3-0.1-0.6-0.4-0.8c-0.3-0.2-0.6-0.3-1-0.3h-0.7v-0.8h0.6
	c0.3,0,0.7-0.1,0.9-0.3c0.2-0.2,0.4-0.5,0.4-0.8c0-0.3-0.1-0.5-0.3-0.7c-0.2-0.2-0.5-0.3-0.7-0.3c-0.2,0-0.4,0-0.6,0.1
	c-0.2,0.1-0.4,0.2-0.6,0.3L188.1,250.2z"/>
<path class="st19" d="M196.2,250.5c0,0.2,0,0.5-0.1,0.7c-0.1,0.2-0.2,0.4-0.3,0.6c-0.1,0.2-0.3,0.3-0.5,0.4
	c-0.2,0.1-0.5,0.2-0.7,0.1c-0.2,0-0.5,0-0.7-0.1c-0.2-0.1-0.4-0.2-0.5-0.4c-0.1-0.2-0.2-0.4-0.3-0.6c-0.1-0.2-0.1-0.5-0.1-0.7
	c0-0.2,0-0.5,0.1-0.7c0.1-0.2,0.2-0.4,0.3-0.6c0.1-0.2,0.3-0.3,0.5-0.4c0.2-0.1,0.5-0.2,0.7-0.1c0.2,0,0.5,0,0.7,0.1
	c0.2,0.1,0.4,0.2,0.5,0.4c0.1,0.2,0.3,0.4,0.3,0.6C196.2,250.1,196.2,250.3,196.2,250.5z M195.4,250.5c0-0.2,0-0.3,0-0.5
	c0-0.1-0.1-0.3-0.1-0.4c-0.1-0.1-0.2-0.2-0.3-0.3c-0.1-0.1-0.3-0.1-0.4-0.1c-0.1,0-0.3,0-0.4,0.1c-0.1,0.1-0.2,0.2-0.3,0.3
	c-0.1,0.1-0.1,0.3-0.2,0.4c0,0.2,0,0.3-0.1,0.5c0,0.2,0,0.3,0.1,0.5c0,0.1,0.1,0.3,0.1,0.4c0.1,0.1,0.2,0.2,0.3,0.3
	c0.1,0.1,0.2,0.1,0.4,0.1c0.3,0,0.5-0.1,0.6-0.4C195.4,251.2,195.4,250.9,195.4,250.5z M194.2,256.2l4.4-7.5h0.7l-4.4,7.5H194.2z
	 M200.4,254.4c0,0.2,0,0.5-0.1,0.7c-0.1,0.2-0.2,0.4-0.3,0.6c-0.1,0.2-0.3,0.3-0.5,0.4c-0.2,0.1-0.5,0.2-0.7,0.2
	c-0.2,0-0.5,0-0.7-0.2c-0.2-0.1-0.4-0.2-0.5-0.4c-0.1-0.2-0.2-0.4-0.3-0.6c-0.1-0.2-0.1-0.5-0.1-0.7c0-0.2,0-0.5,0.1-0.7
	c0.1-0.2,0.2-0.4,0.3-0.6c0.1-0.2,0.3-0.3,0.5-0.4c0.2-0.1,0.5-0.2,0.7-0.1c0.2,0,0.5,0,0.7,0.1c0.2,0.1,0.4,0.2,0.5,0.4
	c0.1,0.2,0.3,0.4,0.3,0.6C200.4,253.9,200.5,254.1,200.4,254.4L200.4,254.4z M199.6,254.4c0-0.2,0-0.3,0-0.5c0-0.1-0.1-0.3-0.1-0.4
	c-0.1-0.1-0.2-0.2-0.3-0.3c-0.1-0.1-0.3-0.1-0.4-0.1c-0.1,0-0.3,0-0.4,0.1c-0.1,0.1-0.2,0.2-0.3,0.3c-0.1,0.1-0.1,0.3-0.2,0.4
	c0,0.2,0,0.3-0.1,0.5c0,0.2,0,0.3,0.1,0.5c0,0.1,0.1,0.3,0.1,0.4c0.1,0.1,0.2,0.2,0.3,0.3c0.1,0.1,0.2,0.1,0.4,0.1
	c0.3,0,0.5-0.1,0.6-0.4C199.6,255,199.7,254.7,199.6,254.4L199.6,254.4z"/>
<path class="st19" d="M224.2,249.9h0.8v6.3h-1v-5.3l-1.1,0.5l-0.2-0.8L224.2,249.9z"/>
<path class="st19" d="M228.9,249.8c0.3,0,0.7,0.1,1,0.2c0.3,0.1,0.6,0.3,0.8,0.6c0.2,0.3,0.4,0.6,0.5,1c0.1,0.5,0.2,1,0.2,1.5
	c0,0.5-0.1,1-0.2,1.5c-0.1,0.4-0.3,0.7-0.6,1c-0.2,0.3-0.5,0.5-0.8,0.6c-0.3,0.1-0.7,0.2-1,0.2c-0.3,0-0.7-0.1-1-0.2
	c-0.3-0.1-0.6-0.3-0.8-0.6c-0.2-0.3-0.4-0.6-0.5-1c-0.1-0.5-0.2-1-0.2-1.5c0-0.5,0.1-1,0.2-1.4c0.1-0.4,0.3-0.7,0.6-1
	C227.5,250.1,228.2,249.8,228.9,249.8L228.9,249.8z M227.5,253c0,0.4,0,0.8,0.1,1.2c0.1,0.3,0.2,0.5,0.3,0.8
	c0.1,0.2,0.3,0.3,0.5,0.4c0.2,0.1,0.4,0.1,0.5,0.1c0.2,0,0.4,0,0.5-0.1c0.2-0.1,0.3-0.2,0.4-0.4c0.2-0.2,0.3-0.5,0.3-0.8
	c0.1-0.4,0.1-0.8,0.1-1.2c0-0.4,0-0.8-0.1-1.2c-0.1-0.3-0.2-0.5-0.3-0.8c-0.1-0.2-0.3-0.3-0.4-0.4c-0.2-0.1-0.4-0.1-0.5-0.1
	c-0.2,0-0.4,0-0.5,0.1c-0.2,0.1-0.3,0.2-0.5,0.4c-0.1,0.2-0.3,0.5-0.3,0.8C227.5,252.2,227.5,252.6,227.5,253z"/>
<path class="st19" d="M235.5,250.5c0,0.2,0,0.5-0.1,0.7c-0.1,0.2-0.2,0.4-0.3,0.6c-0.1,0.2-0.3,0.3-0.5,0.4
	c-0.2,0.1-0.5,0.2-0.7,0.1c-0.2,0-0.5,0-0.7-0.1c-0.2-0.1-0.4-0.2-0.5-0.4c-0.1-0.2-0.3-0.4-0.3-0.6c-0.1-0.5-0.1-1,0-1.4
	c0.1-0.2,0.2-0.4,0.3-0.6c0.1-0.2,0.3-0.3,0.5-0.4c0.2-0.1,0.5-0.2,0.7-0.1c0.2,0,0.5,0,0.7,0.1c0.2,0.1,0.4,0.2,0.5,0.4
	c0.1,0.2,0.3,0.4,0.3,0.6C235.5,250.1,235.5,250.3,235.5,250.5z M234.7,250.5c0-0.2,0-0.3,0-0.5c0-0.1-0.1-0.3-0.1-0.4
	c-0.1-0.1-0.1-0.2-0.2-0.3c-0.1-0.1-0.3-0.1-0.4-0.1c-0.3,0-0.5,0.1-0.7,0.4c-0.1,0.1-0.1,0.3-0.1,0.4c0,0.2,0,0.3-0.1,0.5
	c0,0.2,0,0.3,0,0.5c0,0.1,0.1,0.3,0.1,0.4c0.1,0.1,0.1,0.2,0.2,0.3c0.1,0.1,0.3,0.1,0.4,0.1c0.3,0,0.5-0.1,0.6-0.4
	C234.7,251.2,234.7,250.9,234.7,250.5L234.7,250.5z M233.5,256.2l4.4-7.5h0.7l-4.4,7.5H233.5z M239.8,254.4c0,0.2,0,0.5-0.1,0.7
	c-0.1,0.2-0.2,0.4-0.3,0.6c-0.1,0.2-0.3,0.3-0.5,0.4c-0.2,0.1-0.5,0.2-0.7,0.2c-0.2,0-0.5,0-0.7-0.2c-0.2-0.1-0.4-0.2-0.5-0.4
	c-0.1-0.2-0.3-0.4-0.3-0.6c-0.1-0.5-0.1-1,0-1.4c0.1-0.2,0.2-0.4,0.3-0.6c0.1-0.2,0.3-0.3,0.5-0.4c0.2-0.1,0.5-0.2,0.7-0.1
	c0.2,0,0.5,0,0.7,0.1c0.2,0.1,0.4,0.2,0.5,0.4c0.1,0.2,0.3,0.4,0.3,0.6C239.7,253.9,239.8,254.1,239.8,254.4L239.8,254.4z
	 M238.9,254.4c0-0.2,0-0.3,0-0.5c0-0.1-0.1-0.3-0.1-0.4c-0.1-0.1-0.1-0.2-0.2-0.3c-0.2-0.1-0.5-0.1-0.8,0c-0.1,0.1-0.2,0.2-0.3,0.3
	c-0.1,0.1-0.1,0.3-0.1,0.4c0,0.2,0,0.3,0,0.5c0,0.2,0,0.3,0,0.5c0,0.1,0.1,0.3,0.1,0.4c0.1,0.1,0.1,0.2,0.2,0.3
	c0.1,0.1,0.3,0.1,0.4,0.1c0.3,0,0.5-0.1,0.6-0.4C238.9,255,239,254.7,238.9,254.4L238.9,254.4z"/>
<rect x="185.2" y="296" class="st20" width="144.1" height="20.2"/>
<rect x="331.5" y="296" class="st21" width="196" height="20.2"/>
<rect x="293.5" y="345.4" class="st20" width="17" height="17"/>
<rect x="399.4" y="345.4" class="st21" width="17" height="17"/>
<path class="st19" d="M250.2,303.4c-0.2,0-0.4,0-0.6,0.1c-0.2,0.1-0.4,0.2-0.6,0.4l-0.4-0.7c0.3-0.2,0.5-0.4,0.9-0.5
	c0.3-0.1,0.6-0.2,0.9-0.2c0.3,0,0.6,0,0.9,0.2c0.2,0.1,0.4,0.2,0.6,0.4c0.2,0.2,0.3,0.4,0.4,0.6c0.1,0.2,0.1,0.5,0.1,0.7
	c0,0.5-0.2,1-0.5,1.5c-0.4,0.6-0.9,1.2-1.5,1.7l-0.6,0.6h2.7v0.9h-3.8l-0.2-0.7l0.9-0.9c0.4-0.4,0.7-0.7,0.9-0.9
	c0.2-0.2,0.4-0.5,0.6-0.8c0.1-0.2,0.3-0.4,0.3-0.6c0.1-0.2,0.1-0.4,0.1-0.6c0-0.3-0.1-0.6-0.3-0.8
	C250.8,303.5,250.5,303.4,250.2,303.4z"/>
<path class="st19" d="M257.5,302.7v0.7l-2.7,5.8l-0.9-0.4l2.6-5.3h-3v-0.8H257.5z"/>
<path class="st19" d="M262,303.3c0,0.2,0,0.5-0.1,0.7c-0.1,0.2-0.2,0.4-0.3,0.6c-0.1,0.2-0.3,0.3-0.5,0.4c-0.2,0.1-0.5,0.2-0.7,0.2
	c-0.2,0-0.5,0-0.7-0.2c-0.2-0.1-0.4-0.2-0.5-0.4c-0.1-0.2-0.2-0.4-0.3-0.6c-0.1-0.2-0.1-0.5-0.1-0.7c0-0.2,0-0.5,0.1-0.7
	c0.1-0.2,0.2-0.4,0.3-0.6c0.1-0.2,0.3-0.3,0.5-0.4c0.4-0.2,1-0.2,1.4,0c0.2,0.1,0.4,0.2,0.5,0.4c0.1,0.2,0.3,0.4,0.3,0.6
	C262,302.8,262,303.1,262,303.3z M261.2,303.3c0-0.2,0-0.3,0-0.5c0-0.1-0.1-0.3-0.1-0.4c-0.1-0.1-0.2-0.2-0.3-0.3
	c-0.1-0.1-0.3-0.1-0.4-0.1c-0.1,0-0.3,0-0.4,0.1c-0.1,0.1-0.2,0.2-0.3,0.3c-0.1,0.1-0.1,0.3-0.2,0.4c0,0.2,0,0.3,0,0.5
	c0,0.2,0,0.3,0,0.5c0,0.1,0.1,0.3,0.1,0.4c0.1,0.1,0.2,0.2,0.3,0.3c0.1,0.1,0.2,0.1,0.4,0.1c0.3,0,0.5-0.1,0.6-0.4
	C261.2,304,261.2,303.6,261.2,303.3L261.2,303.3z M260,309l4.4-7.5h0.7l-4.4,7.5H260z M266.2,307.2c0,0.2,0,0.5-0.1,0.7
	c-0.1,0.2-0.2,0.4-0.3,0.6c-0.1,0.2-0.3,0.3-0.5,0.4c-0.2,0.1-0.5,0.2-0.7,0.2c-0.2,0-0.5,0-0.7-0.2c-0.2-0.1-0.4-0.2-0.5-0.4
	c-0.1-0.2-0.2-0.4-0.3-0.6c-0.1-0.2-0.1-0.5-0.1-0.7c0-0.2,0-0.5,0.1-0.7c0.1-0.2,0.2-0.4,0.3-0.6c0.1-0.2,0.3-0.3,0.5-0.4
	c0.4-0.2,1-0.2,1.4,0c0.2,0.1,0.4,0.2,0.5,0.4c0.1,0.2,0.3,0.4,0.3,0.6C266.2,306.7,266.2,306.9,266.2,307.2L266.2,307.2z
	 M265.4,307.2c0-0.2,0-0.3,0-0.5c0-0.1-0.1-0.3-0.1-0.4c-0.1-0.1-0.2-0.3-0.3-0.3c-0.2-0.1-0.5-0.1-0.8,0c-0.1,0.1-0.2,0.2-0.3,0.3
	c-0.1,0.1-0.1,0.3-0.2,0.4c0,0.2,0,0.3,0,0.5c0,0.2,0,0.3,0,0.5c0,0.1,0.1,0.3,0.1,0.4c0.1,0.1,0.2,0.2,0.3,0.3
	c0.1,0.1,0.2,0.1,0.4,0.1c0.3,0,0.5-0.1,0.6-0.4C265.4,307.8,265.4,307.5,265.4,307.2L265.4,307.2z"/>
<path class="st19" d="M420.7,303c0.2-0.2,0.5-0.3,0.8-0.4c0.3-0.1,0.6-0.1,0.8-0.1c0.3,0,0.5,0,0.8,0.1c0.2,0.1,0.4,0.2,0.6,0.3
	c0.2,0.1,0.3,0.3,0.4,0.5c0.1,0.2,0.1,0.4,0.1,0.6c0,0.4-0.1,0.7-0.3,1c-0.2,0.2-0.4,0.4-0.7,0.5c0.4,0.1,0.7,0.3,0.9,0.5
	c0.2,0.3,0.4,0.6,0.4,1c0,0.3-0.1,0.6-0.2,0.8c-0.1,0.2-0.3,0.4-0.5,0.6c-0.2,0.2-0.5,0.3-0.7,0.3c-0.3,0.1-0.6,0.1-0.9,0.1
	c-0.3,0-0.6,0-0.9-0.1c-0.3,0-0.5-0.1-0.8-0.3l0.2-0.8c0.2,0.1,0.4,0.2,0.6,0.2c0.2,0.1,0.5,0.1,0.7,0.1c0.2,0,0.3,0,0.5-0.1
	c0.1,0,0.3-0.1,0.4-0.2c0.1-0.1,0.2-0.2,0.3-0.3c0.1-0.1,0.1-0.3,0.1-0.5c0-0.3-0.1-0.6-0.4-0.8c-0.3-0.2-0.6-0.3-1-0.3h-0.8v-0.8
	h0.6c0.3,0,0.7-0.1,0.9-0.3c0.2-0.2,0.4-0.5,0.4-0.8c0-0.3-0.1-0.5-0.3-0.7c-0.2-0.2-0.5-0.3-0.7-0.3c-0.2,0-0.4,0-0.6,0.1
	c-0.2,0.1-0.4,0.2-0.6,0.3L420.7,303z"/>
<path class="st19" d="M429.8,302.7v0.7l-2.7,5.8l-0.9-0.4l2.6-5.3h-3v-0.8H429.8z"/>
<path class="st19" d="M434.2,303.3c0,0.2,0,0.5-0.1,0.7c-0.1,0.2-0.2,0.4-0.3,0.6c-0.1,0.2-0.3,0.3-0.5,0.4
	c-0.2,0.1-0.5,0.2-0.7,0.2c-0.2,0-0.5,0-0.7-0.2c-0.2-0.1-0.4-0.2-0.5-0.4c-0.1-0.2-0.2-0.4-0.3-0.6c-0.1-0.2-0.1-0.5-0.1-0.7
	c0-0.2,0-0.5,0.1-0.7c0.1-0.2,0.2-0.4,0.3-0.6c0.1-0.2,0.3-0.3,0.5-0.4c0.2-0.1,0.5-0.2,0.7-0.1c0.5,0,0.9,0.2,1.2,0.6
	c0.1,0.2,0.3,0.4,0.3,0.6C434.2,302.8,434.3,303.1,434.2,303.3z M433.4,303.3c0-0.2,0-0.3,0-0.5c0-0.1-0.1-0.3-0.1-0.4
	c-0.1-0.1-0.1-0.2-0.3-0.3c-0.1-0.1-0.3-0.1-0.4-0.1c-0.1,0-0.3,0-0.4,0.1c-0.1,0.1-0.2,0.2-0.3,0.3c-0.1,0.1-0.1,0.3-0.2,0.4
	c0,0.2,0,0.3,0,0.5c0,0.2,0,0.3,0,0.5c0,0.1,0.1,0.3,0.1,0.4c0.1,0.1,0.2,0.2,0.3,0.3c0.1,0.1,0.2,0.1,0.4,0.1
	c0.3,0,0.5-0.1,0.6-0.4C433.4,304,433.5,303.6,433.4,303.3z M432.2,309l4.4-7.5h0.7l-4.4,7.5H432.2z M438.5,307.2
	c0,0.2,0,0.5-0.1,0.7c-0.1,0.2-0.2,0.4-0.3,0.6c-0.1,0.2-0.3,0.3-0.5,0.4c-0.2,0.1-0.5,0.2-0.7,0.1c-0.2,0-0.5,0-0.7-0.1
	c-0.2-0.1-0.4-0.2-0.5-0.4c-0.1-0.2-0.2-0.4-0.3-0.6c-0.1-0.2-0.1-0.5-0.1-0.7c0-0.2,0-0.5,0.1-0.7c0.1-0.2,0.2-0.4,0.3-0.6
	c0.1-0.2,0.3-0.3,0.5-0.4c0.2-0.1,0.5-0.2,0.7-0.2c0.5,0,0.9,0.2,1.2,0.6c0.1,0.2,0.3,0.4,0.3,0.6
	C438.4,306.7,438.5,306.9,438.5,307.2L438.5,307.2z M437.7,307.2c0-0.2,0-0.3,0-0.5c0-0.1-0.1-0.3-0.1-0.4c-0.1-0.1-0.1-0.2-0.3-0.3
	c-0.1-0.1-0.3-0.1-0.4-0.1c-0.1,0-0.3,0-0.4,0.1c-0.1,0.1-0.2,0.2-0.3,0.3c-0.1,0.1-0.1,0.3-0.2,0.4c0,0.2,0,0.3,0,0.5
	c0,0.2,0,0.3,0,0.5c0,0.1,0.1,0.3,0.1,0.4c0.1,0.1,0.2,0.2,0.3,0.3c0.1,0.1,0.2,0.1,0.4,0.1c0.3,0,0.5-0.1,0.6-0.4
	C437.6,307.8,437.7,307.5,437.7,307.2L437.7,307.2z"/>
</svg>
