<?xml version="1.0" encoding="UTF-8"?><svg id="a" xmlns="http://www.w3.org/2000/svg" width="27" height="190.59" viewBox="0 0 27 190.59"><path d="m13.5,1.28C6.6,1.28,1,6.88,1,13.78s5.6,12.5,12.5,12.5,12.5-5.6,12.5-12.5S20.4,1.28,13.5,1.28Zm3.57,13.44l-2.19-.1v7.06h-3.73v-7.06h-1.42v-3.73h1.41v-1.61c0-1.65.9-3.41,3.42-3.41h2.63v3.32h-2.04c-.11,0-.17.01-.17.22v1.48h2.29l-.34,3.73.13.1Z" fill="#1877f2"/><path d="m13.5,32.21c-6.9,0-12.5,5.6-12.5,12.5s5.6,12.5,12.5,12.5,12.5-5.6,12.5-12.5-5.6-12.5-12.5-12.5Z" fill="#1d9bf0"/><path d="m13.5,63.14c-6.9,0-12.5,5.6-12.5,12.5s5.6,12.5,12.5,12.5,12.5-5.6,12.5-12.5-5.6-12.5-12.5-12.5Zm0,20.22c-1.09,0-1.97-.88-1.97-1.97h3.93c0,1.09-.88,1.97-1.97,1.97Zm6.74-2.81c0,.15-.13.28-.28.28H7.04c-.16,0-.28-.13-.28-.28v-.84c0-.62.5-1.12,1.12-1.12.31,0,.56-.25.56-.56v-3.37c0-2.36,1.61-4.33,3.79-4.89v-.58c0-.7.57-1.26,1.26-1.26s1.26.56,1.26,1.26v.58c2.18.56,3.79,2.54,3.79,4.89v3.37c0,.31.25.56.56.56.62,0,1.12.5,1.12,1.12v.84Z" fill="#f05455"/><path d="m13.5,94.07c-6.9,0-12.5,5.6-12.5,12.5s5.6,12.5,12.5,12.5,12.5-5.6,12.5-12.5-5.6-12.5-12.5-12.5Z" fill="#666"/><path d="m13.5,124.99c-6.9,0-12.5,5.6-12.5,12.5s5.6,12.5,12.5,12.5,12.5-5.6,12.5-12.5-5.6-12.5-12.5-12.5Z" fill="#fc6a00"/><path d="m13.5,155.92c-6.9,0-12.5,5.6-12.5,12.5,0,5.56,3.63,10.26,8.64,11.89-.1-.81-.23-2.45.1-3.86.22-.93,1.47-6.24,1.47-6.24,0,0-.37-.73-.37-1.81,0-1.7.99-2.96,2.21-2.96,1.04,0,1.54.78,1.54,1.72,0,1.05-.66,2.61-1.01,4.06-.29,1.21.61,2.2,1.81,2.2,2.17,0,3.63-2.78,3.63-6.09,0-2.51-1.69-4.38-4.76-4.38-3.47,0-5.64,2.59-5.64,5.48,0,1,.29,1.7.76,2.24.21.25.24.35.16.64-.06.21-.18.72-.23.92-.08.29-.31.39-.57.29-1.6-.65-2.34-2.4-2.34-4.37,0-3.25,2.74-7.15,8.18-7.15,4.37,0,7.25,3.16,7.25,6.56,0,4.49-2.5,7.84-6.18,7.84-1.24,0-2.4-.67-2.79-1.43,0,0-.67,2.64-.81,3.14-.38,1.36-1.3,2.72-1.78,3.37,1.03.28,2.11.44,3.23.44,6.9,0,12.5-5.6,12.5-12.5s-5.6-12.5-12.5-12.5Z" fill="#e60023"/><path d="m22.58,40.07c-.57.23-1.18.39-1.82.46.68-.4,1.2-1.01,1.48-1.75.02-.05-.03-.09-.08-.06-.64.35-1.34.61-2.08.76-.63-.66-1.53-1.08-2.53-1.08-1.91,0-3.47,1.53-3.47,3.41,0,.27.03.53.09.78-2.87-.14-5.42-1.49-7.13-3.54,0-.01-.03,0-.03,0-.29.5-.46,1.08-.46,1.69,0,1.16.59,2.18,1.48,2.8.02.01,0,.04-.01.04-.53-.03-1.03-.17-1.47-.41-.01,0-.03,0-.03.02,0,.15.06.82.23,1.25.44,1.06,1.38,1.88,2.55,2.11-.29.08-.6.12-.92.12-.21,0-.42-.02-.62-.06-.01,0-.03.01-.02.03.45,1.32,1.69,2.29,3.17,2.34.02,0,.03.03.01.04-1.18.9-2.65,1.43-4.26,1.43-.28,0-.55-.02-.83-.05,1.53.97,3.36,1.53,5.31,1.53,2.7,0,4.88-.93,6.49-2.34,1.63-1.43,2.69-3.35,3.13-5.3.16-.69.24-1.38.24-2.06,0-.15,0-.29-.01-.44.63-.45,1.18-.99,1.62-1.62.03-.04-.01-.1-.06-.08Z" fill="#fff"/><path d="m20.12,132.39H6.88c-.63,0-1.14.51-1.14,1.14v7.91c0,.63.51,1.14,1.14,1.14h13.24c.63,0,1.14-.51,1.14-1.14v-7.91c0-.63-.51-1.14-1.14-1.14Zm.22,2.16l-6.7,3.72s-.08.03-.13.03h-.03s-.09,0-.13-.03l-6.83-3.85c-.13-.07-.04-.94.04-1.06.07-.13.23-.18.36-.1l6.59,3.66,6.59-3.66c.13-.07.28-.03.36.1.07.13.15,1.05.03,1.12l-.14.08Z" fill="#fff"/><path d="m6.94,99.7c-.12,0-.23.05-.31.13-.08.08-.13.19-.13.31v5.3c0,.12.05.23.13.31s.19.13.31.13h5.31c.12,0,.23-.05.31-.13s.13-.19.13-.31v-5.3c0-.12-.05-.23-.13-.31-.08-.08-.19-.13-.31-.13h-5.31Zm7.81,0c-.12,0-.23.05-.31.13-.08.08-.13.19-.13.31v5.3c0,.12.05.23.13.31.08.08.19.13.31.13h5.3c.12,0,.23-.05.31-.13.08-.08.13-.19.13-.31v-5.3c0-.12-.05-.23-.13-.31-.08-.08-.19-.13-.31-.13h-5.3Zm-6.57,1.22h2.83c.26,0,.46.21.46.46v2.83c0,.26-.21.46-.46.46h-2.83c-.26,0-.46-.21-.46-.46v-2.83c0-.26.21-.46.46-.46Zm6.53,6.6h0c-.11.01-.21.06-.28.14-.07.08-.11.19-.11.29v2.65c0,.12.05.23.13.31.08.08.19.13.31.13h2.21v2.22c0,.12.05.23.13.31.08.08.19.13.31.13h2.65c.12,0,.23-.05.31-.13.08-.08.13-.19.13-.31v-2.65c0-.12-.05-.23-.13-.31-.08-.08-.19-.13-.31-.13h-2.21v-2.21c0-.12-.05-.23-.13-.31-.08-.08-.19-.13-.31-.13h-2.65s-.03,0-.04,0h0Zm-7.81,0c-.11.01-.21.06-.28.14-.07.08-.11.19-.11.29v5.3c0,.12.05.23.13.31.08.08.19.13.31.13h5.31c.12,0,.23-.05.31-.13.08-.08.13-.19.13-.31v-5.3c0-.12-.05-.23-.13-.31s-.19-.13-.31-.13h-5.31s-.03,0-.04,0h0Zm1.47,1.47h2.44c.22,0,.4.18.4.4v2.44c0,.22-.18.4-.4.4h-2.44c-.22,0-.4-.18-.4-.4v-2.44c0-.22.18-.4.4-.4Z" fill="#fff"/></svg>