<?xml version="1.0" encoding="UTF-8"?>
<svg id="Layer_1" data-name="Layer 1" xmlns="http://www.w3.org/2000/svg" viewBox="0 0 30 30">
  <defs>
    <style>
      .cls-1 {
        fill: #06c;
        stroke-width: 0px;
      }
    </style>
  </defs>
  <path class="cls-1" d="M8.41,19.37c-.45,0-.82.37-.82.82s.37.82.82.82.82-.37.82-.82-.37-.82-.82-.82Z"/>
  <path class="cls-1" d="M15,1C7.27,1,1,7.27,1,15s6.27,14,14,14,14-6.27,14-14S22.73,1,15,1ZM10.05,21.66l-4.21.03v-1.01s0-7.13,0-7.13c0-.48.49-1.1.96-1.1h2.42c.41,0,.74.29.83.68v8.54ZM23.34,15.82s.4,2.34-.9,3.09c0,0,.53,2.13-.9,3.04,0,0,.07,2-1.57,2.51-.84.26-2.08-.04-2.08-.04-1.26-.35-4.05-.99-6.06-1.48-.62-.15-1.13-.55-1.43-1.08v-9.07c1.35-1.75,2.7-3.49,4.05-5.24.41-.53,1.23-2.07,1.85-2.14.61-.07,1.36.75,1.61,1.19,1.06,1.79-2.51,3.33-1.37,5.2h5.52c.96,0,1.69.19,1.97.87,0,0,1.06,1.96-.69,3.14Z"/>
</svg>