<?xml version="1.0" encoding="UTF-8"?><svg id="a" xmlns="http://www.w3.org/2000/svg" width="135" height="135" viewBox="0 0 135 135"><path d="m68.28,75.63c-15.03,0-24.73-14.53-24.73-37.03s14.69-25.81,23.45-25.81c7.6,0,13.23,1.97,16.75,5.87,4.67,4.82,6.68,12.16,6.68,24.49,0,16.17-6.85,32.48-22.15,32.48Z" fill="#eeeeee"/><path d="m120.81,135.2H14.19v-36.22c0-10.5,16.06-23.98,37.57-26.31l1.68-.18-.04,1.69c0,.12,0,3.17,2.53,5.74,2.35,2.38,6.12,3.59,11.2,3.59,13.8,0,14.55-9.07,14.58-9.45l.1-1.56,1.55.18c1.53.19,37.45,4.83,37.45,26.31v36.22h0Z" fill="#eeeeee"/></svg>