<svg id="Layer_1" data-name="Layer 1" xmlns="https://www.w3.org/2000/svg" width="290" height="58" viewBox="0 0 290 58"><defs><style>.cls-1{fill:#00246d;}.cls-2{fill:#11a811;}</style></defs><path class="cls-1" d="M22.3,25.49c-4.29-3.16-8-5.9-8-10.12,0-2.8,1.08-3.89,3.84-3.89S22,12.57,22,15.37v3.18H33.45V15.88C33.45,7,27.92,2.11,17.87,2.11S2.29,7,2.29,15.88c0,8.35,6,12.75,11.24,16.63,4.3,3.16,8,5.9,8,10.12,0,2.71-1.16,3.82-4,3.82s-4-1.11-4-3.82V37.94H2v4.18C2,51,7.62,55.89,17.78,55.89S33.54,51,33.54,42.12C33.54,33.77,27.57,29.37,22.3,25.49Z"/><polygon class="cls-1" points="63.38 33.94 57.06 2.69 41.4 2.69 41.4 55.32 52.16 55.32 52.16 29.18 57.53 55.32 68.61 55.32 73.44 29.65 73.44 55.32 84.91 55.32 84.91 2.69 69.24 2.69 63.38 33.94"/><path class="cls-1" d="M102,2.68,91.55,55.32H102.8l1.7-9.16h10.28l1.71,9.16h12.15L118.18,2.68Zm11,34.47h-6.88l3.44-18.53Z"/><path class="cls-1" d="M167,48.11V40.32c0-5.33-1.62-8.81-5.06-10.79,3.3-2,5-5.46,5-10.19v-4c0-8.53-5.12-12.69-15.67-12.69H135.28V55.32h12V34.77h2.32c4,0,5.36,1.34,5.36,5.33V48c0,4.06.35,5.09.95,6.55l1-.35-1,.42.28.67h12.53l-.83-1.59C167,52.05,167,50.41,167,48.11Zm-12.1-31.94v5c0,3.06-1.35,4.26-4.82,4.26h-2.77V12.06h3.66C153.85,12.06,154.87,13.13,154.87,16.17Z"/><polygon class="cls-1" points="172.86 2.69 172.86 12.06 183.15 12.06 183.15 55.32 195.16 55.32 195.16 12.06 205.45 12.06 205.45 2.69 172.86 2.69"/><path class="cls-2" d="M228.71,2.68H212.06V55.32h16.65c13,0,15.76-7.38,15.76-13.56V16.24C244.47,10.06,241.74,2.68,228.71,2.68Zm-4.64,9.38h4.46c2.83,0,3.93,1.07,3.93,3.82V42.12c0,2.75-1.1,3.82-3.93,3.82h-4.46Z"/><polygon class="cls-2" points="276.51 28.28 287.25 2.69 275.77 2.69 268.9 19.48 262.2 2.69 249.64 2.69 260.38 28.28 248.91 55.32 260.49 55.32 267.9 37.14 275.23 55.32 287.98 55.32 276.51 28.28"/></svg>