<?xml version="1.0" encoding="UTF-8"?>
<svg id="Layer_1" xmlns="http://www.w3.org/2000/svg" width="76" height="84" viewBox="0 0 76 84">
  <defs>
    <style>
      .cls-1 {
        fill: none;
        stroke: #fff;
        stroke-linecap: round;
        stroke-linejoin: round;
        stroke-width: 2px;
      }

      .cls-2 {
        fill: #fff;
      }
    </style>
  </defs>
  <path class="cls-1" d="M12.58,68.74c-1.22,1-1.88,2.51-1.88,4.08v7.17c0,1.02.83,1.85,1.85,1.85h50.91c1.02,0,1.85-.84,1.85-1.86v-7.17c0-1.58-.66-3.09-1.88-4.08-3.85-3.14-10.36-6.36-15.45-8.93.02-.1.06-.19.08-.29.09-.51.49-2.71.24-3.1-.25-.39-1.01-.49-1.41-.73-.35-.21-.71-.39-1.08-.57-.12-.07-.26-.06-.38-.1,1.69-1.15,3.23-5.76,3.51-7.54.71-.14,1.57-.97,2.42-4.01,1.28-4.15,0-4.84-1.14-4.7,0,0,2.99-9.96-4.28-14.24,0,0,1.28-.97,1.14-2.49,0,0-7.13.83-10.55.14-3.42-.69-7.13,1.94-7.7,4.42,0,0-7.27-.55-4.13,12.17,0,0,0,.28.14.69h-.29c-.86.28-1.43,1.38-.43,4.7,1.14,4.01,2.14,4.29,2.85,3.87.28,1.35,1.52,5.87,3.49,6.93-.13-.07-1.39.5-1.63.59-.93.36-.98.3-.98.71,0,.88.03,1.94.19,2.81,0,0-11.63,6.53-15.48,9.67Z"/>
  <g>
    <path class="cls-1" d="M21.93,21.95c-8.26-1.68-14.93-4.79-14.93-9.15,0-5.16,10.87-10.65,31-10.65s31,5.49,31,10.65c0,3.16-3.99,6.59-12.62,8.69"/>
    <polygon class="cls-2" points="56.6 18.34 52.16 22.35 57.85 24.19 56.6 18.34"/>
  </g>
</svg>