<svg width="140" height="32" viewBox="0 0 140 32" xmlns="http://www.w3.org/2000/svg" xmlns:xlink="http://www.w3.org/1999/xlink" id="a" overflow="hidden"><defs></defs><path d="M24.46 19.06 24.46 19.06C23.8 18.24 23.3 17.71 22.92 17.44 22.83 17.37 22.72 17.3 22.61 17.24 22.99 17.08 23.34 16.91 23.64 16.73 24.91 15.96 25.92 14.95 26.65 13.71 27.38 12.46 27.75 10.97 27.75 9.28 27.75 7.34 27.26 5.66 26.31 4.28 25.34 2.9 24.05 1.93 22.48 1.42 21 0.94 18.86 0.7 16.12 0.7L0.93 0.7 0.93 30.24 11.27 30.24 11.27 18.94C11.85 18.96 12.35 19.11 12.79 19.42 12.99 19.56 13.41 19.99 14.1 21.28L18.94 30.23 30.56 30.23 25.76 20.93C25.53 20.47 25.1 19.85 24.46 19.05ZM11.28 8.02 14.21 8.02C15.99 8.02 16.64 8.35 16.87 8.54 17.25 8.86 17.42 9.31 17.42 9.96 17.42 10.38 17.3 10.73 17.06 11.06 16.82 11.37 16.54 11.55 16.15 11.62 14.76 11.93 14.24 11.98 14.06 11.98L11.28 11.98 11.28 8.02Z" stroke-width="0" fill="#000080"/><path d="M42.27 18.9 55.14 18.9 55.14 11.78 42.27 11.78 42.27 9.19 56.15 9.19 56.15 1.82 32.33 1.82 32.33 30.23 56.55 30.23 56.55 22.52 42.27 22.52 42.27 18.9Z" stroke-width="0" fill="#000080"/><path d="M80.04 13.6C78.2 12.64 76.11 12.08 74.15 11.61 72.75 11.27 71.29 11.06 69.92 10.57 69.66 10.48 69.39 10.36 69.2 10.15 68.62 9.49 68.89 8.42 69.58 7.97 70.03 7.68 70.59 7.59 71.12 7.59 71.61 7.59 72.11 7.65 72.58 7.81 73.37 8.1 73.92 8.71 74.32 9.43 74.56 9.87 74.86 10.56 74.86 10.56L84.37 10.43 84.25 9.75C83.87 6.6 82.62 4.26 80.56 2.79 78.56 1.36 75.66 0.64 71.94 0.64 68.94 0.64 66.53 1.03 64.76 1.81 62.95 2.61 61.56 3.73 60.65 5.15 59.73 6.57 59.26 8.11 59.26 9.72 59.26 12.17 60.18 14.7 61.99 16.28 63.7 17.78 66.54 18.99 70.43 19.87 71.24 20.05 72.06 20.25 72.85 20.52 73.79 20.84 75.34 21.53 75.12 22.79 75.06 23.15 74.8 23.45 74.49 23.66 73.25 24.49 71 24.25 69.8 23.45 68.59 22.65 68.2 21.86 67.69 20.59L67.61 20.34 58.14 20.44C58.14 20.44 58.22 21.36 58.22 21.36 58.47 24.32 59.63 26.67 61.93 28.63 64.7 31 68.49 31.35 72 31.35 74.8 31.35 77.17 30.93 79.04 30.1 80.96 29.25 82.47 27.99 83.55 26.34 84.63 24.69 85.29 22.88 85.17 20.87 85.07 19.21 84.45 17.59 83.42 16.29 82.51 15.13 81.34 14.27 80.05 13.6Z" stroke-width="0" fill="#000080"/><path d="M104.38 19.17C104.38 20.47 104.05 21.46 103.41 22.13 102.76 22.81 101.85 23.14 100.65 23.14 99.45 23.14 98.53 22.81 97.87 22.12 97.21 21.43 96.9 20.46 96.9 19.17L96.9 1.8 86.99 1.8 86.99 18.78C86.99 20.22 87.26 21.89 87.79 23.73 88.14 24.94 88.79 26.13 89.72 27.25 90.64 28.37 91.68 29.24 92.8 29.85 93.92 30.46 95.31 30.87 96.95 31.07 98.52 31.26 99.98 31.36 101.31 31.36 103.65 31.36 105.69 31.03 107.38 30.38 108.64 29.9 109.86 29.05 110.99 27.88 112.13 26.7 112.97 25.3 113.5 23.73 114.02 22.19 114.29 20.52 114.29 18.79L114.29 1.8 104.38 1.8 104.38 19.17Z" stroke-width="0" fill="#000080"/><path d="M126.16 1.82 116.24 1.82 116.24 30.23 139.07 30.23 139.07 21.99 126.16 21.99 126.16 1.82Z" stroke-width="0" fill="#000080"/></svg>