<?xml version="1.0" encoding="UTF-8"?><svg id="a" xmlns="http://www.w3.org/2000/svg" width="24" height="24" viewBox="0 0 24 24"><path d="M2.61,12.68h.89c.42,4.08,3.68,7.33,7.76,7.75v.89c0,.34.28.62.62.62s.62-.28.62-.62v-.86c4.62-.19,8.33-4,8.33-8.67,0-.34-.28-.62-.62-.62s-.62.28-.62.62c0,3.98-3.14,7.23-7.08,7.42v-.82c0-.34-.28-.62-.62-.62s-.62.28-.62.62v.78c-3.39-.4-6.09-3.09-6.5-6.48h.78c.34,0,.62-.28.62-.62s-.28-.62-.62-.62h-.82c.17-3.64,2.97-6.61,6.54-7.03v1.27c0,.34.28.62.62.62s.62-.28.62-.62v-1.3c1.36.07,2.67.48,3.79,1.24.28.19.68.12.87-.17.19-.29.12-.67-.17-.87-1.34-.9-2.88-1.39-4.49-1.46v-.44c0-.34-.28-.62-.62-.62s-.62.28-.62.62v.46c-4.26.43-7.61,3.96-7.79,8.3h-.86c-.34,0-.62.28-.62.62s.28.62.62.62Z" style="fill:#000; stroke-width:0px;"/><path d="M17.34,6.34l-6.31,7.66v2.75s2.74-.49,2.74-.49l6.21-7.67c.47-.53.68-1.05.64-1.56-.03-.29-.16-.72-.62-1.09-.62-.52-1.58-.88-2.66.4ZM19.21,6.91c.11.08.16.16.17.23,0,.05,0,.25-.35.64l-5.93,7.33-.81.14v-.81s6.01-7.31,6.01-7.31c.47-.55.59-.49.91-.23Z" style="fill:#000; stroke-width:0px;"/><polygon points="19.72 22.03 22 19.02 17.45 19.02 19.72 22.03" style="fill:#000; stroke-width:0px;"/></svg>