<?xml version="1.0" encoding="UTF-8"?><svg id="a" xmlns="http://www.w3.org/2000/svg" width="24" height="24" viewBox="0 0 24 24"><path d="M21.35,11.38h-4.15c.09-.42.24-.77.46-1.04.37-.45.92-.67,1.66-.67.4,0,.88.09,1.44.28l.29.1.34-1.12-.26-.1c-.57-.22-1.17-.33-1.79-.33-1.08,0-1.94.35-2.57,1.05-.43.48-.7,1.1-.83,1.83h-.29c-.11-.76-.34-1.39-.71-1.86-.54-.68-1.34-1.02-2.38-1.02-.56,0-1.05.11-1.46.33-.18.1-.35.22-.51.36,0-.23.01-.48.01-.75v-2.78h-1.22v5.73h-.83v-.14c0-.91-.21-1.6-.63-2.05-.42-.45-1.06-.68-1.89-.68-.77,0-1.56.19-2.34.56l-.26.12.47,1.11.29-.15c.63-.33,1.24-.5,1.82-.5.49,0,.83.13,1.03.39.22.28.33.71.33,1.3v.04H2.65c-.34,0-.62.28-.62.62s.28.62.62.62h.66c-.31.37-.47.83-.47,1.36,0,.7.22,1.25.65,1.66.43.4,1.02.6,1.76.6.54,0,1.01-.1,1.41-.31.26-.13.51-.32.76-.57l.11.75h1.02v-3.5h.83v3.5h.94l.11-.68c.19.19.4.34.64.47.43.22.92.34,1.45.34,1.01,0,1.8-.35,2.37-1.04.51-.62.77-1.5.81-2.58h.15c.04,1.08.33,1.96.89,2.59.61.69,1.45,1.03,2.51,1.03.75,0,1.37-.12,1.84-.36l.17-.08v-1.22l-.42.18c-.49.21-1.03.31-1.6.31-.68,0-1.19-.22-1.57-.68-.35-.43-.53-1.03-.56-1.77h4.25c.34,0,.62-.28.62-.62s-.28-.62-.62-.62ZM4.57,13.07c.36-.23,1-.36,1.89-.41l.85-.04h.02v.37c0,.67-.18,1.18-.54,1.54-.36.37-.86.54-1.5.54-.39,0-.7-.09-.9-.28-.2-.18-.29-.44-.29-.79,0-.44.15-.74.47-.94ZM14.45,12.62c-.03.77-.19,1.38-.49,1.8-.32.45-.79.66-1.43.66s-1.15-.19-1.45-.57c-.3-.37-.45-1.02-.47-1.9h3.84ZM10.67,11.38c.07-.49.2-.88.39-1.14.29-.39.77-.58,1.48-.58s1.58.21,1.84,1.72h-3.71Z" style="fill:#000; stroke-width:0px;"/></svg>