<?xml version="1.0" encoding="UTF-8"?><svg id="a" xmlns="http://www.w3.org/2000/svg" width="24" height="24" viewBox="0 0 24 24"><path d="M2,4.5c0,.34.28.62.62.62h18.75c.34,0,.62-.28.62-.62s-.28-.62-.62-.62H2.62c-.34,0-.62.28-.62.62Z" style="fill:#000; stroke-width:0px;"/><path d="M2.62,8.12h18.75c.34,0,.62-.28.62-.62s-.28-.62-.62-.62H2.62c-.34,0-.62.28-.62.62s.28.62.62.62Z" style="fill:#000; stroke-width:0px;"/><path d="M2.62,11.12h18.75c.34,0,.62-.28.62-.62s-.28-.62-.62-.62H2.62c-.34,0-.62.28-.62.62s.28.62.62.62Z" style="fill:#000; stroke-width:0px;"/><path d="M2.62,14.12h18.75c.34,0,.62-.28.62-.62s-.28-.62-.62-.62H2.62c-.34,0-.62.28-.62.62s.28.62.62.62Z" style="fill:#000; stroke-width:0px;"/><path d="M2.62,17.12h18.75c.34,0,.62-.28.62-.62s-.28-.62-.62-.62H2.62c-.34,0-.62.28-.62.62s.28.62.62.62Z" style="fill:#000; stroke-width:0px;"/><path d="M2.62,20.12h18.75c.34,0,.62-.28.62-.62s-.28-.62-.62-.62H2.62c-.34,0-.62.28-.62.62s.28.62.62.62Z" style="fill:#000; stroke-width:0px;"/></svg>