<?xml version="1.0" encoding="UTF-8"?><svg id="a" xmlns="http://www.w3.org/2000/svg" width="24" height="24" viewBox="0 0 24 24"><path d="M8.86,7c.12,0,.23-.03.34-.1.29-.19.37-.57.19-.86l-2.42-3.74c-.19-.29-.58-.37-.86-.19-.29.19-.37.57-.19.86l2.42,3.74c.12.19.32.29.53.29Z" style="fill:#000; stroke-width:0px;"/><path d="M4.39,6.1c-.3-.18-.68-.09-.86.2-.18.29-.09.68.2.86l2.04,1.27c.1.06.22.09.33.09.21,0,.41-.1.53-.29.18-.29.09-.68-.2-.86l-2.04-1.27Z" style="fill:#000; stroke-width:0px;"/><path d="M11.2,5.93c.34,0,.62-.28.62-.62v-2.24c.01-.35-.27-.63-.61-.63h0c-.34,0-.62.28-.62.62v2.24c-.01.35.27.63.61.63h0Z" style="fill:#000; stroke-width:0px;"/><path d="M17.08,21.7c.12.19.32.29.53.29.12,0,.23-.03.34-.1.29-.19.37-.58.19-.86l-2.42-3.74c-.19-.29-.57-.37-.86-.19-.29.19-.37.58-.19.86l2.42,3.74Z" style="fill:#000; stroke-width:0px;"/><path d="M19.65,17.79c.21,0,.41-.1.53-.29.18-.29.09-.68-.2-.86l-2.04-1.27c-.3-.18-.68-.09-.86.2-.18.29-.09.68.2.86l2.04,1.27c.1.06.22.09.33.09Z" style="fill:#000; stroke-width:0px;"/><path d="M12.85,18.07c-.34,0-.62.28-.62.62v2.24c-.01.34.27.63.61.63h0c.34,0,.62-.28.62-.62v-2.24c.01-.34-.27-.63-.61-.63h0Z" style="fill:#000; stroke-width:0px;"/><path d="M18.68,7.7c-.19-.29-.57-.38-.86-.19l-12.18,7.77c-.29.19-.38.57-.19.86.12.19.32.29.53.29.11,0,.23-.03.33-.1l12.18-7.77c.29-.19.38-.57.19-.86Z" style="fill:#000; stroke-width:0px;"/><path d="M2.6,17.27l.37.66c.59,1.04,1.54,1.77,2.67,2.06.34.08.68.13,1.02.13.79,0,1.58-.23,2.28-.67l3.09-1.96c.28-.18.37-.55.2-.84l-1.13-1.92c-.17-.3-.56-.4-.86-.22-.3.17-.4.56-.22.86l.82,1.4-2.58,1.64c-.71.45-1.54.59-2.33.39-.8-.2-1.46-.72-1.88-1.46l-.37-.66c-.87-1.55-.37-3.58,1.12-4.53l2.53-1.61.81,1.43c.17.3.55.41.85.24.3-.17.41-.55.24-.85l-1.13-2.01c-.08-.15-.23-.26-.39-.3-.17-.04-.34-.01-.49.08l-3.09,1.96c-2.05,1.3-2.74,4.08-1.54,6.2Z" style="fill:#000; stroke-width:0px;"/><path d="M21.4,6.73l-.37-.66c-.59-1.04-1.54-1.77-2.67-2.06-1.13-.28-2.3-.09-3.3.55l-3.09,1.96c-.28.18-.37.55-.2.84l1.13,1.92c.17.3.56.4.86.22.3-.17.4-.56.22-.86l-.82-1.4,2.58-1.64c.71-.45,1.54-.59,2.33-.39.8.2,1.46.72,1.88,1.46l.37.66c.87,1.55.37,3.58-1.12,4.53l-2.53,1.61-.81-1.43c-.17-.3-.55-.41-.85-.24s-.41.55-.24.85l1.13,2.01c.08.15.23.26.39.3.05.01.1.02.15.02.12,0,.23-.03.33-.1l3.09-1.96c2.05-1.3,2.74-4.08,1.54-6.2Z" style="fill:#000; stroke-width:0px;"/></svg>