<?xml version="1.0" encoding="UTF-8"?><svg id="a" xmlns="http://www.w3.org/2000/svg" width="24" height="24" viewBox="0 0 24 24"><path d="M16.75,6.61c-.25-.24-.64-.23-.88.02l-6.39,6.69L3.08,6.63c-.24-.25-.63-.26-.88-.02-.25.24-.26.63-.02.88l6.43,6.73-6.43,6.73c-.24.25-.23.65.02.88.12.12.28.17.43.17.17,0,.33-.06.45-.19l6.39-6.69,6.39,6.69c.12.13.29.19.45.19.16,0,.31-.06.43-.17.25-.24.26-.63.02-.88l-6.43-6.73,6.43-6.73c.24-.25.23-.65-.02-.88Z" style="fill:#000; stroke-width:0px;"/><path d="M19.72,7.22c.32-.3.61-.58.87-.85.26-.27.48-.54.67-.8s.34-.52.44-.78c.11-.27.16-.53.16-.79,0-.28-.04-.54-.13-.78-.09-.25-.23-.46-.42-.65-.19-.18-.42-.32-.7-.42-.47-.17-1.13-.22-1.79-.03-.29.08-.6.26-.92.52l-.18.15.66.96.21-.15c.21-.16.4-.26.56-.32.16-.06.33-.09.51-.09.29,0,.49.07.62.23.14.16.21.37.21.63,0,.16-.03.31-.09.47-.07.17-.18.36-.33.57-.15.21-.36.45-.61.72-.25.27-.56.57-.92.91l-.91.88.24.92h4.14v-1.19h-2.41l.11-.1Z" style="fill:#000; stroke-width:0px;"/></svg>