<?xml version="1.0" encoding="UTF-8"?><svg id="a" xmlns="http://www.w3.org/2000/svg" width="24" height="24" viewBox="0 0 24 24"><path d="M14.04,2.04v.07c-.68-.09-2.02-.1-4.65-.1h-4.69c-.41,0-.75.33-.75.75v18.48c0,.41.43.75.85.75h8.64c1.8,0,3.56-.73,4.82-2.01,1.17-1.18,1.81-2.72,1.79-4.33-.01-1.97-.94-3.79-2.47-4.96.85-.93,1.35-2.17,1.36-3.47-.07-2.73-2.18-4.95-4.9-5.18ZM13.9,3.54s.02,0,.02,0c1.95.16,3.47,1.77,3.52,3.7,0,1.08-.51,2.09-1.34,2.77H5.45V3.51c3.39,0,7.99,0,8.45.03ZM18.55,15.66c0,1.21-.47,2.37-1.36,3.26-.99.99-2.36,1.56-3.76,1.56h-7.99v-8.98h10.64c1.51.84,2.45,2.42,2.46,4.15Z" style="fill:#000; stroke-width:0px;"/></svg>