<?xml version="1.0" encoding="UTF-8"?><svg id="a" xmlns="http://www.w3.org/2000/svg" width="24" height="24" viewBox="0 0 24 24"><path d="M21.41,3.88H7.65c-.34,0-.62.28-.62.62s.28.62.62.62h13.76c.34,0,.62-.28.62-.62s-.28-.62-.62-.62Z" style="fill:#000; stroke-width:0px;"/><path d="M21.41,18.88H7.65c-.34,0-.62.28-.62.62s.28.62.62.62h13.76c.34,0,.62-.28.62-.62s-.28-.62-.62-.62Z" style="fill:#000; stroke-width:0px;"/><path d="M21.41,11.88H7.65c-.34,0-.62.28-.62.62s.28.62.62.62h13.76c.34,0,.62-.28.62-.62s-.28-.62-.62-.62Z" style="fill:#000; stroke-width:0px;"/><polygon points="3.74 6.21 3.74 2.75 3.39 2.75 2.54 3.14 2.64 3.54 3.27 3.25 3.27 6.21 3.74 6.21" style="fill:#000; stroke-width:0px;"/><path d="M4.33,13.42h-1.57l.32-.31c.18-.17.34-.34.48-.49.14-.16.26-.31.37-.45.1-.15.18-.29.23-.42.05-.14.08-.27.08-.4,0-.15-.02-.28-.07-.41-.04-.12-.11-.23-.2-.32s-.21-.16-.34-.22c-.14-.05-.3-.08-.49-.08-.14,0-.28.02-.43.07s-.3.14-.47.28l.21.32c.13-.1.25-.17.35-.21.11-.04.22-.06.33-.06.21,0,.36.06.46.18.1.12.15.28.15.46,0,.11-.02.22-.06.33-.04.11-.11.23-.2.36-.09.13-.21.28-.35.43-.14.16-.32.34-.52.54l-.46.46.09.35h2.08v-.4Z" style="fill:#000; stroke-width:0px;"/><path d="M3.49,20.34c-.07.05-.15.09-.24.11-.09.02-.18.03-.27.03-.08,0-.16,0-.22-.01s-.13-.02-.18-.03-.12-.03-.17-.05c-.06-.02-.11-.04-.18-.06l-.11.38c.12.05.25.1.41.13.15.03.31.04.46.04s.3-.02.45-.05c.15-.04.28-.09.4-.17.12-.08.21-.18.29-.31.07-.13.11-.29.11-.47,0-.21-.07-.39-.2-.54-.13-.15-.3-.25-.5-.29.16-.06.3-.16.41-.3.11-.14.17-.32.17-.54,0-.13-.03-.25-.08-.36-.05-.11-.12-.2-.21-.28s-.2-.14-.33-.18-.27-.07-.43-.07c-.14,0-.29.02-.44.06-.15.04-.3.11-.45.2l.15.34c.14-.08.26-.14.36-.17s.21-.04.33-.04c.08,0,.16.01.23.04.07.03.13.07.19.12.05.05.1.11.13.18.03.07.05.14.05.22,0,.21-.07.37-.21.47-.14.1-.32.15-.53.15h-.32v.37h.41c.11,0,.21.01.3.04.09.02.17.06.24.11.07.05.12.11.16.19.04.08.06.17.06.27,0,.12-.02.21-.07.29s-.1.14-.17.2Z" style="fill:#000; stroke-width:0px;"/></svg>