<?xml version="1.0" encoding="UTF-8"?><svg id="a" xmlns="http://www.w3.org/2000/svg" width="24" height="24" viewBox="0 0 24 24"><path d="M5.46,16.14c.12.19.32.29.53.29.11,0,.23-.03.33-.1l12.16-7.76c.29-.19.38-.57.19-.86-.19-.29-.57-.38-.86-.19l-12.16,7.76c-.29.19-.38.57-.19.86Z" style="fill:#000; stroke-width:0px;"/><path d="M8.12,9.33c-.08-.15-.23-.26-.39-.3-.17-.04-.34-.01-.49.08l-3.08,1.96c-2.04,1.3-2.73,4.07-1.54,6.19l.37.66c.59,1.04,1.53,1.77,2.66,2.05.34.08.68.13,1.02.13.79,0,1.58-.23,2.28-.67l3.08-1.96c.28-.18.37-.55.2-.84l-1.13-1.92c-.17-.3-.56-.4-.86-.22-.3.17-.4.56-.22.86l.82,1.4-2.57,1.63c-.71.45-1.53.58-2.32.39-.79-.2-1.46-.72-1.88-1.46l-.37-.66c-.87-1.55-.37-3.57,1.12-4.52l2.53-1.6.81,1.43c.17.3.55.41.85.24.3-.17.41-.55.24-.85l-1.13-2Z" style="fill:#000; stroke-width:0px;"/><path d="M19.17,11.88l-2.53,1.6-.81-1.43c-.17-.3-.55-.41-.85-.24-.3.17-.41.55-.24.85l1.13,2c.08.15.23.26.39.3.05.01.1.02.15.02.12,0,.23-.03.33-.1l3.08-1.96c2.04-1.3,2.73-4.07,1.54-6.19l-.37-.66c-.59-1.04-1.53-1.77-2.66-2.05-1.12-.28-2.29-.09-3.29.55l-3.08,1.96c-.28.18-.37.55-.2.84l1.13,1.92c.17.3.56.4.86.22.3-.17.4-.56.22-.86l-.82-1.4,2.57-1.63c.71-.45,1.53-.59,2.32-.39.79.2,1.46.72,1.88,1.46l.37.66c.87,1.55.37,3.57-1.12,4.52Z" style="fill:#000; stroke-width:0px;"/></svg>