<?xml version="1.0" encoding="UTF-8"?><svg id="a" xmlns="http://www.w3.org/2000/svg" width="24" height="24" viewBox="0 0 24 24"><path d="M21.35,3.88H2.65c-.34,0-.62.28-.62.62s.28.62.62.62h18.7c.34,0,.62-.28.62-.62s-.28-.62-.62-.62Z" style="fill:#000; stroke-width:0px;"/><path d="M19.36,8.13c.34,0,.62-.28.62-.62s-.28-.62-.62-.62H4.64c-.34,0-.62.28-.62.62s.28.62.62.62h14.71Z" style="fill:#000; stroke-width:0px;"/><path d="M21.35,9.88H2.65c-.34,0-.62.28-.62.62s.28.62.62.62h18.7c.34,0,.62-.28.62-.62s-.28-.62-.62-.62Z" style="fill:#000; stroke-width:0px;"/><path d="M19.36,14.12c.34,0,.62-.28.62-.62s-.28-.62-.62-.62H4.64c-.34,0-.62.28-.62.62s.28.62.62.62h14.71Z" style="fill:#000; stroke-width:0px;"/><path d="M21.35,15.87H2.65c-.34,0-.62.28-.62.62s.28.62.62.62h18.7c.34,0,.62-.28.62-.62s-.28-.62-.62-.62Z" style="fill:#000; stroke-width:0px;"/><path d="M19.36,20.12c.34,0,.62-.28.62-.62s-.28-.62-.62-.62H4.64c-.34,0-.62.28-.62.62s.28.62.62.62h14.71Z" style="fill:#000; stroke-width:0px;"/></svg>