<?xml version="1.0" encoding="UTF-8"?><svg id="a" xmlns="http://www.w3.org/2000/svg" width="24" height="24" viewBox="0 0 24 24"><path d="M21.37,10.88h-9.83c-1.41-.45-2.56-1.02-3.11-1.47-.72-.59-1.06-1.38-1.06-2.43s.45-1.89,1.39-2.57c.98-.72,2.3-1.09,3.91-1.09,1.76,0,3.18.4,4.22,1.18,1,.75,1.5,1.79,1.5,3.08,0,.34.28.62.62.62s.62-.28.62-.62c0-1.68-.69-3.08-2-4.08-1.26-.95-2.94-1.44-4.98-1.44-1.88,0-3.45.45-4.65,1.33-1.26.93-1.9,2.13-1.9,3.58s.51,2.57,1.52,3.39c.2.17.46.34.75.5H2.63c-.34,0-.62.28-.62.62s.28.62.62.62h8.72c.54.17,1.09.31,1.64.42,1.4.31,2.52.68,3.32,1.09.75.39,1.29.84,1.61,1.34.32.5.48,1.13.48,1.87,0,1.13-.48,2.03-1.46,2.72-1.03.73-2.42,1.11-4.14,1.11-1.84,0-3.34-.4-4.44-1.18-1.05-.75-1.56-1.67-1.56-2.82,0-.34-.28-.62-.62-.62s-.62.28-.62.62c0,1.57.7,2.86,2.09,3.84,1.32.94,3.06,1.41,5.17,1.41,1.98,0,3.61-.45,4.86-1.34,1.31-.94,1.98-2.2,1.98-3.74,0-.98-.23-1.84-.67-2.54-.44-.69-1.14-1.29-2.09-1.78-.27-.14-.58-.27-.91-.4h5.4c.34,0,.62-.28.62-.62s-.28-.62-.62-.62Z" style="fill:#000; stroke-width:0px;"/></svg>