<?xml version="1.0" encoding="UTF-8"?><svg id="a" xmlns="http://www.w3.org/2000/svg" width="24" height="24" viewBox="0 0 24 24"><path d="M2.05,4.5c0,.34.28.62.62.62h18.65c.34,0,.62-.28.62-.62s-.28-.62-.62-.62H2.67c-.34,0-.62.28-.62.62Z" style="fill:#000; stroke-width:0px;"/><path d="M21.95,8.5c0-.34-.28-.62-.62-.62h-9.63c-.34,0-.62.28-.62.62s.28.62.62.62h9.63c.34,0,.62-.28.62-.62Z" style="fill:#000; stroke-width:0px;"/><path d="M11.7,10.88c-.34,0-.62.28-.62.62s.28.62.62.62h4.81c.34,0,.62-.28.62-.62s-.28-.62-.62-.62h-4.81Z" style="fill:#000; stroke-width:0px;"/><path d="M2.67,16.12h18.65c.34,0,.62-.28.62-.62s-.28-.62-.62-.62H2.67c-.34,0-.62.28-.62.62s.28.62.62.62Z" style="fill:#000; stroke-width:0px;"/><path d="M2.67,20.12h18.65c.34,0,.62-.28.62-.62s-.28-.62-.62-.62H2.67c-.34,0-.62.28-.62.62s.28.62.62.62Z" style="fill:#000; stroke-width:0px;"/><path d="M2.08,10.14s0,.07.02.1c.03.09.09.16.16.23l1.65,1.68c.12.12.28.19.45.19s.32-.06.44-.18c.25-.24.25-.64,0-.88l-.63-.64h5.09c.34,0,.62-.28.62-.62s-.28-.62-.62-.62h-5.1l.64-.65c.24-.25.24-.64,0-.88-.25-.24-.64-.24-.88,0l-1.68,1.71c-.12.12-.18.28-.18.44,0,0,0,0,0,0,0,.05.02.09.03.13Z" style="fill:#000; stroke-width:0px;"/></svg>