<?xml version="1.0" encoding="UTF-8"?><svg id="a" xmlns="http://www.w3.org/2000/svg" width="24" height="24" viewBox="0 0 24 24"><path d="M21.32,3.88H2.68c-.34,0-.62.28-.62.62s.28.62.62.62h18.63c.34,0,.62-.28.62-.62s-.28-.62-.62-.62Z" style="fill:#000; stroke-width:0px;"/><path d="M21.32,6.88H7.59c-.34,0-.62.28-.62.62s.28.62.62.62h13.73c.34,0,.62-.28.62-.62s-.28-.62-.62-.62Z" style="fill:#000; stroke-width:0px;"/><path d="M21.32,9.88H2.68c-.34,0-.62.28-.62.62s.28.62.62.62h18.63c.34,0,.62-.28.62-.62s-.28-.62-.62-.62Z" style="fill:#000; stroke-width:0px;"/><path d="M21.32,12.88H7.59c-.34,0-.62.28-.62.62s.28.62.62.62h13.73c.34,0,.62-.28.62-.62s-.28-.62-.62-.62Z" style="fill:#000; stroke-width:0px;"/><path d="M21.32,15.88H2.68c-.34,0-.62.28-.62.62s.28.62.62.62h18.63c.34,0,.62-.28.62-.62s-.28-.62-.62-.62Z" style="fill:#000; stroke-width:0px;"/><path d="M21.94,19.5c0-.34-.28-.62-.62-.62H7.59c-.34,0-.62.28-.62.62s.28.62.62.62h13.73c.34,0,.62-.28.62-.62Z" style="fill:#000; stroke-width:0px;"/></svg>