<?xml version="1.0" encoding="UTF-8"?><svg id="a" xmlns="http://www.w3.org/2000/svg" width="24" height="24" viewBox="0 0 24 24"><path d="M4.98,12c0,.34.28.62.62.62h0l12.79-.05c.34,0,.62-.28.62-.63,0-.34-.28-.62-.62-.62h0l-12.79.05c-.34,0-.62.28-.62.63Z" style="fill:#000; stroke-width:0px;"/><path d="M9.54,13.34c-.34,0-.62.28-.62.62v1.34h-2.33c-1.83,0-3.31-1.49-3.31-3.31s1.49-3.31,3.31-3.31h2.33v1.34c0,.34.28.62.62.62s.62-.28.62-.62v-1.97c0-.34-.28-.62-.62-.62h-2.95c-2.51,0-4.56,2.05-4.56,4.56s2.05,4.56,4.56,4.56h2.95c.34,0,.62-.28.62-.62v-1.97c0-.34-.28-.62-.62-.62Z" style="fill:#000; stroke-width:0px;"/><path d="M17.41,7.44h-2.95c-.34,0-.62.28-.62.62v1.97c0,.34.28.62.62.62s.62-.28.62-.62v-1.34h2.33c1.83,0,3.31,1.49,3.31,3.31s-1.49,3.31-3.31,3.31h-2.33v-1.34c0-.34-.28-.62-.62-.62s-.62.28-.62.62v1.97c0,.34.28.62.62.62h2.95c2.51,0,4.56-2.05,4.56-4.56s-2.05-4.56-4.56-4.56Z" style="fill:#000; stroke-width:0px;"/><path d="M3.29,2.21c-.29.19-.37.58-.17.87l1.97,2.95c.12.18.32.28.52.28.12,0,.24-.03.35-.11.29-.19.37-.58.17-.87l-1.97-2.95c-.19-.29-.58-.36-.87-.17Z" style="fill:#000; stroke-width:0px;"/><path d="M18.92,6.03l1.97-2.95c.19-.29.11-.67-.17-.87-.29-.19-.68-.12-.87.17l-1.97,2.95c-.19.29-.11.67.17.87.11.07.23.11.35.11.2,0,.4-.1.52-.28Z" style="fill:#000; stroke-width:0px;"/><path d="M12,2.1c-.34,0-.62.28-.62.62v2.95c0,.34.28.62.62.62s.62-.28.62-.62v-2.95c0-.34-.28-.62-.62-.62Z" style="fill:#000; stroke-width:0px;"/><path d="M5.58,17.97l-1.97,2.95c-.19.29-.11.67.17.87.11.07.23.1.35.1.2,0,.4-.1.52-.28l1.97-2.95c.19-.29.11-.68-.17-.87-.29-.19-.67-.11-.87.17Z" style="fill:#000; stroke-width:0px;"/><path d="M19.41,17.97c-.19-.29-.58-.36-.87-.17-.29.19-.37.58-.17.87l1.97,2.95c.12.18.32.28.52.28.12,0,.24-.03.35-.1.29-.19.37-.58.17-.87l-1.97-2.95Z" style="fill:#000; stroke-width:0px;"/><path d="M12.49,17.7c-.34,0-.62.28-.62.62v2.95c0,.34.28.62.62.62s.62-.28.62-.62v-2.95c0-.34-.28-.62-.62-.62Z" style="fill:#000; stroke-width:0px;"/></svg>