<?xml version="1.0" encoding="UTF-8"?><svg id="a" xmlns="http://www.w3.org/2000/svg" width="24" height="24" viewBox="0 0 24 24"><path d="M21.79,20.91l-.78-.78h.33c.34,0,.62-.28.62-.62s-.28-.62-.62-.62h-1.58l-1.75-1.75h3.33c.34,0,.62-.28.62-.62s-.28-.62-.62-.62h-4.58l-1.75-1.75h6.33c.34,0,.62-.28.62-.62s-.28-.62-.62-.62h-7.58l-1.75-1.75h9.33c.34,0,.62-.28.62-.62s-.28-.62-.62-.62h-10.58l-1.75-1.75h12.33c.34,0,.62-.28.62-.62s-.28-.62-.62-.62H7.76l-1.75-1.75h15.33c.34,0,.62-.28.62-.62s-.28-.62-.62-.62H4.76l-1.67-1.67c-.24-.24-.64-.24-.88,0-.24.24-.24.64,0,.88l.78.78h-.33c-.34,0-.62.28-.62.62s.28.62.62.62h1.58l1.75,1.75h-3.33c-.34,0-.62.28-.62.62s.28.62.62.62h4.58l1.75,1.75H2.66c-.34,0-.62.28-.62.62s.28.62.62.62h7.58l1.75,1.75H2.66c-.34,0-.62.28-.62.62s.28.62.62.62h10.58l1.75,1.75H2.66c-.34,0-.62.28-.62.62s.28.62.62.62h13.58l1.75,1.75H2.66c-.34,0-.62.28-.62.62s.28.62.62.62h16.58l1.67,1.67c.12.12.28.18.44.18s.32-.06.44-.18c.24-.24.24-.64,0-.88Z" style="fill:#000; stroke-width:0px;"/></svg>