<?xml version="1.0" encoding="UTF-8"?><svg id="a" xmlns="http://www.w3.org/2000/svg" width="24" height="24" viewBox="0 0 24 24"><path d="M2.67,5.12h18.65c.34,0,.62-.28.62-.62s-.28-.62-.62-.62H2.67c-.34,0-.62.28-.62.62s.28.62.62.62Z" style="fill:#000; stroke-width:0px;"/><path d="M21.95,8.5c0-.34-.28-.62-.62-.62h-9.63c-.34,0-.62.28-.62.62s.28.62.62.62h9.63c.34,0,.62-.28.62-.62Z" style="fill:#000; stroke-width:0px;"/><path d="M11.7,10.88c-.34,0-.62.28-.62.62s.28.62.62.62h4.81c.34,0,.62-.28.62-.62s-.28-.62-.62-.62h-4.81Z" style="fill:#000; stroke-width:0px;"/><path d="M2.67,16.12h18.65c.34,0,.62-.28.62-.62s-.28-.62-.62-.62H2.67c-.34,0-.62.28-.62.62s.28.62.62.62Z" style="fill:#000; stroke-width:0px;"/><path d="M2.67,20.12h18.65c.34,0,.62-.28.62-.62s-.28-.62-.62-.62H2.67c-.34,0-.62.28-.62.62s.28.62.62.62Z" style="fill:#000; stroke-width:0px;"/><path d="M2.67,10.63h5.09l-.63.64c-.24.25-.24.64,0,.88.12.12.28.18.44.18s.32-.06.45-.19l1.65-1.68c.07-.06.12-.14.16-.23.01-.03.01-.06.02-.1,0-.04.03-.08.03-.13,0,0,0,0,0,0,0-.16-.06-.32-.18-.44l-1.68-1.71c-.24-.25-.64-.25-.88,0-.25.24-.25.64,0,.88l.64.65H2.67c-.34,0-.62.28-.62.62s.28.62.62.62Z" style="fill:#000; stroke-width:0px;"/></svg>