<?xml version="1.0" encoding="UTF-8"?><svg id="a" xmlns="http://www.w3.org/2000/svg" width="24" height="24" viewBox="0 0 24 24"><path d="M19.02,2.65c0-.34-.28-.62-.62-.62s-.62.28-.62.62v8.97c0,2.5-1.59,4.76-3.87,5.48-1.86.59-3.79.29-5.3-.81-1.48-1.08-2.37-2.83-2.37-4.66V2.65c0-.34-.28-.62-.62-.62s-.62.28-.62.62v8.99c0,2.23,1.08,4.35,2.88,5.67,1.22.89,2.66,1.35,4.14,1.35.75,0,1.52-.12,2.28-.36,2.79-.89,4.75-3.63,4.75-6.67V2.65Z" style="fill:#000; stroke-width:0px;"/><path d="M5.6,20.72c-.34,0-.62.28-.62.62s.28.62.62.62h12.79c.34,0,.62-.28.62-.62s-.28-.62-.62-.62H5.6Z" style="fill:#000; stroke-width:0px;"/></svg>