<?xml version="1.0" encoding="UTF-8"?><svg id="a" xmlns="http://www.w3.org/2000/svg" width="24" height="24" viewBox="0 0 24 24"><rect x="2" y="18.81" width="20" height="3.2" rx=".2" ry=".2" style="fill:#000; stroke-width:0px;"/><path d="M20.91,4.27l-1.72-1.72c-.7-.7-1.91-.7-2.6,0l-2.14,2.14c-.72-.71-1.88-.7-2.59.01l-.43.43c-.72.72-.72,1.89,0,2.6l.42.42-5.82,5.82c-.16.16-.27.36-.32.57l-.6,2.41c-.1.39.02.82.31,1.1.22.22.52.34.83.34.09,0,.19-.01.28-.03l2.41-.6c.22-.06.41-.17.57-.32l5.81-5.82.42.42c.7.7,1.91.7,2.6,0l.43-.43c.35-.35.54-.81.54-1.3s-.19-.94-.53-1.29l2.14-2.14c.72-.72.72-1.89,0-2.6ZM8.62,16.54l-2.27.57.56-2.26,5.81-5.82,1.7,1.7-5.81,5.81ZM20.03,5.99l-2.58,2.58c-.24.24-.24.64,0,.88l.43.43c.23.23.23.6,0,.83l-.43.43c-.22.22-.61.22-.83,0l-.86-.86-3.44-3.44c-.23-.23-.23-.6,0-.83l.43-.43c.23-.23.6-.23.83,0l.43.43c.24.24.64.24.88,0l2.58-2.58c.22-.22.61-.22.83,0l1.72,1.72c.23.23.23.6,0,.83Z" style="fill:#000; stroke-width:0px;"/></svg>