<?xml version="1.0" encoding="UTF-8"?><svg id="a" xmlns="http://www.w3.org/2000/svg" width="24" height="24" viewBox="0 0 24 24"><circle cx="3.5" cy="4.5" r="1.5" style="fill:#000; stroke-width:0px;"/><circle cx="3.5" cy="12.5" r="1.5" style="fill:#000; stroke-width:0px;"/><circle cx="3.5" cy="19.5" r="1.5" style="fill:#000; stroke-width:0px;"/><path d="M7.65,5.12h13.76c.34,0,.62-.28.62-.62s-.28-.62-.62-.62H7.65c-.34,0-.62.28-.62.62s.28.62.62.62Z" style="fill:#000; stroke-width:0px;"/><path d="M21.41,18.88H7.65c-.34,0-.62.28-.62.62s.28.62.62.62h13.76c.34,0,.62-.28.62-.62s-.28-.62-.62-.62Z" style="fill:#000; stroke-width:0px;"/><path d="M21.41,11.88H7.65c-.34,0-.62.28-.62.62s.28.62.62.62h13.76c.34,0,.62-.28.62-.62s-.28-.62-.62-.62Z" style="fill:#000; stroke-width:0px;"/></svg>