<?xml version="1.0" encoding="UTF-8"?><svg id="icons" xmlns="http://www.w3.org/2000/svg" width="150" height="55" viewBox="0 0 150 55"><path d="M20.45,32.09v.5l11.91.12c-.22.91-.53,1.74-.91,2.46-.89,1.69-2.19,2.99-3.87,3.87-1.69.88-3.77,1.33-6.17,1.33s-4.39-.55-6.17-1.63c-1.78-1.08-3.21-2.61-4.24-4.54-1.03-1.94-1.56-4.21-1.56-6.76s.53-4.8,1.58-6.7c1.04-1.89,2.51-3.39,4.37-4.45,1.86-1.07,4.04-1.61,6.46-1.61,2.14,0,4.13.42,5.9,1.25l.2.1c3.44,1.69,7.55,1.02,10.23-1.67l.32-.32-.29-.35c-1.85-2.28-4.22-4.07-7.04-5.33-2.81-1.25-5.93-1.88-9.27-1.88-3,0-5.83.54-8.41,1.6-2.58,1.06-4.87,2.57-6.79,4.47-1.93,1.91-3.45,4.15-4.53,6.68-1.08,2.52-1.63,5.31-1.63,8.27s.54,5.69,1.6,8.21c1.06,2.52,2.56,4.78,4.47,6.7,1.91,1.93,4.16,3.44,6.68,4.5,2.53,1.06,5.27,1.6,8.16,1.6,3.92,0,7.44-.83,10.47-2.47,3.04-1.65,5.46-4.14,7.2-7.4,1.73-3.25,2.61-7.34,2.61-12.16v-1.58h-14.1c-3.96,0-7.19,3.23-7.19,7.19Z" style="fill:#fff;"/><path d="M66.16,20.8h0c-2.09-1.23-4.53-1.85-7.25-1.85s-5.3.66-7.56,1.97c-2.26,1.3-4.06,3.08-5.37,5.28-1.31,2.2-1.97,4.74-1.97,7.54s.68,5.4,2.03,7.63c1.34,2.22,3.19,3.99,5.49,5.25,2.29,1.26,4.95,1.9,7.89,1.9,2.28,0,4.44-.41,6.4-1.23,1.97-.82,3.67-2.05,5.03-3.65l.3-.35-1.46-1.46c-1.73-1.74-4.37-2.22-6.73-1.22-1.06.44-2.28.67-3.6.67-1.45,0-2.74-.31-3.83-.93-1.08-.61-1.91-1.49-2.49-2.62-.13-.25-.24-.53-.35-.83l19.7-.05.09-.39c.16-.66.26-1.26.32-1.79.06-.53.09-1.05.09-1.56,0-2.68-.6-5.12-1.79-7.24-1.19-2.13-2.85-3.83-4.94-5.06ZM52.99,29.62c.54-1.1,1.32-1.96,2.33-2.57,1.01-.61,2.22-.92,3.59-.92,1.3,0,2.4.27,3.28.8.87.53,1.55,1.31,2.01,2.3.15.32.28.67.39,1.05l-11.9.03c.09-.26.19-.49.29-.71Z" style="fill:#fff;"/><path d="M97.99,20.59h0c-1.66-1.05-3.56-1.58-5.65-1.58s-4.11.48-5.82,1.42c-1.17.65-2.19,1.5-3.04,2.53-1.47-2.11-3.9-3.39-6.49-3.39h-.5v28.37h8.43v-16.2c0-1,.22-1.89.64-2.64.42-.74,1.01-1.33,1.76-1.73.75-.41,1.62-.62,2.59-.62,1.5,0,2.68.45,3.61,1.38.93.93,1.38,2.11,1.38,3.61v16.2h8.43v-17.84c0-1.93-.48-3.76-1.42-5.43-.94-1.67-2.26-3.05-3.91-4.09Z" style="fill:#fff;"/><path d="M108.32,47.95h.5c4.4,0,7.98-3.58,7.98-7.98v-20.39h-8.49v28.37Z" style="fill:#fff;"/><path d="M112.56,6.66c-1.35,0-2.48.47-3.37,1.4-.88.92-1.33,2.05-1.33,3.35s.45,2.48,1.33,3.38c.89.91,2.02,1.37,3.36,1.37s2.53-.46,3.4-1.37c.86-.9,1.3-2.04,1.3-3.38s-.44-2.42-1.3-3.35c-.87-.93-2.01-1.41-3.4-1.41Z" style="fill:#fff;"/><path d="M147.65,25.87h0c-1.19-2.13-2.85-3.83-4.94-5.06-2.09-1.23-4.53-1.85-7.25-1.85s-5.3.66-7.56,1.97c-2.26,1.3-4.06,3.08-5.37,5.28-1.31,2.2-1.97,4.74-1.97,7.54s.68,5.4,2.03,7.63c1.34,2.22,3.19,3.99,5.48,5.25,2.29,1.26,4.95,1.9,7.89,1.9,2.28,0,4.44-.41,6.4-1.23,1.97-.82,3.67-2.05,5.03-3.65l.3-.35-1.45-1.46c-1.73-1.73-4.37-2.22-6.73-1.22-1.07.44-2.28.67-3.6.67-1.45,0-2.74-.31-3.83-.93-1.08-.61-1.91-1.49-2.49-2.62-.13-.25-.24-.53-.35-.83l19.7-.05.09-.39c.16-.67.26-1.27.32-1.79.06-.53.09-1.05.09-1.56,0-2.68-.6-5.12-1.79-7.24ZM129.53,29.62c.54-1.1,1.32-1.96,2.33-2.57,1.01-.61,2.22-.92,3.59-.92,1.3,0,2.4.27,3.28.8.87.53,1.55,1.31,2.01,2.3.15.32.28.67.39,1.05l-11.9.03c.09-.26.19-.49.29-.71Z" style="fill:#fff;"/></svg>