<?xml version="1.0" encoding="UTF-8"?><svg id="icons" xmlns="http://www.w3.org/2000/svg" width="125" height="125" viewBox="0 0 125 125"><path d="M93.1,58.74c-.09-.14-.19-.27-.31-.39-.24-.23-.54-.41-.87-.5-.17-.05-.35-.07-.53-.07h-49.73c-.76,0-1.39.41-1.74.99-.18.29-.28.62-.3.97-.02.35.05.71.22,1.05l26.1,52.48c.1.19.21.36.35.5.05.05.1.08.15.12.09.08.19.17.29.23.07.04.14.06.21.09.1.04.2.1.3.12.08.02.15.02.23.03.1.01.19.04.29.04,0,0,.01,0,.02,0,.11,0,.21-.03.31-.04.08-.01.16-.01.24-.04.11-.03.2-.09.3-.13.07-.03.14-.05.21-.09.11-.07.2-.16.29-.25.05-.05.1-.08.15-.13.13-.15.25-.33.34-.52l23.63-52.48c.15-.34.21-.7.18-1.04s-.14-.66-.32-.95Z" style="fill:#fff;"/><path d="M90.28,116.13s0-.03-.01-.05c-.05-.19-.12-.37-.23-.54,0,0-.01-.02-.02-.02-.11-.18-.26-.34-.44-.49l-11.59-9.58c-.12-.1-.24-.17-.37-.24-.04-.02-.08-.03-.11-.05-.1-.04-.2-.08-.3-.11-.04,0-.07-.02-.11-.03-.13-.03-.26-.04-.4-.04,0,0,0,0,0,0-.18,0-.35.03-.52.07-.05.01-.09.03-.14.05-.12.04-.23.09-.35.15-.05.03-.1.06-.15.1-.1.07-.2.15-.29.25-.04.04-.08.08-.12.12-.12.14-.22.3-.3.48l-2.72,6.17-.83,1.89c-.07.16-.12.32-.15.48-.2,1.13.6,2.25,1.81,2.38l15.14,1.53c.08,0,.15.01.23.01.01,0,.03,0,.04,0,.2,0,.39-.04.57-.09.03,0,.05-.02.08-.03.17-.06.33-.15.47-.25.02-.02.04-.03.06-.05.14-.11.26-.23.37-.37.02-.02.03-.04.04-.06.1-.14.19-.3.25-.46,0-.02.01-.04.02-.07.06-.17.1-.34.11-.52,0-.02,0-.04,0-.06,0-.18,0-.37-.05-.55Z" style="fill:#fff;"/><path d="M53.12,18.55c-.2-.06-.39-.09-.58-.09,0,0-.02,0-.03,0-.15,0-.31.02-.45.05-.02,0-.03.01-.05.02-.14.04-.27.09-.4.15-.05.02-.09.06-.14.08-.09.05-.18.11-.26.18-.05.04-.09.08-.13.13-.07.07-.13.14-.19.22-.04.05-.07.1-.11.16-.05.08-.1.17-.14.26-.02.06-.05.11-.07.17-.03.1-.05.21-.07.32,0,.05-.02.11-.03.16-.01.17,0,.34.03.51,0,0,0,0,0,0l5.09,27.34.8,4.29c.03.19.1.36.17.51.02.03.03.07.05.1.08.15.18.28.29.4.02.02.04.03.06.05.11.1.22.2.34.27.02.02.05.03.07.05.14.08.29.14.44.19.03,0,.06.02.1.02.15.04.3.06.46.06.01,0,.02,0,.03,0,0,0,0,0,.01,0,.16,0,.32-.02.48-.06.05-.01.09-.03.13-.04.12-.04.24-.09.35-.15.04-.02.09-.05.13-.08.15-.1.29-.21.42-.35l20.84-23.36c.12-.14.22-.29.3-.44s.14-.32.17-.48c.07-.33.06-.67-.03-.98-.13-.48-.43-.9-.88-1.18-.15-.09-.31-.17-.49-.22l-6.32-1.96-20.42-6.32Z" style="fill:#fff;"/><path d="M108.18,60.59c-.23-.2-.52-.36-.85-.44l-8.54-2.12c-.17-.04-.33-.06-.5-.06,0,0,0,0,0,0,0,0-.01,0-.02,0-.15,0-.29.02-.43.05-.05.01-.09.03-.14.05-.09.03-.19.06-.28.1-.05.02-.1.05-.15.08-.08.05-.15.09-.23.15-.05.04-.09.08-.13.12-.07.06-.13.12-.18.19-.04.05-.08.09-.11.14-.05.07-.1.15-.14.24-.03.05-.05.1-.08.15-.04.09-.06.19-.09.29-.01.05-.03.1-.04.15-.02.15-.04.31-.02.48l1.09,15.18c.01.14.03.27.07.4.01.04.03.08.04.12.03.08.06.16.09.24.02.04.04.08.06.12.04.07.08.13.12.19.03.04.05.07.08.11.05.06.1.11.16.17.03.03.06.06.09.08.08.06.16.12.24.17.02,0,.03.02.04.03.1.06.2.11.31.15.03.01.06.02.1.03.08.03.16.05.24.06.04,0,.08.01.12.02.07.01.15.02.22.02.02,0,.05,0,.07,0,.02,0,.03,0,.05,0,.15,0,.29-.02.44-.05.02,0,.04-.01.06-.02.13-.04.26-.09.39-.15.02-.01.05-.02.07-.04.13-.08.26-.17.37-.28.02-.02.05-.05.07-.07.12-.12.22-.25.32-.41l7.45-13.06c.34-.59.34-1.26.1-1.82-.12-.28-.3-.53-.54-.74Z" style="fill:#fff;"/><path d="M35.68,57.14l-8.54-2.12c-.17-.04-.33-.06-.5-.06,0,0,0,0,0,0,0,0-.01,0-.02,0-.15,0-.29.02-.43.05-.05.01-.1.03-.14.05-.09.03-.19.06-.28.1-.05.02-.1.06-.15.08-.08.05-.15.09-.22.15-.05.04-.09.08-.13.12-.07.06-.13.12-.18.19-.04.05-.08.09-.11.14-.05.07-.1.15-.14.24-.03.05-.05.1-.08.16-.04.09-.06.19-.09.29-.01.05-.03.1-.04.15-.02.15-.04.31-.02.47h0s1.09,15.18,1.09,15.18c.01.14.03.27.07.4.01.04.03.08.04.12.03.08.06.16.09.24.02.04.04.08.06.12.04.07.08.13.12.19.03.04.05.07.08.11.05.06.1.11.16.17.03.03.06.06.09.08.07.06.15.12.24.17.02,0,.03.02.05.03.1.06.2.11.31.15.03.01.06.02.1.03.08.02.16.05.24.06.04,0,.08.01.12.02.07.01.15.02.22.02.02,0,.05,0,.07,0,.02,0,.03,0,.05,0,.15,0,.29-.02.44-.05.02,0,.04-.01.06-.02.13-.04.26-.09.39-.15.02-.01.05-.02.07-.04.13-.08.25-.17.37-.28.02-.02.05-.05.07-.07.12-.12.22-.25.31-.41,0,0,0,0,0,0l7.45-13.06c.67-1.18.03-2.67-1.28-3Z" style="fill:#fff;"/><path d="M46.31,9.63c.01.07.01.14.03.22.05.22.13.44.25.66l2.13,4c.12.23.27.42.44.59.04.04.07.08.11.11.17.16.34.3.54.41.03.02.06.03.09.04.18.09.37.16.56.21.04.01.08.03.13.03.21.05.43.07.64.06.04,0,.09,0,.13,0,.2-.01.39-.04.58-.1.03,0,.06-.01.09-.02.01,0,.03,0,.04,0,.2-.07.39-.16.57-.27.05-.03.09-.07.14-.1.14-.1.28-.22.4-.35.05-.05.09-.1.14-.15.15-.19.29-.39.4-.62l1.81-4.01c.1-.23.17-.46.21-.7.04-.23.05-.47.03-.69-.13-1.36-1.27-2.53-2.78-2.53l-3.94.02c-.24,0-.46.04-.68.09-.04,0-.07.02-.11.03-.03,0-.06.01-.08.02-.16.05-.31.13-.46.21-.03.01-.06.02-.08.04-.19.11-.36.25-.51.4-.05.05-.08.1-.13.15-.1.11-.19.23-.27.35-.04.07-.08.14-.11.21-.06.12-.12.24-.16.37-.03.08-.05.16-.07.24-.03.13-.05.26-.07.4,0,.08-.02.16-.02.25,0,.15.02.3.04.45Z" style="fill:#fff;"/><polygon points="120.97 66.4 119.77 63.14 118.56 66.4 115.3 67.6 118.56 68.81 119.77 72.07 120.97 68.81 124.23 67.6 120.97 66.4" style="fill:#fff;"/><polygon points="100.27 46.34 101.48 43.08 104.74 41.87 101.48 40.66 100.27 37.4 99.06 40.66 95.8 41.87 99.06 43.08 100.27 46.34" style="fill:#fff;"/><polygon points="86.89 11.88 87.64 9.86 89.65 9.11 87.64 8.37 86.89 6.35 86.14 8.37 84.13 9.11 86.14 9.86 86.89 11.88" style="fill:#fff;"/><polygon points="26.39 22.12 30.49 20.6 26.39 19.09 24.88 15 23.36 19.09 19.27 20.6 23.36 22.12 24.88 26.21 26.39 22.12" style="fill:#fff;"/><polygon points="8.76 58.86 6.6 64.69 .77 66.84 6.6 69 8.76 74.83 10.91 69 16.75 66.84 10.91 64.69 8.76 58.86" style="fill:#fff;"/></svg>