<?xml version="1.0" encoding="UTF-8"?><svg id="icons" xmlns="http://www.w3.org/2000/svg" width="125" height="125" xmlns:xlink="http://www.w3.org/1999/xlink" viewBox="0 0 125 125"><defs><filter id="drop-shadow-1" x="19.43" y="10.51" width="89" height="111" filterUnits="userSpaceOnUse"><feOffset dx=".74" dy=".74"/><feGaussianBlur result="blur" stdDeviation="3.69"/><feFlood flood-color="#000" flood-opacity=".35"/><feComposite in2="blur" operator="in"/><feComposite in="SourceGraphic"/></filter></defs><g style="filter:url(#drop-shadow-1);"><path d="M42.48,60h40.05c1.2,0,2,1.24,1.5,2.33l-19.03,41.62c-.57,1.25-2.34,1.29-2.97.06l-21.02-41.62c-.55-1.09.24-2.39,1.47-2.39Z" style="fill:#fff;"/><path d="M87.26,60.23l6.88,1.71c1.06.26,1.57,1.47,1.03,2.41l-6,10.52c-.81,1.41-2.96.92-3.07-.7l-.88-12.23c-.08-1.12.95-1.98,2.04-1.72Z" style="fill:#fff;"/><path d="M32,57.82l6.88,1.71c1.06.26,1.57,1.47,1.03,2.41l-6,10.52c-.81,1.41-2.96.92-3.07-.7l-.88-12.23c-.08-1.12.95-1.98,2.04-1.72Z" style="fill:#fff;"/><path d="M66.33,104.78l2.86-6.48c.44-1,1.71-1.3,2.55-.6l9.34,7.72c1.25,1.04.4,3.07-1.21,2.91l-12.2-1.23c-1.11-.11-1.79-1.28-1.34-2.3Z" style="fill:#fff;"/><path d="M54.41,30.4l21.53,6.66c1.14.35,1.54,1.77.74,2.67l-16.79,18.81c-.91,1.02-2.6.55-2.85-.79l-4.75-25.47c-.23-1.22.92-2.24,2.11-1.87Z" style="fill:#fff;"/><path d="M53.6,21.07l3.02.98c1.55.5,2.06,2.44.96,3.64l-2.4,2.61c-1.26,1.37-3.54.7-3.85-1.13l-.62-3.59c-.28-1.66,1.3-3.03,2.9-2.51Z" style="fill:#fff;"/></g></svg>