<?xml version="1.0" encoding="UTF-8"?><svg id="a" xmlns="http://www.w3.org/2000/svg" width="100" height="100" viewBox="0 0 100 100"><path d="m62.84,56.61c1.67-.9,3.58-1.54,5.65-1.82l.41-.06c1.79-.27,3.53.2,5.3.55,1.1.21,1,.24,2.19.24m10.83-.17c5.83,1.72,9.84,6.4,10.14,11.47v.38c0,1.62-1.32,2.94-2.94,2.94h-17.85m-.18-14.62c6.23,0,9.35-6.71,9.35-13.66,0-5.03-.72-7.91-2.88-9.83-1.92-1.68-3.5-2.2-6.71-2.16-4.31.06-9.59,1.92-9.59,10.3,0,4.1,1.33,7.62,2.83,10.24" fill="none" stroke="#999" stroke-linecap="round" stroke-linejoin="round" stroke-width="1.17"/><path d="m22.57,70.13H5.58c-1.62,0-2.94-1.32-2.94-2.94v-.38c.35-5.78,5.51-11.05,12.7-12.01l.41-.06c1.79-.27,3.53.2,5.3.55,1.1.21,1,.24,2.19.24m0,0c6.23,0,9.35-6.71,9.35-13.66,0-5.03-.72-7.91-2.88-9.83-1.92-1.68-3.5-2.2-6.71-2.16-4.31.06-9.59,1.92-9.59,10.3,0,4.1,1.33,7.62,2.83,10.24" fill="none" stroke="#999" stroke-linecap="round" stroke-linejoin="round" stroke-width="1.17"/><path d="m63.4,56.93c7.57,2.24,12.78,8.32,13.17,14.9v.5c0,2.11-1.71,3.82-3.82,3.82H26.39c-2.11,0-3.82-1.71-3.82-3.82v-.5c.45-7.51,7.16-14.36,16.5-15.6l.54-.08c2.32-.35,4.59.26,6.89.71,1.43.28,1.3.31,2.84.31m0,0c8.09,0,12.14-8.72,12.14-17.74,0-6.54-.93-10.27-3.74-12.76-2.49-2.18-4.54-2.86-8.72-2.8-5.6.08-12.45,2.49-12.45,13.39,0,5.32,1.73,9.89,3.68,13.31" fill="none" stroke="#999" stroke-linecap="round" stroke-linejoin="round" stroke-width="1.17"/></svg>