<svg id="Layer_1" data-name="Layer 1" xmlns="http://www.w3.org/2000/svg" viewBox="0 0 18 18"><defs><style>.cls-1{fill:#0b8afc;}.cls-2{fill:#fe5758;}</style></defs><title>addevent copy</title><path class="cls-1" d="M12.58,8.69h-.75v2.68a5.08,5.08,0,0,0,.76,0c.94,0,1.8-.34,1.8-1.36S13.57,8.69,12.58,8.69Z"/><path class="cls-1" d="M14.17,6.83c0-.83-.62-1.15-1.54-1.15a4,4,0,0,0-.8.06V8h.82C13.61,8,14.17,7.5,14.17,6.83Z"/><path class="cls-2" d="M4.88,5.84h0c-.1.41-.22.84-.35,1.27l-.69,2H5.94l-.69-2C5.09,6.66,5,6.24,4.88,5.84Z"/><path class="cls-2" d="M.33,6.6A9,9,0,0,0,6.6,17.67L11.4.33A9,9,0,0,0,.33,6.6Zm6.54,5.46L6.12,9.85H3.63L2.9,12.06H2L4.35,5h1.1l2.39,7Z"/><path class="cls-1" d="M11.4.33,6.6,17.67A9,9,0,1,0,11.4.33Zm3.36,11.14a3.57,3.57,0,0,1-2.43.65A11,11,0,0,1,10.92,12V5.13A9.06,9.06,0,0,1,12.58,5a2.93,2.93,0,0,1,1.93.51,1.48,1.48,0,0,1,.58,1.24A1.68,1.68,0,0,1,13.9,8.28v0a1.8,1.8,0,0,1,1.45,1.76A1.93,1.93,0,0,1,14.76,11.47Z"/></svg>