<?xml version="1.0" encoding="UTF-8"?><svg id="a" xmlns="http://www.w3.org/2000/svg" width="24" height="24" viewBox="0 0 24 24"><path d="m20.99,13.61c.02-.25.03-.5.02-.75,0-.03,0-.06,0-.09-.03-1.17-.28-2.35-.79-3.47-.64-1.42-1.65-2.64-2.91-3.54-.51-.36-1.05-.67-1.62-.92-.47-.21-.97-.37-1.47-.49.01-.04.03-.09.03-.13,0-1.22-1-2.2-2.24-2.2s-2.24.99-2.24,2.2c0,.05.01.1.03.14-1.35.33-2.61.97-3.7,1.91l-1.29-1.29c-.2-.2-.51-.2-.71,0s-.2.51,0,.71l1.29,1.29c-.53.57-1.01,1.19-1.37,1.89l-.21.44c-.08.19-.16.38-.24.57-.4,1.08-.58,2.2-.55,3.3,0,.87.13,1.74.39,2.57l.16.46c.07.19.15.38.24.57,1.43,3.14,4.52,5.09,7.87,5.2.01,0,.02,0,.03,0,.04,0,.08,0,.11,0,.05,0,.09,0,.14,0,.03,0,.06,0,.09,0,.01,0,.03,0,.04,0,.06,0,.11-.01.17-.01.29,0,.59-.03.88-.07,1.87-.22,3.6-1,4.96-2.23l1.28,1.28c.1.1.23.15.35.15s.26-.05.35-.15c.2-.2.2-.51,0-.71l-1.3-1.3c.7-.8,1.29-1.71,1.68-2.75.31-.83.48-1.7.53-2.58Zm-5.5,6.59c-.07,0-.13.02-.2.04-.48.22-.97.39-1.47.51-.35.08-.69.13-1.04.17-.34.03-.69.05-1.04.04-.01,0-.03,0-.04,0-.8-.03-1.59-.18-2.34-.43-.04-.03-.08-.07-.14-.08-.49-.18-.96-.41-1.4-.68-2.16-1.32-3.5-3.54-3.77-5.92-.03-.33-.06-.67-.05-1.01.06-1.96.83-3.76,2.11-5.15l11.24,11.24s-.03.05-.05.07c-.55.48-1.16.88-1.82,1.19Zm-4.21-15.09c.32-.03.64-.02.96-.02.86.03,1.72.19,2.56.5,1.69.63,3.08,1.77,4.02,3.29.26.41.48.85.66,1.31.19.48.32.97.41,1.47,0,.05.02.11.03.16.03.22.05.43.06.65.01.24.03.47.02.71,0,.09,0,.17,0,.26-.11,1.73-.79,3.39-1.97,4.74l-4.68-4.68h4.23c.28,0,.5-.22.5-.5s-.22-.5-.5-.5h-4.54c-.19,0-.35.11-.43.26l-.52-.52c.22-.05.39-.24.39-.47l.03-3.61c0-.28-.22-.5-.5-.5h0c-.27,0-.5.22-.5.5l-.02,3.48-4.65-4.65c.56-.47,1.2-.88,1.89-1.2.82-.37,1.68-.6,2.55-.69h0Zm.73-2.11c.66,0,1.2.51,1.23,1.15-.53-.07-1.07-.09-1.6-.07-.15,0-.3.01-.45.03-.03,0-.06,0-.08.01-.11.01-.22.03-.33.04.02-.65.56-1.17,1.23-1.17Z"/></svg>