<?xml version="1.0" encoding="UTF-8"?><svg id="a" xmlns="http://www.w3.org/2000/svg" width="24" height="24" viewBox="0 0 24 24"><path d="m17.58,12.51h-4.15c-.17-.42-.51-.75-.95-.89l.02-3.44c0-.28-.22-.5-.5-.5h0c-.27,0-.5.22-.5.5l-.02,3.45c-.61.21-1.05.78-1.05,1.46,0,.86.7,1.55,1.56,1.55.71,0,1.3-.48,1.49-1.13h4.1c.28,0,.5-.22.5-.5s-.22-.5-.5-.5Zm-5.59,1.13c-.31,0-.56-.25-.56-.55s.25-.56.56-.56.56.25.56.56-.25.55-.56.55Z"/><path d="m21.02,12.86s0-.06,0-.09c-.03-1.17-.28-2.35-.79-3.47-.64-1.42-1.65-2.64-2.91-3.54-.51-.36-1.05-.67-1.62-.92-.47-.21-.97-.37-1.47-.49.01-.04.03-.09.03-.13,0-1.22-1-2.2-2.24-2.2s-2.24.99-2.24,2.2c0,.05.01.1.03.14-1.47.36-2.85,1.08-4.01,2.16-.72.68-1.32,1.47-1.78,2.34l-.21.44c-.08.19-.16.38-.24.57-.4,1.08-.58,2.2-.55,3.3,0,.87.13,1.74.39,2.57l.16.46c.07.19.15.38.24.57,1.43,3.14,4.52,5.09,7.87,5.2.01,0,.02,0,.03,0,.04,0,.08,0,.11,0,.05,0,.09,0,.14,0,.03,0,.06,0,.09,0,.01,0,.03,0,.04,0,.06,0,.11-.01.17-.01.29,0,.59-.03.88-.07,3.3-.39,6.14-2.54,7.33-5.7.31-.83.48-1.7.53-2.58.02-.25.03-.5.02-.75Zm-1.02.59c-.12,2.01-1,3.95-2.57,5.38-.06.05-.09.11-.12.18-.55.48-1.16.88-1.82,1.19-.07,0-.13.01-.2.04-.48.22-.97.39-1.47.51-.35.08-.71.14-1.06.17-.34.03-.68.05-1.03.04-.01,0-.02,0-.04,0-.81-.03-1.59-.18-2.34-.43-.04-.03-.08-.06-.14-.08-.49-.18-.96-.41-1.4-.68-2.16-1.32-3.5-3.54-3.77-5.92-.03-.33-.06-.67-.05-1.01.1-3.06,1.91-5.76,4.72-7.04.82-.37,1.68-.6,2.55-.69h0c.32-.03.64-.02.96-.02.86.03,1.72.19,2.56.5,1.69.63,3.08,1.77,4.02,3.29.26.41.48.85.66,1.31.19.48.32.97.41,1.47,0,.05.02.11.03.16.03.22.05.43.06.65.01.24.03.47.02.71,0,.09,0,.17,0,.26ZM12.01,3c.67,0,1.2.51,1.23,1.15-.53-.07-1.07-.09-1.6-.07-.15,0-.3.01-.45.03-.02,0-.05,0-.07,0-.11.01-.23.03-.34.04.02-.65.56-1.17,1.23-1.17Z"/></svg>