<?xml version="1.0" encoding="UTF-8"?><svg id="a" xmlns="http://www.w3.org/2000/svg" width="24" height="24" viewBox="0 0 24 24" style="fill:#666"><path d="m10.38,2C5.76,2,2,5.76,2,10.38s3.76,8.38,8.38,8.38,8.38-3.76,8.38-8.38S15,2,10.38,2Zm0,15.5c-3.93,0-7.12-3.2-7.12-7.12s3.2-7.12,7.12-7.12,7.12,3.2,7.12,7.12-3.2,7.12-7.12,7.12Z" style="stroke-width:0px;"/><path d="m21.82,20.94l-4.13-4.13c-.24-.24-.64-.24-.88,0-.24.24-.24.64,0,.88l4.13,4.13c.12.12.28.18.44.18s.32-.06.44-.18c.24-.24.24-.64,0-.88Z" style="stroke-width:0px;"/></svg>