<?xml version="1.0" encoding="UTF-8"?><svg xmlns="http://www.w3.org/2000/svg" width="47" height="25" viewBox="0 0 47 25"><g id="bg"><g id="b"><polygon points="1.25 0 1.25 13.7 23.45 25 45.75 13.7 45.75 0 1.25 0" style="fill:#6d6e71;"/><g style="opacity:.1;"><path d="M4.28,10.97h-1v-1l1-.02v1.02ZM4.28,8.98h-1v-1l1-.02v1.02ZM4.28,6.99h-1v-1l1-.02v1.02ZM4.28,5h-1v-1l1-.02v1.02ZM4.28,3.01h-1v-1l1-.02v1.02ZM4.28,1.02h-1V.02L4.28,0v1.02Z"/><path d="M3.99,13.14l-.44-.24c-.16-.09-.27-.26-.27-.44v-.5h1s0,.21,0,.21l.18.1-.48.88Z"/><path d="M22.16,22.24l-.88-.48.46-.89.9.49-.48.88ZM20.35,21.33l-.88-.48.46-.89.9.49-.48.88ZM18.53,20.42l-.88-.48.46-.89.9.49-.48.88ZM16.71,19.51l-.88-.48.46-.89.9.49-.48.88ZM14.93,18.59l-.9-.43.41-.91.92.44-.43.9ZM13.12,17.68l-.9-.43.41-.91.92.44-.43.9ZM11.29,16.77l-.9-.44.42-.91.92.45-.44.9ZM9.47,15.86l-.9-.44.42-.91.92.45-.44.9ZM7.66,14.95l-.9-.44.42-.91.92.45-.44.9ZM5.83,14.04l-.89-.46.44-.9.91.47-.46.89Z"/><path d="M23.77,22.96c-.08,0-.17-.02-.24-.06l-.44-.24.48-.88.21.12.2-.11.48.88-.44.23c-.08.04-.16.06-.25.06Z"/><path d="M25.37,22.22l-.46-.89.92-.45.44.9-.9.44ZM27.2,21.31l-.46-.89.92-.45.44.9-.9.44ZM29.02,20.4l-.46-.89.92-.45.44.9-.9.44ZM30.87,19.5l-.48-.88.9-.48.47.89-.88.47ZM32.7,18.59l-.48-.88.9-.48.47.89-.88.47ZM34.53,17.68l-.49-.87.9-.49.48.88-.88.48ZM36.32,16.76l-.46-.89.92-.45.44.9-.9.44ZM38.15,15.85l-.46-.89.92-.45.44.9-.9.44ZM39.97,14.94l-.46-.89.92-.45.44.9-.9.44ZM41.79,14.03l-.45-.9.92-.44.43.9-.9.43Z"/><path d="M43.65,13.13l-.49-.87.19-.1v-.21h1s0,.49,0,.49c0,.18-.1.36-.26.45l-.44.24Z"/><path d="M43.35,10.97v-1.02h1v1l-1,.02ZM43.35,8.98v-1.02h1v1l-1,.02ZM43.35,6.99v-1.02h1v1l-1,.02ZM43.35,5v-1.02h1v1l-1,.02ZM43.35,3.01v-1.02h1v1l-1,.02ZM43.35,1.02V0h1V1l-1,.02Z"/></g><path d="M3.97,10.8h-1v-1l1-.02v1.02ZM3.97,8.81h-1v-1l1-.02v1.02ZM3.97,6.81h-1v-1l1-.02v1.02ZM3.97,4.82h-1v-1l1-.02v1.02ZM3.97,2.83h-1v-1l1-.02v1.02ZM3.97.84h-1V-.16l1-.02V.84Z" style="fill:#fff;"/><path d="M3.67,12.96l-.44-.24c-.16-.09-.27-.26-.27-.44v-.5h1s0,.21,0,.21l.18.1-.48.88Z" style="fill:#fff;"/><path d="M21.85,22.06l-.88-.48.46-.89.9.49-.48.88ZM20.03,21.15l-.88-.48.46-.89.9.49-.48.88ZM18.22,20.24l-.88-.48.46-.89.9.49-.48.88ZM16.4,19.33l-.88-.48.46-.89.9.49-.48.88ZM14.62,18.41l-.9-.43.41-.91.92.44-.43.9ZM12.8,17.5l-.9-.43.41-.91.92.44-.43.9ZM10.98,16.59l-.9-.44.42-.91.92.45-.44.9ZM9.16,15.68l-.9-.44.42-.91.92.45-.44.9ZM7.34,14.77l-.9-.44.42-.91.92.45-.44.9ZM5.51,13.87l-.89-.46.44-.9.91.47-.46.89Z" style="fill:#fff;"/><path d="M23.45,22.79c-.08,0-.17-.02-.24-.06l-.44-.24.48-.88.21.12.2-.11.48.88-.44.23c-.08.04-.16.06-.25.06Z" style="fill:#fff;"/><path d="M25.06,22.04l-.46-.89.92-.45.44.9-.9.44ZM26.88,21.13l-.46-.89.92-.45.44.9-.9.44ZM28.71,20.22l-.46-.89.92-.45.44.9-.9.44ZM30.55,19.32l-.48-.88.9-.48.47.89-.88.47ZM32.38,18.41l-.48-.88.9-.48.47.89-.88.47ZM34.21,17.5l-.49-.87.9-.49.48.88-.88.48ZM36.01,16.58l-.46-.89.92-.45.44.9-.9.44ZM37.83,15.67l-.46-.89.92-.45.44.9-.9.44ZM39.66,14.76l-.46-.89.92-.45.44.9-.9.44ZM41.48,13.85l-.45-.9.92-.44.43.9-.9.43Z" style="fill:#fff;"/><path d="M43.34,12.96l-.49-.87.19-.1v-.21h1s0,.49,0,.49c0,.18-.1.36-.26.45l-.44.24Z" style="fill:#fff;"/><path d="M43.03,10.8v-1.02h1v1l-1,.02ZM43.03,8.81v-1.02h1v1l-1,.02ZM43.03,6.82v-1.02h1v1l-1,.02ZM43.03,4.82v-1.02h1v1l-1,.02ZM43.03,2.83v-1.02h1v1l-1,.02ZM43.03.84V-.18h1V.82l-1,.02Z" style="fill:#fff;"/></g></g><g id="a"><path d="M14.98,11.02v-1.03l4.03-5.78h1.66v5.63h1.12v1.19h-1.12v1.82h-1.34v-1.82h-4.34ZM19.38,5.6l-2.83,4.24h2.83v-4.24Z" style="fill:#fff;"/><path d="M23.02,12.68c-.17-.17-.25-.38-.25-.62s.08-.46.25-.62.38-.25.62-.25.44.08.61.25.25.38.25.62-.08.46-.25.62-.37.25-.61.25-.46-.08-.62-.25Z" style="fill:#fff;"/><path d="M26.03,6.3c0-.43.11-.83.32-1.19.22-.36.54-.65.97-.86.43-.21.96-.32,1.58-.32s1.14.11,1.58.32.76.5.98.86c.22.36.32.76.32,1.19s-.11.84-.34,1.18c-.23.34-.53.6-.91.79.46.17.82.44,1.08.82s.4.83.4,1.34-.13.98-.4,1.38c-.26.4-.63.71-1.1.92-.47.22-1.01.32-1.61.32s-1.13-.11-1.6-.32c-.47-.22-.83-.52-1.1-.92-.26-.4-.4-.86-.4-1.38s.13-.97.4-1.34.62-.65,1.07-.82c-.83-.42-1.25-1.07-1.25-1.97ZM27.62,9.26c-.33.26-.5.63-.5,1.12,0,.46.16.83.48,1.11.32.28.76.43,1.31.43s.97-.14,1.29-.43c.32-.29.47-.66.47-1.1,0-.48-.16-.85-.49-1.12-.32-.26-.75-.4-1.28-.4s-.96.13-1.29.39ZM30.06,5.44c-.28-.24-.66-.36-1.15-.36s-.86.12-1.14.36c-.28.24-.42.59-.42,1.04,0,.4.15.73.44.98s.67.38,1.12.38.83-.13,1.13-.38.44-.58.44-.98c0-.45-.14-.79-.42-1.03Z" style="fill:#fff;"/></g></svg>