<?xml version="1.0" encoding="utf-8"?>
<!-- Generator: Adobe Illustrator 27.8.0, SVG Export Plug-In . SVG Version: 6.00 Build 0)  -->
<svg version="1.1" id="a" xmlns="http://www.w3.org/2000/svg" xmlns:xlink="http://www.w3.org/1999/xlink" x="0px" y="0px"
	 viewBox="0 0 47.1 24.9" style="enable-background:new 0 0 47.1 24.9;" xml:space="preserve">
<style type="text/css">
	.st0{fill:#6D6E71;}
	.st1{fill:#FFFFFF;}
</style>
<g id="b">
	<polygon class="st0" points="1.3,-0.6 1.3,12.5 23.5,23.8 45.8,12.5 45.8,-0.6 	"/>
	<polygon class="st1" points="4.8,11.9 6,12.5 6.2,12.1 5,11.5 	"/>
	<path class="st1" d="M6.1,12.7L4.6,12L5,11.3L6.4,12L6.1,12.7z M5.1,11.8l0.8,0.4v-0.1L5.1,11.8L5.1,11.8z"/>
	<polygon class="st1" points="9.4,14.3 10.5,14.9 10.7,14.5 9.6,13.9 	"/>
	<path class="st1" d="M10.6,15.2l-1.4-0.8l0.4-0.7l1.4,0.8L10.6,15.2z M9.6,14.2l0.8,0.4v-0.1L9.6,14.2L9.6,14.2z"/>
	<polygon class="st1" points="7.1,13.1 8.2,13.7 8.4,13.3 7.3,12.7 	"/>
	<path class="st1" d="M8.3,14l-1.4-0.8l0.4-0.7l1.4,0.8L8.3,14z M7.3,13.1l0.8,0.4v-0.1L7.3,13.1L7.3,13.1z"/>
	<polygon class="st1" points="13.9,16.8 15.1,17.4 15.3,17 14.1,16.4 	"/>
	<path class="st1" d="M15.2,17.6l-1.4-0.8l0.4-0.7l1.4,0.8L15.2,17.6z M14.2,16.7l0.8,0.4V17L14.2,16.7L14.2,16.7z"/>
	<polygon class="st1" points="18.5,19.2 19.7,19.8 19.9,19.4 18.7,18.8 	"/>
	<path class="st1" d="M19.7,20l-1.4-0.8l0.4-0.7l1.4,0.8L19.7,20z M18.7,19.1l0.8,0.4v-0.1L18.7,19.1L18.7,19.1z"/>
	<polygon class="st1" points="3.6,10 3.2,10 3.2,11 3.7,11.3 3.9,10.9 3.6,10.7 	"/>
	<path class="st1" d="M3.7,11.5L3,11.1V9.9h0.8v0.8l0.3,0.2C4.1,10.8,3.7,11.5,3.7,11.5z M3.3,10.9L3.6,11l0,0L3.3,10.9v-0.7l0,0
		V10.9z"/>
	<polygon class="st1" points="16.2,18 17.4,18.6 17.6,18.2 16.4,17.6 	"/>
	<path class="st1" d="M17.4,18.8L16,18.1l0.4-0.7l1.4,0.8L17.4,18.8z M16.4,17.9l0.8,0.4v-0.1L16.4,17.9L16.4,17.9z"/>
	<polygon class="st1" points="11.7,15.5 12.8,16.2 13,15.8 11.9,15.2 	"/>
	<path class="st1" d="M12.9,16.4l-1.4-0.8l0.4-0.7l1.4,0.8L12.9,16.4z M11.9,15.5l0.8,0.4v-0.1L11.9,15.5L11.9,15.5z"/>
	<polygon class="st1" points="20.8,20.4 21.9,21 22.1,20.6 21,20 	"/>
	<path class="st1" d="M22,21.3l-1.4-0.8l0.4-0.7l1.4,0.8L22,21.3z M21,20.3l0.8,0.4v-0.1L21,20.3L21,20.3z"/>
	<rect x="3.2" y="7.4" class="st1" width="0.4" height="1.3"/>
	<path class="st1" d="M3.8,8.9H3V7.2h0.8V8.9z M3.3,8.5L3.3,8.5l0.1-1H3.3V8.5z"/>
	<rect x="3.2" y="4.8" class="st1" width="0.4" height="1.3"/>
	<path class="st1" d="M3.8,6.3H3V4.6h0.8V6.3z M3.3,5.9L3.3,5.9L3.4,5H3.3V5.9z"/>
	<rect x="3.2" y="2.1" class="st1" width="0.4" height="1.3"/>
	<path class="st1" d="M3.8,3.6H3V2h0.8V3.6z M3.3,3.3L3.3,3.3l0.1-1H3.3V3.3z"/>
	<rect x="3.2" y="-0.5" class="st1" width="0.4" height="1.3"/>
	<path class="st1" d="M3.8,1H3v-1.7h0.8V1z M3.3,0.6L3.3,0.6l0.1-1H3.3V0.6z"/>
	<rect x="43.9" y="7.3" class="st1" width="0.4" height="1.3"/>
	<path class="st1" d="M44.5,8.8h-0.8V7.2h0.8V8.8z M44,8.5L44,8.5l0.1-1H44V8.5z"/>
	<rect x="43.9" y="4.7" class="st1" width="0.4" height="1.3"/>
	<path class="st1" d="M44.5,6.2h-0.8V4.5h0.8V6.2z M44,5.8L44,5.8l0.1-1H44V5.8z"/>
	<rect x="43.9" y="2.1" class="st1" width="0.4" height="1.3"/>
	<path class="st1" d="M44.5,3.6h-0.8V1.9h0.8V3.6z M44,3.2L44,3.2l0.1-1H44V3.2z"/>
	<polygon class="st1" points="41.3,12.1 41.5,12.5 42.7,11.9 42.5,11.5 	"/>
	<path class="st1" d="M41.5,12.7L41.1,12l1.4-0.8l0.4,0.7L41.5,12.7z M41.6,12.2L41.6,12.2l0.8-0.4v-0.1L41.6,12.2z"/>
	<polygon class="st1" points="43.9,10.7 43.6,10.9 43.8,11.3 44.3,11 44.3,10 43.9,10 	"/>
	<path class="st1" d="M43.7,11.5l-0.4-0.7l0.3-0.2V9.8h0.8v1.3C44.5,11.1,43.7,11.5,43.7,11.5z M43.9,10.9L43.9,10.9h0.2v-0.8H44
		v0.7L43.9,10.9z"/>
	<rect x="43.9" y="-0.5" class="st1" width="0.4" height="1.3"/>
	<path class="st1" d="M44.5,0.9h-0.8v-1.7h0.8V0.9z M44,0.6L44,0.6l0.1-1H44C44-0.4,44,0.6,44,0.6z"/>
	<polygon class="st1" points="32.2,17 32.4,17.3 33.5,16.7 33.3,16.3 	"/>
	<path class="st1" d="M32.3,17.6L32,16.9l1.4-0.8l0.4,0.7L32.3,17.6z M32.4,17L32.4,17l0.8-0.4v-0.1L32.4,17z"/>
	<polygon class="st1" points="27.6,19.4 27.8,19.8 29,19.2 28.8,18.8 	"/>
	<path class="st1" d="M27.8,20l-0.4-0.7l1.4-0.8l0.4,0.7L27.8,20z M27.9,19.5L27.9,19.5l0.8-0.4V19L27.9,19.5z"/>
	<polygon class="st1" points="39.1,13.3 39.3,13.7 40.4,13.1 40.2,12.7 	"/>
	<path class="st1" d="M39.2,14l-0.4-0.7l1.4-0.8l0.4,0.7L39.2,14z M39.3,13.4L39.3,13.4l0.8-0.4l0,0L39.3,13.4z"/>
	<polygon class="st1" points="25.4,20.6 25.6,21 26.7,20.4 26.5,20 	"/>
	<path class="st1" d="M25.5,21.2l-0.4-0.7l1.4-0.8l0.4,0.7L25.5,21.2z M25.6,20.7L25.6,20.7l0.8-0.4v-0.1L25.6,20.7z"/>
	<polygon class="st1" points="29.9,18.2 30.1,18.5 31.3,18 31.1,17.6 	"/>
	<path class="st1" d="M30,18.8l-0.4-0.7l1.4-0.8l0.4,0.7L30,18.8z M30.1,18.2L30.1,18.2l0.8-0.4v-0.1L30.1,18.2z"/>
	<polygon class="st1" points="36.8,14.5 37,14.9 38.1,14.3 37.9,13.9 	"/>
	<path class="st1" d="M36.9,15.1l-0.4-0.7l1.5-0.8l0.4,0.7L36.9,15.1z M37,14.6L37,14.6l0.8-0.4v-0.1L37,14.6z"/>
	<polygon class="st1" points="34.5,15.7 34.7,16.1 35.8,15.5 35.6,15.1 	"/>
	<path class="st1" d="M34.6,16.4l-0.4-0.7l1.4-0.8l0.4,0.7L34.6,16.4z M34.7,15.8L34.7,15.8l0.8-0.4v-0.1L34.7,15.8z"/>
	<polygon class="st1" points="23.7,21.5 23.3,21.2 23.1,21.6 23.7,22 24.4,21.6 24.2,21.2 	"/>
	<path class="st1" d="M23.7,22.2l-0.9-0.5l0.4-0.7l0.5,0.3l0.6-0.3l0.4,0.7C24.6,21.7,23.7,22.2,23.7,22.2z M23.3,21.5l0.4,0.2
		l0.5-0.2v-0.1l-0.4,0.2L23.3,21.5C23.4,21.5,23.3,21.5,23.3,21.5z"/>
</g>
<g>
	<path class="st1" d="M13,10.6l1-1.3c0.6,0.6,1.4,1.1,2.5,1.1c0.9,0,1.4-0.4,1.4-0.9c0-1.4-4.6-0.4-4.6-3.4c0-1.3,1.1-2.4,3-2.4
		c1.3,0,2.3,0.4,3.1,1.1L18.5,6c-0.6-0.6-1.5-0.9-2.3-0.9c-0.7,0-1.1,0.3-1.1,0.8c0,1.3,4.6,0.4,4.6,3.4c0,1.5-1.1,2.6-3.2,2.6
		C14.9,11.9,13.8,11.4,13,10.6L13,10.6z"/>
	<path class="st1" d="M22.4,11.7V5.3h-2.3V3.8h6.4v1.5h-2.3v6.5C24.2,11.7,22.4,11.7,22.4,11.7z"/>
	<path class="st1" d="M27.6,11.7v-8h3.7C33,3.8,34,4.9,34,6.3s-1,2.6-2.7,2.6h-2v2.8H27.6z M32.3,6.3c0-0.7-0.5-1.1-1.2-1.1h-1.8
		v2.1h1.8C31.7,7.4,32.3,7,32.3,6.3z"/>
	<path class="st1" d="M33.4,11.1c0-0.2,0.1-0.4,0.2-0.6c0.3-0.3,0.8-0.3,1.1,0c0.2,0.1,0.2,0.3,0.2,0.6c0,0.2-0.1,0.4-0.2,0.5
		c-0.3,0.3-0.8,0.3-1.2,0C33.5,11.5,33.4,11.3,33.4,11.1z"/>
</g>
</svg>
