<?xml version="1.0" encoding="UTF-8"?>
<svg id="Layer_1" data-name="Layer 1" xmlns="http://www.w3.org/2000/svg" width="22" height="22" viewBox="0 0 22 22">
  <defs>
    <style>
      .cls-1 {
        fill: #fff;
        stroke-width: 0px;
      }
    </style>
  </defs>
  <g>
    <g>
      <path class="cls-1" d="M20.37,2.5h-2.7l.26.68c.1.26.16.55.16.82s-.05.56-.16.82l-.26.68h2.7c.83,0,1.5-.67,1.5-1.5s-.67-1.5-1.5-1.5Z"/>
      <path class="cls-1" d="M12.96,2.5H1.63c-.83,0-1.5.67-1.5,1.5s.67,1.5,1.5,1.5h11.33l-.26-.68c-.1-.26-.16-.55-.16-.82s.05-.55.16-.82l.26-.68Z"/>
    </g>
    <path class="cls-1" d="M17.33,4c0-1.12-.91-2.02-2.02-2.02s-2.02.91-2.02,2.02.91,2.02,2.02,2.02,2.02-.91,2.02-2.02Z"/>
  </g>
  <g>
    <g>
      <path class="cls-1" d="M14.49,16.5H1.63c-.83,0-1.5.67-1.5,1.5s.67,1.5,1.5,1.5h12.85l-.26-.68c-.1-.26-.16-.55-.16-.82s.05-.56.16-.82l.26-.68Z"/>
      <path class="cls-1" d="M20.37,16.5h-1.18l.26.68c.1.26.16.55.16.82s-.05.56-.16.82l-.26.68h1.18c.83,0,1.5-.67,1.5-1.5s-.67-1.5-1.5-1.5Z"/>
    </g>
    <path class="cls-1" d="M18.89,18c0-1.12-.91-2.02-2.02-2.02s-2.02.91-2.02,2.02.91,2.02,2.02,2.02,2.02-.91,2.02-2.02Z"/>
  </g>
  <g>
    <g>
      <path class="cls-1" d="M4.6,11v-.2c.02-.21.07-.42.15-.62l.26-.68H1.63c-.83,0-1.5.67-1.5,1.5s.67,1.5,1.5,1.5h3.39l-.26-.68c-.1-.26-.16-.55-.16-.82Z"/>
      <path class="cls-1" d="M20.37,9.5h-10.65l.26.68c.1.26.16.55.16.82s-.05.56-.16.82l-.26.68h10.65c.83,0,1.5-.67,1.5-1.5s-.67-1.5-1.5-1.5Z"/>
    </g>
    <path class="cls-1" d="M9.39,11c0-1.12-.91-2.02-2.02-2.02s-2.02.91-2.02,2.02.91,2.02,2.02,2.02,2.02-.91,2.02-2.02Z"/>
  </g>
</svg>