<?xml version="1.0" encoding="UTF-8"?>
<svg id="Layer_1" data-name="Layer 1" xmlns="http://www.w3.org/2000/svg" width="22" height="22" viewBox="0 0 22 22">
  <defs>
    <style>
      .cls-1 {
        fill: #fc2d32;
      }

      .cls-1, .cls-2 {
        stroke-width: 0px;
      }

      .cls-2 {
        fill: #00006e;
      }
    </style>
  </defs>
  <path class="cls-1" d="M21.11,14.55c-.42-.21-.86-.37-1.31-.49-.02,0-.72-.2-1.37-.43.04-.27-.12-.57-.47-.57-.16,0-.28.07-.37.16-.09-.09-.15-.2-.15-.34v-.86s1.91.06,2.82-.87c0,0-1.32-.37-1.08-2.78.24-2.4-.3-4.51-2.24-4.33,0,0-.84-1.01-2.5-.37-.57.22-2.11.77-2.03,4.1.08,3.33-1.18,3.35-1.18,3.35,0,0,.66.95,2.87.93v.83c0,.15-.07.28-.18.37.65.55,1.17,1.11,1.55,1.95.39.88.41,2.04.51,2.91h5.52c.28,0,.5-.22.5-.5v-1.8c-.05-.55-.39-1.03-.89-1.27Z"/>
  <path class="cls-2" d="M14.86,16.22c-.35-1.13-.96-1.84-1.87-2.54-.01-.01-.02-.02-.03-.03-.7-.49-1.99-1.04-2.97-1.5.02-.06.05-.09.06-.16.04-.24.05-.52.05-.76,0-.11-.01-.1-.26-.19-.07-.03-.4-.18-.44-.16.53-.29.87-1.51.94-1.87.19.11.46.04.77-1.05.27-.9.12-1.19-.12-1.27h-.08c.04-.11.04-.19.04-.19.85-3.43-1.12-3.28-1.12-3.28-.15-.67-1.15-1.38-2.08-1.19-.92.19-2.85-.04-2.85-.04-.04.41.31.67.31.67-1.96,1.16-1.15,3.84-1.15,3.84-.31-.04-.65.15-.31,1.27.23.82.46,1.05.65,1.08.08.48.49,1.73.95,2.04-.03.01-.07,0-.1.03-.1.05-.2.1-.29.15-.11.06-.31.09-.38.2-.07.11.04.7.06.84,0,.03.02.05.02.08-1.37.69-3.13,1.56-4.17,2.41-.33.27-.51.68-.51,1.1v2.57c0,.28.22.5.5.5h14.06c.28,0,.51-.23.5-.52-.03-.67-.07-1.65-.19-2.04Z"/>
</svg>