<?xml version="1.0" encoding="UTF-8"?><svg id="a" xmlns="http://www.w3.org/2000/svg" width="24" height="24" viewBox="0 0 24 24"><circle cx="12" cy="12" r="9.9" style="fill:#0077b5;"/><path d="M12.57,11.23c.2-.27.49-.51.76-.7,1.1-.68,2.54-.32,3.2.8,0,0,0,0,0,0,.09.15.17.31.22.48.13.47.19.96.18,1.45v3.41c0,.2-.05.27-.26.27h-1.33c-.2,0-.25-.07-.25-.27v-3.32c0-.21,0-.43-.04-.64-.05-.49-.44-.88-.93-.9-.51-.04-.99.29-1.16.79-.05.18-.08.37-.06.55v3.5c0,.22-.05.29-.26.29h-1.7c-.13,0-.23-.1-.23-.23v-6.1c0-.18.05-.25.22-.24h1.62v.87Z" style="fill:#fff;"/><path d="M7.06,13.44v-2.84c0-.22.08-.28.31-.27h1.69c.17,0,.23.05.23.21v6.2c0,.16-.06.21-.23.21h-1.73c-.2,0-.27-.05-.27-.25.01-.96,0-2.29,0-3.25Z" style="fill:#fff;"/><path d="M8.18,9.29c-.58.04-1.08-.41-1.12-.99v-.12c-.02-.6.45-1.1,1.04-1.11,0,0,0,0,0,0h.07c.58-.04,1.09.41,1.13,1v.11c.04.58-.4,1.08-.97,1.12-.05,0-.09,0-.14,0Z" style="fill:#fff;"/></svg>