<?xml version="1.0" encoding="UTF-8"?><svg id="icons" xmlns="http://www.w3.org/2000/svg" width="20" height="24" viewBox="0 0 20 24"><polygon points="10 0 10 19.71 20 24 20 0 10 0" style="fill:#04a504;"/><polygon points="0 0 0 24 10 19.71 10 0 0 0" style="fill:#007c00;"/><path d="M13.43,8.96c.38.48.57,1.03.57,1.65,0,.56-.14,1.05-.41,1.47-.28.42-.68.76-1.2.99-.52.24-1.14.36-1.85.36h-4.53V3h4.34c.71,0,1.33.11,1.85.34.52.23.91.55,1.18.96.27.41.4.87.4,1.39,0,.61-.16,1.12-.49,1.53-.33.41-.76.7-1.3.87.59.11,1.08.4,1.46.88ZM8.11,7.3h1.93c.5,0,.89-.11,1.16-.34s.41-.55.41-.96-.14-.74-.41-.97c-.27-.23-.66-.34-1.16-.34h-1.93v2.62ZM11.43,11.37c.29-.24.43-.58.43-1.02s-.15-.8-.45-1.05c-.3-.25-.71-.38-1.22-.38h-2.08v2.81h2.12c.51,0,.91-.12,1.2-.36Z" style="fill:#fff;"/><rect x="6" y="10.77" width="2.11" height="6.22" style="fill:#fff;"/></svg>