<?xml version="1.0" encoding="UTF-8"?><svg id="icons" xmlns="http://www.w3.org/2000/svg" width="41.25" height="55" xmlns:xlink="http://www.w3.org/1999/xlink" viewBox="0 0 41.25 55"><defs><linearGradient id="New_Gradient_Swatch_1" x1="41.83" y1="-8.01" x2="7.91" y2="50.74" gradientUnits="userSpaceOnUse"><stop offset="0" stop-color="#8607b8"/><stop offset="1" stop-color="#1448f6"/></linearGradient><linearGradient id="New_Gradient_Swatch_1-2" x1="52.62" y1="-.52" x2="19.23" y2="57.33" xlink:href="#New_Gradient_Swatch_1"/><linearGradient id="New_Gradient_Swatch_1-3" x1="28.29" y1="-15.79" x2="-5.11" y2="42.06" xlink:href="#New_Gradient_Swatch_1"/><linearGradient id="New_Gradient_Swatch_1-4" x1="55.83" y1="1.1" x2="22.35" y2="59.1" xlink:href="#New_Gradient_Swatch_1"/><linearGradient id="New_Gradient_Swatch_1-5" x1="33.31" y1="-12.26" x2=".14" y2="45.19" xlink:href="#New_Gradient_Swatch_1"/><linearGradient id="New_Gradient_Swatch_1-6" x1="25.71" y1="-17.5" x2="-7.74" y2="40.42" xlink:href="#New_Gradient_Swatch_1"/><linearGradient id="New_Gradient_Swatch_1-7" x1="46.93" y1="1.84" x2="5.89" y2="48.77" xlink:href="#New_Gradient_Swatch_1"/><linearGradient id="linear-gradient" x1="54.21" y1="7.97" x2="13.62" y2="54.39" gradientUnits="userSpaceOnUse"><stop offset="0" stop-color="#8607b8"/><stop offset=".77" stop-color="#2e39e8"/><stop offset="1" stop-color="#1448f6"/></linearGradient><linearGradient id="New_Gradient_Swatch_1-8" x1="34.6" y1="-7.98" x2="-5.99" y2="38.45" xlink:href="#New_Gradient_Swatch_1"/><linearGradient id="New_Gradient_Swatch_1-9" x1="59.41" y1="13.54" x2="18.82" y2="59.96" xlink:href="#New_Gradient_Swatch_1"/><linearGradient id="New_Gradient_Swatch_1-10" x1="35.74" y1="-7.35" x2="-4.85" y2="39.08" xlink:href="#New_Gradient_Swatch_1"/><linearGradient id="New_Gradient_Swatch_1-11" x1="55.85" y1="-67.73" x2="15.26" y2="-21.3" gradientTransform="translate(-9.53 64.56) rotate(-18.29)" xlink:href="#New_Gradient_Swatch_1"/></defs><path d="M9.29,25.36h22.47c.67,0,1.12.71.84,1.33l-10.68,23.71c-.32.71-1.31.73-1.66.03l-11.79-23.71c-.31-.62.14-1.36.82-1.36Z" style="fill:url(#New_Gradient_Swatch_1);"/><path d="M35.1,25.47l3.86.96c.59.15.88.82.58,1.35l-3.37,5.9c-.45.79-1.66.52-1.72-.39l-.49-6.86c-.04-.63.53-1.11,1.14-.96Z" style="fill:url(#New_Gradient_Swatch_1-2);"/><path d="M2.73,24.11l3.86.96c.59.15.88.82.58,1.35l-3.37,5.9c-.45.79-1.66.52-1.72-.39l-.49-6.86c-.04-.63.53-1.11,1.14-.96Z" style="fill:url(#New_Gradient_Swatch_1-3);"/><path d="M22.67,50.86l1.6-3.64c.25-.56.96-.73,1.43-.34l5.24,4.33c.7.58.23,1.72-.68,1.63l-6.84-.69c-.62-.06-1.01-.72-.75-1.29Z" style="fill:url(#New_Gradient_Swatch_1-4);"/><path d="M14.47,7.63l12.08,3.74c.64.2.86,1,.42,1.5l-9.42,10.55c-.51.57-1.46.31-1.6-.45l-2.66-14.29c-.13-.68.52-1.26,1.18-1.05Z" style="fill:url(#New_Gradient_Swatch_1-5);"/><path d="M12.62,2.16h1.78c.91-.01,1.53.93,1.15,1.76l-.82,1.81c-.43.95-1.76.99-2.25.07l-.96-1.8c-.44-.83.16-1.84,1.1-1.84Z" style="fill:url(#New_Gradient_Swatch_1-6);"/><g style="opacity:.8;"><path d="M31.75,25.74c.19,0,.35.09.46.25.1.16.12.35.04.53l-10.68,23.71c-.09.2-.28.32-.49.32s-.39-.11-.48-.3l-11.79-23.71c-.09-.17-.08-.37.02-.54.1-.17.27-.26.46-.26h22.47M31.75,25.36H9.29c-.69,0-1.13.74-.82,1.36l11.79,23.71c.17.34.5.51.82.51s.68-.18.84-.55l10.68-23.71c.28-.62-.17-1.33-.84-1.33h0Z" style="fill:url(#New_Gradient_Swatch_1-7);"/><path d="M34.88,25.82h0s.09,0,.13.02l3.86.96c.17.04.3.16.37.31.07.16.06.33-.03.48l-3.37,5.9c-.14.24-.35.27-.46.27-.26,0-.53-.17-.55-.5l-.49-6.86c-.01-.15.04-.3.14-.41.1-.11.25-.17.4-.17M34.88,25.44c-.52,0-.96.44-.92.99l.49,6.86c.04.54.48.86.93.86.3,0,.61-.15.79-.47l3.37-5.9c.3-.53.01-1.21-.58-1.35l-3.86-.96c-.08-.02-.15-.03-.22-.03h0Z" style="fill:url(#linear-gradient);"/><path d="M2.51,24.46h0s.09,0,.13.02l3.86.96c.17.04.3.16.37.31.07.16.06.33-.03.48l-3.37,5.9c-.14.24-.35.27-.46.27-.26,0-.53-.17-.55-.5l-.49-6.86c-.01-.15.04-.3.14-.41.1-.11.25-.17.4-.17M2.51,24.08c-.52,0-.96.44-.92.99l.49,6.86c.04.54.48.86.93.86.3,0,.61-.15.79-.47l3.37-5.9c.3-.53.01-1.21-.58-1.35l-3.86-.96c-.08-.02-.15-.03-.22-.03h0Z" style="fill:url(#New_Gradient_Swatch_1-8);"/><path d="M25.12,47.06h0c.09,0,.22.02.34.12l5.24,4.33c.27.23.2.52.17.6-.06.17-.23.36-.5.36-.02,0-.04,0-.06,0l-6.84-.69c-.17-.02-.33-.11-.41-.27-.09-.15-.1-.33-.03-.49l1.6-3.64c.09-.2.28-.32.5-.32M25.12,46.68c-.35,0-.69.2-.85.55l-1.6,3.64c-.25.57.13,1.23.75,1.29l6.84.69s.07,0,.1,0c.84,0,1.26-1.08.58-1.64l-5.24-4.33c-.17-.14-.38-.21-.59-.21h0Z" style="fill:url(#New_Gradient_Swatch_1-9);"/><path d="M14.2,7.97c.05,0,.11,0,.16.03l12.08,3.74c.18.06.31.19.36.37s0,.37-.12.51l-9.42,10.55c-.13.15-.29.18-.4.18-.22,0-.48-.14-.54-.44l-2.66-14.29c-.03-.16.01-.32.11-.44.1-.13.26-.2.42-.2M14.2,7.59c-.55,0-1.01.51-.9,1.09l2.66,14.29c.09.47.5.75.91.75.25,0,.49-.1.68-.31l9.42-10.55c.45-.5.23-1.3-.42-1.5l-12.08-3.74c-.09-.03-.19-.04-.28-.04h0Z" style="fill:url(#New_Gradient_Swatch_1-10);"/><path d="M12.35,2.58h0c.09-.03.18-.04.27-.04h1.78c.3-.01.57.13.74.39.17.25.19.56.06.84l-.82,1.81c-.1.23-.29.39-.52.47-.34.11-.81.03-1.05-.42l-.96-1.8c-.12-.23-.14-.49-.04-.73.1-.24.29-.43.53-.51M12.23,2.22c-.71.23-1.09,1.07-.71,1.78l.96,1.8c.31.59.96.78,1.51.6.31-.1.59-.33.74-.67l.82-1.81c.38-.83-.24-1.77-1.15-1.77h-1.78c-.14,0-.27.03-.39.07h0Z" style="fill:url(#New_Gradient_Swatch_1-11);"/></g></svg>