<svg id="eXSvz9BDfjR1" xmlns="http://www.w3.org/2000/svg" xmlns:xlink="http://www.w3.org/1999/xlink" viewBox="0 0 150 150" shape-rendering="geometricPrecision" text-rendering="geometricPrecision" project-id="9b5d022f8c1e40929426b17765128add" export-id="68d73dc5f6924494a175d96641266d40" cached="false" style="background-color:transparent"><defs><linearGradient id="eXSvz9BDfjR4-fill" x1="0.146447" y1="0.853553" x2="0.853553" y2="0.146447" spreadMethod="pad" gradientUnits="objectBoundingBox" gradientTransform="translate(0 0)"><stop id="eXSvz9BDfjR4-fill-0" offset="0%" stop-color="#1448f6"/><stop id="eXSvz9BDfjR4-fill-1" offset="100%" stop-color="#8607b8"/></linearGradient><linearGradient id="eXSvz9BDfjR19-fill" x1="0.516108" y1="-0.008823" x2="0.516108" y2="1" spreadMethod="pad" gradientUnits="objectBoundingBox" gradientTransform="translate(0 0)"><stop id="eXSvz9BDfjR19-fill-0" offset="0%" stop-color="#3972e7"/><stop id="eXSvz9BDfjR19-fill-1" offset="13.4016%" stop-color="#fff040"/><stop id="eXSvz9BDfjR19-fill-2" offset="29.6259%" stop-color="#ff7000"/><stop id="eXSvz9BDfjR19-fill-3" offset="46.203%" stop-color="#843de5"/><stop id="eXSvz9BDfjR19-fill-4" offset="62.7801%" stop-color="#ff710d"/><stop id="eXSvz9BDfjR19-fill-5" offset="77.9463%" stop-color="#09ff00"/><stop id="eXSvz9BDfjR19-fill-6" offset="94.1707%" stop-color="#3972e7"/></linearGradient><linearGradient id="eXSvz9BDfjR20-fill" x1="0.516108" y1="-0.008823" x2="0.516108" y2="1" spreadMethod="pad" gradientUnits="objectBoundingBox" gradientTransform="translate(0 0)"><stop id="eXSvz9BDfjR20-fill-0" offset="0%" stop-color="#3972e7"/><stop id="eXSvz9BDfjR20-fill-1" offset="13.4016%" stop-color="#fff040"/><stop id="eXSvz9BDfjR20-fill-2" offset="29.6259%" stop-color="#ff7000"/><stop id="eXSvz9BDfjR20-fill-3" offset="46.203%" stop-color="#843de5"/><stop id="eXSvz9BDfjR20-fill-4" offset="62.7801%" stop-color="#ff710d"/><stop id="eXSvz9BDfjR20-fill-5" offset="77.9463%" stop-color="#09ff00"/><stop id="eXSvz9BDfjR20-fill-6" offset="94.1707%" stop-color="#3972e7"/></linearGradient><linearGradient id="eXSvz9BDfjR21-fill" x1="0.516108" y1="-0.008823" x2="0.516108" y2="1" spreadMethod="pad" gradientUnits="objectBoundingBox" gradientTransform="translate(0 0)"><stop id="eXSvz9BDfjR21-fill-0" offset="0%" stop-color="#3972e7"/><stop id="eXSvz9BDfjR21-fill-1" offset="13.4016%" stop-color="#fff040"/><stop id="eXSvz9BDfjR21-fill-2" offset="29.6259%" stop-color="#ff7000"/><stop id="eXSvz9BDfjR21-fill-3" offset="46.203%" stop-color="#843de5"/><stop id="eXSvz9BDfjR21-fill-4" offset="62.7801%" stop-color="#ff710d"/><stop id="eXSvz9BDfjR21-fill-5" offset="77.9463%" stop-color="#09ff00"/><stop id="eXSvz9BDfjR21-fill-6" offset="94.1707%" stop-color="#3972e7"/></linearGradient><linearGradient id="eXSvz9BDfjR26-fill" x1="0.516108" y1="-0.008823" x2="0.516108" y2="1" spreadMethod="pad" gradientUnits="objectBoundingBox" gradientTransform="translate(0 0)"><stop id="eXSvz9BDfjR26-fill-0" offset="0%" stop-color="#8607b8"/><stop id="eXSvz9BDfjR26-fill-1" offset="47%" stop-color="#ff710d"/><stop id="eXSvz9BDfjR26-fill-2" offset="64%" stop-color="#09ff00"/><stop id="eXSvz9BDfjR26-fill-3" offset="81%" stop-color="#ff0042"/><stop id="eXSvz9BDfjR26-fill-4" offset="94.1707%" stop-color="#3972e7"/></linearGradient><linearGradient id="eXSvz9BDfjR38-fill" x1="0.516108" y1="-0.008823" x2="0.516108" y2="1" spreadMethod="pad" gradientUnits="objectBoundingBox" gradientTransform="translate(0 0)"><stop id="eXSvz9BDfjR38-fill-0" offset="0%" stop-color="#8607b8"/><stop id="eXSvz9BDfjR38-fill-1" offset="45%" stop-color="#ff7000"/><stop id="eXSvz9BDfjR38-fill-2" offset="62.7801%" stop-color="#ff710d"/><stop id="eXSvz9BDfjR38-fill-3" offset="77.9463%" stop-color="#09ff00"/><stop id="eXSvz9BDfjR38-fill-4" offset="100%" stop-color="#3972e7"/></linearGradient><linearGradient id="eXSvz9BDfjR53-fill" x1="0.516108" y1="-0.008823" x2="0.516108" y2="1" spreadMethod="pad" gradientUnits="objectBoundingBox" gradientTransform="translate(0 0)"><stop id="eXSvz9BDfjR53-fill-0" offset="0%" stop-color="#8607b8"/><stop id="eXSvz9BDfjR53-fill-1" offset="52%" stop-color="#ff0d0d"/><stop id="eXSvz9BDfjR53-fill-2" offset="77.9463%" stop-color="#0039ff"/><stop id="eXSvz9BDfjR53-fill-3" offset="94.1707%" stop-color="#39d9e7"/></linearGradient><linearGradient id="eXSvz9BDfjR66-fill" x1="0.516108" y1="-0.008823" x2="0.516108" y2="1" spreadMethod="pad" gradientUnits="objectBoundingBox" gradientTransform="translate(0 0)"><stop id="eXSvz9BDfjR66-fill-0" offset="0%" stop-color="#0143cc"/><stop id="eXSvz9BDfjR66-fill-1" offset="13.4016%" stop-color="#ffeb00"/><stop id="eXSvz9BDfjR66-fill-2" offset="29.6259%" stop-color="#ff00b2"/><stop id="eXSvz9BDfjR66-fill-3" offset="46.203%" stop-color="#843de5"/><stop id="eXSvz9BDfjR66-fill-4" offset="64%" stop-color="#0dc6bb"/><stop id="eXSvz9BDfjR66-fill-5" offset="77.9463%" stop-color="#729a13"/><stop id="eXSvz9BDfjR66-fill-6" offset="90%" stop-color="#39d9e7"/></linearGradient><linearGradient id="eXSvz9BDfjR67-fill" x1="0.516108" y1="-0.008823" x2="0.516108" y2="1" spreadMethod="pad" gradientUnits="objectBoundingBox" gradientTransform="translate(0 0)"><stop id="eXSvz9BDfjR67-fill-0" offset="0%" stop-color="#2300ff"/><stop id="eXSvz9BDfjR67-fill-1" offset="13.4016%" stop-color="#ffb900"/><stop id="eXSvz9BDfjR67-fill-2" offset="29.6259%" stop-color="#ff7000"/><stop id="eXSvz9BDfjR67-fill-3" offset="46.203%" stop-color="#843de5"/><stop id="eXSvz9BDfjR67-fill-4" offset="62.7801%" stop-color="#ff710d"/><stop id="eXSvz9BDfjR67-fill-5" offset="77.9463%" stop-color="#ff00da"/><stop id="eXSvz9BDfjR67-fill-6" offset="94.1707%" stop-color="#00f3fa"/></linearGradient><linearGradient id="eXSvz9BDfjR68-fill" x1="0.516108" y1="-0.008823" x2="0.516108" y2="1" spreadMethod="pad" gradientUnits="objectBoundingBox" gradientTransform="translate(0 0)"><stop id="eXSvz9BDfjR68-fill-0" offset="0%" stop-color="#75e739"/><stop id="eXSvz9BDfjR68-fill-1" offset="14%" stop-color="#ff3554"/><stop id="eXSvz9BDfjR68-fill-2" offset="29.6259%" stop-color="#ff7000"/><stop id="eXSvz9BDfjR68-fill-3" offset="46.203%" stop-color="#843de5"/><stop id="eXSvz9BDfjR68-fill-4" offset="62.7801%" stop-color="#ff0d0d"/><stop id="eXSvz9BDfjR68-fill-5" offset="77.9463%" stop-color="#0039ff"/><stop id="eXSvz9BDfjR68-fill-6" offset="94.1707%" stop-color="#39d9e7"/></linearGradient></defs><g transform="matrix(0.69068 0 0 0.69068 -28.60202 -28.601955)"><g transform="translate(150.000028 149.999934)"><path d="M-65.162,0c0,35.987,29.175,65.162,65.162,65.162C35.988,65.162,65.162,35.987,65.162,0c0-35.988-29.174-65.162-65.162-65.162-35.987,0-65.162,29.174-65.162,65.162Z" fill="url(#eXSvz9BDfjR4-fill)" fill-rule="evenodd" stroke-width="0"/></g><g transform="translate(115.856 104.625)"><g transform="translate(45.233 84.997)"><path d="M7.831,3.473c-.003-.014-.013-.026-.016-.041-.081-.309-.248-.605-.54-.847c0,0-9.319-7.703-9.319-7.703-.191-.157-.405-.247-.624-.306-.064-.017-.124-.023-.188-.032-.078-.012-.154-.039-.232-.039-.052,0-.096.038-.148.043-.198.018-.378.073-.558.16-.08.038-.156.061-.23.113-.236.164-.443.375-.571.664c0,0-2.855,6.473-2.855,6.473-.45,1.022.228,2.187,1.339,2.299c0,0,12.174,1.229,12.174,1.229.061.006.122.009.182.009.03,0,.048-.024.077-.025.326-.017.615-.11.85-.279.028-.02.047-.043.074-.064.228-.186.407-.421.511-.693.009-.024.01-.046.018-.07.095-.285.125-.592.056-.891Z" fill="#fff" stroke-width="0"/></g><g transform="translate(33.958 64.324)"><path d="M20.797,-22.549c-.235-.135-.509-.214-.808-.214c0,0-39.981,0-39.981,0-.612,0-1.117.328-1.4.795-.141.233-.227.501-.243.78s.038.569.176.846c0,0,20.983,42.188,20.983,42.188.154.31.379.538.638.691.088.051.19.044.283.077.18.065.356.149.544.149.006,0,.011-.005.017-.005.197-.002.378-.088.563-.159.096-.037.202-.032.29-.087.259-.163.481-.403.626-.724c0,0,18.998-42.188,18.998-42.188.124-.276.168-.562.145-.835-.047-.547-.361-1.044-.831-1.314Z" fill="#fff" stroke-width="0"/></g><g transform="translate(63.1 49.453)"><path d="M3.674,-5.994c0,0-6.867-1.703-6.867-1.703-.134-.034-.269-.05-.4-.05-.079,0-.147.036-.224.048-.097.013-.187.028-.278.058-.141.047-.264.115-.385.197-.076.05-.151.091-.218.153-.116.108-.2.238-.281.375-.041.069-.093.124-.124.199-.091.224-.143.468-.124.732c0,0,.874,12.204.874,12.204.026.37.18.66.378.902.034.043.059.085.097.124.208.208.459.35.739.424.054.015.102.019.157.028.095.016.187.05.283.05.135,0,.26-.067.392-.1.097-.024.188-.029.28-.072.289-.132.554-.332.74-.659c0,0,5.993-10.501,5.993-10.501.54-.946.026-2.147-1.032-2.409Z" fill="#fff" stroke-width="0"/></g><g transform="translate(5.496 47.038)"><path d="M3.674,-5.994c0,0-6.867-1.703-6.867-1.703-.135-.034-.269-.05-.4-.05-.079,0-.147.036-.224.048-.097.013-.187.028-.279.058-.14.047-.262.115-.383.196-.077.051-.152.092-.219.154-.116.108-.199.237-.28.374-.041.069-.094.125-.125.2-.092.224-.143.468-.125.732c0,0,.875,12.204.875,12.204.026.37.18.66.378.902.034.043.059.085.097.124.208.208.459.349.739.424.054.015.102.019.157.028.095.016.187.05.283.05.135,0,.26-.067.392-.1.097-.024.187-.029.28-.072.289-.132.554-.332.74-.659c0,0,5.993-10.501,5.993-10.501.54-.946.026-2.147-1.032-2.409Z" fill="#fff" stroke-width="0"/></g><g transform="translate(33.633 24.304)"><path d="M-10.93,-14.359c-.076,0-.14.038-.213.048-.103.015-.196.034-.293.066-.153.052-.285.124-.416.216-.079.056-.155.104-.224.173-.121.121-.204.264-.283.418-.039.077-.092.139-.118.222-.082.248-.116.517-.063.803c0,0,4.739,25.429,4.739,25.429.056.303.201.543.378.75.038.044.071.085.112.125.189.179.406.314.651.388.039.012.075.01.114.019.122.028.243.061.368.061.093,0,.183-.04.276-.056.078-.014.15-.023.226-.048.26-.085.51-.215.716-.446c0,0,16.756-18.776,16.756-18.776.797-.892.404-2.311-.739-2.665c0,0-21.496-6.653-21.496-6.653-.166-.051-.33-.074-.491-.074Z" fill="#fff" stroke-width="0"/></g><g transform="translate(21.738 4.098)"><path d="M-3.794,-0.542c0,0,1.709,3.213,1.709,3.213.197.368.484.618.797.814.069.043.13.084.203.119.318.154.656.243,1.004.238.05-.001.093-.018.143-.022.181-.014.365-.024.538-.082.114-.037.206-.122.313-.179.093-.048.178-.089.265-.151.301-.216.571-.487.743-.869c0,0,.001,0,.001-.001c0,0,1.454-3.227,1.454-3.227.668-1.482-.42-3.159-2.045-3.15c0,0-3.166.015-3.166.015-.247.001-.48.041-.696.112-.092.031-.155.103-.24.144-.125.06-.234.124-.344.205-.178.131-.322.279-.453.454-.078.104-.155.197-.215.313-.107.207-.158.425-.197.658-.019.114-.06.216-.06.333-.004.355.061.715.246,1.063Z" fill="#fff" stroke-width="0"/></g></g></g><g display="none" transform="translate(-1.093908 0.664305)"><g transform="translate(8 -5)"><g mask="url(#eXSvz9BDfjR27)"><g transform="matrix(0.875715 0.482829 -0.482829 0.875715 -227.042968 -189.917665)"><rect width="150" height="95.283409" rx="0" ry="0" transform="matrix(-0.98395 -0.178446 0.178446 -0.98395 470.216346 74.546836)" fill="url(#eXSvz9BDfjR26-fill)" stroke-width="0"/></g><mask id="eXSvz9BDfjR27" mask-type="alpha" x="-150%" y="-150%" height="400%" width="400%"><path d="M120.4,42.5l.1.6c0,.1.1.1.2,0v-.1c1.6-6.7,7.2-11.8,14-12.7v0c.1,0,.1-.1,0-.2v0c-6.8-1.4-12.1-6.8-13.2-13.6v0c0-.1-.1-.1-.2,0l-.2.6c-1.8,6.5-7.3,11.3-13.9,12.2h-.1c-.1,0-.1.1,0,.2h.1c6.7,1.2,11.8,6.4,13.2,13Z" transform="matrix(0.72 0 0 0.72 30.132076 13.162187)" opacity="0.428571" fill="#1548f4"/><path d="M120.4,42.5l.1.6c0,.1.1.1.2,0v-.1c1.6-6.7,7.2-11.8,14-12.7v0c.1,0,.1-.1,0-.2v0c-6.8-1.4-12.1-6.8-13.2-13.6v0c0-.1-.1-.1-.2,0l-.2.6c-1.8,6.5-7.3,11.3-13.9,12.2h-.1c-.1,0-.1.1,0,.2h.1c6.7,1.2,11.8,6.4,13.2,13Z" transform="matrix(0 0 0 0 97.180077 54.618184)" opacity="0.428571" fill="#1548f4"/><path d="M120.4,42.5l.1.6c0,.1.1.1.2,0v-.1c1.6-6.7,7.2-11.8,14-12.7v0c.1,0,.1-.1,0-.2v0c-6.8-1.4-12.1-6.8-13.2-13.6v0c0-.1-.1-.1-.2,0l-.2.6c-1.8,6.5-7.3,11.3-13.9,12.2h-.1c-.1,0-.1.1,0,.2h.1c6.7,1.2,11.8,6.4,13.2,13Z" transform="matrix(0 0 0 0 88.646403 38.388046)" fill="#1548f4"/><path d="M120.4,42.5l.1.6c0,.1.1.1.2,0v-.1c1.6-6.7,7.2-11.8,14-12.7v0c.1,0,.1-.1,0-.2v0c-6.8-1.4-12.1-6.8-13.2-13.6v0c0-.1-.1-.1-.2,0l-.2.6c-1.8,6.5-7.3,11.3-13.9,12.2h-.1c-.1,0-.1.1,0,.2h.1c6.7,1.2,11.8,6.4,13.2,13Z" transform="matrix(0 0 0 0 107.553763 58.749818)" fill="#1548f4"/><path d="M120.4,42.5l.1.6c0,.1.1.1.2,0v-.1c1.6-6.7,7.2-11.8,14-12.7v0c.1,0,.1-.1,0-.2v0c-6.8-1.4-12.1-6.8-13.2-13.6v0c0-.1-.1-.1-.2,0l-.2.6c-1.8,6.5-7.3,11.3-13.9,12.2h-.1c-.1,0-.1.1,0,.2h.1c6.7,1.2,11.8,6.4,13.2,13Z" transform="matrix(0 0 0 0 88.798165 38.971754)" fill="#1548f4"/><path d="M120.4,42.5l.1.6c0,.1.1.1.2,0v-.1c1.6-6.7,7.2-11.8,14-12.7v0c.1,0,.1-.1,0-.2v0c-6.8-1.4-12.1-6.8-13.2-13.6v0c0-.1-.1-.1-.2,0l-.2.6c-1.8,6.5-7.3,11.3-13.9,12.2h-.1c-.1,0-.1.1,0,.2h.1c6.7,1.2,11.8,6.4,13.2,13Z" transform="matrix(0 0 0 0 107.19016 62.749451)" fill="#1548f4"/></mask></g></g><g transform="translate(-18 -13)"><g mask="url(#eXSvz9BDfjR39)"><g transform="matrix(0.875715 0.482829 -0.482829 0.875715 -238.042968 -168.917665)"><rect width="150" height="95.283409" rx="0" ry="0" transform="matrix(-0.980229 -0.197865 0.197865 -0.980229 491.786767 44.149795)" fill="url(#eXSvz9BDfjR38-fill)" stroke-width="0"/></g><mask id="eXSvz9BDfjR39" mask-type="alpha" x="-150%" y="-150%" height="400%" width="400%"><path d="M120.4,42.5l.1.6c0,.1.1.1.2,0v-.1c1.6-6.7,7.2-11.8,14-12.7v0c.1,0,.1-.1,0-.2v0c-6.8-1.4-12.1-6.8-13.2-13.6v0c0-.1-.1-.1-.2,0l-.2.6c-1.8,6.5-7.3,11.3-13.9,12.2h-.1c-.1,0-.1.1,0,.2h.1c6.7,1.2,11.8,6.4,13.2,13Z" transform="matrix(0.3 0 0 0.3 82.708659 24.785594)" opacity="0.571429" fill="#1548f4"/><path d="M120.4,42.5l.1.6c0,.1.1.1.2,0v-.1c1.6-6.7,7.2-11.8,14-12.7v0c.1,0,.1-.1,0-.2v0c-6.8-1.4-12.1-6.8-13.2-13.6v0c0-.1-.1-.1-.2,0l-.2.6c-1.8,6.5-7.3,11.3-13.9,12.2h-.1c-.1,0-.1.1,0,.2h.1c6.7,1.2,11.8,6.4,13.2,13Z" transform="matrix(0.3 0 0 0.3 68.708659 37.785594)" opacity="0" fill="#1548f4"/><path d="M120.4,42.5l.1.6c0,.1.1.1.2,0v-.1c1.6-6.7,7.2-11.8,14-12.7v0c.1,0,.1-.1,0-.2v0c-6.8-1.4-12.1-6.8-13.2-13.6v0c0-.1-.1-.1-.2,0l-.2.6c-1.8,6.5-7.3,11.3-13.9,12.2h-.1c-.1,0-.1.1,0,.2h.1c6.7,1.2,11.8,6.4,13.2,13Z" transform="matrix(0 0 0 0 124.827289 52.569298)" fill="#1548f4"/><path d="M120.4,42.5l.1.6c0,.1.1.1.2,0v-.1c1.6-6.7,7.2-11.8,14-12.7v0c.1,0,.1-.1,0-.2v0c-6.8-1.4-12.1-6.8-13.2-13.6v0c0-.1-.1-.1-.2,0l-.2.6c-1.8,6.5-7.3,11.3-13.9,12.2h-.1c-.1,0-.1.1,0,.2h.1c6.7,1.2,11.8,6.4,13.2,13Z" transform="matrix(0 0 0 0 131.468381 60.449802)" fill="#1548f4"/><path d="M120.4,42.5l.1.6c0,.1.1.1.2,0v-.1c1.6-6.7,7.2-11.8,14-12.7v0c.1,0,.1-.1,0-.2v0c-6.8-1.4-12.1-6.8-13.2-13.6v0c0-.1-.1-.1-.2,0l-.2.6c-1.8,6.5-7.3,11.3-13.9,12.2h-.1c-.1,0-.1.1,0,.2h.1c6.7,1.2,11.8,6.4,13.2,13Z" transform="matrix(0 0 0 0 117.280963 48.035811)" fill="#1548f4"/><path d="M120.4,42.5l.1.6c0,.1.1.1.2,0v-.1c1.6-6.7,7.2-11.8,14-12.7v0c.1,0,.1-.1,0-.2v0c-6.8-1.4-12.1-6.8-13.2-13.6v0c0-.1-.1-.1-.2,0l-.2.6c-1.8,6.5-7.3,11.3-13.9,12.2h-.1c-.1,0-.1.1,0,.2h.1c6.7,1.2,11.8,6.4,13.2,13Z" transform="matrix(0 0 0 0 126.85747 55.484205)" fill="#1548f4"/><path d="M120.4,42.5l.1.6c0,.1.1.1.2,0v-.1c1.6-6.7,7.2-11.8,14-12.7v0c.1,0,.1-.1,0-.2v0c-6.8-1.4-12.1-6.8-13.2-13.6v0c0-.1-.1-.1-.2,0l-.2.6c-1.8,6.5-7.3,11.3-13.9,12.2h-.1c-.1,0-.1.1,0,.2h.1c6.7,1.2,11.8,6.4,13.2,13Z" transform="matrix(0 0 0 0 136.098984 67.113421)" fill="#1548f4"/><path d="M120.4,42.5l.1.6c0,.1.1.1.2,0v-.1c1.6-6.7,7.2-11.8,14-12.7v0c.1,0,.1-.1,0-.2v0c-6.8-1.4-12.1-6.8-13.2-13.6v0c0-.1-.1-.1-.2,0l-.2.6c-1.8,6.5-7.3,11.3-13.9,12.2h-.1c-.1,0-.1.1,0,.2h.1c6.7,1.2,11.8,6.4,13.2,13Z" transform="matrix(0 0 0 0 128.46332 56.568932)" fill="#1548f4"/><path d="M120.4,42.5l.1.6c0,.1.1.1.2,0v-.1c1.6-6.7,7.2-11.8,14-12.7v0c.1,0,.1-.1,0-.2v0c-6.8-1.4-12.1-6.8-13.2-13.6v0c0-.1-.1-.1-.2,0l-.2.6c-1.8,6.5-7.3,11.3-13.9,12.2h-.1c-.1,0-.1.1,0,.2h.1c6.7,1.2,11.8,6.4,13.2,13Z" transform="matrix(0 0 0 0 135.015236 72.509107)" fill="#1548f4"/><path d="M120.4,42.5l.1.6c0,.1.1.1.2,0v-.1c1.6-6.7,7.2-11.8,14-12.7v0c.1,0,.1-.1,0-.2v0c-6.8-1.4-12.1-6.8-13.2-13.6v0c0-.1-.1-.1-.2,0l-.2.6c-1.8,6.5-7.3,11.3-13.9,12.2h-.1c-.1,0-.1.1,0,.2h.1c6.7,1.2,11.8,6.4,13.2,13Z" transform="matrix(0 0 0 0 133.596494 65.770084)" fill="#1548f4"/></mask></g></g><g transform="translate(15 -19)"><g mask="url(#eXSvz9BDfjR54)"><g transform="matrix(0.875715 0.482829 -0.482829 0.875715 -208.042968 -188.917665)"><rect width="150" height="95.283409" rx="0" ry="0" transform="matrix(-0.980054 -0.198729 0.198729 -0.980054 468.442093 99.864799)" fill="url(#eXSvz9BDfjR53-fill)" stroke-width="0"/></g><mask id="eXSvz9BDfjR54" mask-type="alpha" x="-150%" y="-150%" height="400%" width="400%"><path d="M120.4,42.5l.1.6c0,.1.1.1.2,0v-.1c1.6-6.7,7.2-11.8,14-12.7v0c.1,0,.1-.1,0-.2v0c-6.8-1.4-12.1-6.8-13.2-13.6v0c0-.1-.1-.1-.2,0l-.2.6c-1.8,6.5-7.3,11.3-13.9,12.2h-.1c-.1,0-.1.1,0,.2h.1c6.7,1.2,11.8,6.4,13.2,13Z" transform="matrix(0.266667 0 0 0.266667 78.155155 66.146916)" opacity="0.714286" fill="#1548f4"/><path d="M120.4,42.5l.1.6c0,.1.1.1.2,0v-.1c1.6-6.7,7.2-11.8,14-12.7v0c.1,0,.1-.1,0-.2v0c-6.8-1.4-12.1-6.8-13.2-13.6v0c0-.1-.1-.1-.2,0l-.2.6c-1.8,6.5-7.3,11.3-13.9,12.2h-.1c-.1,0-.1.1,0,.2h.1c6.7,1.2,11.8,6.4,13.2,13Z" transform="matrix(0.266667 0 0 0.266667 67.155155 74.146916)" opacity="0" fill="#1548f4"/><path d="M120.4,42.5l.1.6c0,.1.1.1.2,0v-.1c1.6-6.7,7.2-11.8,14-12.7v0c.1,0,.1-.1,0-.2v0c-6.8-1.4-12.1-6.8-13.2-13.6v0c0-.1-.1-.1-.2,0l-.2.6c-1.8,6.5-7.3,11.3-13.9,12.2h-.1c-.1,0-.1.1,0,.2h.1c6.7,1.2,11.8,6.4,13.2,13Z" transform="matrix(0 0 0 0 81.254716 50.238386)" fill="#1548f4"/><path d="M120.4,42.5l.1.6c0,.1.1.1.2,0v-.1c1.6-6.7,7.2-11.8,14-12.7v0c.1,0,.1-.1,0-.2v0c-6.8-1.4-12.1-6.8-13.2-13.6v0c0-.1-.1-.1-.2,0l-.2.6c-1.8,6.5-7.3,11.3-13.9,12.2h-.1c-.1,0-.1.1,0,.2h.1c6.7,1.2,11.8,6.4,13.2,13Z" transform="matrix(0 0 0 0 95.099717 66.932169)" fill="#1548f4"/><path d="M120.4,42.5l.1.6c0,.1.1.1.2,0v-.1c1.6-6.7,7.2-11.8,14-12.7v0c.1,0,.1-.1,0-.2v0c-6.8-1.4-12.1-6.8-13.2-13.6v0c0-.1-.1-.1-.2,0l-.2.6c-1.8,6.5-7.3,11.3-13.9,12.2h-.1c-.1,0-.1.1,0,.2h.1c6.7,1.2,11.8,6.4,13.2,13Z" transform="matrix(0 0 0 0 101.280969 76.022245)" fill="#1548f4"/><path d="M120.4,42.5l.1.6c0,.1.1.1.2,0v-.1c1.6-6.7,7.2-11.8,14-12.7v0c.1,0,.1-.1,0-.2v0c-6.8-1.4-12.1-6.8-13.2-13.6v0c0-.1-.1-.1-.2,0l-.2.6c-1.8,6.5-7.3,11.3-13.9,12.2h-.1c-.1,0-.1.1,0,.2h.1c6.7,1.2,11.8,6.4,13.2,13Z" transform="matrix(0 0 0 0 93.281702 62.205329)" fill="#1548f4"/><path d="M120.4,42.5l.1.6c0,.1.1.1.2,0v-.1c1.6-6.7,7.2-11.8,14-12.7v0c.1,0,.1-.1,0-.2v0c-6.8-1.4-12.1-6.8-13.2-13.6v0c0-.1-.1-.1-.2,0l-.2.6c-1.8,6.5-7.3,11.3-13.9,12.2h-.1c-.1,0-.1.1,0,.2h.1c6.7,1.2,11.8,6.4,13.2,13Z" transform="matrix(0 0 0 0 88.191259 55.29687)" fill="#1548f4"/><path d="M120.4,42.5l.1.6c0,.1.1.1.2,0v-.1c1.6-6.7,7.2-11.8,14-12.7v0c.1,0,.1-.1,0-.2v0c-6.8-1.4-12.1-6.8-13.2-13.6v0c0-.1-.1-.1-.2,0l-.2.6c-1.8,6.5-7.3,11.3-13.9,12.2h-.1c-.1,0-.1.1,0,.2h.1c6.7,1.2,11.8,6.4,13.2,13Z" transform="matrix(0 0 0 0 96.917732 64.75055)" fill="#1548f4"/></mask></g></g><g transform="translate(15 -19)"><g mask="url(#eXSvz9BDfjR69)"><g transform="matrix(0.875715 0.482829 -0.482829 0.875715 -208.042968 -188.917665)"><rect width="150" height="95.283409" rx="0" ry="0" transform="translate(340.570984 -147.401524)" fill="url(#eXSvz9BDfjR66-fill)" stroke-width="0"/><rect width="150" height="95.283409" rx="0" ry="0" transform="matrix(0.820632 0.571457 -0.571457 0.820632 401.283476 -4.487285)" fill="url(#eXSvz9BDfjR67-fill)" stroke-width="0"/><rect width="150" height="95.283409" rx="0" ry="0" transform="matrix(-1 0 0 -1 495.916204 14.794003)" fill="url(#eXSvz9BDfjR68-fill)" stroke-width="0"/></g><mask id="eXSvz9BDfjR69" mask-type="alpha" x="-150%" y="-150%" height="400%" width="400%"><path d="M120.4,42.5l.1.6c0,.1.1.1.2,0v-.1c1.6-6.7,7.2-11.8,14-12.7v0c.1,0,.1-.1,0-.2v0c-6.8-1.4-12.1-6.8-13.2-13.6v0c0-.1-.1-.1-.2,0l-.2.6c-1.8,6.5-7.3,11.3-13.9,12.2h-.1c-.1,0-.1.1,0,.2h.1c6.7,1.2,11.8,6.4,13.2,13Z" transform="matrix(0 0 0 0 105.317615 77.197817)" opacity="0" fill="#1548f4"/></mask></g></g></g></svg>
