<?xml version="1.0" encoding="UTF-8"?><svg id="icons" xmlns="http://www.w3.org/2000/svg" width="150" height="45" xmlns:xlink="http://www.w3.org/1999/xlink" viewBox="0 0 150 45"><defs><linearGradient id="linear-gradient" x1="24.29" y1="65.33" x2="122.14" y2="-32.52" gradientUnits="userSpaceOnUse"><stop offset="0" stop-color="#1448f6"/><stop offset="1" stop-color="#8607b8"/></linearGradient><linearGradient id="linear-gradient-2" x1="22.11" y1="96.87" x2="136.08" y2="-17.11" xlink:href="#linear-gradient"/><linearGradient id="linear-gradient-3" x1="45.13" y1="117.37" x2="142.98" y2="19.52" xlink:href="#linear-gradient"/><linearGradient id="linear-gradient-4" x1="-24.41" y1="163.02" x2="156.81" y2="-18.19" xlink:href="#linear-gradient"/><linearGradient id="linear-gradient-5" x1="12.25" y1="33.24" x2="108.87" y2="-63.39" xlink:href="#linear-gradient"/><linearGradient id="linear-gradient-6" x1="62.22" y1="56.63" x2="128.39" y2="-9.54" xlink:href="#linear-gradient"/><linearGradient id="linear-gradient-7" x1="23.66" y1="65.96" x2="121.16" y2="-31.54" gradientUnits="userSpaceOnUse"><stop offset="0" stop-color="#8607b8"/><stop offset="1" stop-color="#1448f6"/></linearGradient><linearGradient id="linear-gradient-8" x1="30.87" y1="54.6" x2="107.73" y2="-22.25" xlink:href="#linear-gradient-7"/><linearGradient id="linear-gradient-9" x1="21.38" y1="97.6" x2="134.94" y2="-15.96" xlink:href="#linear-gradient-7"/><linearGradient id="linear-gradient-10" x1="44.5" y1="118" x2="142" y2="20.5" xlink:href="#linear-gradient-7"/><linearGradient id="linear-gradient-11" x1="62.74" y1="95.62" x2="139.6" y2="18.77" xlink:href="#linear-gradient-7"/><linearGradient id="linear-gradient-12" x1="-57.16" y1="191.29" x2="165.21" y2="-31.09" xlink:href="#linear-gradient-7"/><linearGradient id="linear-gradient-13" x1="11.6" y1="33.89" x2="107.89" y2="-62.4" xlink:href="#linear-gradient-7"/></defs><path d="M60.49,13.35c-4.42,0-8.12,1.47-10.98,4.36-2.86,2.89-4.32,6.53-4.32,10.82s1.48,7.97,4.4,10.8c2.92,2.83,6.85,4.27,11.68,4.27,5.37,0,9.53-1.8,12.36-5.34l.21-.26-4.43-3.09c-1.46-1.02-3.33-1.22-4.87-.52-.9.41-1.93.61-3.03.61-2.94,0-4.85-.91-5.82-2.79h19.19l.06-.24c.27-1.11.4-2.3.4-3.55,0-4.29-1.41-7.91-4.2-10.77-2.79-2.85-6.37-4.3-10.65-4.3ZM55.52,25.13c.81-2.22,2.48-3.3,5.08-3.3s4.09,1.08,4.86,3.3h-9.95Z" style="fill:url(#linear-gradient);"/><path d="M94.3,13.35c-3.31,0-5.87,1.05-7.62,3.11-.35-1.34-1.45-3.12-5.21-3.12h-4.67v29.47h9.98v-15.24c0-1.56.38-2.76,1.13-3.57.74-.81,1.81-1.22,3.17-1.22,1.19,0,2.14.35,2.85,1.03.7.68,1.06,1.72,1.06,3.08v15.91h9.98v-17.09c0-3.95-1-7.04-2.99-9.16-1.99-2.13-4.58-3.21-7.69-3.21Z" style="fill:url(#linear-gradient-2);"/><path d="M144.02,17.66c-2.79-2.85-6.37-4.3-10.65-4.3s-8.12,1.47-10.98,4.36c-2.86,2.89-4.32,6.53-4.32,10.82s1.48,7.97,4.4,10.8c2.92,2.83,6.85,4.27,11.68,4.27,5.37,0,9.53-1.8,12.36-5.34l.21-.26-4.43-3.09c-1.46-1.02-3.33-1.22-4.87-.52-.9.41-1.93.61-3.03.61-2.94,0-4.85-.91-5.82-2.79h19.19l.06-.24c.27-1.11.4-2.3.4-3.55,0-4.29-1.41-7.91-4.2-10.77ZM128.4,25.13c.81-2.22,2.48-3.3,5.08-3.3s4.09,1.08,4.86,3.3h-9.95Z" style="fill:url(#linear-gradient-3);"/><path d="M106.62,42.82h4.93c2.78,0,5.05-2.26,5.05-5.03V14.14h-9.98v28.68Z" style="fill:url(#linear-gradient-4);"/><path d="M43.97,19.46h-15.61c-3.57,0-6.47,2.89-6.47,6.46v2.55h10.15c-1.99,2.99-5.42,4.93-9.29,4.85-6-.13-10.76-5.07-10.63-11.05.13-5.97,5.11-10.6,11.11-10.6,3.09,0,5.43,1.35,7.03,2.82,2.01,1.84,4.92,2.27,7.33,1l4.41-2.33C38.61,6.32,31.62,1.56,23.44,1.39,11.73,1.13,2.03,10.38,1.78,22.05c-.25,11.66,9.04,21.32,20.75,21.57,9.79.21,18.17-6.22,20.8-15.15.52-1.75.82-3.6.86-5.51.03-1.19-.05-2.36-.22-3.5Z" style="fill:url(#linear-gradient-5);"/><circle cx="111.61" cy="7.23" r="4.99" style="fill:url(#linear-gradient-6);"/><g style="opacity:.5;"><path d="M60.49,13.35c-4.42,0-8.12,1.47-10.98,4.36-2.86,2.89-4.32,6.53-4.32,10.82s1.48,7.97,4.4,10.8c2.92,2.83,6.85,4.27,11.68,4.27,5.37,0,9.53-1.8,12.36-5.34l.21-.26-4.43-3.09c-.88-.61-1.91-.93-2.93-.93-.67,0-1.33.14-1.94.41-.9.41-1.93.61-3.03.61-2.94,0-4.85-.91-5.82-2.79h19.19l.06-.24c.27-1.11.4-2.3.4-3.55,0-4.29-1.41-7.91-4.2-10.77-2.79-2.85-6.37-4.3-10.65-4.3ZM74.52,31.77h-19.57l.33.65c1.05,2.04,3.08,3.03,6.21,3.03,1.17,0,2.25-.22,3.21-.65.55-.25,1.14-.37,1.76-.37.94,0,1.89.3,2.68.85l4.05,2.82c-2.74,3.36-6.75,5.06-11.93,5.06-4.71,0-8.54-1.39-11.37-4.14-2.83-2.75-4.27-6.27-4.27-10.48s1.41-7.71,4.19-10.51c2.78-2.8,6.37-4.23,10.67-4.23s7.63,1.4,10.33,4.17c2.7,2.77,4.08,6.29,4.08,10.46,0,1.18-.12,2.3-.37,3.35Z" style="fill:url(#linear-gradient-7);"/><path d="M60.6,21.39c-2.78,0-4.63,1.21-5.5,3.59l-.22.59h11.2l-.2-.59c-.83-2.39-2.61-3.6-5.28-3.6ZM55.52,25.13c.81-2.22,2.48-3.3,5.08-3.3s4.09,1.08,4.86,3.3h-9.95Z" style="fill:url(#linear-gradient-8);"/><path d="M94.3,13.35c-3.31,0-5.87,1.05-7.62,3.11-.35-1.34-1.45-3.12-5.21-3.12h-4.67v29.47h9.98v-15.24c0-1.56.38-2.76,1.13-3.57.74-.81,1.81-1.22,3.17-1.22,1.19,0,2.14.35,2.85,1.03.7.68,1.06,1.72,1.06,3.08v15.91h9.98v-17.09c0-3.95-1-7.04-2.99-9.16-1.99-2.13-4.58-3.21-7.69-3.21ZM104.54,42.37h-9.1v-15.47c0-1.49-.4-2.63-1.19-3.4-.79-.77-1.85-1.16-3.16-1.16-1.49,0-2.67.46-3.5,1.36-.83.9-1.25,2.2-1.25,3.87v14.79h-9.1V13.79h4.22c2.69,0,4.3.94,4.79,2.79l.22.82.55-.65c1.66-1.96,4.11-2.96,7.28-2.96,2.99,0,5.47,1.03,7.37,3.07,1.9,2.04,2.87,5.02,2.87,8.86v16.65Z" style="fill:url(#linear-gradient-9);"/><path d="M144.02,17.66c-2.79-2.85-6.37-4.3-10.65-4.3s-8.12,1.47-10.98,4.36c-2.86,2.89-4.32,6.53-4.32,10.82s1.48,7.97,4.4,10.8c2.92,2.83,6.85,4.27,11.68,4.27,5.37,0,9.53-1.8,12.36-5.34l.21-.26-4.43-3.09c-.88-.61-1.91-.93-2.93-.93-.67,0-1.33.14-1.94.41-.9.41-1.93.61-3.03.61-2.94,0-4.85-.91-5.82-2.79h19.19l.06-.24c.27-1.11.4-2.3.4-3.55,0-4.29-1.41-7.91-4.2-10.77ZM147.41,31.77h-19.57l.33.65c1.05,2.04,3.08,3.03,6.21,3.03,1.17,0,2.25-.22,3.21-.65.55-.25,1.14-.37,1.76-.37.94,0,1.89.3,2.68.85l4.05,2.82c-2.74,3.36-6.75,5.06-11.93,5.06-4.71,0-8.54-1.39-11.37-4.14-2.83-2.75-4.27-6.27-4.27-10.48s1.41-7.71,4.19-10.51c2.78-2.8,6.37-4.23,10.67-4.23s7.63,1.4,10.33,4.17c2.7,2.77,4.08,6.29,4.08,10.46,0,1.18-.12,2.3-.37,3.35Z" style="fill:url(#linear-gradient-10);"/><path d="M133.49,21.39c-2.78,0-4.63,1.21-5.5,3.59l-.22.59h11.2l-.2-.59c-.83-2.39-2.61-3.6-5.28-3.6ZM128.4,25.13c.81-2.22,2.48-3.3,5.08-3.3s4.09,1.08,4.86,3.3h-9.95Z" style="fill:url(#linear-gradient-11);"/><path d="M106.62,42.82h4.93c2.78,0,5.05-2.26,5.05-5.03V14.14h-9.98v28.68ZM107.06,14.58h9.1v23.21c0,2.53-2.07,4.59-4.61,4.59h-4.49V14.58ZM111.61,2.63c2.54,0,4.6,2.06,4.6,4.6s-2.06,4.6-4.6,4.6-4.6-2.06-4.6-4.6,2.06-4.6,4.6-4.6M111.61,2.24c-2.76,0-4.99,2.23-4.99,4.99s2.23,4.99,4.99,4.99,4.99-2.23,4.99-4.99-2.23-4.99-4.99-4.99h0Z" style="fill:url(#linear-gradient-12);"/><path d="M33.41,19.46h-5.05c-3.57,0-6.47,2.89-6.47,6.46v2.55h10.15c-1.95,2.93-5.28,4.85-9.05,4.85-.08,0-.16,0-.24,0-6-.13-10.76-5.07-10.63-11.05.13-5.97,5.11-10.6,11.11-10.6,3.09,0,5.43,1.35,7.03,2.82,1.23,1.13,2.81,1.73,4.39,1.73,1,0,2-.24,2.93-.73l4.41-2.33C38.61,6.32,31.62,1.56,23.44,1.39c-.16,0-.31,0-.46,0-11.5,0-20.95,9.16-21.19,20.67-.25,11.66,9.04,21.32,20.75,21.57.15,0,.31,0,.46,0,9.59,0,17.74-6.37,20.34-15.15.52-1.75.82-3.6.86-5.51.03-1.19-.05-2.36-.22-3.5h-10.56ZM43.75,22.94c-.04,1.82-.32,3.64-.84,5.4-1.24,4.2-3.86,7.98-7.39,10.64-3.63,2.74-7.96,4.19-12.53,4.19-.15,0-.3,0-.46,0-5.55-.12-10.71-2.38-14.55-6.37-3.84-3.99-5.89-9.23-5.77-14.75.12-5.44,2.33-10.54,6.24-14.34,3.9-3.8,9.06-5.89,14.51-5.89.15,0,.3,0,.46,0,7.62.16,14.47,4.42,17.98,11.13l-4.02,2.13c-.84.44-1.78.68-2.72.68-1.51,0-2.96-.57-4.1-1.61-1.46-1.34-3.92-2.94-7.33-2.94-3.03,0-5.89,1.13-8.06,3.18-2.19,2.07-3.43,4.86-3.49,7.85-.06,3.01,1.05,5.86,3.14,8.03,2.09,2.17,4.9,3.4,7.92,3.47.08,0,.17,0,.25,0,3.8,0,7.32-1.89,9.42-5.05l.46-.69h-10.54v-2.1c0-3.32,2.7-6.02,6.03-6.02h15.22c.13,1.02.18,2.04.16,3.05Z" style="fill:url(#linear-gradient-13);"/></g></svg>