<?xml version="1.0" encoding="UTF-8"?><svg id="icons" xmlns="http://www.w3.org/2000/svg" width="150" height="165" viewBox="0 0 150 165"><path d="M76.9,109.07l23.58-52.35c.22-.48.23-.98.1-1.43-.02-.09-.06-.17-.09-.25-.11-.26-.26-.5-.46-.69-.12-.12-.25-.22-.4-.3-.29-.17-.63-.27-1-.27h-49.61c-1.52,0-2.51,1.63-1.82,3l10.43,20.96,15.61,31.39s.01.02.02.03c.09.18.2.34.33.48.05.05.1.08.15.13.09.08.19.17.29.23.06.04.14.06.2.09.1.04.2.1.3.12.08.02.15.02.23.03.1.01.19.04.29.04,0,0,.01,0,.02,0,.1,0,.21-.03.31-.04.08-.01.16-.01.24-.04.11-.03.2-.09.3-.13.07-.03.14-.05.21-.09.11-.07.2-.16.29-.25.05-.05.1-.08.15-.13.13-.15.24-.32.33-.52Z" style="fill:#fff;"/><path d="M97.53,112s0-.03-.01-.05c-.05-.18-.12-.37-.23-.54,0,0-.01-.02-.02-.02-.11-.18-.25-.34-.44-.49l-11.56-9.56c-.12-.1-.24-.17-.37-.24-.04-.02-.08-.03-.11-.05-.1-.04-.2-.08-.3-.1-.04,0-.07-.02-.11-.03-.13-.03-.26-.04-.4-.04,0,0,0,0,0,0-.18,0-.35.03-.52.07-.05.01-.09.03-.14.05-.12.04-.23.09-.34.15-.05.03-.1.06-.15.1-.1.07-.2.15-.29.24-.04.04-.08.08-.12.12-.12.14-.22.3-.3.48l-3.54,8.03c-.07.16-.12.32-.15.48-.11.64.1,1.29.53,1.74.32.34.76.58,1.28.63l15.11,1.53c.08,0,.15.01.23.01.01,0,.03,0,.04,0,.2,0,.39-.04.57-.09.03,0,.05-.02.08-.03.17-.06.33-.15.47-.25.02-.02.04-.03.06-.05.14-.11.26-.23.37-.37.02-.02.03-.04.04-.06.1-.14.19-.3.25-.46,0-.02.01-.04.02-.07.06-.17.1-.34.11-.52,0-.02,0-.04,0-.06,0-.18,0-.37-.05-.55Z" style="fill:#fff;"/><path d="M59.88,14.56s-.02,0-.03,0c-.15,0-.31.02-.45.05-.02,0-.03.01-.05.02-.14.04-.27.09-.4.15-.05.02-.09.06-.14.08-.09.05-.18.11-.26.18-.05.04-.09.08-.13.13-.07.07-.13.14-.19.22-.04.05-.07.1-.11.15-.05.08-.1.17-.14.26-.02.06-.05.11-.07.17-.03.1-.05.21-.07.32,0,.05-.02.11-.03.16-.01.17,0,.34.03.52l5.88,31.56c.03.19.1.35.17.51.02.03.03.07.05.1.08.15.18.28.29.4.02.02.04.03.06.05.11.1.22.19.34.27.02.02.05.03.07.05.14.08.28.14.44.19.03,0,.06.02.1.02.15.04.3.06.46.06.01,0,.02,0,.03,0,0,0,0,0,.01,0,.16,0,.32-.02.48-.06.05-.01.09-.03.13-.04.12-.04.24-.09.35-.15.04-.02.09-.05.13-.08.15-.1.29-.21.42-.35l20.79-23.3c.25-.28.4-.59.47-.92.04-.16.05-.33.04-.49,0-.02,0-.04,0-.06-.02-.26-.09-.51-.2-.74-.05-.11-.11-.21-.18-.3-.15-.21-.33-.41-.56-.55-.15-.09-.31-.17-.49-.22l-26.67-8.26c-.2-.06-.39-.09-.58-.09Z" style="fill:#fff;"/><path d="M105.58,72.91c.1.06.2.1.31.14.03.01.06.02.1.03.08.03.16.05.24.06.04,0,.08.01.12.02.07.01.15.02.22.02.02,0,.05,0,.07,0,.02,0,.03,0,.04,0,.15,0,.29-.02.44-.05.02,0,.04-.01.06-.02.13-.04.26-.09.39-.15.02-.01.05-.02.07-.04.13-.08.25-.17.37-.28.02-.02.05-.05.07-.07.12-.12.22-.25.31-.41l7.44-13.03c.17-.29.25-.61.27-.92s-.04-.62-.16-.9c-.12-.28-.3-.53-.54-.74-.23-.2-.52-.36-.85-.44l-8.52-2.11c-.17-.04-.33-.06-.5-.06,0,0,0,0,0,0,0,0-.01,0-.02,0-.15,0-.29.02-.43.05-.05.01-.09.03-.14.05-.09.03-.19.06-.28.1-.05.02-.1.06-.15.08-.08.05-.15.09-.22.15-.05.04-.09.08-.13.12-.06.06-.12.12-.18.19-.04.05-.08.09-.11.14-.05.07-.1.15-.14.23-.03.05-.05.1-.08.16-.04.09-.06.19-.09.29-.01.05-.03.1-.04.15-.02.15-.04.31-.02.47l1.08,15.15c.01.14.03.27.07.4.01.04.03.08.04.12.03.08.06.16.09.24.02.04.04.08.06.12.04.07.08.13.12.19.03.04.05.07.08.11.05.06.11.11.16.17.03.03.06.05.09.08.07.06.15.12.24.17.02,0,.03.02.05.03Z" style="fill:#fff;"/><path d="M43.91,53.58c-.23-.2-.52-.36-.85-.44l-8.52-2.11c-.17-.04-.33-.06-.5-.06,0,0,0,0,0,0,0,0-.01,0-.02,0-.15,0-.29.02-.43.05-.05.01-.09.03-.14.05-.09.03-.19.06-.28.1-.05.02-.1.06-.15.08-.08.05-.15.09-.22.15-.05.04-.09.08-.13.12-.06.06-.12.12-.18.19-.04.05-.08.09-.11.14-.05.07-.1.15-.14.23-.03.05-.05.1-.08.16-.04.09-.06.19-.09.29-.01.05-.03.1-.04.15-.02.15-.04.31-.02.47h0s.54,7.57.54,7.57l.54,7.57c.01.14.03.27.07.4.01.04.03.08.04.12.03.08.06.16.09.24.02.04.04.08.06.12.04.07.08.13.12.19.03.04.05.07.08.11.05.06.1.11.16.17.03.03.06.06.09.08.07.06.15.12.24.17.02,0,.03.02.05.03.1.06.2.1.31.14.03.01.06.02.1.03.08.02.15.05.23.06.04,0,.08.01.12.02.07.01.15.02.22.02.02,0,.05,0,.07,0,.02,0,.03,0,.05,0,.15,0,.29-.02.44-.05.02,0,.04-.01.06-.02.13-.04.26-.09.39-.15.02-.01.05-.02.07-.04.13-.08.25-.17.37-.28.02-.02.05-.05.07-.07.12-.12.22-.25.31-.41l7.44-13.03c.17-.29.25-.61.27-.92s-.04-.62-.16-.9c-.12-.28-.3-.53-.54-.74Z" style="fill:#fff;"/><path d="M53.67,5.75c.01.07.01.14.03.22.05.22.13.44.25.66,0,0,0,0,0,0l2.12,3.99c.12.23.27.42.43.59.04.04.07.08.11.11.17.16.34.3.54.4.03.02.06.03.09.04.18.09.36.16.56.21.04.01.08.03.13.03.21.05.43.07.64.06.04,0,.09,0,.13,0,.2-.01.39-.04.58-.1.03,0,.06-.01.09-.02.01,0,.03,0,.04,0,.2-.07.39-.16.57-.27.05-.03.09-.07.14-.1.14-.1.28-.22.4-.35.05-.05.09-.1.14-.15.15-.19.29-.39.4-.62l1.81-4c.21-.46.28-.93.24-1.39-.02-.23-.07-.45-.14-.66-.07-.21-.17-.41-.3-.6-.24-.37-.58-.69-.97-.91s-.86-.35-1.36-.35l-3.93.02c-.24,0-.46.04-.68.09-.04,0-.07.02-.11.03-.03,0-.06.01-.08.02-.16.05-.31.13-.46.21-.03.01-.06.02-.08.04-.19.11-.36.25-.51.4-.05.05-.08.1-.13.15-.1.11-.19.23-.27.35-.04.07-.08.14-.11.21-.06.12-.12.24-.16.37-.03.08-.05.16-.07.24-.03.13-.05.26-.07.4,0,.08-.02.16-.02.25,0,.15.02.3.04.45Z" style="fill:#fff;"/><polygon points="126.94 68.04 128.15 64.78 131.4 63.58 128.15 62.38 126.94 59.13 125.74 62.38 122.49 63.58 125.74 64.78 126.94 68.04" style="fill:#fff;"/><polygon points="107.5 42.37 108.7 39.11 111.95 37.91 108.7 36.71 107.5 33.46 106.29 36.71 103.04 37.91 106.29 39.11 107.5 42.37" style="fill:#fff;"/><polygon points="94.15 7.99 94.89 5.98 96.9 5.23 94.89 4.49 94.15 2.48 93.4 4.49 91.39 5.23 93.4 5.98 94.15 7.99" style="fill:#fff;"/><polygon points="32.28 22.29 33.79 18.21 37.88 16.7 33.79 15.19 32.28 11.1 30.77 15.19 26.69 16.7 30.77 18.21 32.28 22.29" style="fill:#fff;"/><polygon points="16.2 70.8 18.35 64.98 24.17 62.83 18.35 60.67 16.2 54.86 14.05 60.67 8.23 62.83 14.05 64.98 16.2 70.8" style="fill:#fff;"/><path d="M115.84,123.26c-.36-.53-.82-.99-1.35-1.35-.27-.18-.55-.33-.85-.46-.6-.25-1.26-.39-1.95-.39h0c-1.73,0-3.25.87-4.15,2.21-.18.27-.33.55-.46.85-.25.6-.39,1.26-.39,1.95s.14,1.35.39,1.95c.13.3.28.58.46.85.9,1.33,2.42,2.21,4.15,2.21h0c.69,0,1.35-.14,1.95-.39.3-.13.58-.28.85-.46.53-.36.99-.82,1.35-1.35.18-.27.33-.55.46-.85.25-.6.39-1.26.39-1.95s-.14-1.35-.39-1.95c-.13-.3-.28-.58-.46-.85Z" style="fill:#fff;"/><path d="M60.34,132.44c-4.34,0-7.97,1.44-10.78,4.27-2.81,2.83-4.23,6.4-4.23,10.62s1.45,7.81,4.31,10.59c2.86,2.78,6.73,4.18,11.49,4.18,5.23,0,9.28-1.72,12.04-5.11l-4.09-2.85c-.79-.55-1.76-.86-2.71-.86-.63,0-1.22.13-1.78.38-.97.44-2.06.66-3.25.66-3.16,0-5.21-1-6.27-3.06l-.34-.65h19.76c.25-1.06.37-2.19.37-3.38,0-4.21-1.38-7.77-4.12-10.56-2.73-2.79-6.24-4.21-10.43-4.21ZM65.37,144.34h-10.69l.22-.6c.88-2.41,2.75-3.62,5.55-3.62s4.5,1.22,5.34,3.63l.21.59h-.63Z" style="fill:#fff;"/><path d="M94.49,132.44c-3.2,0-5.67,1-7.35,2.99l-.55.66-.22-.83c-.49-1.87-2.12-2.81-4.83-2.81h-4.26v29.66h9.19v-15.73c0-1.69.42-3,1.26-3.91.84-.91,2.03-1.37,3.54-1.37,1.32,0,2.39.39,3.19,1.17.8.78,1.21,1.93,1.21,3.44v16.41h9.19v-17.6c0-3.88-.97-6.89-2.9-8.95-1.92-2.06-4.42-3.1-7.44-3.1Z" style="fill:#fff;"/><path d="M133.95,132.44c-4.34,0-7.97,1.44-10.78,4.27-2.81,2.83-4.23,6.4-4.23,10.62s1.45,7.81,4.31,10.59c2.86,2.78,6.73,4.18,11.49,4.18,5.23,0,9.28-1.72,12.04-5.11l-4.09-2.85c-.8-.55-1.76-.86-2.71-.86-.63,0-1.22.13-1.78.38-.97.44-2.06.66-3.25.66-3.16,0-5.21-1-6.27-3.06l-.34-.65h19.76c.25-1.06.37-2.19.37-3.38,0-4.21-1.38-7.77-4.12-10.56-2.73-2.79-6.24-4.21-10.43-4.21ZM138.98,144.34h-10.69l.22-.6c.88-2.41,2.75-3.62,5.55-3.62s4.5,1.22,5.34,3.63l.21.59h-.63Z" style="fill:#fff;"/><path d="M116.57,157.46v-25.02h-9.19v29.65h4.53c2.57,0,4.65-2.08,4.65-4.63Z" style="fill:#fff;"/><path d="M33,138.6h-5.1c-3.36,0-6.09,2.73-6.09,6.08v2.13h10.64l-.46.69c-2.12,3.19-5.68,5.1-9.52,5.1-.08,0-.17,0-.25,0-3.05-.07-5.89-1.31-8-3.5-2.11-2.19-3.24-5.07-3.17-8.11.06-3.02,1.32-5.84,3.53-7.93,2.19-2.07,5.08-3.22,8.14-3.22,3.44,0,5.92,1.61,7.4,2.97,1.15,1.05,2.61,1.63,4.14,1.63.96,0,1.91-.24,2.75-.68l4.06-2.15c-3.55-6.78-10.47-11.08-18.16-11.24-.15,0-.31,0-.46,0-5.51,0-10.71,2.11-14.65,5.95-3.95,3.84-6.19,8.99-6.3,14.48-.12,5.58,1.95,10.87,5.82,14.89,3.88,4.03,9.1,6.31,14.7,6.43.15,0,.31,0,.46,0,4.61,0,8.98-1.46,12.65-4.23,3.56-2.69,6.21-6.51,7.46-10.75.52-1.77.81-3.61.85-5.45.02-1.01-.03-2.04-.16-3.08h-10.28Z" style="fill:#fff;"/><circle cx="111.98" cy="125.02" r="4.64" style="fill:#fff;"/></svg>