<svg id="evlghDMXJzj1" xmlns="http://www.w3.org/2000/svg" xmlns:xlink="http://www.w3.org/1999/xlink" viewBox="0 0 500 500" shape-rendering="geometricPrecision" text-rendering="geometricPrecision" project-id="344372b7e42d4561b774602767344133" export-id="6cdd49b11b724ca79a4a90dd72b81194" cached="false" style="background-color:transparent">
<style><![CDATA[
#evlghDMXJzj2_tr {animation: evlghDMXJzj2_tr__tr 1500ms linear infinite normal forwards}@keyframes evlghDMXJzj2_tr__tr { 0% {transform: translate(249.993px,249.755px) rotate(458.533deg)} 100% {transform: translate(249.993px,249.755px) rotate(1178.533deg)}} #evlghDMXJzj2_ts {animation: evlghDMXJzj2_ts__ts 1500ms linear infinite normal forwards}@keyframes evlghDMXJzj2_ts__ts { 0% {transform: scale(0.23932,0.23932)} 50% {transform: scale(0.18932,0.18932)} 100% {transform: scale(0.23932,0.23932)}} #evlghDMXJzj5_tr {animation: evlghDMXJzj5_tr__tr 1500ms linear infinite normal forwards}@keyframes evlghDMXJzj5_tr__tr { 0% {transform: translate(253.202px,248.4px) rotate(157.227deg)} 100% {transform: translate(253.202px,248.4px) rotate(879.227deg)}} #evlghDMXJzj5_ts {animation: evlghDMXJzj5_ts__ts 1500ms linear infinite normal forwards}@keyframes evlghDMXJzj5_ts__ts { 0% {transform: scale(0.71727,0.71727)} 50% {transform: scale(0.59773,0.59773)} 100% {transform: scale(0.71727,0.71727)}} #evlghDMXJzj7_tr {animation: evlghDMXJzj7_tr__tr 1500ms linear infinite normal forwards}@keyframes evlghDMXJzj7_tr__tr { 0% {transform: translate(250.455px,258.276px) rotate(23.053deg)} 100% {transform: translate(250.455px,258.276px) rotate(729.053deg)}} #evlghDMXJzj7_ts {animation: evlghDMXJzj7_ts__ts 1500ms linear infinite normal forwards}@keyframes evlghDMXJzj7_ts__ts { 0% {transform: scale(0.76656,0.76656)} 50% {transform: scale(0.63656,0.63656)} 100% {transform: scale(0.76656,0.76656)}} #evlghDMXJzj9_tr {animation: evlghDMXJzj9_tr__tr 1500ms linear infinite normal forwards}@keyframes evlghDMXJzj9_tr__tr { 0% {transform: translate(250px,250px) rotate(0.229185deg);animation-timing-function: cubic-bezier(0.3332,0.2253,0.667,1)} 36.066667% {transform: translate(250px,250px) rotate(4deg);animation-timing-function: cubic-bezier(0.333,0,0.667,1)} 80.533333% {transform: translate(250px,250px) rotate(0deg)} 100% {transform: translate(250px,250px) rotate(0deg)}} #evlghDMXJzj9_ts {animation: evlghDMXJzj9_ts__ts 1500ms linear infinite normal forwards}@keyframes evlghDMXJzj9_ts__ts { 0% {transform: scale(0.298854,0.298854);animation-timing-function: cubic-bezier(0.3332,0.2253,0.667,1)} 36.066667% {transform: scale(0.28,0.28);animation-timing-function: cubic-bezier(0.333,0,0.667,1)} 80.533333% {transform: scale(0.3,0.3)} 100% {transform: scale(0.3,0.3)}}
]]></style>
<defs><linearGradient id="evlghDMXJzj8-fill" x1="0" y1="0" x2="100" y2="0" spreadMethod="pad" gradientUnits="userSpaceOnUse" gradientTransform="translate(0 0)"><stop id="evlghDMXJzj8-fill-0" offset="0%" stop-color="#5a18f5"/><stop id="evlghDMXJzj8-fill-1" offset="50%" stop-color="#3e5bf8"/><stop id="evlghDMXJzj8-fill-2" offset="100%" stop-color="#229efa"/></linearGradient><linearGradient id="evlghDMXJzj10-fill" x1="-380.659" y1="0.636" x2="374.677" y2="1.204" spreadMethod="pad" gradientUnits="userSpaceOnUse" gradientTransform="translate(0 0)"><stop id="evlghDMXJzj10-fill-0" offset="0%" stop-color="#1a96e8"/><stop id="evlghDMXJzj10-fill-1" offset="50%" stop-color="#375ae9"/><stop id="evlghDMXJzj10-fill-2" offset="100%" stop-color="#531dea"/></linearGradient></defs><g id="evlghDMXJzj2_tr" transform="translate(249.993,249.755) rotate(458.533)"><g id="evlghDMXJzj2_ts" transform="scale(0.23932,0.23932)"><g transform="translate(-273.735,411.2)"><g transform="matrix(.994815-.693863 0.693863 0.994815-175-229)"><path d="M33.373558,-48.344258C44.999,-51.319,-66.611,-22.76,-54.985558,-25.734742c-5.812721,1.487371-7.242361,7.072131-2.859279,11.16952C-66.611,-22.76,16.834,55.246,8.067837,47.051222c4.383082,4.097389,10.299311,2.393963,11.83246-3.406852C16.834,55.246,44.999,-51.319,41.932703,-39.71737c1.533149-5.800815-2.746424-10.114259-8.559145-8.626888" fill="#531dea" stroke-width="0"/></g></g></g></g><g id="evlghDMXJzj5_tr" transform="translate(253.202,248.4) rotate(157.227)"><g id="evlghDMXJzj5_ts" transform="scale(0.71727,0.71727)"><g transform="translate(376.277,234.741)"><path d="M-159.420002,-249.83497c11.446002-3.60403-54.494998,17.15897-43.048996,13.55494-5.723001,1.802015-6.648533,7.207402-1.851064,10.810774-9.594938-7.206744,44.338062,33.302256,34.743124,26.095512c4.797469,3.603372,10.748859,1.318751,11.902779-4.569243-2.307841,11.775987,9.700159-49.496013,7.392318-37.720026c1.15392-5.887994-3.41516-9.973972-9.138161-8.171957" paint-order="stroke fill markers" fill="none" fill-rule="evenodd" stroke="#1223f0" stroke-width="2"/></g></g></g><g id="evlghDMXJzj7_tr" transform="translate(250.455,258.276) rotate(23.053)"><g id="evlghDMXJzj7_ts" transform="scale(0.76656,0.76656)"><g transform="translate(197.401,-78.567001)"><path d="M24.746457,-37.169631C36.22,-40.685,-50.255,-14.19,-38.781457,-17.705369c-5.736772,1.757685-6.671509,7.112655-1.869475,10.709942C-50.255,-14.19,20.826,39.058,11.221932,31.863427c4.802034,3.597287,10.741342,1.303342,11.878615-4.58789C20.826,39.058,36.22,-40.685,33.945453,-28.902537c1.137273-5.891232-3.462224-10.024779-9.198996-8.267094" fill="url(#evlghDMXJzj8-fill)" stroke-width="0"/></g></g></g><g id="evlghDMXJzj9_tr" transform="translate(250,250) rotate(0.229185)"><g id="evlghDMXJzj9_ts" transform="scale(0.298854,0.298854)"><g transform="translate(-0.126,-0.125)"><path d="M0.001,-389.625c0,0,105.233,284.391,105.233,284.391s284.39,105.235,284.39,105.235-284.39,105.234-284.39,105.234-105.233,284.39-105.233,284.39-105.236-284.39-105.236-284.39-284.389-105.234-284.389-105.234s284.389-105.235,284.389-105.235s105.236-284.391,105.236-284.391Z" fill="url(#evlghDMXJzj10-fill)" stroke-width="0"/></g></g></g></svg>
