<?xml version="1.0" encoding="UTF-8"?><svg id="a" xmlns="http://www.w3.org/2000/svg" width="350" height="466.3" xmlns:xlink="http://www.w3.org/1999/xlink" viewBox="0 0 350 466.3"><defs><clipPath id="b"><rect x="1.32" y="1.21" width="347.36" height="463.88" rx="6.11" ry="6.11" style="fill:none;"/></clipPath><linearGradient id="c" x1="175" y1="-1574.17" x2="175" y2="-1623.08" gradientTransform="translate(0 1624.28)" gradientUnits="userSpaceOnUse"><stop offset="0" stop-color="#e5e8eb"/><stop offset="1" stop-color="#cbd1d7"/></linearGradient></defs><g style="clip-path:url(#b);"><path d="M1.32,50.11h347.36v414.98H1.32V50.11Z" style="fill:#f6f7f8;"/><path d="M1.32,1.21h347.36v48.9H1.32V1.21Z" style="fill:url(#c);"/></g><path d="M30.91,25.47c0,3.37-2.73,6.09-6.09,6.09s-6.09-2.73-6.09-6.09,2.73-6.09,6.09-6.09,6.09,2.73,6.09,6.09Z" style="fill:#f58332;"/><path d="M52.81,25.47c0,3.37-2.73,6.09-6.09,6.09s-6.09-2.73-6.09-6.09,2.73-6.09,6.09-6.09,6.09,2.73,6.09,6.09Z" style="fill:#e5c553;"/><path d="M75.16,25.47c0,3.37-2.73,6.09-6.09,6.09s-6.09-2.73-6.09-6.09,2.73-6.09,6.09-6.09,6.09,2.73,6.09,6.09Z" style="fill:#379904;"/></svg>