<svg id="eiR7tMFA5yJ1" xmlns="http://www.w3.org/2000/svg" xmlns:xlink="http://www.w3.org/1999/xlink" viewBox="0 0 85 85" shape-rendering="geometricPrecision" text-rendering="geometricPrecision" project-id="a0410407e4ba470abd1daf9e71ab698d" export-id="c610e3c1571846ddbf6bc2dd7d1f9347" cached="false" style="background-color:transparent">
<style><![CDATA[
#eiR7tMFA5yJ23_tr {animation: eiR7tMFA5yJ23_tr__tr 3100ms linear infinite normal forwards}@keyframes eiR7tMFA5yJ23_tr__tr { 0% {transform: translate(150px,150px) rotate(171deg)} 23.677419% {transform: translate(150px,150px) rotate(171deg)} 36.580645% {transform: translate(150px,150px) rotate(342.012deg)} 51.612903% {transform: translate(150px,150px) rotate(424.355deg)} 64.548387% {transform: translate(150px,150px) rotate(765deg)} 100% {transform: translate(150px,150px) rotate(765deg)}} #eiR7tMFA5yJ23 {animation: eiR7tMFA5yJ23_c_o 3100ms linear infinite normal forwards}@keyframes eiR7tMFA5yJ23_c_o { 0% {opacity: 0} 23.354839% {opacity: 0;animation-timing-function: step-end} 23.677419% {opacity: 1;animation-timing-function: step-end} 65.612903% {opacity: 0} 100% {opacity: 0}} #eiR7tMFA5yJ39 {animation-name: eiR7tMFA5yJ39_s_do, eiR7tMFA5yJ39_s_da;animation-duration: 3100ms;animation-fill-mode: forwards;animation-timing-function: linear;animation-direction: normal;animation-iteration-count: infinite;}@keyframes eiR7tMFA5yJ39_s_do { 0% {stroke-dashoffset: 115.4525;animation-timing-function: cubic-bezier(0.297622,0,0.654181,0.436788)} 16.16129% {stroke-dashoffset: -127.525489;animation-timing-function: cubic-bezier(0.4195,0.3653,0.819,0.8562)} 36.580645% {stroke-dashoffset: -701.694639} 51.612903% {stroke-dashoffset: -808.1675} 69.903226% {stroke-dashoffset: -1211.895229} 88.225806% {stroke-dashoffset: -1616.335} 90.354839% {stroke-dashoffset: -1637.097575} 100% {stroke-dashoffset: -1731.158331}}@keyframes eiR7tMFA5yJ39_s_da { 0% {stroke-dasharray: 0, 0, 0.04, 461.77;animation-timing-function: cubic-bezier(0.333,0,0.833,0.833)} 16.16129% {stroke-dasharray: 0, 0, 207.86, 253.95} 36.580645% {stroke-dasharray: 0, 0, 0.04, 461.77} 51.612903% {stroke-dasharray: 0, 0, 0.04, 461.77} 69.903226% {stroke-dasharray: 0, 0, 207.86, 253.95} 88.225806% {stroke-dasharray: 0, 0, 21.67, 440.14} 90.354839% {stroke-dasharray: 0, 0, 0.04, 461.77} 100% {stroke-dasharray: 0, 0, 0.04, 461.77}}
]]></style>
<defs><linearGradient id="eiR7tMFA5yJ4-fill" x1="0.146447" y1="0.853553" x2="0.853553" y2="0.146447" spreadMethod="pad" gradientUnits="objectBoundingBox" gradientTransform="translate(0 0)"><stop id="eiR7tMFA5yJ4-fill-0" offset="0%" stop-color="#1448f6"/><stop id="eiR7tMFA5yJ4-fill-1" offset="100%" stop-color="#8607b8"/></linearGradient><linearGradient id="eiR7tMFA5yJ20-fill" x1="0" y1="0.5" x2="1" y2="0.5" spreadMethod="pad" gradientUnits="objectBoundingBox" gradientTransform="translate(0 0)"><stop id="eiR7tMFA5yJ20-fill-0" offset="0%" stop-color="rgba(34,158,250,0)"/><stop id="eiR7tMFA5yJ20-fill-1" offset="52%" stop-color="#229efa"/><stop id="eiR7tMFA5yJ20-fill-2" offset="100%" stop-color="#5a18f5"/></linearGradient></defs><g transform="matrix(0.469733 0 0 0.469733 -27.959954 -27.959954)"><g transform="translate(150 150)"><path d="M-65.162,0c0,35.987,29.175,65.162,65.162,65.162C35.988,65.162,65.162,35.987,65.162,0c0-35.988-29.174-65.162-65.162-65.162-35.987,0-65.162,29.174-65.162,65.162Z" fill="url(#eiR7tMFA5yJ4-fill)" fill-rule="evenodd" stroke-width="0"/></g><g transform="translate(115.856 104.625)"><g transform="translate(45.233 84.997)"><path d="M7.831,3.473c-.003-.014-.013-.026-.016-.041-.081-.309-.248-.605-.54-.847c0,0-9.319-7.703-9.319-7.703-.191-.157-.405-.247-.624-.306-.064-.017-.124-.023-.188-.032-.078-.012-.154-.039-.232-.039-.052,0-.096.038-.148.043-.198.018-.378.073-.558.16-.08.038-.156.061-.23.113-.236.164-.443.375-.571.664c0,0-2.855,6.473-2.855,6.473-.45,1.022.228,2.187,1.339,2.299c0,0,12.174,1.229,12.174,1.229.061.006.122.009.182.009.03,0,.048-.024.077-.025.326-.017.615-.11.85-.279.028-.02.047-.043.074-.064.228-.186.407-.421.511-.693.009-.024.01-.046.018-.07.095-.285.125-.592.056-.891Z" fill="#fff" stroke-width="0"/></g><g transform="translate(33.958 64.324)"><path d="M20.797,-22.549c-.235-.135-.509-.214-.808-.214c0,0-39.981,0-39.981,0-.612,0-1.117.328-1.4.795-.141.233-.227.501-.243.78s.038.569.176.846c0,0,20.983,42.188,20.983,42.188.154.31.379.538.638.691.088.051.19.044.283.077.18.065.356.149.544.149.006,0,.011-.005.017-.005.197-.002.378-.088.563-.159.096-.037.202-.032.29-.087.259-.163.481-.403.626-.724c0,0,18.998-42.188,18.998-42.188.124-.276.168-.562.145-.835-.047-.547-.361-1.044-.831-1.314Z" fill="#fff" stroke-width="0"/></g><g transform="translate(63.1 49.453)"><path d="M3.674,-5.994c0,0-6.867-1.703-6.867-1.703-.134-.034-.269-.05-.4-.05-.079,0-.147.036-.224.048-.097.013-.187.028-.278.058-.141.047-.264.115-.385.197-.076.05-.151.091-.218.153-.116.108-.2.238-.281.375-.041.069-.093.124-.124.199-.091.224-.143.468-.124.732c0,0,.874,12.204.874,12.204.026.37.18.66.378.902.034.043.059.085.097.124.208.208.459.35.739.424.054.015.102.019.157.028.095.016.187.05.283.05.135,0,.26-.067.392-.1.097-.024.188-.029.28-.072.289-.132.554-.332.74-.659c0,0,5.993-10.501,5.993-10.501.54-.946.026-2.147-1.032-2.409Z" fill="#fff" stroke-width="0"/></g><g transform="translate(5.496 47.038)"><path d="M3.674,-5.994c0,0-6.867-1.703-6.867-1.703-.135-.034-.269-.05-.4-.05-.079,0-.147.036-.224.048-.097.013-.187.028-.279.058-.14.047-.262.115-.383.196-.077.051-.152.092-.219.154-.116.108-.199.237-.28.374-.041.069-.094.125-.125.2-.092.224-.143.468-.125.732c0,0,.875,12.204.875,12.204.026.37.18.66.378.902.034.043.059.085.097.124.208.208.459.349.739.424.054.015.102.019.157.028.095.016.187.05.283.05.135,0,.26-.067.392-.1.097-.024.187-.029.28-.072.289-.132.554-.332.74-.659c0,0,5.993-10.501,5.993-10.501.54-.946.026-2.147-1.032-2.409Z" fill="#fff" stroke-width="0"/></g><g transform="translate(33.633 24.304)"><path d="M-10.93,-14.359c-.076,0-.14.038-.213.048-.103.015-.196.034-.293.066-.153.052-.285.124-.416.216-.079.056-.155.104-.224.173-.121.121-.204.264-.283.418-.039.077-.092.139-.118.222-.082.248-.116.517-.063.803c0,0,4.739,25.429,4.739,25.429.056.303.201.543.378.75.038.044.071.085.112.125.189.179.406.314.651.388.039.012.075.01.114.019.122.028.243.061.368.061.093,0,.183-.04.276-.056.078-.014.15-.023.226-.048.26-.085.51-.215.716-.446c0,0,16.756-18.776,16.756-18.776.797-.892.404-2.311-.739-2.665c0,0-21.496-6.653-21.496-6.653-.166-.051-.33-.074-.491-.074Z" fill="#fff" stroke-width="0"/></g><g transform="translate(21.738 4.098)"><path d="M-3.794,-0.542c0,0,1.709,3.213,1.709,3.213.197.368.484.618.797.814.069.043.13.084.203.119.318.154.656.243,1.004.238.05-.001.093-.018.143-.022.181-.014.365-.024.538-.082.114-.037.206-.122.313-.179.093-.048.178-.089.265-.151.301-.216.571-.487.743-.869c0,0,.001,0,.001-.001c0,0,1.454-3.227,1.454-3.227.668-1.482-.42-3.159-2.045-3.15c0,0-3.166.015-3.166.015-.247.001-.48.041-.696.112-.092.031-.155.103-.24.144-.125.06-.234.124-.344.205-.178.131-.322.279-.453.454-.078.104-.155.197-.215.313-.107.207-.158.425-.197.658-.019.114-.06.216-.06.333-.004.355.061.715.246,1.063Z" fill="#fff" stroke-width="0"/></g></g><g mask="url(#eiR7tMFA5yJ21)"><g transform="matrix(1.24 0 0 1.24 150 150)"><path d="M-65.162,0c0,35.987,29.175,65.162,65.162,65.162C35.988,65.162,65.162,35.987,65.162,0c0-35.988-29.174-65.162-65.162-65.162-35.987,0-65.162,29.174-65.162,65.162Z" fill="url(#eiR7tMFA5yJ20-fill)" fill-rule="evenodd"/></g><mask id="eiR7tMFA5yJ21" mask-type="alpha" x="-150%" y="-150%" height="400%" width="400%"><g clip-path="url(#eiR7tMFA5yJ40)"><g id="eiR7tMFA5yJ23_tr" transform="translate(150,150) rotate(171)"><g id="eiR7tMFA5yJ23" transform="translate(0,0)" opacity="0"><g><ellipse rx="73.5" ry="73.5" paint-order="stroke fill markers" fill="none" fill-rule="evenodd" stroke="#f00" stroke-width="6" stroke-linecap="round" stroke-dashoffset="-112.886889" stroke-dasharray="0.04,461.77"/></g><g><ellipse rx="73.5" ry="73.5" paint-order="stroke fill markers" fill="none" fill-rule="evenodd" stroke="#f00" stroke-width="7" stroke-linecap="round" stroke-dashoffset="-134.694583" stroke-dasharray="0.04,461.77"/></g><g><ellipse rx="73.5" ry="73.5" paint-order="stroke fill markers" fill="none" fill-rule="evenodd" stroke="#f00" stroke-width="8" stroke-linecap="round" stroke-dashoffset="-155.219472" stroke-dasharray="0.04,461.77"/></g><g><ellipse rx="73.5" ry="73.5" paint-order="stroke fill markers" fill="none" fill-rule="evenodd" stroke="#f00" stroke-width="9" stroke-linecap="round" stroke-dashoffset="-175.744361" stroke-dasharray="0.04,461.77"/></g><g><ellipse rx="73.5" ry="73.5" paint-order="stroke fill markers" fill="none" fill-rule="evenodd" stroke="#f00" stroke-width="10" stroke-linecap="round" stroke-dashoffset="-196.26925" stroke-dasharray="0.04,461.77"/></g><g><ellipse rx="73.5" ry="73.5" paint-order="stroke fill markers" fill="none" fill-rule="evenodd" stroke="#f00" stroke-width="11" stroke-linecap="round" stroke-dashoffset="-216.794139" stroke-dasharray="0.04,461.77"/></g><g><ellipse rx="73.5" ry="73.5" paint-order="stroke fill markers" fill="none" fill-rule="evenodd" stroke="#f00" stroke-width="12" stroke-linecap="round" stroke-dashoffset="-239.884639" stroke-dasharray="0.04,461.77"/></g></g></g><g transform="translate(150 150)"><ellipse id="eiR7tMFA5yJ39" rx="73.5" ry="73.5" paint-order="stroke fill markers" fill="none" fill-rule="evenodd" stroke="#f00" stroke-width="12" stroke-linecap="round" stroke-dashoffset="115.4525" stroke-dasharray="0,0,0.04,461.77"/></g><clipPath id="eiR7tMFA5yJ40"><rect width="300" height="300" rx="0" ry="0" fill="none" stroke-width="0"/></clipPath></g></mask></g></g></svg>
