<?xml version="1.0" encoding="UTF-8"?><svg id="a" xmlns="http://www.w3.org/2000/svg" width="100" height="100" viewBox="0 0 100 100"><path d="m80.01,9.37c-4.43-5.05-12.44-7.22-22.69-7.22h-29.74c-2.1,0-3.88,1.52-4.21,3.59l-12.38,78.53c-.25,1.55.95,2.95,2.52,2.95h18.36l4.61-29.25-.14.92c.33-2.07,2.1-3.59,4.19-3.59h8.72c17.14,0,30.56-6.96,34.48-27.1.12-.6.22-1.18.3-1.74,1.17-7.44,0-12.51-4.03-17.1" style="fill:#003087;"/><path d="m80.01,9.37c-4.43-5.05-12.44-7.22-22.69-7.22h-29.74c-2.1,0-3.88,1.52-4.21,3.59l-12.38,78.53c-.25,1.55.95,2.95,2.52,2.95h18.36l4.61-29.25-.14.92c.33-2.07,2.1-3.59,4.19-3.59h8.72c17.14,0,30.56-6.96,34.48-27.1.12-.6.22-1.18.3-1.74,1.17-7.44,0-12.51-4.03-17.1" style="fill:#003087;"/><path d="m41.45,26.57c.2-1.24,1-2.26,2.07-2.78.49-.23,1.03-.36,1.61-.36h23.31c2.76,0,5.34.18,7.69.56.67.11,1.33.23,1.96.38.64.14,1.25.3,1.85.47.3.09.59.18.88.27,1.16.39,2.23.84,3.22,1.36,1.17-7.45,0-12.51-4.03-17.1-4.43-5.05-12.44-7.22-22.69-7.22h-29.74c-2.09,0-3.88,1.52-4.2,3.59l-12.38,78.53c-.25,1.55.95,2.95,2.52,2.95h18.36l4.61-29.25s4.96-31.42,4.96-31.42Z" style="fill:#003087;"/><path d="m84.05,26.47c-.09.57-.19,1.15-.3,1.74-3.92,20.14-17.34,27.1-34.48,27.1h-8.73c-2.09,0-3.86,1.52-4.19,3.59l-4.47,28.33-1.27,8.04c-.21,1.36.83,2.58,2.2,2.58h15.48c1.83,0,3.39-1.33,3.68-3.14l.15-.79,2.92-18.49.19-1.02c.29-1.81,1.84-3.14,3.68-3.14h2.32c14.99,0,26.73-6.09,30.16-23.71,1.43-7.36.69-13.51-3.1-17.82-1.15-1.31-2.58-2.39-4.24-3.27" style="fill:#009cde;"/><path d="m79.94,24.83c-.6-.17-1.21-.33-1.85-.47s-1.29-.26-1.96-.37c-2.36-.38-4.93-.56-7.69-.56h-23.31c-.57,0-1.12.13-1.61.37-1.08.52-1.87,1.53-2.07,2.78l-4.96,31.42-.14.92c.33-2.07,2.09-3.59,4.19-3.59h8.73c17.14,0,30.56-6.96,34.48-27.1.12-.6.21-1.17.3-1.74-.99-.52-2.07-.98-3.22-1.36-.29-.1-.58-.19-.88-.28" style="fill:#012169;"/></svg>