<?xml version="1.0" encoding="UTF-8"?>
<svg id="Layer_1" data-name="Layer 1" xmlns="http://www.w3.org/2000/svg" width="20" height="20" viewBox="0 0 20 20">
  <defs>
    <style>
      .cls-1 {
        fill: #000;
        fill-rule: evenodd;
        stroke-width: 0px;
      }
    </style>
  </defs>
  <path class="cls-1" d="M6.71,4.97c.65,0,1.24.16,1.81.37.37.1.7.24,1.07.35.65.16,1.29.08,1.91-.16.45-.17.89-.35,1.35-.46,1.41-.32,2.66,0,3.78.88.32.21.6.49.84.8.1.11.1.14-.03.21-1.18.72-1.85,1.77-1.97,3.12-.11,1.28.27,2.4,1.16,3.32.38.41.84.72,1.35.94.14.05.15.08.09.21-.57,1.34-1.33,2.55-2.28,3.64-.32.35-.68.69-1.13.93-.68.38-1.39.41-2.1.08-.3-.1-.58-.26-.88-.37-.99-.33-1.96-.26-2.92.13-.25.11-.49.22-.75.3-.93.33-1.75.14-2.51-.45-.46-.37-.84-.8-1.18-1.29-.81-1.09-1.43-2.25-1.86-3.54-.31-.9-.5-1.84-.56-2.8-.05-1.05.03-2.1.45-3.05.67-1.55,1.8-2.58,3.42-3.07.31-.08.64-.13.94-.1Z"/>
  <path class="cls-1" d="M13.63.98c-.02.91-.29,1.65-.75,2.34-.53.8-1.24,1.33-2.15,1.63-.27.1-.55.13-.84.13-.11,0-.16-.02-.17-.15-.07-.64.08-1.26.35-1.84.55-1.18,1.46-1.94,2.66-2.37.25-.09.49-.14.75-.16.1-.04.13.05.14.13,0,.11.02.24.02.29Z"/>
</svg>