<?xml version="1.0" encoding="UTF-8"?><svg id="a" xmlns="http://www.w3.org/2000/svg" width="100" height="100" viewBox="0 0 100 100"><path d="m66.57,71.12c-.39,2.55-2.33,2.55-4.22,2.55h-1.07l.75-4.76c.04-.29.29-.5.58-.5h.49c1.28,0,2.49,0,3.12.73.37.44.49,1.08.35,1.98m-.82-6.65h-7.1c-.49,0-.9.35-.97.83l-2.87,18.2c-.06.36.22.68.58.68h3.64c.34,0,.63-.25.68-.58l.81-5.16c.08-.48.49-.83.97-.83h2.25c4.68,0,7.37-2.26,8.08-6.75.32-1.96.01-3.5-.91-4.58-1.01-1.19-2.8-1.81-5.17-1.81" style="fill:#009cde;"/><path d="m15.95,71.12c-.39,2.55-2.33,2.55-4.22,2.55h-1.07l.75-4.76c.04-.29.29-.5.58-.5h.49c1.28,0,2.49,0,3.12.73.37.44.49,1.08.35,1.98m-.82-6.65h-7.1c-.49,0-.9.35-.97.83l-2.87,18.2c-.06.36.22.68.58.68h3.39c.49,0,.9-.35.97-.83l.78-4.91c.08-.48.49-.83.97-.83h2.25c4.68,0,7.37-2.26,8.08-6.75.32-1.96.01-3.5-.91-4.58-1.01-1.19-2.8-1.81-5.17-1.81" style="fill:#003087;"/><path d="m31.61,77.65c-.33,1.94-1.87,3.25-3.84,3.25-.99,0-1.78-.32-2.28-.92-.5-.59-.69-1.44-.53-2.39.31-1.93,1.87-3.27,3.81-3.27.97,0,1.75.32,2.27.93.52.61.73,1.46.58,2.4m4.74-6.62h-3.4c-.29,0-.54.21-.58.5l-.15.95-.24-.34c-.74-1.07-2.38-1.43-4.02-1.43-3.75,0-6.96,2.85-7.59,6.84-.32,1.99.14,3.89,1.27,5.22,1.04,1.22,2.52,1.73,4.28,1.73,3.03,0,4.71-1.94,4.71-1.94l-.15.94c-.06.36.22.68.58.68h3.06c.49,0,.9-.35.97-.83l1.84-11.63c.06-.36-.22-.68-.58-.68" style="fill:#003087;"/><path d="m82.23,77.65c-.33,1.94-1.87,3.25-3.84,3.25-.99,0-1.78-.32-2.28-.92-.5-.59-.69-1.44-.53-2.39.31-1.93,1.87-3.27,3.81-3.27.97,0,1.75.32,2.27.93.52.61.73,1.46.58,2.4m4.74-6.62h-3.4c-.29,0-.54.21-.58.5l-.15.95-.24-.34c-.74-1.07-2.38-1.43-4.01-1.43-3.75,0-6.96,2.85-7.59,6.84-.32,1.99.14,3.89,1.27,5.22,1.04,1.22,2.52,1.73,4.28,1.73,3.03,0,4.71-1.94,4.71-1.94l-.15.94c-.06.36.22.68.58.68h3.06c.49,0,.9-.35.97-.83l1.84-11.63c.06-.36-.22-.68-.58-.68" style="fill:#009cde;"/><path d="m54.45,71.04h-3.42c-.33,0-.63.16-.82.43l-4.71,6.94-2-6.67c-.13-.42-.51-.7-.95-.7h-3.36c-.41,0-.69.4-.56.78l3.76,11.04-3.54,4.99c-.28.39,0,.93.48.93h3.41c.32,0,.63-.16.81-.42l11.36-16.4c.27-.39,0-.93-.49-.93" style="fill:#003087;"/><path d="m90.98,64.97l-2.91,18.53c-.06.36.22.68.58.68h2.93c.49,0,.9-.35.97-.83l2.87-18.2c.06-.36-.22-.68-.58-.68h-3.28c-.29,0-.54.21-.58.5" style="fill:#009cde;"/><path d="m66.31,15.86c-2.18-2.49-6.13-3.56-11.18-3.56h-14.65c-1.03,0-1.91.75-2.07,1.77l-6.1,38.7c-.12.76.47,1.45,1.24,1.45h9.05l2.27-14.41-.07.45c.16-1.02,1.03-1.77,2.06-1.77h4.3c8.44,0,15.06-3.43,16.99-13.35.06-.29.11-.58.15-.86.58-3.67,0-6.16-1.99-8.42" style="fill:#003087;"/><path d="m66.31,15.86c-2.18-2.49-6.13-3.56-11.18-3.56h-14.65c-1.03,0-1.91.75-2.07,1.77l-6.1,38.7c-.12.76.47,1.45,1.24,1.45h9.05l2.27-14.41-.07.45c.16-1.02,1.03-1.77,2.06-1.77h4.3c8.44,0,15.06-3.43,16.99-13.35.06-.29.11-.58.15-.86.58-3.67,0-6.16-1.99-8.42" style="fill:#003087;"/><path d="m47.3,24.33c.1-.61.49-1.12,1.02-1.37.24-.11.51-.18.79-.18h11.49c1.36,0,2.63.09,3.79.28.33.05.65.11.97.19.31.07.62.15.91.23.15.04.29.09.43.13.57.19,1.1.41,1.59.67.58-3.67,0-6.16-1.99-8.42-2.18-2.49-6.13-3.56-11.18-3.56h-14.65c-1.03,0-1.91.75-2.07,1.77l-6.1,38.69c-.12.76.47,1.45,1.24,1.45h9.05l2.27-14.41s2.44-15.48,2.44-15.48Z" style="fill:#003087;"/><path d="m68.29,24.28c-.04.28-.09.56-.15.86-1.93,9.92-8.54,13.35-16.99,13.35h-4.3c-1.03,0-1.9.75-2.06,1.77l-2.2,13.96-.62,3.96c-.11.67.41,1.27,1.09,1.27h7.63c.9,0,1.67-.66,1.81-1.55l.07-.39,1.44-9.11.09-.5c.14-.89.91-1.55,1.81-1.55h1.14c7.39,0,13.17-3,14.86-11.68.71-3.63.34-6.66-1.53-8.78-.57-.64-1.27-1.18-2.09-1.61" style="fill:#009cde;"/><path d="m66.27,23.48c-.29-.09-.6-.16-.91-.23s-.64-.13-.97-.18c-1.16-.19-2.43-.28-3.79-.28h-11.49c-.28,0-.55.06-.79.18-.53.25-.92.76-1.02,1.37l-2.44,15.48-.07.45c.16-1.02,1.03-1.77,2.06-1.77h4.3c8.44,0,15.06-3.43,16.99-13.35.06-.29.11-.58.15-.86-.49-.26-1.02-.48-1.59-.67-.14-.05-.29-.09-.43-.14" style="fill:#012169;"/></svg>