<?xml version="1.0" encoding="UTF-8"?>
<svg id="Layer_1" data-name="Layer 1" xmlns="http://www.w3.org/2000/svg" width="20" height="20" viewBox="0 0 20 20">
  <defs>
    <style>
      .cls-1 {
        fill: #3b8701;
        stroke-width: 0px;
      }
    </style>
  </defs>
  <path class="cls-1" d="M3.36,7.53c-.48,0-.85.37-.85.85v4.1c0,.47.38.85.85.85s.85-.38.85-.85v-4.1c0-.48-.39-.85-.85-.85Z"/>
  <path class="cls-1" d="M16.64,7.53c-.46,0-.85.37-.85.85v4.1c0,.47.39.85.85.85s.85-.38.85-.85v-4.1c0-.48-.39-.85-.85-.85Z"/>
  <path class="cls-1" d="M4.96,7.53v7.6c0,.7.57,1.27,1.27,1.27h1.36v2.16c0,.47.38.85.85.85s.84-.38.84-.85v-2.16h1.44v2.16c0,.47.39.85.85.85s.85-.38.85-.85v-2.16h1.36c.7,0,1.27-.57,1.27-1.27v-7.6H4.96Z"/>
  <path class="cls-1" d="M12.47,2.39l.9-1.69-.18-.1-.91,1.69c-.69-.35-1.46-.56-2.28-.56s-1.51.19-2.17.52l-.88-1.65-.2.1.88,1.65c-1.56.82-2.63,2.49-2.64,4.38h10.01c0-1.87-1.04-3.49-2.54-4.33ZM7.42,4.78c-.27,0-.47-.21-.47-.47s.2-.46.47-.46.48.21.48.46-.21.47-.48.47ZM12.51,4.78c-.27,0-.48-.21-.48-.47s.21-.46.48-.46.48.21.48.46-.22.47-.48.47Z"/>
</svg>