<?xml version="1.0" encoding="UTF-8"?>
<svg id="a" xmlns="http://www.w3.org/2000/svg" width="70" height="40" viewBox="0 0 70 40">
  <defs>
    <style>
      .cls-1 {
        fill: #00006e;
        stroke-width: 0px;
      }
    </style>
  </defs>
  <path class="cls-1" d="M13,21.11h0c-.24-.3-.42-.49-.56-.59-.03-.02-.07-.05-.11-.07.14-.06.26-.12.37-.19.46-.28.83-.65,1.09-1.1.27-.45.4-.99.4-1.61,0-.71-.18-1.32-.52-1.82-.35-.5-.82-.85-1.39-1.04-.54-.17-1.32-.26-2.31-.26h-5.52v10.73h3.76v-4.1c.21,0,.39.06.55.18.07.05.23.21.48.68l1.76,3.25h4.22l-1.74-3.38c-.08-.17-.24-.39-.47-.68ZM10.31,18.2c-.09.11-.19.18-.33.2-.5.11-.69.13-.76.13h-1.01v-1.44h1.06c.65,0,.88.12.97.19.14.12.2.28.2.52,0,.15-.04.28-.13.4Z"/>
  <polygon class="cls-1" points="19.47 21.05 24.15 21.05 24.15 18.47 19.47 18.47 19.47 17.53 24.51 17.53 24.51 14.85 15.86 14.85 15.86 25.17 24.66 25.17 24.66 22.37 19.47 22.37 19.47 21.05"/>
  <path class="cls-1" d="M45.03,20.23c-.71-.9-1.61-1.56-2.61-2.08-1.42-.74-3.04-1.17-4.55-1.54-1.09-.26-2.21-.43-3.26-.8-.2-.07-.41-.16-.55-.32-.44-.51-.24-1.34.29-1.68.35-.23.78-.29,1.19-.29.38,0,.77.04,1.13.17.61.22,1.04.7,1.34,1.25.19.34.42.87.42.87l7.34-.1-.09-.53c-.3-2.43-1.26-4.24-2.85-5.38-1.02-.73-2.36-1.21-3.97-1.46V2.19h-3.57v5.98c-1.9.07-3.48.35-4.66.87-1.4.62-2.47,1.48-3.18,2.58-.71,1.1-1.07,2.28-1.07,3.53,0,1.89.71,3.85,2.11,5.07,1.32,1.16,3.51,2.09,6.52,2.77.63.14,1.26.3,1.87.5.72.24,1.93.78,1.75,1.75-.05.28-.25.51-.49.67-.96.64-2.7.46-3.62-.16-.93-.62-1.24-1.23-1.63-2.21l-.06-.2-7.32.08.06.71c.19,2.29,1.09,4.1,2.86,5.62,1.9,1.62,4.42,2.02,6.85,2.09v5.96h3.57v-6.15c1.04-.16,1.98-.41,2.79-.76,1.48-.65,2.65-1.63,3.48-2.91.83-1.28,1.35-2.68,1.25-4.22-.08-1.28-.56-2.53-1.35-3.54Z"/>
  <path class="cls-1" d="M52.94,21.15c0,.47-.12.83-.35,1.08-.24.25-.57.37-1,.37s-.77-.12-1.01-.37c-.24-.25-.35-.6-.35-1.07v-6.31h-3.6v6.17c0,.52.1,1.13.29,1.8.13.44.36.87.7,1.28.34.41.71.72,1.12.94.41.22.91.37,1.51.44.57.07,1.1.11,1.58.11.85,0,1.59-.12,2.21-.36.46-.18.9-.48,1.31-.91.41-.43.72-.94.91-1.51.19-.56.29-1.16.29-1.79v-6.17h-3.6v6.31Z"/>
  <polygon class="cls-1" points="60.86 22.18 60.86 14.85 57.25 14.85 57.25 25.17 65.55 25.17 65.55 22.18 60.86 22.18"/>
</svg>