<?xml version="1.0" encoding="UTF-8"?><svg id="Layer_1" xmlns="http://www.w3.org/2000/svg" width="6.88cm" height="2.89cm" viewBox="0 0 195 82"><path d="M129.54,59.56v-30.7c0-3.49.06-6.98,0-10.47-.09-5.44-4.97-4.85-8.62-4.85h-40.13s-7.22,0-7.22,0c-7.99,0-8.13,1.02-8.13,9.37v31.33c0,3.19-.06,6.38-.02,9.57.07,5.13,4.7,4.62,8.31,4.61h40.55s8.19,0,8.19,0c1.08,0,2.36.17,3.41-.05,4.4-.93,3.66-5.52,3.66-8.8ZM126.14,65.01c-.81.88-5.17.47-6.34.47h-47.28c-4.12.02-4.36.58-4.16-3.91.26-.36.56-.65.89-.94l14.06-14.05c5.49,4.98,10.83,10.75,16.26,15.93.69-.62,1.24-1.41,2.04-1.89-1.62-2.21-5.72-5.91-7.78-7.74.51-.58,1.09-1.1,1.65-1.64l8.76-8.69c1.56-1.55,3.1-3.11,4.74-4.56.5.29,3.7,3.62,4.33,4.25,4.44,4.45,8.9,8.89,13.26,13.41-.14,1.61.4,8.46-.44,9.36ZM126.58,22.13v29.21c-1.46-1.51-3.01-2.93-4.49-4.42l-12.36-12.46-.75-.73c-1.05.85-1.98,1.87-2.92,2.84l-10.07,10.06c-1.37,1.35-2.82,2.67-4.09,4.11-.79-.46-1.6-1.45-2.26-2.12l-3.55-3.49c-.9-.9-1.78-1.91-2.79-2.68-1.38,1.1-2.61,2.5-3.86,3.75l-7.24,7.28c-1.23,1.24-2.47,2.63-3.84,3.7V22.74c0-2.55-.97-5.91,2.13-6.25h47.85c1.55,0,6.8-.46,7.91.6.63.6.35,4.18.35,5.04Z" style="fill:#ccc;"/><path d="M89.14,22.62c-1.24-.84-3.23-1.44-4.73-1.14-6.14.94-8.09,8.7-3.09,12.26,1.24.88,3.33,1.53,4.86,1.19,6.39-1.07,8.11-8.84,2.97-12.32ZM85.64,32.05h-.06c-5.36-.03-5.58-7.18-.44-7.72,4.61-.58,5.8,7.25.49,7.72Z" style="fill:#ccc;"/></svg>